<svg id="Layer_1" data-name="Layer 1" xmlns="http://www.w3.org/2000/svg" viewBox="0 0 1100 1391.27"><defs><clipPath id="clip-path"><path class="cls-1" d="M.82 366.27H1100v1080H.82z"/></clipPath><clipPath id="clip-path-2"><path class="cls-1" d="M643.57 389.68v59.84h-81.71v3.78h81.71v59.65h-81.71v3.78h81.71v59.65h-81.71v3.77h81.71v59.65h-81.71v3.78h81.71v61.41h3.7v-61.41h81.71v-3.78h-81.71v-59.65h81.71v-3.77h-81.71v-59.65h81.71v-3.78h-81.71V453.3h81.71v-3.78h-81.71v-59.84h-3.7z"/></clipPath><clipPath id="clip-path-3"><path class="cls-1" d="M-1095 366.27h2195v1080h-2195z"/></clipPath><clipPath id="clip-path-4"><path class="cls-1" d="M905.5 389.68v59.85h-79.82a1.89 1.89 0 100 3.78h79.82V513h-79.82a1.89 1.89 0 100 3.78h79.82v59.65h-79.82a1.89 1.89 0 100 3.78h79.82v59.59h-79.82a1.89 1.89 0 100 3.78h79.82V705h3.7v-61.42h81.7v-3.78h-81.7v-59.65h81.7v-3.78h-81.7v-59.64h81.7V513h-81.7v-59.7h81.7v-3.78h-81.7v-59.84z"/></clipPath><clipPath id="clip-path-6"><path class="cls-1" d="M1085.72 643.58H1100v-3.78h-14.28zm0-63.43H1100v-3.78h-14.28zm0-63.43H1100V513h-14.28zm0-63.43H1100v-3.78h-14.28z"/></clipPath><style>.cls-1,.cls-2,.cls-6,.cls-9{fill:none}.cls-2,.cls-9{stroke:#fff}.cls-2,.cls-6{stroke-linecap:round;stroke-linejoin:round}.cls-3{fill:#fff}.cls-4{fill:#00023d}.cls-6{stroke:#00023d}.cls-8{clip-path:url(#clip-path-3)}.cls-9{stroke-miterlimit:10}</style></defs><path class="cls-2" d="M13.28 783.44h26.74v39.02H13.28zm-2.18 39.04h31.7v3.13H11.1zm5.06-28.3h23.59m-12.99 28.07v-37.22"/><path class="cls-3" d="M43.09 827.35v-1.73H11.1l31.99 1.73z"/><path class="cls-2" d="M49.24 783.44h26.74v39.02H49.24zm-2.18 39.04h31.7v3.13h-31.7zm5.05-28.3h23.6m-12.99 28.07v-37.22"/><path class="cls-3" d="M79.05 827.35v-1.73H47.06l31.99 1.73z"/><path class="cls-2" d="M117.92 783.44h26.74v39.02h-26.74zm-2.18 39.04h31.7v3.13h-31.7zm5.05-28.3h23.59m-12.98 28.07v-37.22"/><path class="cls-3" d="M147.72 827.35v-1.73h-31.98l31.98 1.73z"/><path class="cls-2" d="M153.87 783.44h26.74v39.02h-26.74zm-2.18 39.04h31.7v3.13h-31.7zm5.05-28.3h23.6m-12.99 28.07v-37.22"/><path class="cls-3" d="M183.68 827.35v-1.73h-31.99l31.99 1.73z"/><path class="cls-2" d="M219.64 783.44h26.74v39.02h-26.74zm-2.18 39.04h31.7v3.13h-31.7zm5.05-28.3h23.6m-12.99 28.07v-37.22"/><path class="cls-3" d="M249.45 827.35v-1.73h-31.99l31.99 1.73z"/><path class="cls-2" d="M13.28 878.61h26.74v39.02H13.28zm-2.18 39.04h31.7v3.14H11.1zm5.06-28.3h23.59m-12.99 28.08V880.2"/><path class="cls-3" d="M43.09 922.53v-1.74H11.1l31.99 1.74z"/><path class="cls-2" d="M49.24 878.61h26.74v39.02H49.24zm-2.18 39.04h31.7v3.14h-31.7zm5.05-28.3h23.6m-12.99 28.08V880.2"/><path class="cls-3" d="M79.05 922.53v-1.74H47.06l31.99 1.74z"/><path class="cls-2" d="M117.92 878.61h26.74v39.02h-26.74zm-2.18 39.04h31.7v3.14h-31.7zm5.05-28.3h23.59m-12.98 28.08V880.2"/><path class="cls-3" d="M147.72 922.53v-1.74h-31.98l31.98 1.74z"/><path class="cls-2" d="M153.87 878.61h26.74v39.02h-26.74zm-2.18 39.04h31.7v3.14h-31.7zm5.05-28.3h23.6m-12.99 28.08V880.2"/><path class="cls-3" d="M183.68 922.53v-1.74h-31.99l31.99 1.74z"/><path class="cls-2" d="M219.64 878.61h26.74v39.02h-26.74zm-2.18 39.04h31.7v3.14h-31.7zm5.05-28.3h23.6m-12.99 28.08V880.2"/><path class="cls-3" d="M249.45 922.53v-1.74h-31.99l31.99 1.74z"/><path class="cls-2" d="M13.28 968.65h26.74v39.02H13.28zm-2.18 39.04h31.7v3.13H11.1zm5.06-28.31h23.59m-12.99 28.08v-37.22"/><path class="cls-3" d="M43.09 1012.56v-1.74H11.1l31.99 1.74z"/><path class="cls-2" d="M49.24 968.65h26.74v39.02H49.24zm-2.18 39.04h31.7v3.13h-31.7zm5.05-28.31h23.6m-12.99 28.08v-37.22"/><path class="cls-3" d="M79.05 1012.56v-1.74H47.06l31.99 1.74z"/><path class="cls-2" d="M117.92 968.65h26.74v39.02h-26.74zm-2.18 39.04h31.7v3.13h-31.7zm5.05-28.31h23.59m-12.98 28.08v-37.22"/><path class="cls-3" d="M147.72 1012.56v-1.74h-31.98l31.98 1.74z"/><path class="cls-2" d="M153.87 968.65h26.74v39.02h-26.74zm-2.18 39.04h31.7v3.13h-31.7zm5.05-28.31h23.6m-12.99 28.08v-37.22"/><path class="cls-3" d="M183.68 1012.56v-1.74h-31.99l31.99 1.74z"/><path class="cls-2" d="M219.64 968.65h26.74v39.02h-26.74zm-2.18 39.04h31.7v3.13h-31.7zm5.05-28.31h23.6m-12.99 28.08v-37.22"/><path class="cls-3" d="M249.45 1012.56v-1.74h-31.99l31.99 1.74z"/><path class="cls-4" d="M201.45 778.03h19.45v237.52h-19.45zm-194.48 0H52.9v237.52H6.97z"/><g clip-path="url(#clip-path)"><path class="cls-4" d="M561.42 705.27h9.43s25.51-97.18 25.51-204.71V389.61h-34.94z"/><path class="cls-3" d="M993.19 1080.49l-67.41-214.11-55.22.26-158.24 412.79h280.87v-198.94zm3.35 198.94h57.87l-57.87-184.53v184.53z"/><path class="cls-4" d="M674.28 1256.12h101.63v2.47H674.28zm321.93 0h101.63v2.47H996.21zM786.85 919.24h9.5v359.84h-9.5z"/><path class="cls-4" d="M786.85 919.03h193.94v9.42H786.85z"/><path class="cls-3" d="M465.42 509.66s-21.94-26.41-54.62-31.79-62.68 37.61-93.12 22.39-35.37-52.38-65.81-77.9-71.63 34-130.28 21.94-55.52-50.14-84.17-63.12-35.37-1.79-35.37-1.79l-.45 76.08 267.72.48v17h-6.27v192.6h25.07l44.77-35v-74.77l-6.27-.45v-38.06h140.15z"/><path class="cls-3" d="M324.4 440.72c1.41.08 81 0 99.83 0s13.43-23.28-1.34-28.2-11.19 13-37.16 18.8-20.59-3.13-33.58-5.37c-22.06-3.8-51.48 13.43-27.76 14.77m405.22 264.55h-9.43s-25.51-97.18-25.51-204.71V389.61h34.94z"/><path class="cls-2" d="M527.3 705.67h225.19v17.94H527.3z"/><path class="cls-3" d="M752.49 723.61H527.3l225.19 10.96v-10.96z"/><path class="cls-2" d="M372.13 762.01h983.5v35.88h-983.5zM926.76 866a29.54 29.54 0 00-58.64 0zm-139.91 220.04v-166.8h194.22v136.45"/><path class="cls-6" d="M981.07 1042.01v237.07H786.85v-193.04"/><path class="cls-2" d="M941.86 908.69h50.81v176.27"/><path class="cls-6" d="M849.17 908.69h92.69"/><path class="cls-2" d="M775.24 1114.7V908.69h73.93"/><path class="cls-4" d="M553.47 389.08h7.78V705.5h-7.78z"/><path class="cls-2" d="M553.47 389.08h175.98V705.5H553.47z"/><path class="cls-2" d="M543.95 379.81H738.5v325.7H543.95zm464.7 643.08h22.08v29.57h-22.08z"/><path class="cls-3" d="M1026.73 1031.48h-14.25a.68.68 0 01-.68-.68v-2.88a.68.68 0 01.68-.68h14.25a.68.68 0 01.68.68v2.88a.68.68 0 01-.68.68m-12.73 5.77h-.65a1.58 1.58 0 010-3.15h.65a1.58 1.58 0 010 3.15m0 5.06h-.65a1.58 1.58 0 010-3.15h.65a1.58 1.58 0 010 3.15m0 5.05h-.65a1.58 1.58 0 010-3.15h.65a1.58 1.58 0 010 3.15m6-10.11h-.65a1.58 1.58 0 110-3.15h.65a1.58 1.58 0 010 3.15m0 5.06h-.65a1.58 1.58 0 110-3.15h.65a1.58 1.58 0 010 3.15m0 5.05h-.65a1.58 1.58 0 110-3.15h.65a1.58 1.58 0 010 3.15m5.89-10.11h-.65a1.58 1.58 0 010-3.15h.65a1.58 1.58 0 010 3.15m0 5.06h-.65a1.58 1.58 0 010-3.15h.65a1.58 1.58 0 010 3.15m0 5.05h-.65a1.58 1.58 0 010-3.15h.65a1.58 1.58 0 010 3.15"/><path class="cls-4" d="M814.21 1121.44h-3.82a5.82 5.82 0 01-5.81-5.81v-41.14a5.82 5.82 0 015.81-5.81h3.82a2.33 2.33 0 010 4.66h-3.82a1.16 1.16 0 00-1.16 1.15v41.14a1.16 1.16 0 001.16 1.15h3.82a2.33 2.33 0 010 4.66"/><path class="cls-4" d="M811.81 1068.4v-2.4a1 1 0 011-1h6.27a1 1 0 011 1v57.73a1 1 0 01-1 1h-6.27a1 1 0 01-1-1v-2.25"/><path class="cls-2" d="M814.21 1121.44h-3.82a5.82 5.82 0 01-5.81-5.81v-41.14a5.82 5.82 0 015.81-5.81h3.82a2.33 2.33 0 010 4.66h-3.82a1.16 1.16 0 00-1.16 1.15v41.14a1.16 1.16 0 001.16 1.15h3.82a2.33 2.33 0 010 4.66z"/><path class="cls-2" d="M811.81 1068.4v-2.4a1 1 0 011-1h6.27a1 1 0 011 1v57.73a1 1 0 01-1 1h-6.27a1 1 0 01-1-1v-2.25m0-5.28v-42.84m256.81 71.21h-.15a1.51 1.51 0 01-1.4-1.51 1.5 1.5 0 01.06-.44c.28-1.61 2.36-16.81 5.63-41a8.38 8.38 0 00-15.89-4.67l-2.5 5.33a1.5 1.5 0 11-2.72-1.27l2.5-5.33a11.38 11.38 0 0121.58 6.34c-1 7.45-2.4 17.76-3.56 26.2-.58 4.23-1.1 8-1.48 10.69-.19 1.36-.35 2.45-.46 3.2-.23 1.32-.35 2.46-1.61 2.46zm1.45-1.52z"/><path class="cls-3" d="M1072.07 1185.85l12.3-57.85-7.53 4.27-3.26-6.02-6.27 5.27-2.26-6.53-4.76 6.78-4.27-5.27-.81 59.35h16.86zm-6.64-93.65a8.37 8.37 0 017.32 9.43c-.82 6.09-1.57 11.61-2.23 16.49h3c.78-5.71 1.55-11.45 2.18-16.09a11.38 11.38 0 00-21.58-6.34l-2.5 5.33a1.5 1.5 0 102.72 1.27l2.5-5.33a8.39 8.39 0 018.57-4.77"/><path class="cls-4" d="M1038.8 1185.71h36.99v93.37h-36.99z"/><path class="cls-2" d="M1038.8 1185.71h36.99v93.37h-36.99zm14.47 5h22.32m-22.32 83.52h22.32m-29.6-83.52h-2.51m2.51 83.52h-2.51m-539.73 5.58h766.56v6.47H503.75zm-72.9 35.2h786.56v6.47H430.85zm-72.9 35.19h786.56v6.47H357.95z"/><path class="cls-3" d="M1103.31 1286.02l-578.6-6.47h578.6v6.47zm-1.58 35.2l-670.88-6.47h670.88v6.47zm.1 35.19l-743.88-6.47h743.88v6.47z"/><path class="cls-4" d="M890.13 866.89a5.75 5.75 0 0011.43 0"/><path class="cls-2" d="M901 840.11v-9.5h-7.12v9.5m2.42-42.01h2.61v32.38h-2.61z"/><path class="cls-3" d="M728.98 453.3v-3.78h-81.71v-59.84h-3.7v59.84h-81.71v3.78h81.71v59.65h-81.71v3.78h81.71v59.65h-81.71v3.77h81.71v59.65h-81.71v3.78h81.71v61.41h3.7v-61.41h81.71v-3.78h-81.71v-59.65h81.71v-3.77h-81.71v-59.65h81.71v-3.78h-81.71V453.3h81.71z"/><path class="cls-2" d="M364.65 1389.81v-33.19m146.48-43.03v-27.33m-74.68 63.48v-27.33M898 840.11z"/><path class="cls-3" d="M396.22 759.91l1.54-1.14a.9.9 0 011.2.12l.8.87c.29-.61.85-1.8 1.42-3 .48-1 .88-1.78 1.18-2.35.55-1.05.81-1.54 1.44-1.54a.9.9 0 01.59 1.57c-.33.5-1.5 2.86-2.65 5.29h.7a.9.9 0 010 1.8h-3.19a.9.9 0 01-.84-.59l-.24-.27-.89.66a.9.9 0 11-1.07-1.44"/><path class="cls-3" d="M402 759.91l1.54-1.14a.9.9 0 011.2.12l.8.87c.29-.61.85-1.8 1.42-3 .48-1 .88-1.78 1.18-2.35.56-1.05.81-1.54 1.44-1.54a.9.9 0 01.59 1.57c-.33.5-1.5 2.86-2.65 5.29h.7a.9.9 0 110 1.8h-3.19a.89.89 0 01-.84-.59l-.24-.27-.89.66a.9.9 0 01-1.26-.18.9.9 0 01.19-1.26m-4.99-9.63c0 2.52 2.79 4.56 6.24 4.56s6.24-2 6.24-4.56-2.79-4.56-6.24-4.56-6.24 2-6.24 4.56"/><path class="cls-3" d="M401.29 750.26c0 2.52 2.79 4.56 6.24 4.56s6.24-2 6.24-4.56-2.79-4.56-6.24-4.56-6.24 2-6.24 4.56"/><path class="cls-3" d="M387.22 729.75a50.76 50.76 0 019-11 7.13 7.13 0 1110.38-6.35v15.16l12.78 12.78 13.94 1.55a2.33 2.33 0 01-.05 4.65l3.42 1.35a2.33 2.33 0 11-1.71 4.34l-3.62-1.42a2.33 2.33 0 01-3.17 3.42l-8.93-7.5a23.24 23.24 0 01-15.26 5.51c-12.58 0-21.2-15.06-16.74-22.49"/><path class="cls-3" d="M393.95 714.69l-5.54-2.18 5.35-1.88.19 4.06z"/><path class="cls-4" d="M391.52 723.73a51.38 51.38 0 014.74-5 7.13 7.13 0 1110.38-6.35v11.32z"/><path class="cls-3" d="M396.26 712.44a.85.85 0 10.85-.85.86.86 0 00-.85.85"/><path class="cls-4" d="M420.51 745.24c-8.32 3.47-17.26 1.05-19.95-5.4-1.43-3.43-.81-7.31 1.34-10.71a4.28 4.28 0 017-.29c4.38 5.75 11.55 9.28 19.78 10.13a19.47 19.47 0 01-8.19 6.27"/><path class="cls-2" d="M391.52 723.73a51.38 51.38 0 014.74-5 7.13 7.13 0 1110.38-6.35v11.32zm28.99 21.51c-8.32 3.47-17.26 1.05-19.95-5.4-1.43-3.43-.81-7.31 1.34-10.71a4.28 4.28 0 017-.29c4.38 5.75 11.55 9.28 19.78 10.13a19.47 19.47 0 01-8.17 6.27zM394 1044.13h-35.28V797.52a69 69 0 10-138.07 0v246.61h-29.83V797.52a69 69 0 10-138.07 0v246.61H4.66"/><path class="cls-3" d="M190.88 809.93a69 69 0 00-138.07 0v-12.41a69 69 0 01138.07 0v12.41m167.9 0a69 69 0 00-138.07 0v-12.41a69 69 0 01138.07 0v12.41"/><path class="cls-2" d="M.66 679.3h464.51M.66 665.98h464.51m-279.41 378.15h39.77v42.71h-39.77zm209.44 42.71h-43.74v-42.71h43.74m-392.07 0h53.75v42.71H3.13M16.21 679.3l1.18 9.2h4.49l2.12-9.2m24.58 0l1.18 9.2h4.48l2.13-9.2m24.57 0l1.18 9.2h4.48l2.13-9.2m24.57 0l1.18 9.2h4.48l2.13-9.2m24.57 0l1.18 9.2h4.48l2.13-9.2m24.57 0l1.18 9.2h4.48l2.13-9.2m24.57 0l1.18 9.2h4.49l2.12-9.2m24.57 0l1.18 9.2h4.49l2.12-9.2m24.57 0l1.18 9.2h4.49l2.12-9.2m24.57 0l1.18 9.2h4.49l2.12-9.2m24.57 0l1.18 9.2h4.49l2.13-9.2m24.57 0l1.18 9.2h4.48l2.13-9.2m24.57 0l1.18 9.2h4.48l2.13-9.2m24.57 0l1.18 9.2h4.48l2.13-9.2"/><path class="cls-3" d="M467.54 667.2a2.38 2.38 0 01-1.28-.77 2.46 2.46 0 01-.43-.61 1.56 1.56 0 01-.16-.67H1.48v4.61H468v-2.55a1.74 1.74 0 01-.41 0"/><path class="cls-2" d="M1.67 1087.13h392.65M1.67 1166.58h392.65m-392.65 9.69h392.65m25.56-9.69h44.19m-44.19 9.69h44.17M1.65 455.72h267.49v17.14H1.17m261.95 192.15V472.24m-.04 550.88l.04-283.25m-42.26 284.37h53.45v62.63m-83.72-63.8H53.17m235.17-358.01l176.28-132.41M304.07 665.67l160.55-120.61m-131.59 84.42v-72.83m98.8-.83H326.41v-38.07H464.1"/><path class="cls-3" d="M422.49 608.38a20.9 20.9 0 1020.89 20.9 20.89 20.89 0 00-20.89-20.9m-1.32 37.94a17.1 17.1 0 010-34.09zm2.56-34.1a17.11 17.11 0 0114.77 11h-14.77zm0 34.11v-20.5h15.51a17.1 17.1 0 01-15.51 20.5m-93.82 480.81h59.19l5-4.52h-59.19l-5 4.52zm135.51-4.52h-11.61l-5 4.52h16.61v-4.52zm-243.03 4.52h59.19l5-4.52h-59.2l-4.99 4.52zm-107.53 0h59.2l4.99-4.52h-59.19l-5 4.52zm-107.52 0h59.19l5-4.52H12.34l-5 4.52zm364.79-364.79h983.5v17.97h-983.5z"/><path class="cls-6" d="M992.67 1084.75v194.33H775.24v-162.69"/></g><g clip-path="url(#clip-path-2)"><path class="cls-4" d="M499.77 705.27h9.43s25.51-97.18 25.51-204.71V389.61h-34.94zm228.23 0h-9.43S693 608.08 693 500.56V389.61h35z"/></g><g class="cls-8"><path class="cls-6" d="M724.48 697.75s-18.62-121.24-18.21-197.38m11.59 45.11V432.51"/><path class="cls-9" d="M568.48 675.41s13.24-67 15.31-122.07m.83-73.65v-58.35m-12.41 67.04s5.79 61.24-3.73 110.9"/><path class="cls-3" d="M991.54 705.27h-72.3s-25.51-97.18-25.51-204.71V389.61h97.81z"/><path class="cls-2" d="M789.23 705.67h225.19v17.94H789.23z"/><path class="cls-3" d="M1014.42 723.61H789.23l225.19 10.96v-10.96z"/><path class="cls-2" d="M815.4 389.08h175.98V705.5H815.4z"/><path class="cls-2" d="M805.89 379.81h194.55v325.7H805.89z"/><path class="cls-3" d="M990.91 453.3v-3.78H909.2v-59.84h-3.7v59.84h-79.82a1.89 1.89 0 000 3.78h79.82V513h-79.82a1.89 1.89 0 000 3.78h79.82v59.65h-79.82a1.89 1.89 0 000 3.78h79.82v59.59h-79.82a1.89 1.89 0 000 3.78h79.82V705h3.7v-61.42h81.7v-3.78h-81.7v-59.65h81.7v-3.78h-81.7v-59.64h81.7V513h-81.7v-59.7z"/></g><g clip-path="url(#clip-path-4)"><path class="cls-4" d="M989.88 705.27h-70.51s-25.51-97.18-25.51-204.71V389.61h96z"/></g><g class="cls-8"><path class="cls-6" d="M975.78 697.75s-18.62-121.24-18.21-197.38m22.22 45.11V432.51"/><path class="cls-3" d="M1085.29 705.27h9.43s25.51-97.18 25.51-204.71V389.61h-34.94z"/><path class="cls-2" d="M1051.16 705.67h225.19v17.94h-225.19z"/><path class="cls-3" d="M1276.36 723.61h-225.2l225.2 10.96v-10.96z"/><path class="cls-4" d="M1077.33 389.08h7.78V705.5h-7.78z"/><path class="cls-2" d="M1077.33 389.08h175.98V705.5h-175.98z"/><path class="cls-2" d="M1067.82 379.81h194.55v325.7h-194.55z"/><path class="cls-3" d="M1252.84 453.3v-3.78h-81.71v-59.84h-3.7v59.84h-81.71v3.78h81.71v59.65h-81.71v3.78h81.71v59.65h-81.71v3.77h81.71v59.65h-81.71v3.78h81.71v61.41h3.7v-61.41h81.71v-3.78h-81.71v-59.65h81.71v-3.77h-81.71v-59.65h81.71v-3.78h-81.71V453.3h81.71z"/></g><g clip-path="url(#clip-path-6)"><path class="cls-4" d="M1085.29 705.27h9.43s25.51-97.18 25.51-204.71V389.61h-34.94z"/></g><path class="cls-6" d="M1092.34 675.41s13.24-67 15.31-122.07m-11.58-64.96s5.79 61.24-3.73 110.9m-120.66 670.59H803.74M971.68 935.7H803.74m129.75-519.76s-3.94 99.82 3.44 132.77m15.24 122.93l1.48 11.31"/><path class="cls-3" d="M833.53 682.78h19.91v22.75h-19.91z"/><path class="cls-2" d="M853.69 702.55a11.37 11.37 0 01-1.92-.17l.61-3.6c3.91.66 6.41-1.72 7.43-7.07a2.93 2.93 0 00-4.87-2.64l-3.33 3.08-2.48-2.69 3.33-3.08a6.58 6.58 0 0110.94 6c-1.24 6.56-4.73 10.17-9.71 10.17z"/><path class="cls-3" d="M16.27 1086.39H15c-.85-4.23-3.16-14.48-6.72-21l-.27.15-.27.15c3.49 6.41 5.77 16.47 6.63 20.74h-.84a4.7 4.7 0 00-1.58-2.23c-1.59-1-3.67-2.09-2.75-3.93s2.34-2.25.41-4-5.84-3.09-4.34-5.18 2.67-2.5 2-3.92-4.59-4.85-2.42-7.26 5.34 1.59 5.84 5.76.92 2.17 3.17 4.76.33 4.59.84 7.1 2.58 1.17 2.92 4.34c.28 2.63-1.33 2.63-1.38 4.57m9.76-7.29c.16 3.43-1.34 3.17-3.17 4.59a3.2 3.2 0 00-1.23 2.65h-.69c.47-5.2 3.65-15.09 3.69-15.2h-.09l-.21-.08-.3-.11c-.14.45-3.27 10.14-3.72 15.39h-.78a3.69 3.69 0 00.15-2.57c-.5-1.75-1.59-2.92-.84-4.76s3.51-1.84 2.59-4.35-1.75-4.51 1.42-5.92.83-3.34 2.84-4.34 1.67 2.75.25 7-.08 4.26.09 7.68m-17.3 7.26h-.86l-.19-.59a1 1 0 000-.13c0-.12-.08-.24-.12-.37a38.06 38.06 0 00-2.36-5.44c-.3-.62-.52-1-.55-1.1h-.07v-.05l-.15.15-.4.14a57 57 0 013.17 7.36h-.81l-.48-.56c-2.17-2.5-3.92-3.59-2.42-4s.5-1.59-1.83-5.26-.92-5.76.5-4.35 0 2.92 1.42 4.09 2-.25 3.42 3.34a31.8 31.8 0 011.74 6.74m21.88-2.12a12.32 12.32 0 00-2.37 2.15h-.74c.54-2.28 1.62-5.49 1.64-5.53l-.29-.1-.29-.1c-.06.18-1.16 3.42-1.68 5.73h-.48a59.87 59.87 0 011.56-7.33c1-3.26 3-5.1 3.51-2.93s-2.92 3.26-1.17 4.59 2.5 1.75.34 3.51m57.03-17.93h10.38v5.78H87.65zm11.59 0h10.38v5.78H99.24zm-11.59-6.67h10.38v5.47H87.65zm-11.42 0h10.21v5.47H76.23zm0 6.67h10.21v5.78H76.23zm-8.1 0h6.89v5.78h-6.89zm58.74-6.67h-4.37v5.47h6.58v-3.26a2.2 2.2 0 00-2.2-2.2m-15.97 6.66h10.22v5.78h-10.22zm-11.67-6.67h10.38v5.47H99.24zM75 1073.36h-6.87v3.37a2.2 2.2 0 002.2 2.2H75zm0-13.73h-4.66a2.2 2.2 0 00-2.2 2.2v3.26H75zm47.5 6.67h6.58v5.78h-6.58zm0 7.06v5.57h4.38a2.2 2.2 0 002.2-2.2v-3.37zm-11.59-13.73h10.22v5.47h-10.22zm-23.26 13.73h10.38v5.57H87.65zm23.26 0h10.22v5.57h-10.22zm-34.68 0h10.21v5.57H76.23zm23.01 0h10.38v5.57H99.24zm125.99-7.06h7.7v5.78h-7.7zm8.91 0h10.38v5.78h-10.38zm-8.91-6.67h7.7v5.47h-7.7zm36.54 0h-4.38v5.47H264v-3.26a2.2 2.2 0 00-2.2-2.2m-15.99 6.66h10.22v5.78h-10.22zm-11.67-6.67h10.38v5.47h-10.38zm23.25 6.67h6.58v5.78h-6.58zm0 7.06v5.57h4.38a2.2 2.2 0 002.2-2.2v-3.37zm-11.58-13.73h10.22v5.47h-10.22zm-20.58 13.73h7.7v5.57h-7.7zm20.58 0h10.22v5.57h-10.22zm-11.67 0h10.38v5.57h-10.38z"/><path class="cls-2" d="M13.28 516.39h26.74v39.02H13.28zm-2.18 39.04h31.7v3.13H11.1zm5.06-28.31h23.59M26.76 555.2v-37.22"/><path class="cls-3" d="M43.09 560.3v-1.74H11.1l31.99 1.74z"/><path class="cls-2" d="M49.24 516.39h26.74v39.02H49.24zm-2.18 39.04h31.7v3.13h-31.7zm5.05-28.31h23.6M62.72 555.2v-37.22"/><path class="cls-3" d="M79.05 560.3v-1.74H47.06l31.99 1.74z"/><path class="cls-2" d="M117.92 516.39h26.74v39.02h-26.74zm-2.18 39.04h31.7v3.13h-31.7zm5.05-28.31h23.59M131.4 555.2v-37.22"/><path class="cls-3" d="M147.72 560.3v-1.74h-31.98l31.98 1.74z"/><path class="cls-2" d="M153.87 516.39h26.74v39.02h-26.74zm-2.18 39.04h31.7v3.13h-31.7zm5.05-28.31h23.6m-12.99 28.08v-37.22"/><path class="cls-3" d="M183.68 560.3v-1.74h-31.99l31.99 1.74z"/><path class="cls-2" d="M219.64 516.39h26.74v39.02h-26.74zm-2.18 39.04h31.7v3.13h-31.7zm5.05-28.31h23.6m-12.99 28.08v-37.22"/><path class="cls-3" d="M249.45 560.3v-1.74h-31.99l31.99 1.74z"/><path class="cls-2" d="M13.28 596.66h26.74v39.02H13.28zM11.1 635.7h31.7v3.13H11.1zm5.06-28.3h23.59m-12.99 28.08v-37.23"/><path class="cls-3" d="M43.09 640.58v-1.74H11.1l31.99 1.74z"/><path class="cls-2" d="M49.24 596.66h26.74v39.02H49.24zm-2.18 39.04h31.7v3.13h-31.7zm5.05-28.3h23.6m-12.99 28.08v-37.23"/><path class="cls-3" d="M79.05 640.58v-1.74H47.06l31.99 1.74z"/><path class="cls-2" d="M117.92 596.66h26.74v39.02h-26.74zm-2.18 39.04h31.7v3.13h-31.7zm5.05-28.3h23.59m-12.98 28.08v-37.23"/><path class="cls-3" d="M147.72 640.58v-1.74h-31.98l31.98 1.74z"/><path class="cls-2" d="M153.87 596.66h26.74v39.02h-26.74zm-2.18 39.04h31.7v3.13h-31.7zm5.05-28.3h23.6m-12.99 28.08v-37.23"/><path class="cls-3" d="M183.68 640.58v-1.74h-31.99l31.99 1.74z"/><path class="cls-2" d="M219.64 596.66h26.74v39.02h-26.74zm-2.18 39.04h31.7v3.13h-31.7zm5.05-28.3h23.6m-12.99 28.08v-37.23"/><path class="cls-3" d="M249.45 640.58v-1.74h-31.99l31.99 1.74z"/><path class="cls-2" d="M287.52 1085.22v-21.39a2.82 2.82 0 115.65 0V1086m16.18-136.31A19.31 19.31 0 00290 969v91"/><path class="cls-2" d="M333 951.6h-24a3.79 3.79 0 013.8-3.79h16.4a3.8 3.8 0 013.8 3.79z"/><path class="cls-3" d="M1.73 478.58l261.34-5.63H1.73v5.63zm331.03 83.7l99.69-6.02h-99.69v6.02z"/><path class="cls-2" d="M420.48 1087.75h44.97"/><path class="cls-3" d="M562.62 938v-5.9h-10.07v-1.9l9.67-13.84h3.17v13.48h3v2.3h-3V938zm0-8.21v-7.19q0-1.7.1-3.4h-.1c-.67 1.27-1.2 2.2-1.8 3.2l-5.3 7.37v.07zm22.11-13.43v1.93l-9.44 19.75h-3.03l9.4-19.18v-.07h-10.6v-2.43h13.67z"/><path class="cls-4" d="M499.66 1256.12h178.63v2.47H499.66z"/><path class="cls-2" d="M465.26 772.65V7.27m0 1226.62V797.48m0 516.96v-83.86"/><rect class="cls-2" x="540.31" y="900.06" width="54.69" height="54.69" rx="13.07" ry="13.07"/><rect class="cls-2" x="545.31" y="905.06" width="44.69" height="44.69" rx="8.07" ry="8.07"/><path class="cls-9" d="M596.36 389.61V550c0 37.65-16.39 139.75-25.51 155.29"/><g class="cls-8"><rect class="cls-6" x="467.37" y="1223.1" width="30.85" height="15.55" rx="2.07" ry="2.07"/><rect class="cls-6" x="467.37" y="1204.7" width="18.41" height="15.55" rx="2.07" ry="2.07"/><path class="cls-6" d="M470.29 1220.39v2.32m0 16.13v2.32"/><rect class="cls-6" x="467.37" y="1186.43" width="30.85" height="15.56" rx="2.07" ry="2.07"/><rect class="cls-6" x="467.37" y="1168.03" width="18.41" height="15.55" rx="2.07" ry="2.07"/><path class="cls-6" d="M470.29 1183.72v2.32m0 16.13v2.33m-.84-54.73h26.7a2.07 2.07 0 012.07 2.07v11.41a2.08 2.08 0 01-2.08 2.08h-26.7a2.07 2.07 0 01-2.07-2.07v-11.41a2.07 2.07 0 012.08-2.08z"/><rect class="cls-6" x="467.37" y="1131.36" width="18.41" height="15.56" rx="2.07" ry="2.07"/><path class="cls-6" d="M470.29 1147.05v2.32m0 16.14v2.32"/><rect class="cls-6" x="467.37" y="1113.1" width="30.85" height="15.55" rx="2.07" ry="2.07"/><path class="cls-6" d="M469.45 1094.7h14.26a2.07 2.07 0 012.07 2.07v11.41a2.08 2.08 0 01-2.08 2.08h-14.25a2.07 2.07 0 01-2.07-2.07v-11.41a2.07 2.07 0 012.07-2.08zm.84 15.69v2.32m0 16.13v2.32m-.84-54.72h26.7a2.07 2.07 0 012.07 2.07v11.41a2.08 2.08 0 01-2.08 2.08h-26.7a2.07 2.07 0 01-2.07-2.07v-11.41a2.07 2.07 0 012.08-2.08zm16.33-19.59v14.66a2.07 2.07 0 01-2.07 2.07h-14.26a2.07 2.07 0 01-2.07-2.07v-7.35m2.91 9.56v2.32m0 16.13v2.33"/></g><g class="cls-8"><path class="cls-3" d="M338.88 1041.72c-.13.13 1.63 6.48 2.19 6.77a3.34 3.34 0 003.4-.34c1-1 1.53-4.77 1.53-4.77s-.08-5.49-.21-5.23-3.26 5.53-3.26 5.53l-1-3z"/><path class="cls-3" d="M341.24 1041.85l.13-1.33-.26-1.71-1.54-1.12-1.24.73a4.56 4.56 0 000 1.07s.86.13.81.3a1.55 1.55 0 00.3 1.67 1.75 1.75 0 001.84.39m-4.59 44.55a.15.15 0 00.1.23c.54.06 1.92.2 2.82.2h5.18a11 11 0 00-.15-1.48 3.24 3.24 0 00-.57-1.05 6.58 6.58 0 00-2.78-.3c-.84.3-2.93 1.61-3.66 1.75a1.52 1.52 0 00-.94.65m11.83.52s2-1.32 2.28-2.43 1.26-4.14 1.46-4.79a.15.15 0 00-.07-.17 4.39 4.39 0 00-1.44-.54 3.26 3.26 0 00-1.16.3s-1.37 1.3-1.28 2.18.74 3.47.33 4.08a1.64 1.64 0 00-.12 1.36"/><path class="cls-3" d="M343.47 1053l-.17.69a8.16 8.16 0 00-1.67 3.22c-.51 2-.17 20.45-.17 20.75s-.69 2.74-.69 2.74l.64 1.29-.86 2.14a7.56 7.56 0 002.57 1.37c1.07.17 2-1.67 1.72-2.19s-.47-1.5-.21-1.63 0-1.37.13-2.66 2-14.92 2.23-16.08 1.76-7.67 1.63-7.8-5.15-1.84-5.15-1.84"/><path class="cls-3" d="M346.81 1055.1s-3.22 4.42-5 7.63a68.05 68.05 0 00-3.34 6.39c-.17.6.86 1.76 1.46 2.4s4.46 5.27 5.32 6 1.37 1.46 1.33 1.93 1 1.71 1 1.71a21.27 21.27 0 012.49-1.37 1 1 0 00.69-.77l-.17-1.54a6.92 6.92 0 01-1-.6c-.09-.13 0-1.16-.34-1.54a9.6 9.6 0 01-1.71-1.67 44.58 44.58 0 00-2.79-3.56c-.69-.69-1.33-1.24-1.33-1.24s4.89-6.95 6.13-8.06a9.68 9.68 0 002.19-3.73 3.54 3.54 0 00-.17-2l-7.63-1.8z"/><path class="cls-4" d="M348.82 1057.37l-1.71 1.72-.64-2.92.38-.77 1.97 1.97z"/><path class="cls-3" d="M349.51 1057.16l-.47.56-2.44-2.28.21-.34 2.7 2.06z"/><path class="cls-3" d="M351.91 1037.43a4 4 0 00-2.1 3.77c.3 2.23 1.37 6.9 1.37 6.9l-4.37 7 2.91 2.23s4.76-6 5.19-7.55.39-8.53-.17-10.16-1.2-2.45-2.83-2.19"/><path class="cls-3" d="M349.81 1059.39a27.75 27.75 0 003.26-.13c0-.13.69-7.5.64-9.56s.09-12-.73-12.26a13.17 13.17 0 01-2.32-1.46l.21-1.59-4.46 3.47-.81-.73.13 1.93s-1.76 9.26-2.32 11.06a23.35 23.35 0 00-.73 4.37 2.18 2.18 0 00.6-.82 1.35 1.35 0 00.17-.69l5.15 1.84zm-2.68-21.69"/><path class="cls-3" d="M350.41 1035.08s-3 2.33-3.29 2.63a7.42 7.42 0 00-.57-1.13s-.77.39-1.16-.21-.77-1.33-.77-1.33a1.33 1.33 0 01-.6-.13c-.11-.08-.06-.71-.12-1.26a1.41 1.41 0 00-.22-.71c-.35-.5 0-1.83 0-2 .81-1.93 4.84-1.37 5-1.2s.86 4.16.94 4.63.77.73.77.73"/><path class="cls-3" d="M341.36 1032.8s2.06 0 5-.13 4.59-.94 4.93-1.33-2.06-.56-2.06-.56-.69-1.46-.9-1.93a1.2 1.2 0 00-1.67-.3c-.47.43-.81.81-1.37.64s-1.11-.51-1.33 0-.43 3-.6 3-2.06.3-2 .6"/><path class="cls-4" d="M347.88 1032.63a18.94 18.94 0 01-4 1 1.39 1.39 0 00-.23-.71l-.11-.18z"/><path d="M350.51 1059.55c-.16 0-2.2-.24-2.2-.24l-.08-1.79" stroke-miterlimit="10" stroke="#00023d" fill="none"/><path class="cls-4" d="M345.22 1077.48s-4.07-4.59-4.15-4.51a2.79 2.79 0 00.41 1.3c.24.41 3.5 6.27 3.5 6.27z"/><path class="cls-3" d="M336.32 1036.16s2.93-12.39-5.56-13c-5-.34-10.1-2.25-10.76-7.18-1-7.5 4.13-10.62 4.13-10.62s-5.2 10.74 5.27 12.18c12.23 1.69 6.93 18.58 6.93 18.58m1.14 1.66l.12-.35 2.85.88-.12.35-2.85-.88z"/><path d="M337.69 1037.48a.24.24 0 11-.32-.14.24.24 0 01.32.14" fill="#ff486f"/></g><g class="cls-8"><path class="cls-3" d="M896.48 1018.85a4.06 4.06 0 114.06-4.06 4.07 4.07 0 01-4.06 4.06m0-8a3.95 3.95 0 103.95 3.95 4 4 0 00-3.95-3.95"/></g><g class="cls-8"><path class="cls-3" d="M861.84 554.18s-3.15 3.74-7 3.74-7-3.74-7-3.74 3.15-3.74 7-3.74 7 3.74 7 3.74"/><path class="cls-4" d="M857 554.71a3.27 3.27 0 11-3.27-3.27 3.27 3.27 0 013.27 3.27"/><path class="cls-3" d="M856.86 553.71a1.15 1.15 0 11-1.15-1.15 1.15 1.15 0 011.15 1.15m30.26.47s-3.15 3.74-7 3.74-7-3.74-7-3.74 3.15-3.74 7-3.74 7 3.74 7 3.74"/><path class="cls-4" d="M882.32 554.71a3.27 3.27 0 11-3.27-3.27 3.27 3.27 0 013.27 3.27"/><path class="cls-3" d="M882.13 553.71a1.15 1.15 0 11-1.15-1.15 1.15 1.15 0 011.15 1.15"/></g></svg>