<svg viewBox="0 0 330 450" xmlns="http://www.w3.org/2000/svg" fill-rule="evenodd" clip-rule="evenodd" stroke-linecap="round" stroke-linejoin="round"><path id="ee-background" fill="#00023d" d="M0 0h330v450H0z"/><path d="M243.921 232.051L188.527 56.108l-45.376.214L13.119 395.528h230.802V232.051zm2.753 163.477h47.554l-47.554-151.636v151.636z" fill="#fff" fill-rule="nonzero"/><path fill="#00023d" d="M19.51 376.373h45.863v2.03H19.51zm226.892 0h83.513v2.03h-83.513zm-172.039-277h159.368v7.741H74.363z"/><path d="M189.333 55.796c-1.487-12.113-11.89-21.317-24.094-21.317s-22.607 9.204-24.093 21.317h48.187z" fill="none" stroke="#fff" stroke-width=".82"/><path fill="#00023d" d="M74.363 99.546h7.807v295.695h-7.807z"/><path d="M74.363 236.612V99.546h159.598v112.126" fill="none" stroke="#fff" stroke-width=".82"/><path d="M233.961 200.431V395.24H74.363V236.612m51.211-145.736h73.925" fill="none" stroke="#00023d" stroke-width=".82"/><path d="M199.853 90.876h43.64v144.848M64.822 260.163V90.876h64.727m127.076 93.843h18.144v24.299h-18.144z" fill="none" stroke="#fff" stroke-width=".82"/><path d="M271.482 191.778h-11.71a.563.563 0 01-.559-.559v-2.367c0-.306.253-.559.559-.559h11.71c.306 0 .559.253.559.559v2.367a.563.563 0 01-.559.559m-10.461 4.741h-.534a1.303 1.303 0 01-1.195-1.294c0-.674.524-1.241 1.195-1.294h.534c.671.053 1.195.62 1.195 1.294 0 .673-.524 1.241-1.195 1.294m0 4.158h-.534a1.303 1.303 0 01-1.195-1.294c0-.674.524-1.241 1.195-1.294h.534c.671.053 1.195.62 1.195 1.294 0 .673-.524 1.241-1.195 1.294m0 4.15h-.534a1.304 1.304 0 01-1.195-1.294c0-.674.524-1.241 1.195-1.295h.534a1.304 1.304 0 011.195 1.295c0 .673-.524 1.24-1.195 1.294m4.931-8.308h-.535a1.304 1.304 0 01-1.401-1.294 1.304 1.304 0 011.401-1.294h.535c.671.053 1.195.62 1.195 1.294 0 .673-.524 1.241-1.195 1.294m0 4.158h-.535a1.304 1.304 0 01-1.401-1.294 1.304 1.304 0 011.401-1.294h.535c.671.053 1.195.62 1.195 1.294 0 .673-.524 1.241-1.195 1.294m0 4.15h-.535a1.304 1.304 0 01-1.401-1.294 1.304 1.304 0 011.401-1.295h.535a1.304 1.304 0 011.195 1.295c0 .673-.524 1.24-1.195 1.294m4.84-8.308h-.535a1.303 1.303 0 01-1.195-1.294c0-.674.524-1.241 1.195-1.294h.535c.671.053 1.195.62 1.195 1.294 0 .673-.524 1.241-1.195 1.294m0 4.158h-.535a1.303 1.303 0 01-1.195-1.294c0-.674.524-1.241 1.195-1.294h.535c.671.053 1.195.62 1.195 1.294 0 .673-.524 1.241-1.195 1.294m0 4.15h-.535a1.304 1.304 0 01-1.195-1.294c0-.674.524-1.241 1.195-1.295h.535a1.304 1.304 0 011.195 1.295c0 .673-.524 1.24-1.195 1.294" fill="#fff" fill-rule="nonzero"/><path d="M96.846 265.701h-3.139c-2.618-.004-4.77-2.157-4.775-4.774v-33.806c.005-2.618 2.157-4.77 4.775-4.775h3.139c1.05 0 1.914.865 1.914 1.915s-.864 1.915-1.914 1.915h-3.139a.958.958 0 00-.954.945v33.806c.005.52.434.945.954.945h3.139c1.05 0 1.914.864 1.914 1.915 0 1.05-.864 1.914-1.914 1.914" fill="#00023d" fill-rule="nonzero"/><path d="M94.874 222.116v-1.972c0-.451.37-.822.821-.822h5.153c.45 0 .821.371.821.822v47.439a.826.826 0 01-.821.822h-5.153a.825.825 0 01-.821-.822v-1.849" fill="#00023d" fill-rule="nonzero"/><path d="M96.846 265.701h-3.139c-2.618-.004-4.77-2.157-4.775-4.774v-33.806c.005-2.618 2.157-4.77 4.775-4.775h3.139c1.05 0 1.914.865 1.914 1.915s-.864 1.915-1.914 1.915h-3.139a.958.958 0 00-.954.945v33.806c.005.52.434.945.954.945h3.139c1.05 0 1.914.864 1.914 1.915 0 1.05-.864 1.914-1.914 1.914z" fill="none" stroke="#fff" stroke-width=".82"/><path d="M94.874 222.116v-1.972c0-.451.37-.822.821-.822h5.153c.45 0 .821.371.821.822v47.439a.826.826 0 01-.821.822h-5.153a.825.825 0 01-.821-.822v-1.849m0-4.339v-35.203m211.031 58.516h-.124a1.245 1.245 0 01-1.15-1.241 1.224 1.224 0 01.049-.361c.23-1.323 1.939-13.814 4.627-33.691a7.06 7.06 0 00.059-.907c0-3.777-3.108-6.886-6.886-6.886a6.896 6.896 0 00-6.231 3.955l-2.054 4.38c-.203.433-.64.711-1.118.711a1.239 1.239 0 01-1.233-1.233c0-.18.039-.358.116-.522l2.054-4.38a9.364 9.364 0 018.463-5.373c5.13 0 9.352 4.221 9.352 9.351 0 .412-.028.824-.082 1.232a7773.818 7773.818 0 01-2.925 21.53c-.477 3.476-.904 6.574-1.216 8.784-.157 1.118-.288 2.013-.378 2.63-.189 1.084-.288 2.021-1.323 2.021z" fill="none" stroke="#fff" stroke-width=".82"/><path d="M308.74 318.63l10.107-47.538-6.188 3.509-2.679-4.947-5.152 4.331-1.857-5.366-3.912 5.571-3.508-4.331-.666 48.771h13.855zm-5.457-76.956c3.448.404 6.077 3.359 6.077 6.831 0 .307-.021.613-.062.918-.673 5.004-1.29 9.54-1.832 13.55h2.465c.641-4.692 1.274-9.409 1.791-13.222.055-.408.082-.82.082-1.232 0-5.13-4.221-9.351-9.351-9.351a9.365 9.365 0 00-8.464 5.374l-2.054 4.379a1.242 1.242 0 00-.116.522 1.24 1.24 0 001.234 1.234c.478 0 .915-.279 1.117-.712l2.054-4.38a6.912 6.912 0 017.043-3.92" fill="#fff" fill-rule="nonzero"/><path fill="#00023d" d="M281.4 318.515h30.396v76.726H281.4z"/><path fill="none" stroke="#fff" stroke-width=".82" d="M281.4 318.515h30.396v76.726H281.4zm11.891 4.108h18.341m-18.341 68.632h18.341m-24.323-68.632h-2.063m2.063 68.632h-2.063"/><path fill="none" stroke="#fff" stroke-width=".65" d="M0 395.84h330v5.317H0zm0 28.926h330v5.317H0z"/><path d="M330 400.943L0 397.188v-1.561h330v5.316zm0 28.869L0 426.63v-2.078l330-.057v5.317z" fill="#fff" fill-rule="nonzero"/><path d="M159.232 56.528a4.743 4.743 0 004.696 4.204 4.743 4.743 0 004.697-4.204" fill="#00023d" fill-rule="nonzero"/><path d="M168.165 34.521v-7.806h-5.851v7.806M164.302 0h2.145v26.608h-2.145z" fill="none" stroke="#fff" stroke-width=".82"/><path d="M243.493 235.552V395.24H64.822V261.552m161.423 126.12H88.242m138.003-274.601H88.242" fill="none" stroke="#00023d" stroke-width=".82"/><path d="M164.45 181.399a3.352 3.352 0 01-3.336-3.336 3.352 3.352 0 013.336-3.336 3.353 3.353 0 013.337 3.336 3.36 3.36 0 01-3.337 3.336m0-6.574a3.262 3.262 0 00-3.246 3.246 3.262 3.262 0 003.246 3.246 3.261 3.261 0 003.246-3.246 3.302 3.302 0 00-3.246-3.246" fill="#fff" fill-rule="nonzero"/></svg>