<svg id="Layer_1" data-name="Layer 1" xmlns="http://www.w3.org/2000/svg" viewBox="0 0 1100 1391.27"><defs><style>.cls-4,.cls-6,.cls-7{fill:none}.cls-6{stroke:#fff}.cls-4,.cls-6{stroke-linecap:round;stroke-linejoin:round}.cls-2{fill:#00023d}.cls-3{fill:#ff486f}.cls-4,.cls-7{stroke:#00023d}.cls-5{fill:#fff}.cls-7{stroke-miterlimit:10}</style></defs><path class="cls-2" d="M-4.84 1272c0 1 .79 20.95 2.15 31.13a65.42 65.42 0 004.87 17.61s.2.77 1.75.58a20 20 0 003.78-1c.17-.12 4.35-3 5-7.28.57-4 4.87-23.84 4.91-24a.51.51 0 00-.08-.4.5.5 0 00-.37-.2 6 6 0 01-.71-.13.48.48 0 00.17-.32c0-.15.54-3.53 5.68-4.24a.3.3 0 00.13 0 18.94 18.94 0 004.71 4.61.53.53 0 00.27.08h.13c4.84-1.29 64.77-18.35 79.46-25.47 5.95-2.89 12.76-12.66 14.44-20.32.51 6.28.81 12.44.81 18.24 0 30.36 1.36 83.06 1.37 83.59a.51.51 0 00.47.49c.22 0 1.92.12 4.36.13a40.67 40.67 0 01.54 6.2 1.91 1.91 0 00-1.9 1c-1.76 2.73-2 8.66-2 9.18l-.67 3.33a2.43 2.43 0 00.42 1.88H78.48a.35.35 0 000-.1c-2.8-17.59-13.34-29.52-19.74-33.24-2.3-1.34-4.21-1.78-5.55-1.28-.59.22-1.38.6-1.51 1.36-.17 1.1 1.12 2.14 3.27 3.87 2.81 2.25 7.05 5.66 9.34 10.75a64.39 64.39 0 015.07 18.64h-2.13a29.8 29.8 0 00-48-23.1 4.49 4.49 0 004.52 7.68 21 21 0 1034 21.16 4.5 4.5 0 003.58 4.26 4.69 4.69 0 00.91.09h170.37a.52.52 0 00.38-.17 4.5 4.5 0 003.3-4.2 21 21 0 1034-21.16 4.45 4.45 0 001.78.39 4.48 4.48 0 004.47-5.06 4.44 4.44 0 00-1.71-3 29.55 29.55 0 00-13.16-5.77l-1.28-16.81a7.16 7.16 0 00-7.11-6.59 6.06 6.06 0 00-.85.05h-.17l-9.94-162.22a11.84 11.84 0 00.78 2.43 14.8 14.8 0 0012.7 9.29v.11a1.75 1.75 0 00.65 1.36 1.71 1.71 0 001.11.4 2.09 2.09 0 00.35 0l4.6-.92a1.77 1.77 0 001.41-1.73v-27.71a1.76 1.76 0 00-1.41-1.73l-4.6-.92a1.76 1.76 0 00-2.11 1.72v.11a14.79 14.79 0 00-13.7 14l-.09-1.35a.49.49 0 00.27-.43.53.53 0 00-.32-.47l-1.22-19.88a6.35 6.35 0 001.31-1 4.21 4.21 0 001.55 3.22 1.55 1.55 0 00.77.23 1.3 1.3 0 001-.52c.12-.16 2-2.5 3.49-4.59a3.19 3.19 0 002.67 1.09h.38a.5.5 0 00.37-.21c.61-.86 6-8.48 6.09-10.67.12-2.49-6.16-7.71-7.5-8.28a10.34 10.34 0 00-2.19-.57 13.24 13.24 0 00-8.17-3.45c-4.37-.35-10.62-.6-12.54-.67l.42-1.45a.49.49 0 00-.3-.61 146.88 146.88 0 01-22.09-10.82 71.45 71.45 0 00-22-8.54c.05-4.81.31-44.5-4.22-58.2-.74-8.33-3.05-11.49-4.05-12.48.74-.76 2.48-2.59 4.29-4.87 2.46-3.08 3.25-10.29 3.28-10.6a.5.5 0 00-.39-.54s-.95-.22-2.49-.74a11.41 11.41 0 017.7-6.38 13.27 13.27 0 004.42.86 6.76 6.76 0 004.14-1.23c1.18-.88 7.29-10.49 8.12-16.05 4.35.53 6.34-1.64 6.43-1.74a.49.49 0 00.11-.45c0-.14-3.48-14.45-3.48-17.1s1.69-6.5 1.71-6.54a.49.49 0 00-.08-.52 5.09 5.09 0 003-1.67 12.13 12.13 0 0010.16-2 6.88 6.88 0 002.51-6.64 4.29 4.29 0 00-2.34-3.62c-2-.93-4.87 0-6.87.92.25-4.64-.53-17.55-15.14-26.5-12.71-7.79-34.59-3.78-40.39-1.21-2.61 1.16-7.56 1.48-12.2 1.46a1.5 1.5 0 00-.84 2.7.51.51 0 000 .45c2.88 5.47.07 7.82 0 7.92l-1.3-.18a1.25 1.25 0 00-.59 2.4h.11a.48.48 0 00.16.45 2.77 2.77 0 011.2 2.46 4.55 4.55 0 01-2 2.75 1.72 1.72 0 00-.77.51c-.2.12-.4.22-.59.32a.47.47 0 00-.27.33.51.51 0 00.09.43 3.9 3.9 0 01.3.43 1.77 1.77 0 00.53 1 13.66 13.66 0 01.58 6.38.45.45 0 000 .26 1.47 1.47 0 00.16 2.51l7.17 3.7c-1.48 1.36-4.15 4.18-4.33 7-.22 3.28 2.79 5.06 4 5.65-.66 1.58-2.28 6.67 2.13 10.24 3.51 2.84 7.74 1.64 10.17.52a72.34 72.34 0 01-7.64 9 .51.51 0 00-.38-.27l-5.58-.62a.38.38 0 00-.18 0 .35.35 0 00-.14.06 44.34 44.34 0 00-7.34 6.59 12.36 12.36 0 00-2.6 8.65.47.47 0 00.29.4h-.2a.5.5 0 00-.69-.16 24 24 0 00-6.74 6.79c-.77-.39-2.11-1-2.42-1.11L62.33 965a4.59 4.59 0 00-4.75.67l-11.71 9.68a1 1 0 000 1.22 1 1 0 001.27.32l12.94-6.25-27.57 70.52-14.92 38a7.18 7.18 0 003.82 9.23l68.08 29.88a7.24 7.24 0 002.85.59 7.12 7.12 0 006.63-4.57l1.1.06-3.68 21.37a.48.48 0 00.2.5s.94.64 2.63 1.58c-.27.77-4 11.43-4.54 18.11-.31 3.72-.2 8.93-.08 14.43.1 4.8.21 9.75.08 14.55-.27 9.89-11.67 43.52-12.68 46.46-27.66 12.56-67.44 35.28-67.84 35.51a.51.51 0 00-.22.61l.48 1.22c-1.12.35-1.91.57-2.43.7a.79.79 0 00-.33-1.06 30.55 30.55 0 00-13.37-1.43 3.87 3.87 0 00-2.52.39c-1.37 1-.59 2.92-.59 4.68m149.39 70.17l3.31-.83s12.48-84.83 13.31-93.93 2.74-100.38 2.74-100.38l3.86.56s3.31-1.94 3.86-4.69-2.21-7.18-1.38-13 1.8-18.33 1.8-18.33l41 8.12 6.22.69.06-.12c.43-.83.65-1.74 1.14-2.55a.62.62 0 01.68-.28.54.54 0 01.2.1l.25-.89s4 6.45 8 6.89a5.85 5.85 0 014.64 2.6l11.09 188.31s-6.63.28-5.52 8.55a185.92 185.92 0 011.1 19.87s-12.14 4.41-13.52 24h-47.48a13.19 13.19 0 00-6.28-9.35c-5.79-3.58-23.79-10-23.79-10l-.83 1.65s-3.38-.41-4.21-3.17-.27-3.86-.27-3.86"/><path class="cls-3" d="M228.1 1099.08a146.92 146.92 0 01-22.1-10.86 71.44 71.44 0 00-22-8.54c0-4.81.31-44.5-4.22-58.2-.74-8.33-3.05-11.49-4.05-12.48.74-.76 2.48-2.59 4.29-4.87 2.46-3.08 3.25-10.29 3.28-10.6a.49.49 0 00-.39-.54s-1-.22-2.49-.74c0-.1.09-.19.14-.29a40 40 0 01-5.37-1.93 70.39 70.39 0 01-12.86-7.68c-1.5-1.09-3.07-2.08-4.57-3.17-1.24-.9-2.7-2-3.24-3.52a.53.53 0 01-.4-.23.47.47 0 01-.11-.21c0-.09 0-.18-.06-.27a3 3 0 01-.06-.41.66.66 0 010-.12 1 1 0 010-.26.88.88 0 01.2-.34.84.84 0 01.34-.2h.06A3.78 3.78 0 01156 972a6.52 6.52 0 001.39-1 1.24 1.24 0 00.31-1c-.4.42-.81.83-1.2 1.2a.51.51 0 00-.38-.27l-5.58-.62a.37.37 0 00-.18 0 .35.35 0 00-.14.06 44.26 44.26 0 00-7.34 6.59 12.36 12.36 0 00-2.6 8.65.47.47 0 00.29.4h-.2a.49.49 0 00-.69-.16 24 24 0 00-6.74 6.79c-.77-.39-2.11-1-2.42-1.11L62.33 965a4.59 4.59 0 00-4.75.67l-11.71 9.68a1 1 0 000 1.22 1 1 0 001.27.32l12.94-6.25-27.57 70.52-14.92 38a7.18 7.18 0 003.82 9.23l68.08 29.88a7.26 7.26 0 002.85.59 7.12 7.12 0 006.63-4.57h.32c.35-.52 1.3-.21 1.08.47-.44 1.34-.47 2.78-.83 4.15s-.68 2.76-1 4.14-.67 2.52-1 3.78a6 6 0 01-1.26 2.66l-.18.73a58.29 58.29 0 00.52 6s.94.64 2.63 1.58c0 .14-.21.61-.45 1.31a114.89 114.89 0 0011 5 88.28 88.28 0 0017.07 3.86c5.89.86 11.78 1.84 17.71 2.36s11.78.7 17.69.75h1.59c.06-2.63.09-4.14.09-4.14l3.86.56s3.31-1.94 3.86-4.69-2.21-7.18-1.38-13 2-18.33 2-18.33l40.78 8.12 6.15.68.12-.17c.25-.67.51-1.35.74-2a11.19 11.19 0 011.4-3.45v-.21c.12-.61.34-1.2.41-1.82.27-2.17 0-4.37.25-6.53a4 4 0 01.88-2.31c.62-.67.74.17 1.6 0s1.41.1 2.21-.55c.07-.06.35-.36.66-.72l.52-1.47.4-1.39a.49.49 0 00-.3-.61"/><path class="cls-2" d="M177.43 1360.6a38.83 38.83 0 00-6.29-4.51c-3.52-2-22.2-8.22-22.2-8.22s-2.08 5.65-10.46 5.45-8.32-2.38-10-1.88-2.08 3.87-2.38 5.3-.89 6.59-.89 6.59 50.59 2.48 52.18-2.73M16.94 1289s-3.72 23.84-5.4 26-3.17 5-4.46 5-3.87-3.86-3.91-4.16-1.09-6.1-4-24.38.94-24.33.94-24.33 6.79.4 9 1.19 2.43 1.14 2.43 1.14-1.49.79-1.64 4.11 1.93 11.89 3.22 13.18a13.57 13.57 0 003.82 2.28m81.33-186.72l-2.55 11.35s19.52 1.9 30.27-3.62a87.66 87.66 0 0019.32-14.04l-2.9-6.21s-8.55 13.24-44.14 12.55m22.9-103.07c.32.21 0 9.79 0 9.79s9.65-.55 14.9-2.62 9.66-1.93 15-.55 11.45 10.62 13 16.83 4 24.28 4 24.28 2.21-12 1-22.76-7.45-20.55-12.83-23-14.59-3.86-21.35-3-13.68 1.1-13.68 1.1"/><path class="cls-4" d="M141.72 1085.75s6.62-2.62 18.62 1.79 7.72 22.21 7.72 22.21-21.63-3.17-26.34-24z"/><path class="cls-5" d="M99.69 1138s-4 11.22-4.53 18 .28 18.45 0 28.94-12.77 46.82-12.77 46.82c-28 12.68-68 35.57-68 35.57s6 16.07 13 20.42c6.54-1.74 65.11-18.52 79.37-25.44 6.25-3 13.63-14.1 14.48-21.76 0 0-2.7-31.71-6.79-46.53s-7-25.34-7-34.12a85 85 0 011.75-16.57z"/><path class="cls-6" d="M213.91 931.79s9.76-6.31 10.83 1.07-8.09 9.52-12.38 8c-.59 1.07-3.45 3.1-7.73.83a17 17 0 01-6.07-5l-9.4-2.14a13.16 13.16 0 01-5.47 10.71c-5.83 4.16-9.4-.71-10.83-1.67m-19.41-5.25s-4.88 3.81-5.12 7.5 4.17 5.36 4.17 5.36-3.21 6.07 1.78 10.11 11.54-.6 11.54-.6-7.19 10.48-11.77 13m-45.47 169.34s-3.31 16.53 1.42 32.12 12.76 54.8 12.76 85.51 1.38 83.58 1.38 83.58 17.13 1.14 24-3.43c1.14-6.85 13.39-81.1 12.91-94.33s3.1-98.18 3.1-98.18"/><path class="cls-6" d="M121.27 1240.55c-.85 7.66-8.23 18.73-14.48 21.76-14.26 6.92-72.83 23.7-79.37 25.44-7-4.35-13-20.42-13-20.42s40-22.9 68-35.57c0 0 12.48-36.32 12.77-46.82s-.57-22.13 0-28.94 4.53-18 4.53-18m27.07 229h51.38a1.36 1.36 0 001.32-1.69l-1-4s-25.51.47-35.43.95a83.53 83.53 0 01-17.48-.95l-.68 3.37a1.92 1.92 0 001.89 2.32zm-1.21-5.69s.18-6.25 1.92-9 4.54 2.76 16.46 0a6.62 6.62 0 005.11-4.82s17.43 7 21.41 8.16 8 5.62 8 5.62m-47.28-25.95s17-16.74 20.43-45.12m-13.91 9.37s7.94-15.89 9.65-25.54m.57 74.34s-3.69 0-3.69-5.67m-14.76 8.44a41.34 41.34 0 00-.56-6.45m-131.48-77.14a30.44 30.44 0 0113.93 1.24c.9.55-1.8 1.53-1.52 4.41.38 3.85 1 8.83 1.8 11.18a6.62 6.62 0 005.47 4.41s-4.34 20-4.92 24.07-4.75 6.94-4.75 6.94m8.67-32.02s.48-3.9 6.1-4.67m-10.99-13.01a33.13 33.13 0 004.19-1.18"/><path class="cls-7" d="M100.59 1114.16l-1.18 6.84s-1.82 7.33-2.93 9 .38 5.81.38 5.81 9.36 6.53 25.82 9.65 45.68 1.7 45.68 1.7a5.68 5.68 0 002.87-6.54 43.6 43.6 0 01-.69-13.38c.55-4.55 1.42-15.53 1.42-15.53"/><path class="cls-5" d="M37.45 1388a21 21 0 01-12.83-37.62 20.8 20.8 0 0112.83-4.38 21 21 0 010 42m0-30.57a9.48 9.48 0 00-5.85 2 9.58 9.58 0 105.85-2"/><path class="cls-6" d="M62.24 1376.05a4 4 0 01-3.92-4.8 21.32 21.32 0 00-20.87-25.6 21.1 21.1 0 00-13 4.43 4 4 0 11-4.89-6.32 29 29 0 0117.9-6.1 29.31 29.31 0 0128.7 35.2 4 4 0 01-3.92 3.19z"/><path class="cls-5" d="M275.47 1357.69a21.13 21.13 0 00-6-7.35 20.87 20.87 0 00-7.59-3.72l1 13.08a9.47 9.47 0 013.34 7.26 9.58 9.58 0 11-16.59-6.52l-1-12.89a21 21 0 1026.85 10.14"/><path class="cls-6" d="M248 1339l.63 8.24a21.35 21.35 0 00-13.3 19.74 21.58 21.58 0 00.43 4.29 4 4 0 01-3.11 4.73 5.07 5.07 0 01-.81.08 4 4 0 01-3.91-3.2A29.26 29.26 0 01248 1339zm27.23 10.36a4 4 0 01-5.61.72 21 21 0 00-7.81-3.79l-.63-8.28a29.09 29.09 0 0113.32 5.74 4 4 0 01.73 5.61zm-212.99 26.69h170.38m-5.31-9.09H66.75"/><path class="cls-6" d="M257.28 1370.26a6.64 6.64 0 01-7.4-6.07l-.29-3.75-1-12.89v-.33L248 1339l-1.29-16.91a6.64 6.64 0 015.82-7.09 6.11 6.11 0 01.79 0 6.62 6.62 0 016.61 6.13l1.29 17 .63 8.28v.32l1 13.08.26 3.48a6.62 6.62 0 01-5.83 6.97zm-22.94-243.66l11.11 188.4m-5.22-188.71L251.79 1315"/><circle class="cls-6" cx="237.64" cy="1121.03" r="5.84"/><path class="cls-6" d="M256.55 1135.12a14.22 14.22 0 000 28.44z"/><path class="cls-6" d="M262.41 1164.44l-4.59.92a1.26 1.26 0 01-1.51-1.24v-29.56a1.26 1.26 0 011.51-1.24l4.59.92a1.26 1.26 0 011 1.24v27.71a1.26 1.26 0 01-1 1.25zm-26.25-17.54h5.62M166 958.9s-.25 8 2 12.23 15.47 12.48 20.22 14.23 7.24.5 8.24-.25 7.49-10.73 8-16.22c4.49.75 6.49-1.5 6.49-1.5s-3.49-14.48-3.49-17.22 1.75-6.74 1.75-6.74M200 971.24a51 51 0 00-7-1.45m-3.58-19.38s5-4 9.73-3.74"/><path class="cls-5" d="M195.66 956.38a1.62 1.62 0 01-1.62-1.62v-2a1.62 1.62 0 013.24 0v2a1.62 1.62 0 01-1.62 1.62"/><path class="cls-4" d="M140.76 985.62a12.07 12.07 0 012.48-8.27 44.62 44.62 0 017.25-6.5l5.15.54m19.76 37.96a2.55 2.55 0 00-.38-.32s-6.18-.56-15.51-10a67.34 67.34 0 00-18.76-13.38"/><path class="cls-4" d="M175.11 1083.29s5.12-51.29 4.2-61.71c-.73-8.27-3-11.32-3.91-12.23m-.4-.35a65.23 65.23 0 004.63-5.2c2.39-3 3.86-10.83 3.86-10.83s-18.64-3.47-33-22.15"/><path class="cls-6" d="M188.17 985.35s-5.19 0-7.64 5.85m-7.03-46.51a9.21 9.21 0 00-5.89-3.92c-3.36-.56-4.48 2.52-3.64 7s1.68 8.41 3.36 9.53 4.77-.84 4.77-.84"/><path class="cls-2" d="M164 970.07a31.87 31.87 0 005.17 9.49 61.15 61.15 0 009.43 8.91l5.48-3.94s-8.65-4.6-12.89-7.18a25.78 25.78 0 01-7.19-7.28"/><path class="cls-5" d="M185 984.09c-.27-.84-1.86-5.08-3.69-9.12a63.73 63.73 0 01-3.17-14.62c-.87-11.19 3.78-25.9 3.83-26.05l-3.6-1.23c-.2.63-4.94 15.61-4 27.59.09 1.11.21 2.23.37 3.33a12.86 12.86 0 00-5-3.84c-8.15-3-13.42-15.36-12.34-23.64l-3.75-.52c-1.32 10.12 4.75 24.18 14.83 27.85 3.41 1.24 6.85 7.15 9.35 12.63.57 1.69 1.13 3.2 1.62 4.45a5 5 0 005.6 3.19"/><path class="cls-6" d="M143.81 924.15c2.49-1.2 5.46-4.12 2.26-6.87 3.06-1.15 1.64-2 1.64-2s3.32-2.6.19-8.55c19 .17 13.06-1.62 25-2.49s23.23-1 28.38 3.13 9.35 12.8 9.3 14.92.54 10.4-7.63 11.24a5.42 5.42 0 01-3.94 3.08 35.9 35.9 0 00-6.59-.38l.71-.16c-6.3-1.65-14.09-4.57-14.09-4.57a94.44 94.44 0 01-13.04 6.75h-12.14a48.24 48.24 0 01-8.54-5.85s.87-5.22-1.51-8.25z"/><path class="cls-5" d="M200.89 903.59c-12.72-7.8-34.59-3.78-40.39-1.21-2.61 1.15-7.56 1.47-12.2 1.46a1.49 1.49 0 00-.39 2.91 196.81 196.81 0 0024 5.55c13.38 2.11 27.64 9.36 33.9 12.82a1.15 1.15 0 01-.46 2.14l-5.64.38a16.47 16.47 0 01-7.08-1.08 212.45 212.45 0 00-22.74-7.48c-6.94-1.77-16.59-3.29-23.81-4.3a1.25 1.25 0 00-.59 2.4l27.37 10.63-11.12 4.52a16.81 16.81 0 01-8.7 1.06l-7.19-1a1.45 1.45 0 00-.82 2.73l8.23 4.25a16.81 16.81 0 0015.3.07l11.71-5.9 12 3.73a16.46 16.46 0 0010.3-.16l13.35-5.24s3.12-17.16-15-28.23m-7.67 9s-17.17-5-22.69-5.92c22-1.3 30.7 4.15 30.7 4.15z"/><path class="cls-5" d="M158.92 928.2a45.58 45.58 0 01-8.52-.26 11.87 11.87 0 01-5.95-1.84 1.82 1.82 0 011.52-3.23 87.5 87.5 0 0113 5.33M256 1154.8s-3.5.37-8.84-2-4.79-5.89-4.79-5.89-1.84 6.63 3.31 11.41 8.84 5 9.39 5.15 1.29.18 1.1-1.47-.18-7.18-.18-7.18m.56-4.44l.19 9.02 6.25-.92.19-7.54-6.63-.56zm-13.16-29.28a5.8 5.8 0 11-5.8-5.8 5.8 5.8 0 015.8 5.8m-99.04 223.38l-15.1 5.15-.18-5.15s6.44-.55 9.94-.74a12.86 12.86 0 005.15-1.11zM14.94 1269s2.58 5.71 4.79 9.39 2.76 4.79 2.76 4.79-5 2-5 1.47-4-14.91-4-14.91zm163.92 92s2.55 4.79.33 5.71h-53.61s-.59-.39-.59-1.95a11.52 11.52 0 01.78-3.51s37.88.72 53.08-.26M.23 1267.32s-3.12-1-4.48 0-.59 2.93-.59 4.68c0 1 .79 21 2.14 31.13a65.24 65.24 0 004.88 17.6s.19.78 1.75.58a20.2 20.2 0 003.77-1.05 87.37 87.37 0 01-5.23-18.17 244.94 244.94 0 01-2.25-34.78"/><path class="cls-6" d="M220.48 1116.82s5.71 5 13.31-.13"/><path class="cls-4" d="M222.56 1102.63a42.82 42.82 0 01-.76 8.61c-.76 3-1.31 5.59-1.31 5.59"/><path class="cls-6" d="M245.89 1105.39a22.86 22.86 0 014.8.9c1.4.6 7.3 5.7 7.2 7.8s-6 10.4-6 10.4-2.6.2-2.8-1.4m.99-9.1l1.9.8m-30.98 2.33s4.91 6.77 11.71 7"/><path class="cls-3" d="M133.44 993a28.46 28.46 0 00-2.94-1.42L62.33 965a4.57 4.57 0 00-4.75.67l-11.71 9.68a1 1 0 000 1.22 1 1 0 001.27.32l13.11-6.32S90.8 983.21 99.79 987s24 12.14 24 12.14l6.87-.56"/><path class="cls-7" d="M133.44 993a28.46 28.46 0 00-2.94-1.42L62.33 965a4.57 4.57 0 00-4.75.67l-11.71 9.68a1 1 0 000 1.22 1 1 0 001.27.32l13.11-6.32S90.8 983.21 99.79 987s24 12.14 24 12.14l6.87-.56"/><path class="cls-4" d="M98.69 1102.47c9 .4 36.16-.82 43.72-13.34m-46.2 24.49c10.64 1 32.84 1 48.71-17.47m23.44-49.15c.29-1.43 6.93-36.28-13.73-46.61-10.29-5.15-33.15-.87-33.15-.87"/><path class="cls-4" d="M172.15 1111.2a221.56 221.56 0 01-11.65-3.79 29.88 29.88 0 01-19.46-23c-2.28-13.08-11.31-25-13.84-39.88a5.15 5.15 0 00-2.9-4.28"/><path class="cls-7" d="M214.14 1119.76l-.24.51a286 286 0 01-41.76-9.06"/><path class="cls-4" d="M121.31 1009.06c9.24.41 18-3.95 20.45-4.4a13.52 13.52 0 014.46-.09 20.74 20.74 0 017 2.53c6.68 3.74 10.5 13.76 12 21.27 0 0 6.51 40.55 9.19 55 8.69.68 43.45 16.82 43.45 16.82a35.68 35.68 0 01-.51 10.08 50.07 50.07 0 01-3.21 9.51m-111.81-17.36c-.29-1.43 7.41-50.31 24.57-92.92m14-24a19.29 19.29 0 00-10.14 13.71l-7 .31"/><path class="cls-7" d="M60.57 970.72l-13.69 35L33 1041.34l-14.93 38a6.69 6.69 0 003.56 8.58l68.08 29.88c3.56 1.55 7.89.43 9.12-3.26"/><path class="cls-4" d="M222.53 1102.44l-4.02-.5"/><path class="cls-6" d="M214.14 1119.7c-.17-.06 4.94.78 4.94.78l1.39-3.66"/><path class="cls-5" d="M34.19 1085.65a7.09 7.09 0 01-3.71-9.51 7 7 0 017.91-4.26l-1.56 3.59a3.24 3.24 0 00-3.22 2c-.79 1.82 0 3.74 2.09 4.66a3.44 3.44 0 004.83-1.66 3.24 3.24 0 00-.72-3.74l1.56-3.59a7 7 0 012.3 8.68 7.09 7.09 0 01-9.48 3.78m10.63-24.47a3.48 3.48 0 10-2.76 6.37 3.48 3.48 0 102.76-6.37m-4.27 9.87c-3.56-1.55-5.48-5.44-4-8.8a5 5 0 013.27-2.9l-1.42-.61 1.5-3.46 12.64 5.48-1.5 3.46-1.42-.61a5 5 0 01.11 4.37c-1.46 3.36-5.61 4.62-9.17 3.08m1.75-21.38l7.05-1.86-3.45-6.45 1.28-2.93 12.63 5.48-1.5 3.46-7.3-3.17 3 5.6-6.15 1.66 7.3 3.17-1.5 3.46-12.64-5.48 1.28-2.94zm16.35-20.39a3.44 3.44 0 102 4.59 3.44 3.44 0 00-2-4.59m-4.24 9.76a7.25 7.25 0 119.48-3.78 7.19 7.19 0 01-9.48 3.78m9.45-18.45l5.11 2.21-1.51 3.47-12.63-5.48 1.5-3.47 5.16 2.24-3.31-6.51 1.79-4.12 3.94 7.96 9.07-3.33-1.93 4.44-7.19 2.59zm6.95-19.33a3.48 3.48 0 102.06 4.67 3.45 3.45 0 00-2.06-4.67m-4.27 9.86c-3.56-1.55-5.48-5.44-4-8.8a5 5 0 013.27-2.9l-1.42-.61 1.5-3.46 12.64 5.48-1.5 3.46-1.42-.61a5 5 0 01.11 4.37c-1.46 3.36-5.61 4.62-9.17 3.08m4.8-20.12l-1.52 3.49-3.03-1.31 4.64-10.69 3.03 1.31-1.62 3.74 9.6 4.17-1.5 3.46-9.6-4.17z"/><path class="cls-2" d="M90.94 1005.45l17.74 7.93a1.79 1.79 0 002.36-.9l3.23-7.23a1.79 1.79 0 00-.9-2.36l-17.74-7.93a1.79 1.79 0 00-2.36.9l-3.27 7.22a1.79 1.79 0 00.9 2.36"/><path class="cls-4" d="M124.31 1048.93l3.86 1.65"/><path class="cls-6" d="M240.89 1342.17s-2.07-21.1-.69-24.14a5.56 5.56 0 014.83-3s-4.1 3.69 7.47 0"/><path class="cls-4" d="M227.38 1101.62l-.55 1.66 1.1-3.72a145 145 0 01-22.21-10.9 69.75 69.75 0 00-22.21-8.55s.56-44.21-4.2-58.52"/><path class="cls-6" d="M248.48 1105.75a12.65 12.65 0 00-8-3.45c-5.24-.41-12.55-.66-12.55-.66m-158 265.42a63.18 63.18 0 00-5.17-19.45c-4.55-10.14-16.34-13.45-11.38-15.31s21.1 12 24.62 34.14m145.26-263.31s19.53 2.27 21.23 2.27a4.85 4.85 0 014.4 3.9c.7 2.6 1.9 10.4 1.6 11.3s-4.4 6.2-5.5 7.6-3.3-1.9-2.1-4.4"/><path class="cls-2" d="M163.68 1154s-21.72.37-40.68-4.42-23.56-11.78-23.56-11.78 4.23 2 5.15 2.39a81.16 81.16 0 0034.24 7.36c19.15-.18 25.77-.18 25.77-.18z"/><path class="cls-6" d="M12.63 1291s2.58 1.69 4.46 1.64m-4.76 2.11a8.91 8.91 0 003.91 1.44m-3.96 2.33a7.33 7.33 0 003.22 1.18m134.16 52.3s2-2.32 2.23-4.19m1.46 5a8.92 8.92 0 002-3.68m1.72 4.24a7.32 7.32 0 001.61-3"/><path class="cls-5" d="M673 1143.49c0 74.27-39.39 134.51-88 134.51s-88.06-60.21-88.06-134.49S536.33 1009 585 1009s88 60.21 88 134.49"/><path class="cls-5" d="M566.17 1012.1l-166.05 69-14.45 6L267 1134v28l118.64 45.34 14.45 5.52 168.23 63.2 30.4-74.93c22.59-125.31-32.55-189.03-32.55-189.03z"/><path class="cls-4" d="M556.21 1270.64c-34.52-18.2-59.31-68.26-59.31-127.15 0-54.35 21.11-101.16 51.49-122.38"/></svg>