<svg viewBox="0 0 300 500" xmlns="http://www.w3.org/2000/svg" fill-rule="evenodd" clip-rule="evenodd" stroke-linejoin="round" stroke-miterlimit="2"><path d="M8.853 383.776c0 1 .79 20.95 2.15 31.13a65.414 65.414 0 004.84 17.54c.01.023.23.84 1.78.65a19.98 19.98 0 003.78-1c.17-.12 4.35-3 5-7.28.57-4 4.87-23.84 4.91-24a.503.503 0 00-.08-.4.497.497 0 00-.37-.2 5.907 5.907 0 01-.71-.13.473.473 0 00.17-.32c0-.15.54-3.53 5.68-4.24.043.01.088.01.13 0a18.946 18.946 0 004.71 4.61.531.531 0 00.27.08h.13c4.84-1.29 64.77-18.35 79.46-25.47 5.95-2.89 12.76-12.66 14.44-20.32.51 6.28.81 12.44.81 18.24 0 30.36 1.36 83.06 1.37 83.59.01.258.213.47.47.49.22 0 1.92.12 4.36.13a40.64 40.64 0 01.54 6.2 1.914 1.914 0 00-1.9 1c-1.76 2.73-2 8.66-2 9.18l-.67 3.33a2.434 2.434 0 00.42 1.88h-46.37a.335.335 0 000-.1c-2.8-17.59-13.34-29.52-19.74-33.24-2.3-1.34-4.21-1.78-5.55-1.28-.59.22-1.38.6-1.51 1.36-.17 1.1 1.12 2.14 3.27 3.87 2.81 2.25 7.05 5.66 9.34 10.75a64.377 64.377 0 015.07 18.64h-2.13c-.267-16.159-13.634-29.306-29.796-29.306a29.807 29.807 0 00-18.204 6.206 4.493 4.493 0 00-1.752 3.559c0 2.463 2.027 4.49 4.49 4.49.613 0 1.22-.125 1.782-.369A21.013 21.013 0 0030.099 479c0 11.52 9.48 21 21 21 9.562 0 17.974-6.531 20.344-15.794a4.513 4.513 0 003.58 4.26c.3.06.605.09.91.09h170.37a.518.518 0 00.38-.17 4.51 4.51 0 003.3-4.2c2.371 9.263 10.783 15.794 20.345 15.794 11.52 0 21-9.48 21-21a21.011 21.011 0 00-7.345-15.954c.56.252 1.167.384 1.78.39h.028c2.458 0 4.48-2.022 4.48-4.48 0-.194-.012-.388-.038-.58a4.44 4.44 0 00-1.71-3 29.538 29.538 0 00-13.16-5.77l-1.28-16.81c-.294-3.691-3.407-6.576-7.11-6.59a6.196 6.196 0 00-.85.05h-.17l-9.94-162.22c.172.836.434 1.651.78 2.43a14.823 14.823 0 0012.7 9.29v.11c.001.528.24 1.028.65 1.36.311.261.705.403 1.11.4.117.01.234.01.35 0l4.6-.92a1.774 1.774 0 001.41-1.73v-27.71a1.764 1.764 0 00-1.41-1.73l-4.6-.92a1.769 1.769 0 00-2.11 1.72v.11c-7.41.538-13.322 6.58-13.7 14l-.09-1.35a.49.49 0 00.27-.43.529.529 0 00-.32-.47l-1.22-19.88a6.314 6.314 0 001.31-1 4.213 4.213 0 001.55 3.22c.232.143.498.223.77.23a1.299 1.299 0 001-.52c.12-.16 2-2.5 3.49-4.59a3.192 3.192 0 002.67 1.09h.38a.495.495 0 00.37-.21c.61-.86 6-8.48 6.09-10.67.12-2.49-6.16-7.71-7.5-8.28a10.35 10.35 0 00-2.19-.57 13.246 13.246 0 00-8.17-3.45c-4.37-.35-10.62-.6-12.54-.67l.42-1.45a.491.491 0 00-.3-.61 146.91 146.91 0 01-22.09-10.82 71.47 71.47 0 00-22-8.54c.05-4.81.31-44.5-4.22-58.2-.74-8.33-3.05-11.49-4.05-12.48.74-.76 2.48-2.59 4.29-4.87 2.46-3.08 3.25-10.29 3.28-10.6a.5.5 0 00-.39-.54c-.247-.054-.95-.22-2.49-.74a11.418 11.418 0 017.7-6.38c1.414.537 2.909.827 4.42.86a6.754 6.754 0 004.14-1.23c1.18-.88 7.29-10.49 8.12-16.05 4.35.53 6.34-1.64 6.43-1.74a.49.49 0 00.11-.45c0-.14-3.48-14.45-3.48-17.1 0-2.65 1.69-6.5 1.71-6.54a.488.488 0 00-.08-.52 5.09 5.09 0 003-1.67c3.514.885 7.245.15 10.16-2a6.885 6.885 0 002.51-6.64 4.295 4.295 0 00-2.34-3.62c-2-.93-4.87 0-6.87.92.25-4.64-.53-17.55-15.14-26.5-12.71-7.79-34.59-3.78-40.39-1.21-2.61 1.16-7.56 1.48-12.2 1.46-.8.031-1.441.698-1.441 1.499 0 .472.223.918.601 1.201a.515.515 0 000 .45c2.88 5.47.07 7.82 0 7.92-.07.1 0 0 0 0l-1.3-.18a1.256 1.256 0 00-1.362 1.245c0 .505.306.962.772 1.155h.11a.482.482 0 00.16.45 2.77 2.77 0 011.2 2.46 4.55 4.55 0 01-2 2.75 1.729 1.729 0 00-.77.51c-.2.12-.4.22-.59.32a.472.472 0 00-.27.33.512.512 0 00.09.43c.11.137.21.28.3.43.063.382.249.734.53 1 .697 2.051.896 4.238.58 6.38a.46.46 0 000 .26 1.471 1.471 0 00.16 2.51l7.17 3.7c-1.48 1.36-4.15 4.18-4.33 7-.22 3.28 2.79 5.06 4 5.65-.66 1.58-2.28 6.67 2.13 10.24 3.51 2.84 7.74 1.64 10.17.52a72.31 72.31 0 01-7.64 9 .51.51 0 00-.38-.27l-5.58-.62a.391.391 0 00-.18 0 .363.363 0 00-.14.06 44.349 44.349 0 00-7.34 6.59 12.367 12.367 0 00-2.6 8.65.472.472 0 00.29.4h-.2a.5.5 0 00-.69-.16 24.014 24.014 0 00-6.74 6.79c-.77-.39-2.11-1-2.42-1.11l-68.18-26.4a4.598 4.598 0 00-4.75.67l-11.71 9.68a1.002 1.002 0 000 1.22c.284.406.828.543 1.27.32l12.94-6.25-27.57 70.52-14.92 38c-1.417 3.581.287 7.698 3.82 9.23l68.08 29.88a7.24 7.24 0 002.85.59 7.131 7.131 0 006.63-4.57l1.1.06-3.68 21.37a.483.483 0 00.2.5c.163.11.94.64 2.63 1.58-.27.77-4 11.43-4.54 18.11-.31 3.72-.2 8.93-.08 14.43.1 4.8.21 9.75.08 14.55-.27 9.89-11.67 43.52-12.68 46.46-27.66 12.56-67.44 35.28-67.84 35.51a.512.512 0 00-.22.61l.48 1.22c-1.12.35-1.91.57-2.43.7a.793.793 0 00-.33-1.06 30.548 30.548 0 00-13.37-1.43 3.873 3.873 0 00-2.52.39c-1.37 1-.59 2.92-.59 4.68m149.39 70.17l3.31-.83s12.48-84.83 13.31-93.93c.83-9.1 2.74-100.38 2.74-100.38l3.86.56s3.31-1.94 3.86-4.69c.55-2.75-2.21-7.18-1.38-13 .83-5.82 1.8-18.33 1.8-18.33l41 8.12 6.22.69.06-.12c.43-.83.65-1.74 1.14-2.55a.624.624 0 01.68-.28.538.538 0 01.2.1l.25-.89s4 6.45 8 6.89a5.853 5.853 0 014.64 2.6l11.09 188.31s-6.63.28-5.52 8.55a185.521 185.521 0 011.1 19.87c.012 6.638-12.14 4.41-13.52 24h-47.48a13.196 13.196 0 00-6.28-9.35c-5.79-3.58-23.79-10-23.79-10l-.83 1.65s-3.38-.41-4.21-3.17c-.83-2.76-.27-3.86-.27-3.86" fill="#00023d" fill-rule="nonzero" stroke="#fff"/><path d="M241.809 210.856a146.942 146.942 0 01-22.1-10.86 71.445 71.445 0 00-22-8.54c0-4.81.31-44.5-4.22-58.2-.74-8.33-3.05-11.49-4.05-12.48.74-.76 2.48-2.59 4.29-4.87 2.46-3.08 3.25-10.29 3.28-10.6a.492.492 0 00-.39-.54c-.249-.05-1-.22-2.49-.74 0-.1.09-.19.14-.29a40.14 40.14 0 01-5.37-1.93 70.422 70.422 0 01-12.86-7.68c-1.5-1.09-3.07-2.08-4.57-3.17-1.24-.9-2.7-2-3.24-3.52a.53.53 0 01-.4-.23.478.478 0 01-.11-.21c0-.09 0-.18-.06-.27a3.14 3.14 0 01-.06-.41.801.801 0 010-.12 1.028 1.028 0 010-.26.9.9 0 01.2-.34.845.845 0 01.34-.2h.06a3.792 3.792 0 011.51-1.62 6.5 6.5 0 001.39-1c.246-.271.36-.637.31-1-.4.42-.81.83-1.2 1.2a.51.51 0 00-.38-.27l-5.58-.62a.366.366 0 00-.18 0 .363.363 0 00-.14.06 44.304 44.304 0 00-7.34 6.59 12.367 12.367 0 00-2.6 8.65.472.472 0 00.29.4h-.2a.489.489 0 00-.69-.16 24.014 24.014 0 00-6.74 6.79c-.77-.39-2.11-1-2.42-1.11l-68.19-26.53a4.598 4.598 0 00-4.75.67l-11.71 9.68a1.005 1.005 0 000 1.22c.284.406.828.543 1.27.32l12.94-6.25-27.57 70.52-14.92 38c-1.417 3.581.287 7.698 3.82 9.23l68.08 29.88c.901.387 1.87.588 2.85.59a7.131 7.131 0 006.63-4.57h.32c.35-.52 1.3-.21 1.08.47-.44 1.34-.47 2.78-.83 4.15-.36 1.37-.68 2.76-1 4.14-.32 1.38-.67 2.52-1 3.78a5.982 5.982 0 01-1.26 2.66l-.18.73c.07 2.008.244 4.01.52 6 .277 1.99.94.64 2.63 1.58 0 .14-.21.61-.45 1.31a114.775 114.775 0 0011 5 88.293 88.293 0 0017.07 3.86c5.89.86 11.78 1.84 17.71 2.36 5.93.52 11.78.7 17.69.75h1.59c.06-2.63.09-4.14.09-4.14l3.86.56s3.31-1.94 3.86-4.69c.55-2.75-2.21-7.18-1.38-13 .83-5.82 2-18.33 2-18.33l40.78 8.12 6.15.68.12-.17c.25-.67.51-1.35.74-2 .271-1.22.744-2.386 1.4-3.45v-.21c.12-.61.34-1.2.41-1.82.27-2.17 0-4.37.25-6.53a4.014 4.014 0 01.88-2.31c.62-.67.74.17 1.6 0 .86-.17 1.41.1 2.21-.55.07-.06.35-.36.66-.72l.52-1.47.4-1.39a.491.491 0 00-.3-.61" fill="#ff486f" fill-rule="nonzero" stroke="#00023d"/><path d="M191.139 472.376a38.801 38.801 0 00-6.29-4.51c-3.52-2-22.2-8.22-22.2-8.22s-2.08 5.65-10.46 5.45c-8.38-.2-8.32-2.38-10-1.88-1.68.5-2.08 3.87-2.38 5.3-.3 1.43-.89 6.59-.89 6.59s50.59 2.48 52.18-2.73m-160.45-71.6s-3.72 23.84-5.4 26c-1.68 2.16-3.17 5-4.46 5s-3.87-3.86-3.91-4.16c-.04-.3-1.09-6.1-4-24.38s.94-24.33.94-24.33 6.79.4 9 1.19c2.21.79 2.43 1.14 2.43 1.14s-1.49.79-1.64 4.11c-.15 3.32 1.93 11.89 3.22 13.18 1.14.965 2.43 1.735 3.82 2.28m81.33-186.72l-2.55 11.35s19.52 1.9 30.27-3.62a87.63 87.63 0 0019.32-14.04l-2.9-6.21s-8.55 13.24-44.14 12.55m22.9-103.07c.32.21 0 9.79 0 9.79s9.65-.55 14.9-2.62c5.25-2.07 9.66-1.93 15-.55s11.45 10.62 13 16.83c1.55 6.21 4 24.28 4 24.28s2.21-12 1-22.76c-1.21-10.76-7.45-20.55-12.83-23-5.38-2.45-14.59-3.86-21.35-3-6.76.86-13.68 1.1-13.68 1.1" fill="#00023d" fill-rule="nonzero"/><path d="M155.429 197.526s6.62-2.62 18.62 1.79 7.72 22.21 7.72 22.21-21.63-3.17-26.34-24z" fill="none" stroke="#00023d"/><path d="M113.399 249.776s-4 11.22-4.53 18c-.53 6.78.28 18.45 0 28.94-.28 10.49-12.77 46.82-12.77 46.82-28 12.68-68 35.57-68 35.57s6 16.07 13 20.42c6.54-1.74 65.11-18.52 79.37-25.44 6.25-3 13.63-14.1 14.48-21.76 0 0-2.7-31.71-6.79-46.53s-7-25.34-7-34.12a85.107 85.107 0 011.75-16.57l-9.51-5.33z" fill="#fff" fill-rule="nonzero"/><path d="M227.619 43.566s9.76-6.31 10.83 1.07c1.07 7.38-8.09 9.52-12.38 8-.59 1.07-3.45 3.1-7.73.83a17.004 17.004 0 01-6.07-5l-9.4-2.14a13.167 13.167 0 01-5.47 10.71c-5.83 4.16-9.4-.71-10.83-1.67" fill="#00023d" fill-rule="nonzero" stroke="#fff"/><path d="M166.528 50.016s-4.88 3.81-5.12 7.5c-.24 3.69 4.17 5.36 4.17 5.36s-3.21 6.07 1.78 10.11c4.99 4.04 11.54-.6 11.54-.6s-7.19 10.48-11.77 13" fill="none" stroke="#fff"/><path d="M140.499 478.776h51.381a1.367 1.367 0 001.319-1.69l-1-4s-25.51.47-35.43.95a83.501 83.501 0 01-17.48-.95l-.68 3.37a1.93 1.93 0 001.878 2.32h.012z" fill-rule="nonzero"/><path d="M144.909 447.096s17-16.74 20.43-45.12m-13.91 9.37s7.94-15.89 9.65-25.54m.57 74.34s-3.69 0-3.69-5.67" fill="none" stroke="#fff"/><path d="M143.199 462.916a41.25 41.25 0 00-.56-6.45" fill-rule="nonzero"/><path d="M11.159 379.326a30.442 30.442 0 0113.93 1.24c.9.55-1.8 1.53-1.52 4.41.38 3.85 1 8.83 1.8 11.18a6.632 6.632 0 005.47 4.41c2.514.301-4.34 20-4.92 24.07-.58 4.07-4.75 6.94-4.75 6.94" fill="#00023d" fill-rule="nonzero" stroke="#fff"/><path d="M29.839 399.556s.48-3.9 6.1-4.67m-10.99-13.01a33.07 33.07 0 004.19-1.18" fill-rule="nonzero"/><path d="M51.159 499.776c-11.517-.003-20.993-9.482-20.993-21a21.016 21.016 0 018.163-16.62 20.807 20.807 0 0112.83-4.38c11.521 0 21 9.48 21 21s-9.479 21-21 21m0-30.57a9.485 9.485 0 00-5.85 2 9.588 9.588 0 00-3.721 7.58c0 5.256 4.324 9.58 9.58 9.58 5.255 0 9.58-4.324 9.58-9.58 0-5.255-4.325-9.58-9.58-9.58h-.009" fill="#fff" fill-rule="nonzero"/><path d="M75.949 487.826s0 0 0 0c-2.195 0-4-1.806-4-4 0-.269.027-.537.08-.8.289-1.408.434-2.842.434-4.28 0-11.69-9.614-21.311-21.304-21.32a21.112 21.112 0 00-13 4.43 4 4 0 01-2.595.957c-2.195 0-4-1.806-4-4 0-1.304.637-2.529 1.705-3.277a29.01 29.01 0 0117.9-6.1c16.075.007 29.298 13.236 29.298 29.31 0 1.979-.2 3.952-.598 5.89a4.01 4.01 0 01-3.92 3.19z" fill="#00023d" fill-rule="nonzero" stroke="#fff"/><path d="M289.179 469.466a21.118 21.118 0 00-6-7.35 20.849 20.849 0 00-7.59-3.72l1 13.08a9.473 9.473 0 013.34 7.26v.01c0 5.255-4.324 9.58-9.58 9.58-5.255 0-9.58-4.325-9.58-9.58 0-2.423.919-4.757 2.57-6.53l-1-12.89a21.036 21.036 0 00-12.991 19.413c0 11.52 9.479 21 21 21 11.52 0 21-9.48 21-21a21 21 0 00-2.159-9.273" fill="#fff" fill-rule="nonzero"/><path d="M261.709 450.776l.63 8.24c-8.013 3.263-13.286 11.088-13.3 19.74 0 1.441.144 2.878.43 4.29.056.267.084.539.084.812a4.011 4.011 0 01-3.194 3.918 5.11 5.11 0 01-.81.08 4.011 4.011 0 01-3.91-3.2c-3.031-14.703 5.719-29.474 20.07-33.88zm27.23 10.36c-1.341 1.736-3.873 2.061-5.61.72a21.006 21.006 0 00-7.81-3.79l-.63-8.28a29.085 29.085 0 0113.32 5.74 4 4 0 01.73 5.61z" fill="#00023d" fill-rule="nonzero" stroke="#fff"/><path d="M75.949 487.826h170.38m-5.31-9.09H80.459" fill="none"/><path d="M270.989 482.036a6.557 6.557 0 01-.78.046c-3.446 0-6.348-2.681-6.62-6.116l-.29-3.75-1-12.89v-.33l-.59-8.22-1.29-16.91c-.264-3.518 2.318-6.664 5.82-7.09.263-.017.527-.017.79 0 3.451-.004 6.355 2.689 6.61 6.13l1.29 17 .63 8.28v.32l1 13.08.26 3.48c.209 3.481-2.367 6.56-5.83 6.97z" fill="#00023d" fill-rule="nonzero" stroke="#fff"/><path d="M248.049 238.376l11.11 188.4m-5.22-188.71l11.56 188.71" fill="none"/><circle cx="251.349" cy="232.806" r="5.84"/><path d="M270.259 246.896c-7.8 0-14.22 6.419-14.22 14.22 0 7.801 6.42 14.22 14.22 14.22v-28.44z" fill="#00023d" fill-rule="nonzero"/><path d="M276.119 276.216l-4.59.92a1.266 1.266 0 01-1.51-1.235v-29.57a1.266 1.266 0 011.51-1.235l4.59.92a1.262 1.262 0 011 1.24v27.71c.009.6-.413 1.126-1 1.25z" fill="#00023d" fill-rule="nonzero" stroke="#fff"/><path d="M249.869 258.676h5.62" fill="none"/><path d="M179.709 70.458s-.25 8 2 12.23 15.47 12.48 20.22 14.23c4.75 1.75 7.24.5 8.24-.25s7.49-10.73 8-16.22c4.49.75 6.49-1.5 6.49-1.5s-3.49-14.48-3.49-17.22c0-2.74 1.75-6.74 1.75-6.74" fill="#00023d" fill-rule="nonzero" stroke="#fff"/><path d="M213.709 83.016a51.033 51.033 0 00-7-1.45m-3.58-19.38s5-4 9.73-3.74" fill="none" stroke="#fff"/><path d="M209.369 68.156c-.888 0-1.62-.731-1.62-1.62v-2c0-.889.732-1.62 1.62-1.62.889 0 1.62.731 1.62 1.62v2c0 .889-.731 1.62-1.62 1.62" fill="#fff" fill-rule="nonzero"/><path d="M154.469 97.396a12.078 12.078 0 012.48-8.27 44.67 44.67 0 017.25-6.5l4.701-.045" fill="none" stroke="#00023d" stroke-linecap="round"/><path d="M189.109 121.126a2.526 2.526 0 00-.38-.32c-.136-.094-6.18-.56-15.51-10a67.346 67.346 0 00-18.76-13.38" fill="none" stroke="#00023d"/><path d="M188.819 195.066s5.12-51.29 4.2-61.71c-.73-8.27-3-11.32-3.91-12.23" fill="none" stroke="#00023d"/><path d="M201.879 97.126s-5.19 0-7.64 5.85" fill="none" stroke="#fff"/><path d="M187.209 56.466a9.211 9.211 0 00-5.89-3.92c-3.36-.56-4.48 2.52-3.64 7 .84 4.48 1.68 8.41 3.36 9.53 1.68 1.12 4.77-.84 4.77-.84" fill="#00023d" fill-rule="nonzero" stroke="#fff"/><path d="M177.709 81.846a31.876 31.876 0 005.17 9.49 61.18 61.18 0 009.43 8.91l5.48-3.94s-8.65-4.6-12.89-7.18a25.788 25.788 0 01-7.19-7.28" fill="#00023d" fill-rule="nonzero"/><path d="M198.709 95.866c-.27-.84-1.86-5.08-3.69-9.12a63.724 63.724 0 01-3.17-14.62c-.87-11.19 3.78-25.9 3.83-26.05l-3.6-1.23c-.2.63-4.94 15.61-4 27.59.09 1.11.21 2.23.37 3.33a12.852 12.852 0 00-5-3.84c-8.15-3-13.42-15.36-12.34-23.64l-3.75-.52c-1.32 10.12 4.75 24.18 14.83 27.85 3.41 1.24 6.85 7.15 9.35 12.63.57 1.69 1.13 3.2 1.62 4.45a5.016 5.016 0 005.6 3.19" fill="#fff" fill-rule="nonzero"/><path d="M157.519 35.926c2.49-1.2 5.46-4.12 2.26-6.87 3.06-1.15 1.64-2 1.64-2s3.32-2.6.19-8.55c19 .17 13.06-1.62 25-2.49 11.94-.87 23.23-1 28.38 3.13 5.15 4.13 9.35 12.8 9.3 14.92-.05 2.12.54 10.4-7.63 11.24a5.423 5.423 0 01-3.94 3.08 35.875 35.875 0 00-6.59-.38l.71-.16c-6.3-1.65-14.09-4.57-14.09-4.57a94.33 94.33 0 01-13.04 6.75h-12.14a48.243 48.243 0 01-8.54-5.85c-2.628-2.251.87-5.22-1.51-8.25z" fill="#00023d" fill-rule="nonzero"/><path d="M214.599 15.366c-12.72-7.8-34.59-3.78-40.39-1.21-2.61 1.15-7.56 1.47-12.2 1.46a1.496 1.496 0 00-1.432 1.489c0 .649.424 1.226 1.042 1.421a196.897 196.897 0 0024 5.55c13.38 2.11 27.64 9.36 33.9 12.82a1.15 1.15 0 01-.46 2.14l-5.64.38a16.468 16.468 0 01-7.08-1.08 212.34 212.34 0 00-22.74-7.48c-6.94-1.77-16.59-3.29-23.81-4.3a1.256 1.256 0 00-1.362 1.245c0 .505.306.962.772 1.155l27.37 10.63-11.12 4.52a16.815 16.815 0 01-8.7 1.06l-7.19-1a1.456 1.456 0 00-1.604 1.442c0 .541.303 1.04.784 1.288l8.23 4.25a16.819 16.819 0 0015.3.07l11.71-5.9 12 3.73a16.46 16.46 0 0010.3-.16l13.35-5.24s3.12-17.16-15-28.23m-7.67 9s-17.17-5-22.69-5.92c22-1.3 30.7 4.15 30.7 4.15l-8.01 1.77z" fill="#fff" fill-rule="nonzero"/><path d="M172.629 39.976c-2.841.18-5.694.093-8.52-.26a11.873 11.873 0 01-5.95-1.84 1.824 1.824 0 01-.738-1.463 1.829 1.829 0 012.258-1.767 87.44 87.44 0 0113 5.33m97.03 227.265s-3.5.37-8.84-2-4.79-5.89-4.79-5.89-1.84 6.63 3.31 11.41 8.84 5 9.39 5.15c.55.15 1.29.18 1.1-1.47-.19-1.65-.18-7.18-.18-7.18m.56-5.105l.19 9.02 6.25-.92.19-7.54-6.63-.56zm-13.16-29.28c0 3.182-2.618 5.8-5.8 5.8-3.181 0-5.8-2.618-5.8-5.8s2.619-5.8 5.8-5.8c3.182 0 5.8 2.618 5.8 5.8m-99.04 223.38l-15.1 5.15-.18-5.15s6.44-.55 9.94-.74a12.837 12.837 0 005.15-1.11l.19 1.85zM28.26 380.874s2.58 5.71 4.79 9.39c2.21 3.68 2.76 4.79 2.76 4.79s-5 2-5 1.47-4-14.91-4-14.91l1.45-.74zm164.309 91.902s2.55 4.79.33 5.71h-53.61s-.59-.39-.59-1.95c.075-1.203.338-2.388.78-3.51.443-1.122 37.88.72 53.08-.26m-178.62-93.67s-3.12-1-4.48 0c-1.36 1-.59 2.93-.59 4.68 0 1 .79 21 2.14 31.13a65.3 65.3 0 004.749 17.297c.044.101.321 1.083 1.881.883a20.18 20.18 0 003.77-1.05 87.395 87.395 0 01-5.23-18.17 245.192 245.192 0 01-2.25-34.78" fill="#fff" fill-rule="nonzero"/><path d="M234.189 228.596s5.71 5 13.31-.13" fill="none" stroke="#fff"/><path d="M236.269 214.406a42.735 42.735 0 01-.76 8.61c-.76 3-1.31 5.59-1.31 5.59" fill-rule="nonzero"/><path d="M259.059 216.722c1.77.131 3.519.441 5.219.925 1.522.616 7.937 5.853 7.828 8.009-.109 2.157-6.523 10.68-6.523 10.68s-2.827.206-3.044-1.437" fill="#00023d" fill-rule="nonzero" stroke="#fff"/><path d="M263.789 225.766l1.9.8" fill="none"/><path d="M234.709 228.896s4.91 6.77 11.71 7" fill="none" stroke="#fff"/><path d="M147.149 104.776a28.502 28.502 0 00-2.94-1.42l-68.17-26.58a4.578 4.578 0 00-4.75.67l-11.71 9.68a1.005 1.005 0 000 1.22c.284.406.828.543 1.27.32l13.11-6.32s30.55 12.64 39.54 16.43c8.99 3.79 24 12.14 24 12.14l6.87-.56" fill="#ff486f" fill-rule="nonzero"/><path d="M147.149 104.776a28.502 28.502 0 00-2.94-1.42l-68.17-26.58a4.578 4.578 0 00-4.75.67l-11.71 9.68a1.005 1.005 0 000 1.22c.284.406.828.543 1.27.32l13.11-6.32s30.55 12.64 39.54 16.43c8.99 3.79 24 12.14 24 12.14l6.87-.56m41.49 112.62a221.56 221.56 0 01-11.65-3.79 29.914 29.914 0 01-19.46-23c-2.28-13.08-11.31-25-13.84-39.88a5.154 5.154 0 00-2.9-4.28" fill="none" stroke="#00023d"/><path d="M227.849 231.536l-.24.51a285.986 285.986 0 01-41.76-9.06" fill-rule="nonzero"/><path d="M135.019 120.836c9.24.41 18-3.95 20.45-4.4a13.518 13.518 0 014.46-.09 20.738 20.738 0 017 2.53c6.68 3.74 10.5 13.76 12 21.27 0 0 6.51 40.55 9.19 55 8.69.68 43.45 16.82 43.45 16.82a35.653 35.653 0 01-.51 10.08 49.982 49.982 0 01-3.21 9.51m-111.81-17.36c-.29-1.43 7.41-50.31 24.57-92.92m14-24a19.305 19.305 0 00-10.14 13.71l-7 .31" fill="none" stroke="#00023d"/><path d="M236.239 214.216l-4.02-.5" fill="none"/><path d="M47.899 197.426a7.101 7.101 0 01-4.36-6.543c0-1.025.222-2.037.65-2.967a7.023 7.023 0 017.91-4.26l-1.56 3.59a3.248 3.248 0 00-3.22 2c-.79 1.82 0 3.74 2.09 4.66a3.444 3.444 0 004.83-1.66 3.247 3.247 0 00-.72-3.74l1.56-3.59a7.021 7.021 0 012.3 8.68 7.1 7.1 0 01-6.563 4.408c-1.005 0-2-.214-2.917-.628m10.63-24.47a3.475 3.475 0 00-1.608-.394 3.497 3.497 0 00-3.48 3.48c0 1.475.937 2.796 2.328 3.284a3.48 3.48 0 001.608.394c1.91 0 3.48-1.571 3.48-3.48a3.486 3.486 0 00-2.328-3.284m-4.27 9.87c-3.56-1.55-5.48-5.44-4-8.8a5.005 5.005 0 013.27-2.9l-1.42-.61 1.5-3.46 12.64 5.48-1.5 3.46-1.42-.61a5 5 0 01.11 4.37c-1.46 3.36-5.61 4.62-9.17 3.08m1.75-21.38l7.05-1.86-3.45-6.45 1.28-2.93 12.63 5.48-1.5 3.46-7.3-3.17 3 5.6-6.15 1.66 7.3 3.17-1.5 3.46-12.64-5.48 1.28-2.94zm16.35-20.39a3.437 3.437 0 00-1.163-.202 3.456 3.456 0 00-3.44 3.44 3.457 3.457 0 003.44 3.44 3.445 3.445 0 003.44-3.44 3.448 3.448 0 00-2.277-3.238m-4.24 9.76a7.26 7.26 0 01-4.417-6.674c0-3.977 3.273-7.25 7.25-7.25s7.25 3.273 7.25 7.25c0 .996-.205 1.981-.603 2.894a7.2 7.2 0 01-6.616 4.375c-.985 0-1.96-.202-2.864-.595m9.45-18.45l5.11 2.21-1.51 3.47-12.63-5.48 1.5-3.47 5.16 2.24-3.31-6.51 1.79-4.12 3.94 7.96 9.07-3.33-1.93 4.44-7.19 2.59zm6.95-19.33a3.474 3.474 0 00-1.134-.19 3.497 3.497 0 00-3.48 3.48 3.497 3.497 0 003.48 3.48 3.484 3.484 0 003.194-2.1 3.456 3.456 0 00-2.06-4.67m-4.27 9.86c-3.56-1.55-5.48-5.44-4-8.8a5.005 5.005 0 013.27-2.9l-1.42-.61 1.5-3.46 12.64 5.48-1.5 3.46-1.42-.61a5 5 0 01.11 4.37c-1.46 3.36-5.61 4.62-9.17 3.08m4.8-20.12l-1.52 3.49-3.03-1.31 4.64-10.69 3.03 1.31-1.62 3.74 9.6 4.17-1.5 3.46-9.6-4.17z" fill="#fff" fill-rule="nonzero"/><path d="M104.649 117.226l17.74 7.93a1.798 1.798 0 002.36-.9l3.23-7.23a1.797 1.797 0 00-.9-2.36l-17.74-7.93a1.8 1.8 0 00-2.36.9l-3.27 7.22a1.8 1.8 0 00.9 2.36" fill="#00023d" fill-rule="nonzero"/><path d="M138.019 160.706l3.86 1.65" fill="none"/><path d="M254.599 453.946s-2.07-21.1-.69-24.14a5.568 5.568 0 014.83-3c2.036-.039-4.1 3.69 7.47 0" fill="none" stroke="#fff"/><path d="M262.283 217.386a12.65 12.65 0 00-8-3.45c-5.24-.41-12.55-.66-12.55-.66M83.639 478.836a63.169 63.169 0 00-5.17-19.45c-4.55-10.14-16.34-13.45-11.38-15.31 4.96-1.86 21.1 12 24.62 34.14m145.26-263.31s19.53 2.27 21.23 2.27a4.862 4.862 0 014.4 3.9c.7 2.6 1.9 10.4 1.6 11.3-.3.9-4.4 6.2-5.5 7.6-1.1 1.4-3.3-1.9-2.1-4.4" fill="#00023d" fill-rule="nonzero" stroke="#fff"/><path d="M177.389 265.776s-21.72.37-40.68-4.42-23.56-11.78-23.56-11.78 4.23 2 5.15 2.39a81.16 81.16 0 0034.24 7.36c19.15-.18 25.77-.18 25.77-.18l-.92 6.63z" fill="#00023d" fill-rule="nonzero"/><path d="M26.339 402.776s2.58 1.69 4.46 1.64m-4.76 2.11a8.918 8.918 0 003.91 1.44" fill="none" stroke="#fff"/><path d="M25.989 410.296a7.323 7.323 0 003.22 1.18" fill-rule="nonzero"/><path d="M163.369 463.776s2-2.32 2.23-4.19m1.46 5a8.907 8.907 0 002-3.68m1.72 4.24a7.31 7.31 0 001.61-3" fill="none" stroke="#fff"/></svg>