<svg id="Layer_1" data-name="Layer 1" xmlns="http://www.w3.org/2000/svg" viewBox="0 0 1100 1391.27"><defs><style>.cls-1{fill:none;stroke-linecap:round;stroke-linejoin:round;stroke:#00023d}</style></defs><rect class="cls-1" x="467.37" y="1090.12" width="30.85" height="15.55" rx="2.07" ry="2.07"/><rect class="cls-1" x="467.37" y="1071.72" width="18.41" height="15.55" rx="2.07" ry="2.07"/><path class="cls-1" d="M470.29 1087.41v2.32"/><rect class="cls-1" x="467.37" y="1053.46" width="30.85" height="15.56" rx="2.07" ry="2.07"/><rect class="cls-1" x="467.37" y="1035.05" width="18.41" height="15.55" rx="2.07" ry="2.07"/><path class="cls-1" d="M470.29 1050.74v2.32m0 16.14v2.32"/><rect class="cls-1" x="467.37" y="1016.79" width="30.85" height="15.55" rx="2.07" ry="2.07"/><path class="cls-1" d="M469.45 998.38h14.26a2.07 2.07 0 012.07 2.07v11.41a2.08 2.08 0 01-2.08 2.08h-14.25a2.07 2.07 0 01-2.07-2.07v-11.41a2.07 2.07 0 012.07-2.08zm.84 15.69v2.33m0 16.13v2.32"/><rect class="cls-1" x="467.37" y="980.12" width="30.85" height="15.55" rx="2.07" ry="2.07"/><rect class="cls-1" x="467.37" y="961.72" width="18.41" height="15.55" rx="2.07" ry="2.07"/><path class="cls-1" d="M470.29 977.41v2.32m0 16.13v2.33"/><rect class="cls-1" x="467.37" y="943.46" width="30.85" height="15.55" rx="2.07" ry="2.07"/><path class="cls-1" d="M470.29 940.74v2.32m0 16.14v2.32"/><rect class="cls-1" x="467.37" y="1255.79" width="30.85" height="15.55" rx="2.07" ry="2.07"/><rect class="cls-1" x="467.37" y="1237.38" width="18.41" height="15.55" rx="2.07" ry="2.07"/><path class="cls-1" d="M470.29 1253.07v2.33"/><rect class="cls-1" x="467.37" y="1219.12" width="30.85" height="15.56" rx="2.07" ry="2.07"/><rect class="cls-1" x="467.37" y="1200.72" width="18.41" height="15.55" rx="2.07" ry="2.07"/><path class="cls-1" d="M470.29 1216.41v2.32m0 16.13v2.32"/><rect class="cls-1" x="467.37" y="1182.46" width="30.85" height="15.55" rx="2.07" ry="2.07"/><path class="cls-1" d="M469.45 1164h14.26a2.07 2.07 0 012.07 2.07v11.41a2.08 2.08 0 01-2.08 2.08h-14.25a2.07 2.07 0 01-2.07-2.07v-11.41a2.07 2.07 0 012.07-2.08zm.84 15.74v2.32m0 16.14v2.32"/><rect class="cls-1" x="467.37" y="1145.79" width="30.85" height="15.55" rx="2.07" ry="2.07"/><rect class="cls-1" x="467.37" y="1127.38" width="18.41" height="15.55" rx="2.07" ry="2.07"/><path class="cls-1" d="M470.29 1143.07v2.33m0 16.13v2.32"/><rect class="cls-1" x="467.37" y="1109.12" width="30.85" height="15.55" rx="2.07" ry="2.07"/><path class="cls-1" d="M470.29 1106.41v2.32m0 16.13v2.32"/><path stroke="#fff" fill="none" stroke-linecap="round" stroke-linejoin="round" d="M395.27 797.89h24.55v552.17h-24.55z"/><path fill="#fff" d="M395.27 797.89h10.36v552.17h-10.36z"/><path class="cls-1" d="M394.62 1350.06V797.89"/></svg>