<svg viewBox="0 0 13 13" xmlns="http://www.w3.org/2000/svg" fill-rule="evenodd" clip-rule="evenodd" stroke-linecap="round" stroke-linejoin="round"><path d="M9.285 6.385c0 1.6-1.3 2.9-2.9 2.9-1.6 0-2.9-1.3-2.9-2.9 0-1.6 1.3-2.9 2.9-2.9 1.6 0 2.9 1.3 2.9 2.9" fill="#00023d" fill-rule="nonzero"/><path d="M6.385 1.185c-2.9 0-5.2 2.3-5.2 5.2 0 2.9 2.3 5.2 5.2 5.2 2.9 0 5.2-2.3 5.2-5.2 0-2.9-2.3-5.2-5.2-5.2zm0 8.1c-1.6 0-2.9-1.3-2.9-2.9 0-1.6 1.3-2.9 2.9-2.9 1.6 0 2.9 1.3 2.9 2.9 0 1.6-1.3 2.9-2.9 2.9z" fill="none" stroke="#00023d"/><circle cx="6.385" cy="6.385" r="6.1" fill="none" stroke="#fff" stroke-width=".57"/><path d="M9.185 6.285c0 1.5-1.2 2.7-2.7 2.7-1.5 0-2.7-1.2-2.7-2.7 0-1.5 1.2-2.7 2.7-2.7 1.5 0 2.7 1.2 2.7 2.7" fill="#00023d" fill-rule="nonzero"/><path d="M8.885 6.385s-1.1 1.3-2.4 1.3c-1.4 0-2.4-1.3-2.4-1.3s1.1-1.3 2.4-1.3c1.3 0 2.4 1.3 2.4 1.3" fill="#fff" fill-rule="nonzero"/><path d="M7.285 6.485c0 .6-.5 1.1-1.1 1.1-.6 0-1.1-.5-1.1-1.1 0-.6.5-1.1 1.1-1.1.6 0 1.1.5 1.1 1.1" fill="#00023d" fill-rule="nonzero"/><path d="M7.185 6.185c0 .2-.2.4-.4.4s-.4-.2-.4-.4.2-.4.4-.4.4.2.4.4" fill="#fff" fill-rule="nonzero"/><path d="M6.485 10.385c-2.2 0-4.1-1.8-4.1-4.1 0-2.2 1.8-4.1 4.1-4.1 2.2 0 4.1 1.8 4.1 4.1-.1 2.3-1.9 4.1-4.1 4.1m0-8c-2.2 0-3.9 1.8-3.9 3.9 0 2.2 1.8 3.9 3.9 3.9 2.2 0 3.9-1.8 3.9-3.9 0-2.2-1.8-3.9-3.9-3.9" fill="#fff" fill-rule="nonzero"/></svg>