<svg version="1.1" id="Layer_1" xmlns="http://www.w3.org/2000/svg" xmlns:xlink="http://www.w3.org/1999/xlink" viewBox="0 0 1100 1391.3" xml:space="preserve"><style>.st0{fill:#00023d}.st3{fill:#fff}</style><path class="st0" d="M899.5 1014.9c0 1.6-1.3 2.9-2.9 2.9-1.6 0-2.9-1.3-2.9-2.9 0-1.6 1.3-2.9 2.9-2.9 1.6 0 2.9 1.3 2.9 2.9"/><path d="M896.6 1009.7c-2.9 0-5.2 2.3-5.2 5.2s2.3 5.2 5.2 5.2 5.2-2.3 5.2-5.2v0c0-2.9-2.3-5.2-5.2-5.2zm0 8.1c-1.6 0-2.9-1.3-2.9-2.9 0-1.6 1.3-2.9 2.9-2.9 1.6 0 2.9 1.3 2.9 2.9 0 1.6-1.3 2.9-2.9 2.9h0z" fill="none" stroke="#00023d" stroke-linecap="round" stroke-linejoin="round"/><defs><path id="SVGID_1_" d="M-1095 366.3h2195v1080h-2195z"/></defs><clipPath id="SVGID_2_"><use xlink:href="#SVGID_1_" overflow="visible"/></clipPath><circle cx="896.6" cy="1014.9" r="6.1" fill="none" stroke="#fff" stroke-width=".57" stroke-linecap="round" stroke-linejoin="round"/><path class="st0" d="M899.4 1014.8c0 1.5-1.2 2.7-2.7 2.7-1.5 0-2.7-1.2-2.7-2.7 0-1.5 1.2-2.7 2.7-2.7 1.5 0 2.7 1.2 2.7 2.7"/><path class="st3" d="M899.1 1014.9s-1.1 1.3-2.4 1.3c-1.4 0-2.4-1.3-2.4-1.3s1.1-1.3 2.4-1.3c1.3 0 2.4 1.3 2.4 1.3"/><path class="st0" d="M897.5 1015c0 .6-.5 1.1-1.1 1.1s-1.1-.5-1.1-1.1c0-.6.5-1.1 1.1-1.1s1.1.5 1.1 1.1"/><path class="st3" d="M897.4 1014.7c0 .2-.2.4-.4.4s-.4-.2-.4-.4.2-.4.4-.4.4.2.4.4"/><path class="st3" d="M896.7 1018.9c-2.2 0-4.1-1.8-4.1-4.1 0-2.2 1.8-4.1 4.1-4.1 2.2 0 4.1 1.8 4.1 4.1-.1 2.3-1.9 4.1-4.1 4.1m0-8c-2.2 0-3.9 1.8-3.9 3.9 0 2.2 1.8 3.9 3.9 3.9 2.2 0 3.9-1.8 3.9-3.9 0-2.2-1.8-3.9-3.9-3.9"/></svg>