<svg id="Layer_1" data-name="Layer 1" xmlns="http://www.w3.org/2000/svg" viewBox="0 0 1098.52 2851"><defs><clipPath id="clip-path"><path class="cls-1" d="M-1096.48 1771h2195v1080h-2195z"/></clipPath><clipPath id="clip-path-2"><path class="cls-1" d="M642.08 1794.41v59.84h-81.7v3.78h81.7v59.65h-81.7v3.78h81.7v59.65h-81.7v3.77h81.7v59.65h-81.7v3.78h81.7v61.41h3.71v-61.41h81.7v-3.78h-81.7v-59.65h81.7v-3.77h-81.7v-59.65h81.7v-3.78h-81.7v-59.65h81.7v-3.78h-81.7v-59.84h-3.71z"/></clipPath><clipPath id="clip-path-4"><path class="cls-1" d="M904 1794.41v59.85h-79.8a1.89 1.89 0 100 3.78H904v59.65h-79.8a1.89 1.89 0 100 3.78H904v59.65h-79.8a1.89 1.89 0 100 3.78H904v59.65h-79.8a1.89 1.89 0 100 3.78H904v61.41h3.7v-61.41h81.7v-3.78h-81.7v-59.65h81.7v-3.78h-81.7v-59.65h81.7v-3.78h-81.7V1858h81.7v-3.78h-81.7v-59.85z"/></clipPath><clipPath id="clip-path-6"><path class="cls-1" d="M1084.24 2048.31h14.28v-3.78h-14.28zm0-63.43h14.28v-3.78h-14.28zm0-63.43h14.28v-3.78h-14.28zm0-63.43h14.28v-3.78h-14.28z"/></clipPath><clipPath id="clip-path-11"><path class="cls-1" d="M-1096.48 1172h2195v1679h-2195z"/></clipPath><style>.cls-1,.cls-11,.cls-3,.cls-6,.cls-8{fill:none}.cls-2{fill:#00023d}.cls-3,.cls-8{stroke:#fff}.cls-3,.cls-6{stroke-linecap:round;stroke-linejoin:round}.cls-4{fill:#fff}.cls-5{clip-path:url(#clip-path)}.cls-11,.cls-6{stroke:#00023d}.cls-11,.cls-8{stroke-miterlimit:10}.cls-12{fill:#ff486f}</style></defs><path class="cls-2" d="M0 0h1098.52v2851H0z"/><path class="cls-3" d="M11.8 2188.17h26.74v39.02H11.8zm-2.18 39.04h31.7v3.13H9.62zm5.05-28.3h23.6m-12.99 28.07v-37.22"/><path class="cls-4" d="M41.61 2232.08v-1.74H9.62l31.99 1.74z"/><path class="cls-3" d="M47.75 2188.17h26.74v39.02H47.75zm-2.18 39.04h31.7v3.13h-31.7zm5.06-28.3h23.59m-12.99 28.07v-37.22"/><path class="cls-4" d="M77.56 2232.08v-1.74H45.58l31.98 1.74z"/><path class="cls-3" d="M116.43 2188.17h26.74v39.02h-26.74zm-2.18 39.04h31.7v3.13h-31.7zm5.05-28.3h23.6m-12.99 28.07v-37.22"/><path class="cls-4" d="M146.24 2232.08v-1.74h-31.99l31.99 1.74z"/><path class="cls-3" d="M152.39 2188.17h26.74v39.02h-26.74zm-2.18 39.04h31.7v3.13h-31.7zm5.05-28.3h23.59m-12.98 28.07v-37.22"/><path class="cls-4" d="M182.2 2232.08v-1.74h-31.99l31.99 1.74z"/><path class="cls-3" d="M218.16 2188.17h26.74v39.02h-26.74zm-2.18 39.04h31.7v3.13h-31.7zm5.05-28.3h23.59m-12.98 28.07v-37.22"/><path class="cls-4" d="M247.96 2232.08v-1.74h-31.98l31.98 1.74z"/><path class="cls-3" d="M11.8 2283.34h26.74v39.02H11.8zm-2.18 39.04h31.7v3.14H9.62zm5.05-28.3h23.6m-12.99 28.07v-37.22"/><path class="cls-4" d="M41.61 2327.26v-1.74H9.62l31.99 1.74z"/><path class="cls-3" d="M47.75 2283.34h26.74v39.02H47.75zm-2.18 39.04h31.7v3.14h-31.7zm5.06-28.3h23.59m-12.99 28.07v-37.22"/><path class="cls-4" d="M77.56 2327.26v-1.74H45.58l31.98 1.74z"/><path class="cls-3" d="M116.43 2283.34h26.74v39.02h-26.74zm-2.18 39.04h31.7v3.14h-31.7zm5.05-28.3h23.6m-12.99 28.07v-37.22"/><path class="cls-4" d="M146.24 2327.26v-1.74h-31.99l31.99 1.74z"/><path class="cls-3" d="M152.39 2283.34h26.74v39.02h-26.74zm-2.18 39.04h31.7v3.14h-31.7zm5.05-28.3h23.59m-12.98 28.07v-37.22"/><path class="cls-4" d="M182.2 2327.26v-1.74h-31.99l31.99 1.74z"/><path class="cls-3" d="M218.16 2283.34h26.74v39.02h-26.74zm-2.18 39.04h31.7v3.14h-31.7zm5.05-28.3h23.59m-12.98 28.07v-37.22"/><path class="cls-4" d="M247.96 2327.26v-1.74h-31.98l31.98 1.74z"/><path class="cls-3" d="M11.8 2373.37h26.74v39.02H11.8zm-2.18 39.04h31.7v3.13H9.62zm5.05-28.3h23.6m-12.99 28.07v-37.22"/><path class="cls-4" d="M41.61 2417.28v-1.73H9.62l31.99 1.73z"/><path class="cls-3" d="M47.75 2373.37h26.74v39.02H47.75zm-2.18 39.04h31.7v3.13h-31.7zm5.06-28.3h23.59m-12.99 28.07v-37.22"/><path class="cls-4" d="M77.56 2417.28v-1.73H45.58l31.98 1.73z"/><path class="cls-3" d="M116.43 2373.37h26.74v39.02h-26.74zm-2.18 39.04h31.7v3.13h-31.7zm5.05-28.3h23.6m-12.99 28.07v-37.22"/><path class="cls-4" d="M146.24 2417.28v-1.73h-31.99l31.99 1.73z"/><path class="cls-3" d="M152.39 2373.37h26.74v39.02h-26.74zm-2.18 39.04h31.7v3.13h-31.7zm5.05-28.3h23.59m-12.98 28.07v-37.22"/><path class="cls-4" d="M182.2 2417.28v-1.73h-31.99l31.99 1.73z"/><path class="cls-3" d="M218.16 2373.37h26.74v39.02h-26.74zm-2.18 39.04h31.7v3.13h-31.7zm5.05-28.3h23.59m-12.98 28.07v-37.22"/><path class="cls-4" d="M247.96 2417.28v-1.73h-31.98l31.98 1.73z"/><path class="cls-2" d="M199.96 2182.76h19.45v237.52h-19.45zm-194.48 0h45.93v237.52H5.48z"/><g class="cls-5"><path class="cls-2" d="M559.94 2110h9.43s25.51-97.18 25.51-204.71v-110.95h-34.94z"/><path class="cls-4" d="M991.7 2485.22l-67.4-214.11-55.22.26-158.24 412.79H991.7v-198.94zm3.35 198.94h57.88l-57.88-184.53v184.53z"/><path class="cls-2" d="M672.8 2660.85h101.63v2.47H672.8zm321.93 0h101.63v2.47H994.73zm-209.37-336.88h9.5v359.84h-9.5z"/><path class="cls-2" d="M785.36 2323.76H979.3v9.42H785.36z"/><path class="cls-4" d="M463.94 1914.39S442 1888 409.32 1882.61s-62.68 37.61-93.12 22.39-35.37-52.38-65.81-77.9-71.63 34-130.28 21.94-55.52-50.14-84.17-63.12-35.36-1.81-35.36-1.81l-.45 76.08 267.72.48v17h-6.27v192.6h25.07l44.77-35v-74.77l-6.27-.45V1922h140.13z"/><path class="cls-4" d="M322.92 1845.45c1.41.08 81 0 99.83 0s13.43-23.28-1.34-28.2-11.19 13-37.16 18.8-20.59-3.13-33.58-5.37c-22.06-3.8-51.48 13.43-27.76 14.77"/><path class="cls-2" d="M898 2419.64a2.89 2.89 0 11-2.89-2.89 2.89 2.89 0 012.89 2.89"/><path class="cls-4" d="M728.12 2110h-9.42s-25.51-97.18-25.51-204.71v-110.95h34.94z"/><path class="cls-3" d="M525.82 2110.4h225.19v17.94H525.82z"/><path class="cls-4" d="M751.01 2128.34H525.82l225.19 10.96v-10.96z"/><path class="cls-3" d="M370.65 2166.74h983.5v35.88h-983.5zm554.63 104.02a29.54 29.54 0 00-58.64 0zm-139.92 220.01v-166.8h194.22v136.44"/><path class="cls-6" d="M979.58 2446.74v237.07H785.36v-193.04"/><path class="cls-3" d="M940.38 2313.42h50.81v176.27"/><path class="cls-6" d="M847.69 2313.42h92.69"/><path class="cls-3" d="M773.76 2519.43v-206.01h73.93"/><path class="cls-2" d="M551.98 1793.81h7.78v316.42h-7.78z"/><path class="cls-3" d="M551.98 1793.81h175.98v316.42H551.98z"/><path class="cls-3" d="M542.47 1784.53h194.55v325.7H542.47zm464.69 643.09h22.08v29.57h-22.08z"/><path class="cls-4" d="M1025.25 2436.21H1011a.68.68 0 01-.68-.68v-2.88a.68.68 0 01.68-.68h14.25a.68.68 0 01.68.68v2.88a.68.68 0 01-.68.68m-12.7 5.79h-.65a1.58 1.58 0 010-3.15h.65a1.58 1.58 0 010 3.15m0 5h-.65a1.58 1.58 0 010-3.15h.65a1.58 1.58 0 010 3.15m0 5.09h-.65a1.58 1.58 0 010-3.15h.65a1.58 1.58 0 010 3.15m5.93-10.09h-.65a1.58 1.58 0 110-3.15h.65a1.58 1.58 0 010 3.15m0 5h-.65a1.58 1.58 0 110-3.15h.65a1.58 1.58 0 010 3.15m0 5.09h-.65a1.58 1.58 0 110-3.15h.65a1.58 1.58 0 010 3.15m5.93-10.09h-.65a1.58 1.58 0 010-3.15h.65a1.58 1.58 0 010 3.15m0 5h-.65a1.58 1.58 0 010-3.15h.65a1.58 1.58 0 010 3.15m0 5.09h-.65a1.58 1.58 0 010-3.15h.65a1.58 1.58 0 010 3.15"/><path class="cls-6" d="M895.14 2414.42a5.22 5.22 0 105.22 5.22 5.22 5.22 0 00-5.22-5.22zm0 8.11a2.89 2.89 0 112.89-2.89 2.89 2.89 0 01-2.89 2.89z"/><path class="cls-2" d="M812.72 2526.17h-3.82a5.82 5.82 0 01-5.81-5.81v-41.14a5.82 5.82 0 015.81-5.81h3.82a2.33 2.33 0 010 4.66h-3.82a1.16 1.16 0 00-1.16 1.15v41.14a1.16 1.16 0 001.16 1.15h3.82a2.33 2.33 0 010 4.66"/><path class="cls-2" d="M810.32 2473.13v-2.4a1 1 0 011-1h6.27a1 1 0 011 1v57.73a1 1 0 01-1 1h-6.27a1 1 0 01-1-1v-2.25"/><path class="cls-3" d="M812.72 2526.17h-3.82a5.82 5.82 0 01-5.81-5.81v-41.14a5.82 5.82 0 015.81-5.81h3.82a2.33 2.33 0 010 4.66h-3.82a1.16 1.16 0 00-1.16 1.15v41.14a1.16 1.16 0 001.16 1.15h3.82a2.33 2.33 0 010 4.66z"/><path class="cls-3" d="M810.32 2473.13v-2.4a1 1 0 011-1h6.27a1 1 0 011 1v57.73a1 1 0 01-1 1h-6.27a1 1 0 01-1-1v-2.25m0-5.28v-42.84m256.82 71.21h-.14a1.51 1.51 0 01-1.4-1.51 1.5 1.5 0 01.06-.44c.28-1.61 2.36-16.81 5.63-41a8.38 8.38 0 00-15.89-4.67l-2.5 5.33a1.5 1.5 0 11-2.72-1.27l2.5-5.33a11.38 11.38 0 0121.58 6.34c-1 7.45-2.4 17.76-3.56 26.2-.58 4.23-1.1 8-1.48 10.69-.19 1.36-.35 2.45-.46 3.2-.2 1.32-.37 2.46-1.62 2.46zm1.45-1.52z"/><path class="cls-4" d="M1070.59 2590.57l12.29-57.84-7.52 4.27-3.26-6.02-6.27 5.26-2.26-6.52-4.77 6.77-4.26-5.26-.82 59.34h16.87zm-6.59-93.64a8.37 8.37 0 017.32 9.43c-.82 6.09-1.57 11.61-2.23 16.49h3c.78-5.71 1.55-11.45 2.18-16.09a11.38 11.38 0 00-21.58-6.34l-2.5 5.33a1.5 1.5 0 102.72 1.27l2.5-5.33a8.39 8.39 0 018.57-4.77"/><path class="cls-2" d="M1037.32 2590.44h36.99v93.37h-36.99z"/><path class="cls-3" d="M1037.32 2590.44h36.99v93.37h-36.99zm14.46 5h22.32m-22.32 83.52h22.32m-29.59-83.52H1042m2.51 83.52H1042m-539.74 5.58h766.56v6.47H502.26zm-72.89 35.19h786.56v6.47H429.37zm-72.9 35.2h786.56v6.47H356.47z"/><path class="cls-4" d="M1101.83 2690.75l-578.6-6.47h578.6v6.47zm-1.58 35.19l-670.89-6.47h670.89v6.47zm.1 35.2l-743.88-6.47h743.88v6.47z"/><path class="cls-2" d="M888.64 2271.62a5.75 5.75 0 0011.43 0"/><path class="cls-3" d="M899.52 2244.84v-9.5h-7.13v9.5m2.42-42.01h2.61v32.38h-2.61zm-501.02-.22h24.55v552.17h-24.55z"/><path class="cls-4" d="M727.49 1858.03v-3.78h-81.7v-59.84h-3.71v59.84h-81.7v3.78h81.7v59.65h-81.7v3.78h81.7v59.65h-81.7v3.77h81.7v59.65h-81.7v3.78h81.7v61.41h3.71v-61.41h81.7v-3.78h-81.7v-59.65h81.7v-3.77h-81.7v-59.65h81.7v-3.78h-81.7v-59.65h81.7z"/><path class="cls-3" d="M363.17 2794.54v-33.19m146.48-43.03v-27.33m-74.69 63.48v-27.33m461.56-482.31zM-3.62 2794.76h1144.96"/><path class="cls-4" d="M594.51 2795.3c24 16.17 142.82 28.46 285.76 28.46S1142 2811.48 1166 2795.3zm-199.78-630.66l1.54-1.14a.9.9 0 011.2.12l.8.87c.29-.61.85-1.8 1.42-3 .48-1 .88-1.78 1.18-2.35.55-1.05.81-1.54 1.44-1.54a.9.9 0 01.59 1.57c-.33.5-1.5 2.86-2.65 5.29h.7a.9.9 0 010 1.8h-3.19a.9.9 0 01-.84-.59l-.24-.27-.89.66a.9.9 0 11-1.07-1.44"/><path class="cls-4" d="M400.55 2164.64l1.54-1.14a.9.9 0 011.2.12l.8.87c.29-.61.85-1.8 1.42-3 .48-1 .88-1.78 1.18-2.35.56-1.05.81-1.54 1.44-1.54a.9.9 0 01.59 1.57c-.33.5-1.5 2.86-2.65 5.29h.7a.9.9 0 110 1.8h-3.19a.89.89 0 01-.84-.59l-.24-.27-.89.66a.9.9 0 01-1.26-.18.9.9 0 01.19-1.26m-5.07-9.62c0 2.52 2.79 4.56 6.24 4.56s6.24-2 6.24-4.56-2.79-4.56-6.24-4.56-6.24 2-6.24 4.56"/><path class="cls-4" d="M399.8 2155c0 2.52 2.79 4.56 6.24 4.56s6.24-2 6.24-4.56-2.79-4.56-6.24-4.56-6.24 2-6.24 4.56"/><path class="cls-4" d="M385.73 2134.48a50.76 50.76 0 019-11 7.13 7.13 0 1110.38-6.35v15.16l12.78 12.78 13.94 1.55a2.33 2.33 0 01-.05 4.65l3.42 1.35a2.33 2.33 0 11-1.71 4.34l-3.62-1.42a2.33 2.33 0 01-3.17 3.42l-8.93-7.5a23.24 23.24 0 01-15.33 5.52c-12.58 0-21.2-15.06-16.74-22.49"/><path class="cls-4" d="M392.47 2119.41l-5.55-2.17 5.35-1.89.2 4.06z"/><path class="cls-2" d="M390 2128.46a51.38 51.38 0 014.74-5 7.13 7.13 0 1110.38-6.35v11.32z"/><path class="cls-4" d="M394.78 2117.17a.85.85 0 10.85-.85.86.86 0 00-.85.85"/><path class="cls-2" d="M419 2150c-8.32 3.47-17.26 1.05-19.95-5.4-1.43-3.43-.81-7.31 1.34-10.71a4.28 4.28 0 017-.29c4.38 5.75 11.55 9.28 19.78 10.13A19.47 19.47 0 01419 2150"/><path class="cls-3" d="M390 2128.46a51.38 51.38 0 014.74-5 7.13 7.13 0 1110.38-6.35v11.32zm29 21.54c-8.32 3.47-17.26 1.05-19.95-5.4-1.43-3.43-.81-7.31 1.34-10.71a4.28 4.28 0 017-.29c4.38 5.75 11.55 9.28 19.78 10.13A19.47 19.47 0 01419 2150zm-26.44 298.86h-35.32v-246.61a69 69 0 10-138.07 0v246.61h-29.84v-246.61a69 69 0 10-138.07 0v246.61H3.18"/><path class="cls-4" d="M189.39 2214.66a69 69 0 00-138.07 0v-12.41a69 69 0 01138.07 0v12.41m167.9 0a69 69 0 00-138.07 0v-12.41a69 69 0 01138.07 0v12.41"/><path class="cls-3" d="M-.82 2084.03h464.51M-.82 2070.71h464.51m-279.42 378.15h39.77v42.71h-39.77zm209.45 42.71h-43.75v-42.71h43.75m-392.07 0H55.4v42.71H1.65m13.08-407.54l1.18 9.2h4.49l2.12-9.2m24.57 0l1.18 9.2h4.49l2.12-9.2m24.57 0l1.18 9.2h4.49l2.12-9.2m24.57 0l1.18 9.2h4.49l2.12-9.2m24.57 0l1.18 9.2h4.49l2.12-9.2m24.58 0l1.18 9.2h4.48l2.12-9.2m24.58 0l1.18 9.2h4.48l2.13-9.2m24.57 0l1.18 9.2h4.48l2.13-9.2m24.57 0l1.18 9.2h4.48l2.13-9.2m24.57 0l1.18 9.2h4.48l2.13-9.2m24.57 0l1.18 9.2h4.49l2.12-9.2m24.57 0l1.18 9.2h4.49l2.12-9.2m24.57 0l1.18 9.2h4.49l2.12-9.2m24.57 0l1.19 9.2h4.48l2.12-9.2"/><path class="cls-4" d="M466.06 2071.93a2.38 2.38 0 01-1.28-.77 2.46 2.46 0 01-.43-.61 1.56 1.56 0 01-.16-.67H0v4.61h466.47v-2.55a1.74 1.74 0 01-.41 0"/><path class="cls-3" d="M.19 2491.86h392.64M.19 2571.31h392.64M.19 2581h392.64m25.56-9.69h44.19m-44.19 9.69h44.17M.17 1860.44h267.49v17.15H-.31m261.95 192.14v-192.76m-.04 550.87l.04-283.24m-42.27 284.37h53.45v62.63m-83.72-63.8H51.68m235.18-358.01l176.28-132.41M302.59 2070.4l160.55-120.61m-131.59 84.42v-72.83m98.79-.83H324.93v-38.07h137.69"/><path class="cls-4" d="M421 2013.1a20.9 20.9 0 1020.9 20.9 20.89 20.89 0 00-20.9-20.9m-1.31 37.9a17.1 17.1 0 010-34.09zm2.56-34.1A17.11 17.11 0 01437 2028h-14.75zm0 34.11v-20.5h15.51a17.1 17.1 0 01-15.51 20.5m-93.82 480.86h59.19l5-4.53h-59.19l-5 4.53zm135.5-4.52h-11.61l-4.99 4.52h16.6v-4.52zm-243.03 4.52h59.2l4.99-4.53H225.9l-5 4.53zm-107.52 0h59.19l5-4.53h-59.19l-5 4.53zm-107.52 0h59.19l5-4.53h-59.2l-4.99 4.53zm364.79-364.79h983.5v17.97h-983.5zm23.14 35.53h10.36v552.17h-10.36z"/><path class="cls-6" d="M991.19 2489.48v194.33H773.76v-162.7"/></g><g clip-path="url(#clip-path-2)"><path class="cls-2" d="M498.28 2110h9.43s25.51-97.18 25.51-204.71v-110.95h-34.94zm228.19 0H717s-25.51-97.18-25.51-204.71v-110.95h34.94z"/></g><g class="cls-5"><path class="cls-6" d="M723 2102.48s-18.62-121.24-18.21-197.38m11.59 45.11v-112.97"/><path class="cls-8" d="M567 2080.14s13.24-67 15.31-122.07m.83-73.66v-58.34m-12.42 67.03s5.79 61.24-3.73 110.9"/><path class="cls-4" d="M990.06 2110h-72.3s-25.51-97.18-25.51-204.71v-110.95h97.81z"/><path class="cls-3" d="M787.75 2110.4h225.19v17.94H787.75z"/><path class="cls-4" d="M1012.94 2128.34H787.75l225.19 10.96v-10.96z"/><path class="cls-3" d="M813.91 1793.81h175.98v316.42H813.91z"/><path class="cls-3" d="M804.4 1784.53h194.55v325.7H804.4z"/><path class="cls-4" d="M989.42 1858v-3.78h-81.7v-59.84H904v59.84h-79.8a1.89 1.89 0 000 3.78H904v59.65h-79.8a1.89 1.89 0 000 3.78H904v59.65h-79.8a1.89 1.89 0 000 3.78H904v59.65h-79.8a1.89 1.89 0 000 3.78H904v61.41h3.7v-61.41h81.7v-3.78h-81.7v-59.65h81.7v-3.78h-81.7v-59.65h81.7v-3.78h-81.7V1858z"/></g><g clip-path="url(#clip-path-4)"><path class="cls-2" d="M988.4 2110h-70.51s-25.51-97.18-25.51-204.71v-110.95h96z"/></g><g class="cls-5"><path class="cls-6" d="M974.29 2102.48s-18.62-121.24-18.21-197.38m22.23 45.11v-112.97"/><path class="cls-4" d="M1083.8 2110h9.43s25.51-97.18 25.51-204.71v-110.95h-34.94z"/><path class="cls-3" d="M1049.68 2110.4h225.19v17.94h-225.19z"/><path class="cls-4" d="M1274.87 2128.34h-225.19l225.19 10.96v-10.96z"/><path class="cls-2" d="M1075.84 1793.81h7.78v316.42h-7.78z"/><path class="cls-3" d="M1075.85 1793.81h175.98v316.42h-175.98z"/><path class="cls-3" d="M1066.33 1784.53h194.55v325.7h-194.55z"/><path class="cls-4" d="M1251.35 1858.03v-3.78h-81.7v-59.84h-3.71v59.84h-81.7v3.78h81.7v59.65h-81.7v3.78h81.7v59.65h-81.7v3.77h81.7v59.65h-81.7v3.78h81.7v61.41h3.71v-61.41h81.7v-3.78h-81.7v-59.65h81.7v-3.77h-81.7v-59.65h81.7v-3.78h-81.7v-59.65h81.7z"/></g><g clip-path="url(#clip-path-6)"><path class="cls-2" d="M1083.8 2110h9.43s25.51-97.18 25.51-204.71v-110.95h-34.94z"/></g><path class="cls-6" d="M1090.86 2080.14s13.24-67 15.31-122.07m-11.58-64.97s5.79 61.24-3.73 110.9M970.2 2674.6H802.26m167.94-334.17H802.26M932 1820.67s-3.94 99.82 3.44 132.77m15.25 122.93l1.47 11.31"/><path class="cls-4" d="M832.05 2087.51h19.91v22.75h-19.91z"/><path class="cls-3" d="M852.21 2107.27a11.37 11.37 0 01-1.92-.17l.61-3.6c3.91.66 6.41-1.72 7.43-7.07a2.93 2.93 0 00-4.87-2.64l-3.33 3.08-2.48-2.69 3.33-3.08a6.58 6.58 0 0110.94 6c-1.24 6.57-4.73 10.17-9.71 10.17z"/><path class="cls-4" d="M14.79 2491.12h-1.26c-.85-4.23-3.16-14.48-6.72-21l-.27.15-.27.15c3.49 6.41 5.77 16.47 6.63 20.74h-.84a4.7 4.7 0 00-1.58-2.23c-1.59-1-3.67-2.09-2.75-3.93s2.34-2.25.41-4-5.84-3.09-4.34-5.18 2.67-2.5 2-3.92-4.59-4.85-2.42-7.26 5.34 1.59 5.84 5.76.92 2.17 3.17 4.76.33 4.59.84 7.1 2.58 1.17 2.92 4.34c.28 2.63-1.33 2.63-1.38 4.57m9.75-7.3c.16 3.43-1.34 3.17-3.17 4.59a3.2 3.2 0 00-1.23 2.65h-.69c.47-5.2 3.65-15.09 3.69-15.2h-.09l-.21-.08-.29-.09c-.14.45-3.27 10.14-3.72 15.39H18a3.69 3.69 0 00.15-2.57c-.5-1.75-1.59-2.92-.84-4.76s3.51-1.84 2.59-4.35-1.75-4.51 1.42-5.92.83-3.34 2.84-4.34 1.67 2.75.25 7-.08 4.26.09 7.68m-17.29 7.25h-.85l-.19-.59a1 1 0 000-.13c0-.12-.08-.24-.12-.37a38.06 38.06 0 00-2.36-5.44c-.3-.62-.52-1-.55-1.1h-.07v-.05l-.15.15-.27.14a57 57 0 013.17 7.36h-.94l-.48-.56c-2.17-2.5-3.92-3.59-2.42-4s.5-1.59-1.83-5.26-.92-5.76.5-4.35 0 2.92 1.42 4.09 2-.25 3.42 3.34a31.8 31.8 0 011.74 6.74M29.1 2489a12.32 12.32 0 00-2.37 2.15H26c.54-2.28 1.62-5.49 1.64-5.53l-.29-.1-.29-.1c-.06.18-1.16 3.42-1.68 5.73h-.48a59.87 59.87 0 011.56-7.33c1-3.26 3-5.1 3.51-2.93s-2.92 3.26-1.17 4.59 2.5 1.75.34 3.51m57.03-17.96h10.38v5.78H86.17zm11.59 0h10.38v5.78H97.76zm-11.59-6.67h10.38v5.47H86.17zm-11.42 0h10.21v5.47H74.75zm0 6.67h10.21v5.78H74.75zm-8.1 0h6.89v5.78h-6.89zm58.74-6.67H121v5.47h6.58v-3.26a2.2 2.2 0 00-2.2-2.2m-15.95 6.66h10.22v5.78h-10.22zm-11.67-6.67h10.38v5.47H97.76zm-24.22 13.73h-6.89v3.37a2.2 2.2 0 002.2 2.2h4.69zm0-13.73h-4.69a2.2 2.2 0 00-2.2 2.2v3.26h6.89zm47.47 6.67h6.58v5.78h-6.58zm-.01 7.06v5.57h4.38a2.2 2.2 0 002.2-2.2v-3.37zm-11.57-13.73h10.22v5.47h-10.22zm-23.26 13.73h10.38v5.57H86.17zm23.26 0h10.22v5.57h-10.22zm-34.68 0h10.21v5.57H74.75zm23.01 0h10.38v5.57H97.76zm125.98-7.06h7.7v5.78h-7.7zm8.91 0h10.38v5.78h-10.38zm-8.91-6.67h7.7v5.47h-7.7zm36.55 0h-4.38v5.47h6.58v-3.26a2.2 2.2 0 00-2.2-2.2m-15.97 6.66h10.22v5.78h-10.22zm-11.67-6.67h10.38v5.47h-10.38zm23.26 6.67h6.58v5.78h-6.58zm0 7.06v5.57h4.38a2.2 2.2 0 002.2-2.2v-3.37zm-11.59-13.73h10.22v5.47h-10.22zm-20.58 13.73h7.7v5.57h-7.7zm20.58 0h10.22v5.57h-10.22zm-11.67 0h10.38v5.57h-10.38z"/><path class="cls-3" d="M11.8 1921.12h26.74v39.02H11.8zm-2.18 39.04h31.7v3.13H9.62zm5.05-28.31h23.6m-12.99 28.08v-37.22"/><path class="cls-4" d="M41.61 1965.03v-1.74H9.62l31.99 1.74z"/><path class="cls-3" d="M47.75 1921.12h26.74v39.02H47.75zm-2.18 39.04h31.7v3.13h-31.7zm5.06-28.31h23.59m-12.99 28.08v-37.22"/><path class="cls-4" d="M77.56 1965.03v-1.74H45.58l31.98 1.74z"/><path class="cls-3" d="M116.43 1921.12h26.74v39.02h-26.74zm-2.18 39.04h31.7v3.13h-31.7zm5.05-28.31h23.6m-12.99 28.08v-37.22"/><path class="cls-4" d="M146.24 1965.03v-1.74h-31.99l31.99 1.74z"/><path class="cls-3" d="M152.39 1921.12h26.74v39.02h-26.74zm-2.18 39.04h31.7v3.13h-31.7zm5.05-28.31h23.59m-12.98 28.08v-37.22"/><path class="cls-4" d="M182.2 1965.03v-1.74h-31.99l31.99 1.74z"/><path class="cls-3" d="M218.16 1921.12h26.74v39.02h-26.74zm-2.18 39.04h31.7v3.13h-31.7zm5.05-28.31h23.59m-12.98 28.08v-37.22"/><path class="cls-4" d="M247.96 1965.03v-1.74h-31.98l31.98 1.74z"/><path class="cls-3" d="M11.8 2001.39h26.74v39.02H11.8zm-2.18 39.04h31.7v3.13H9.62zm5.05-28.3h23.6m-12.99 28.07v-37.22"/><path class="cls-4" d="M41.61 2045.31v-1.74H9.62l31.99 1.74z"/><path class="cls-3" d="M47.75 2001.39h26.74v39.02H47.75zm-2.18 39.04h31.7v3.13h-31.7zm5.06-28.3h23.59m-12.99 28.07v-37.22"/><path class="cls-4" d="M77.56 2045.31v-1.74H45.58l31.98 1.74z"/><path class="cls-3" d="M116.43 2001.39h26.74v39.02h-26.74zm-2.18 39.04h31.7v3.13h-31.7zm5.05-28.3h23.6m-12.99 28.07v-37.22"/><path class="cls-4" d="M146.24 2045.31v-1.74h-31.99l31.99 1.74z"/><path class="cls-3" d="M152.39 2001.39h26.74v39.02h-26.74zm-2.18 39.04h31.7v3.13h-31.7zm5.05-28.3h23.59m-12.98 28.07v-37.22"/><path class="cls-4" d="M182.2 2045.31v-1.74h-31.99l31.99 1.74z"/><path class="cls-3" d="M218.16 2001.39h26.74v39.02h-26.74zm-2.18 39.04h31.7v3.13h-31.7zm5.05-28.3h23.59m-12.98 28.07v-37.22"/><path class="cls-4" d="M247.96 2045.31v-1.74h-31.98l31.98 1.74z"/><path class="cls-3" d="M286 2490v-21.39a2.82 2.82 0 115.65 0v22.2m16.22-136.39a19.31 19.31 0 00-19.31 19.31v91"/><path class="cls-3" d="M331.51 2356.33h-24a3.79 3.79 0 013.8-3.79h16.43a3.8 3.8 0 013.77 3.79z"/><path class="cls-4" d="M.24 1883.31l261.34-5.63H.24v5.63zm331.03 83.7l99.69-6.02h-99.69v6.02z"/><path class="cls-3" d="M419 2492.48h44.96"/><path class="cls-4" d="M561.14 2342.77v-5.9h-10.08v-1.93l9.67-13.84h3.17v13.48h3v2.3h-3v5.9zm0-8.21v-7.24q0-1.7.1-3.4h-.1c-.67 1.27-1.2 2.2-1.8 3.2l-5.3 7.37v.07zm22.11-13.47v1.93l-9.44 19.75h-3.04l9.41-19.18v-.07h-10.61v-2.43h13.68z"/><path class="cls-6" d="M393.14 2608.55v-110.18"/><path class="cls-2" d="M498.18 2660.85h178.63v2.47H498.18z"/><path class="cls-3" d="M463.78 2177.38V-4m0 2642.62v-436.41m0 516.96v-83.86"/><rect class="cls-3" x="538.83" y="2304.79" width="54.69" height="54.69" rx="13.07" ry="13.07"/><rect class="cls-3" x="543.83" y="2309.79" width="44.69" height="44.69" rx="8.07" ry="8.07"/><path class="cls-8" d="M594.88 1794.34v160.37c0 37.65-16.39 139.75-25.51 155.29"/><g class="cls-5"><path class="cls-4" d="M691.55 2550.21c0 74.28-39.43 134.49-88.06 134.49s-88.06-60.21-88.06-134.49 39.43-134.49 88.06-134.49 88.06 60.21 88.06 134.49"/><path class="cls-4" d="M584.69 2418.82l-166.05 69v131.74l168.23 63.2 30.4-74.93c22.55-125.3-32.58-189-32.58-189m-180.5 75.05l-118.64 46.87v27.98l118.64 45.34v-120.19z"/><path class="cls-6" d="M574.73 2677.37c-34.52-18.2-59.31-68.26-59.31-127.15 0-54.35 21.11-101.16 51.49-122.37"/><rect class="cls-6" x="463.89" y="2627.83" width="30.85" height="15.55" rx="2.07" ry="2.07"/><rect class="cls-6" x="463.89" y="2609.42" width="18.41" height="15.55" rx="2.07" ry="2.07"/><path class="cls-6" d="M466.81 2625.11v2.33m0 16.13v2.32"/><rect class="cls-6" x="463.89" y="2591.16" width="30.85" height="15.56" rx="2.07" ry="2.07"/><rect class="cls-6" x="463.89" y="2572.76" width="18.41" height="15.55" rx="2.07" ry="2.07"/><path class="cls-6" d="M466.81 2588.45v2.32m0 16.13v2.33"/><rect class="cls-6" x="463.89" y="2554.5" width="30.85" height="15.55" rx="2.07" ry="2.07"/><path class="cls-6" d="M466 2536.09h14.26a2.07 2.07 0 012.07 2.07v11.41a2.08 2.08 0 01-2.08 2.08H466a2.07 2.07 0 01-2.07-2.07v-11.41a2.07 2.07 0 012.07-2.08zm.81 15.69v2.32m0 16.14v2.32"/><rect class="cls-6" x="463.89" y="2517.83" width="30.85" height="15.55" rx="2.07" ry="2.07"/><rect class="cls-6" x="463.89" y="2499.42" width="18.41" height="15.55" rx="2.07" ry="2.07"/><path class="cls-6" d="M466.81 2515.11v2.33m0 16.13v2.32"/><rect class="cls-6" x="463.89" y="2481.16" width="30.85" height="15.55" rx="2.07" ry="2.07"/><path class="cls-6" d="M482.3 2461.58v14.66a2.07 2.07 0 01-2.07 2.07H466a2.07 2.07 0 01-2.07-2.07v-7.35m2.88 9.56v2.32m0 16.13v2.33m-48.42 72.08h48.35m-48.35 9.69l45.02-.31m-70.6-9.38h-100.7m100.83 9.99l-80.41-.3m106.19-88.59h45.24"/></g><g class="cls-5"><path class="cls-4" d="M337.39 2446.45c-.13.13 1.63 6.48 2.19 6.77a3.34 3.34 0 003.4-.34c1-1 1.53-4.77 1.53-4.77s-.08-5.49-.21-5.23-3.26 5.53-3.26 5.53l-1-3z"/><path class="cls-4" d="M339.75 2446.58l.13-1.33-.26-1.71-1.54-1.12-1.24.73a4.56 4.56 0 000 1.07s.86.13.81.3a1.55 1.55 0 00.3 1.67 1.75 1.75 0 001.84.39m-4.59 44.54a.15.15 0 00.1.23c.54.06 1.92.2 2.82.2h5.18a11 11 0 00-.15-1.48 3.24 3.24 0 00-.57-1.05 6.58 6.58 0 00-2.78-.3c-.84.3-2.93 1.61-3.66 1.75a1.52 1.52 0 00-.94.65m11.8.52s2-1.32 2.28-2.43 1.26-4.14 1.46-4.79a.15.15 0 00-.07-.17 4.39 4.39 0 00-1.44-.54 3.26 3.26 0 00-1.16.3s-1.37 1.3-1.28 2.18.74 3.47.33 4.08a1.64 1.64 0 00-.12 1.36"/><path class="cls-4" d="M342 2457.73l-.17.69a8.16 8.16 0 00-1.67 3.22c-.51 2-.17 20.45-.17 20.75s-.69 2.74-.69 2.74l.64 1.29-.86 2.14a7.56 7.56 0 002.57 1.37c1.07.17 2-1.67 1.72-2.19s-.47-1.5-.21-1.63 0-1.37.13-2.66 2-14.92 2.23-16.08 1.76-7.67 1.63-7.8-5.15-1.84-5.15-1.84"/><path class="cls-4" d="M345.33 2459.83s-3.22 4.42-5 7.63a68.05 68.05 0 00-3.34 6.39c-.17.6.86 1.76 1.46 2.4s4.46 5.27 5.32 6 1.37 1.46 1.33 1.93 1 1.71 1 1.71a21.27 21.27 0 012.49-1.37 1 1 0 00.69-.77l-.17-1.54a6.92 6.92 0 01-1-.6c-.09-.13 0-1.16-.34-1.54a9.6 9.6 0 01-1.71-1.67 44.58 44.58 0 00-2.79-3.56c-.69-.69-1.33-1.24-1.33-1.24s4.89-6.95 6.13-8.06a9.68 9.68 0 002.19-3.73 3.54 3.54 0 00-.17-2l-7.63-1.8z"/><path class="cls-2" d="M347.34 2462.1l-1.71 1.72-.65-2.92.39-.77 1.97 1.97z"/><path class="cls-4" d="M348.03 2461.89l-.47.56-2.45-2.28.22-.34 2.7 2.06z"/><path class="cls-4" d="M350.43 2442.16a4 4 0 00-2.1 3.77c.3 2.23 1.37 6.9 1.37 6.9l-4.37 7 2.91 2.23s4.76-6 5.19-7.55.39-8.53-.17-10.16-1.2-2.45-2.83-2.19"/><path class="cls-4" d="M348.33 2464.12a27.75 27.75 0 003.26-.13c0-.13.69-7.5.64-9.56s.09-12-.73-12.26a13.17 13.17 0 01-2.32-1.46l.21-1.59-4.46 3.47-.81-.73.13 1.93s-1.76 9.26-2.32 11.06a23.35 23.35 0 00-.73 4.37 2.18 2.18 0 00.6-.82 6.51 6.51 0 01.34-.73l5 1.41zm-2.69-21.69"/><path class="cls-4" d="M348.93 2439.8s-3 2.33-3.29 2.63a7.42 7.42 0 00-.57-1.13s-.77.39-1.16-.21-.77-1.33-.77-1.33a1.33 1.33 0 01-.6-.13c-.11-.08-.06-.71-.12-1.26a1.41 1.41 0 00-.22-.71c-.35-.5 0-1.83 0-2 .81-1.93 4.84-1.37 5-1.2s.86 4.16.94 4.63.77.73.77.73"/><path class="cls-4" d="M339.88 2437.53s2.06 0 5-.13 4.59-.94 4.93-1.33-2.06-.56-2.06-.56-.69-1.46-.9-1.93a1.2 1.2 0 00-1.67-.3c-.47.43-.81.81-1.37.64s-1.11-.51-1.33 0-.43 3-.6 3-2.06.3-2 .6"/><path class="cls-2" d="M346.39 2437.36a18.94 18.94 0 01-4 1 1.39 1.39 0 00-.23-.71l-.11-.18zm-1.19 6.24l-1.22 11.81-1.06 1.38.08-2.04 2.2-11.15z"/><path class="cls-11" d="M347.56 2462.45c.17-.29 6.55-7.49 6.55-7.49m-7.01 12.41c-.08.57-5.41 5.77-5.2 6.18s2.7 2.53 3.5 3.43m-7.11-7.21c1-1 4.8-6.8 4.8-6.8l-.33-.65m6.24 1.96c-.16 0-2.2-.24-2.2-.24l-.08-1.79"/><path class="cls-2" d="M346.91 2485.6l2.28-1.63-2.69 3.34.41-1.71zm-7.49 3.33a10.45 10.45 0 003.42.57c1.22-.16.57.9.57.9s-3-.65-4-1.47m4.33-6.72s-4.07-4.59-4.15-4.51a2.79 2.79 0 00.41 1.3c.24.41 3.5 6.27 3.5 6.27zm1.33-40.91l.07-.06a13.69 13.69 0 001.33-1.19 1.32 1.32 0 00.1-.77 2.66 2.66 0 01.26.87c0 .49-1.64 2.18-1.64 2.18m-2.93 11.12s1.25-6.88 1.21-6.56-2.13 6.6-2.13 6.6z"/><path class="cls-4" d="M334.84 2440.89s-.6-12.4-5.56-13-7.61-2.17-9.81-6.62S321 2409 321 2409s-2.11 9.84 6.93 13.27 6.93 18.58 6.93 18.58m1.13 1.66l.12-.35 2.85.88-.13.35-2.84-.88z"/><path class="cls-12" d="M336.2 2442.21a.24.24 0 11-.32-.14.24.24 0 01.32.14"/></g><g class="cls-5"><path class="cls-2" d="M13.68 2676.73c0 1 .79 20.95 2.15 31.13a65.42 65.42 0 004.87 17.61s.2.77 1.75.58a20 20 0 003.78-1c.17-.12 4.35-3 5-7.28.57-4 4.87-23.84 4.91-24a.51.51 0 00-.08-.4.5.5 0 00-.37-.2 6 6 0 01-.71-.13.48.48 0 00.17-.32c0-.15.54-3.53 5.68-4.24a.3.3 0 00.13 0 18.94 18.94 0 004.71 4.61.53.53 0 00.27.08h.13c4.84-1.29 64.77-18.35 79.46-25.47 5.95-2.89 12.76-12.66 14.44-20.32.51 6.28.81 12.44.81 18.24 0 30.36 1.36 83.06 1.37 83.59a.51.51 0 00.47.49c.22 0 1.92.12 4.36.13a40.67 40.67 0 01.54 6.2 1.91 1.91 0 00-1.9 1c-1.76 2.73-2 8.66-2 9.18l-.67 3.33a2.43 2.43 0 00.42 1.88H97a.35.35 0 000-.1c-2.8-17.59-13.34-29.52-19.74-33.24-2.3-1.34-4.21-1.78-5.55-1.28-.59.22-1.38.6-1.51 1.36-.17 1.1 1.12 2.14 3.27 3.87 2.81 2.25 7.05 5.66 9.34 10.75a64.39 64.39 0 015.07 18.64h-2.13a29.8 29.8 0 00-48-23.1 4.49 4.49 0 004.52 7.68 21 21 0 1034 21.16 4.5 4.5 0 003.58 4.26 4.69 4.69 0 00.91.09h170.37a.52.52 0 00.38-.17 4.5 4.5 0 003.3-4.2 21 21 0 1034-21.16 4.45 4.45 0 001.78.39 4.48 4.48 0 004.47-5.06 4.44 4.44 0 00-1.71-3 29.55 29.55 0 00-13.16-5.77l-1.26-16.57a7.16 7.16 0 00-7.11-6.59 6.06 6.06 0 00-.85.05h-.17L260.84 2557a11.84 11.84 0 00.78 2.43 14.8 14.8 0 0012.7 9.29v.11a1.75 1.75 0 00.65 1.36 1.71 1.71 0 001.11.4 2.09 2.09 0 00.35 0l4.6-.92a1.77 1.77 0 001.41-1.73v-27.71a1.76 1.76 0 00-1.41-1.73l-4.6-.92a1.76 1.76 0 00-2.11 1.72v.11a14.79 14.79 0 00-13.7 14l-.09-1.35a.49.49 0 00.27-.43.53.53 0 00-.32-.47l-1.22-19.88a6.35 6.35 0 001.31-1 4.21 4.21 0 001.55 3.22 1.55 1.55 0 00.77.23 1.3 1.3 0 001-.52c.12-.16 2-2.5 3.49-4.59a3.19 3.19 0 002.67 1.09h.38a.5.5 0 00.37-.21c.61-.86 6-8.48 6.09-10.67.12-2.49-6.16-7.71-7.5-8.28a10.34 10.34 0 00-2.19-.57 13.24 13.24 0 00-8.17-3.45c-4.37-.35-10.62-.6-12.54-.67l.42-1.45a.49.49 0 00-.3-.61 146.88 146.88 0 01-22.11-10.8 71.45 71.45 0 00-22-8.54c.05-4.81.31-44.5-4.22-58.2-.74-8.33-3.05-11.49-4.05-12.48.74-.76 2.48-2.59 4.29-4.87 2.46-3.08 3.25-10.29 3.28-10.6a.5.5 0 00-.39-.54s-.95-.22-2.49-.74a11.41 11.41 0 017.7-6.38 13.27 13.27 0 004.42.86 6.76 6.76 0 004.14-1.23c1.18-.88 7.29-10.49 8.12-16.05 4.35.53 6.34-1.64 6.43-1.74a.49.49 0 00.11-.45c0-.14-3.48-14.45-3.48-17.1s1.69-6.5 1.71-6.54a.49.49 0 00-.08-.52 5.09 5.09 0 003-1.67 12.13 12.13 0 0010.16-2 6.88 6.88 0 002.51-6.64 4.29 4.29 0 00-2.34-3.62c-2-.93-4.87 0-6.87.92.25-4.64-.53-17.55-15.14-26.5-12.71-7.79-34.59-3.78-40.39-1.21-2.61 1.16-7.56 1.48-12.2 1.46a1.5 1.5 0 00-.84 2.7.51.51 0 000 .45c2.88 5.47.07 7.82 0 7.92l-1.3-.18a1.25 1.25 0 00-.59 2.4h.11a.48.48 0 00.16.45 2.77 2.77 0 011.2 2.46 4.55 4.55 0 01-2 2.75 1.72 1.72 0 00-.77.51c-.2.12-.4.22-.59.32a.47.47 0 00-.27.33.51.51 0 00.09.43 3.9 3.9 0 01.3.43 1.77 1.77 0 00.53 1 13.66 13.66 0 01.58 6.38.45.45 0 000 .26 1.47 1.47 0 00.16 2.51l7.17 3.7c-1.48 1.36-4.15 4.18-4.33 7-.22 3.28 2.79 5.06 4 5.65-.66 1.58-2.28 6.67 2.13 10.24 3.51 2.84 7.74 1.64 10.17.52a72.34 72.34 0 01-7.64 9 .51.51 0 00-.38-.27l-5.58-.62a.38.38 0 00-.18 0 .35.35 0 00-.14.06 44.34 44.34 0 00-7.34 6.59 12.36 12.36 0 00-2.6 8.65.47.47 0 00.29.4h-.2a.5.5 0 00-.69-.16 24 24 0 00-6.74 6.79c-.77-.39-2.11-1-2.42-1.11l-68.17-26.57a4.59 4.59 0 00-4.75.67l-11.71 9.68a1 1 0 000 1.22 1 1 0 001.27.32l12.94-6.25L51 2445.89l-14.92 38a7.18 7.18 0 003.82 9.23L108 2523a7.24 7.24 0 002.85.59 7.12 7.12 0 006.63-4.57l1.1.06-3.68 21.37a.48.48 0 00.2.5s.94.64 2.63 1.58c-.27.77-4 11.43-4.54 18.11-.31 3.72-.2 8.93-.08 14.43.1 4.8.21 9.75.08 14.55-.27 9.89-11.67 43.52-12.68 46.46-27.66 12.56-67.44 35.28-67.84 35.51a.51.51 0 00-.22.61l.48 1.22c-1.12.35-1.91.57-2.43.7a.79.79 0 00-.33-1.06 30.55 30.55 0 00-13.37-1.43 3.87 3.87 0 00-2.52.39c-1.37 1-.59 2.92-.59 4.68m149.39 70.17l3.31-.83s12.48-84.83 13.31-93.93 2.76-100.42 2.76-100.42l3.86.56s3.31-1.94 3.86-4.69-2.21-7.18-1.38-13 1.8-18.33 1.8-18.33l41 8.12 6.22.69.06-.12c.43-.83.65-1.74 1.14-2.55a.62.62 0 01.68-.28.54.54 0 01.2.1l.25-.89s4 6.45 8 6.89a5.85 5.85 0 014.64 2.6l11.09 188.31s-6.63.28-5.52 8.55a185.92 185.92 0 011.1 19.87s-12.14 4.41-13.52 24h-47.49a13.19 13.19 0 00-6.28-9.35c-5.79-3.58-23.79-10-23.79-10l-.83 1.65s-3.38-.41-4.21-3.17-.27-3.86-.27-3.86"/><path class="cls-12" d="M246.62 2503.81A146.92 146.92 0 01224.5 2493a71.44 71.44 0 00-22-8.54c0-4.81.31-44.5-4.22-58.2-.74-8.33-3.05-11.49-4.05-12.48.74-.76 2.48-2.59 4.29-4.87 2.46-3.08 3.25-10.29 3.28-10.6a.49.49 0 00-.39-.54s-1-.22-2.49-.74c0-.1.09-.19.14-.29a40 40 0 01-5.37-1.93 70.39 70.39 0 01-12.86-7.68c-1.5-1.09-3.07-2.08-4.57-3.17-1.24-.9-2.7-2-3.24-3.52a.53.53 0 01-.4-.23.47.47 0 01-.11-.21c0-.09 0-.18-.06-.27a3 3 0 01-.06-.41.66.66 0 010-.12 1 1 0 010-.26.88.88 0 01.2-.34.84.84 0 01.34-.2h.06a3.78 3.78 0 011.46-1.63 6.52 6.52 0 001.39-1 1.24 1.24 0 00.31-1c-.4.42-.81.83-1.2 1.2a.51.51 0 00-.38-.27l-5.58-.62a.37.37 0 00-.18 0 .35.35 0 00-.14.06 44.26 44.26 0 00-7.34 6.59 12.36 12.36 0 00-2.6 8.65.47.47 0 00.29.4h-.2a.49.49 0 00-.69-.16 24 24 0 00-6.74 6.79c-.77-.39-2.11-1-2.42-1.11l-68.17-26.57a4.59 4.59 0 00-4.75.67l-11.71 9.68a1 1 0 000 1.22 1 1 0 001.27.32l12.94-6.25L51 2445.89l-14.92 38a7.18 7.18 0 003.82 9.23L108 2523a7.26 7.26 0 002.85.59 7.12 7.12 0 006.63-4.57h.32c.35-.52 1.3-.21 1.08.47-.44 1.34-.47 2.78-.83 4.15s-.68 2.76-1 4.14-.67 2.52-1 3.78a6 6 0 01-1.26 2.66l-.18.73a58.29 58.29 0 00.52 6s.94.64 2.63 1.58c0 .14-.21.61-.45 1.31a114.89 114.89 0 0011 5 88.28 88.28 0 0017.07 3.86c5.89.86 11.78 1.84 17.71 2.36s11.78.7 17.69.75h1.59c.06-2.63.09-4.14.09-4.14l3.86.56s3.31-1.94 3.86-4.69-2.21-7.18-1.38-13 2-18.33 2-18.33l40.78 8.12 6.15.68.12-.17c.25-.67.51-1.35.74-2a11.19 11.19 0 011.4-3.45v-.21c.12-.61.34-1.2.41-1.82.27-2.17 0-4.37.25-6.53a4 4 0 01.88-2.31c.62-.67.74.17 1.6 0s1.41.1 2.21-.55c.07-.06.35-.36.66-.72l.52-1.47.4-1.39a.49.49 0 00-.3-.61"/><path class="cls-2" d="M196 2765.33a38.83 38.83 0 00-6.29-4.51c-3.52-2-22.2-8.22-22.2-8.22s-2.08 5.65-10.46 5.45-8.32-2.38-10-1.88-2.08 3.87-2.38 5.3-.89 6.59-.89 6.59 50.59 2.48 52.18-2.73m-160.51-71.6s-3.72 23.84-5.4 26-3.17 5-4.46 5-3.87-3.86-3.91-4.16-1.09-6.1-4-24.38.94-24.33.94-24.33 6.79.4 9 1.19 2.43 1.14 2.43 1.14-1.49.79-1.64 4.11 1.93 11.89 3.22 13.18a13.57 13.57 0 003.82 2.28M116.79 2507l-2.55 11.35s19.52 1.9 30.27-3.62a87.66 87.66 0 0019.31-14.07l-2.9-6.21s-8.55 13.24-44.14 12.55m22.91-103c.32.21 0 9.79 0 9.79s9.65-.55 14.9-2.62 9.66-1.93 15-.55 11.45 10.62 13 16.83 4 24.28 4 24.28 2.21-12 1-22.76-7.45-20.55-12.83-23-14.59-3.86-21.35-3-13.68 1.1-13.68 1.1"/><path class="cls-6" d="M160.24 2490.48s6.62-2.62 18.62 1.79 7.72 22.21 7.72 22.21-21.63-3.17-26.34-24z"/><path class="cls-4" d="M118.21 2542.68s-4 11.22-4.53 18 .28 18.45 0 28.94-12.77 46.82-12.77 46.82c-28 12.68-68 35.57-68 35.57s6 16.07 13 20.42c6.56-1.7 65.09-18.43 79.39-25.43 6.25-3 13.63-14.1 14.48-21.76 0 0-2.7-31.71-6.79-46.53s-7-25.34-7-34.12a85 85 0 011.75-16.57z"/><path class="cls-3" d="M232.42 2336.52s9.76-6.31 10.83 1.07-8.09 9.52-12.38 8c-.59 1.07-3.45 3.1-7.73.83a17 17 0 01-6.07-5l-9.4-2.14a13.16 13.16 0 01-5.47 10.72c-5.83 4.16-9.4-.71-10.83-1.67m-19.37-5.26s-4.88 3.81-5.12 7.5 4.17 5.36 4.17 5.36-3.21 6.07 1.78 10.11 11.54-.6 11.54-.6-7.19 10.48-11.77 13m-45.51 169.34s-3.31 16.53 1.42 32.12 12.76 54.8 12.76 85.51 1.38 83.58 1.38 83.58 17.13 1.14 24-3.43c1.14-6.85 13.39-81.1 12.91-94.33s3.1-98.18 3.1-98.18"/><path class="cls-3" d="M139.78 2645.28c-.85 7.66-8.23 18.73-14.48 21.76-14.26 6.92-72.83 23.7-79.37 25.44-7-4.35-13-20.42-13-20.42s40-22.9 68-35.57c0 0 12.48-36.32 12.77-46.82s-.57-22.13 0-28.94 4.53-18 4.53-18m27.08 228.98h51.38A1.36 1.36 0 00198 2770l-1-4s-25.51.47-35.43.95a83.53 83.53 0 01-17.48-.95l-.68 3.37a1.92 1.92 0 001.9 2.34zm-1.21-5.71s.18-6.25 1.92-9 4.54 2.76 16.46 0a6.62 6.62 0 005.11-4.82s17.43 7 21.41 8.16 8 5.62 8 5.62M149.71 2740s17-16.74 20.43-45.12m-13.9 9.42s7.94-15.89 9.65-25.54m.57 74.34s-3.69 0-3.69-5.67m-14.77 8.44a41.34 41.34 0 00-.56-6.45M16 2672.28a30.44 30.44 0 0113.93 1.24c.9.55-1.8 1.53-1.52 4.41.38 3.85 1 8.83 1.8 11.18a6.62 6.62 0 005.47 4.41s-4.34 20-4.92 24.07-4.75 6.94-4.75 6.94m8.64-32.03s.48-3.9 6.1-4.67m-10.99-13a33.13 33.13 0 004.19-1.18"/><path class="cls-11" d="M119.11 2518.88l-1.19 6.89s-1.82 7.33-2.93 9 .38 5.81.38 5.81 9.36 6.53 25.82 9.65 45.68 1.7 45.68 1.7a5.68 5.68 0 002.87-6.54 43.6 43.6 0 01-.69-13.38c.55-4.55 1.42-15.53 1.42-15.53"/><path class="cls-4" d="M56 2792.68a21 21 0 01-12.83-37.62 20.8 20.8 0 0112.83-4.37 21 21 0 010 42m0-30.57a9.48 9.48 0 00-5.85 2 9.58 9.58 0 105.85-2"/><path class="cls-3" d="M80.76 2780.78a4 4 0 01-3.92-4.8 21.32 21.32 0 00-20.84-25.6 21.1 21.1 0 00-13 4.43 4 4 0 11-4.89-6.32 29 29 0 0117.9-6.1 29.31 29.31 0 0128.7 35.2 4 4 0 01-3.95 3.19z"/><path class="cls-4" d="M294 2762.42a21.13 21.13 0 00-6-7.35 20.87 20.87 0 00-7.59-3.72l1 13.08a9.47 9.47 0 013.34 7.26 9.58 9.58 0 11-16.59-6.52l-1-12.89a21 21 0 1026.84 10.14"/><path class="cls-3" d="M266.48 2743.7l.63 8.24a21.35 21.35 0 00-13.3 19.74 21.58 21.58 0 00.43 4.29 4 4 0 01-3.11 4.73 5.07 5.07 0 01-.81.08 4 4 0 01-3.91-3.2 29.26 29.26 0 0120.06-33.89zm27.26 10.39a4 4 0 01-5.61.72 21 21 0 00-7.81-3.79l-.63-8.28a29.09 29.09 0 0113.32 5.74 4 4 0 01.73 5.61zm-212.98 26.69h170.37m-5.31-9.09H85.26"/><path class="cls-3" d="M275.8 2775a6.64 6.64 0 01-7.4-6.07l-.29-3.75-1-12.89v-.33l-.63-8.24-1.29-16.91a6.64 6.64 0 015.82-7.09 6.11 6.11 0 01.79 0 6.62 6.62 0 016.61 6.13l1.29 17 .63 8.28v.32l1 13.08.26 3.48a6.62 6.62 0 01-5.79 6.99zm-22.94-243.67l11.1 188.4m-5.22-188.71l11.57 188.7"/><circle class="cls-3" cx="256.16" cy="2525.76" r="5.84"/><path class="cls-3" d="M275.07 2539.85a14.22 14.22 0 000 28.44z"/><path class="cls-3" d="M280.93 2569.17l-4.59.92a1.26 1.26 0 01-1.51-1.24v-29.56a1.26 1.26 0 011.51-1.24l4.59.92a1.26 1.26 0 011 1.24v27.71a1.26 1.26 0 01-1 1.25zm-26.25-17.54h5.62m-75.83-188.01s-.25 8 2 12.23 15.47 12.48 20.22 14.23 7.24.5 8.24-.25 7.49-10.73 8-16.22c4.49.75 6.49-1.5 6.49-1.5s-3.49-14.48-3.49-17.22 1.75-6.74 1.75-6.74m-9.14 27.85a51 51 0 00-7-1.45m-3.61-19.41s5-4 9.73-3.74"/><path class="cls-4" d="M214.17 2361.11a1.62 1.62 0 01-1.62-1.62v-2a1.62 1.62 0 013.24 0v2a1.62 1.62 0 01-1.62 1.62"/><path class="cls-6" d="M159.27 2390.34a12.07 12.07 0 012.48-8.27 44.62 44.62 0 017.25-6.5l5.15.54m19.77 37.97a2.55 2.55 0 00-.38-.32s-6.18-.56-15.51-10a67.34 67.34 0 00-18.76-13.38"/><path class="cls-6" d="M193.63 2488s5.12-51.29 4.2-61.71c-.73-8.27-3-11.32-3.91-12.23m-.38-.31a65.23 65.23 0 004.63-5.2c2.39-3 3.86-10.83 3.86-10.83s-18.64-3.47-33-22.15"/><path class="cls-3" d="M206.68 2390.08s-5.19 0-7.64 5.85m-7.04-46.52a9.21 9.21 0 00-5.89-3.92c-3.36-.56-4.48 2.52-3.64 7s1.68 8.41 3.36 9.53 4.77-.84 4.77-.84"/><path class="cls-2" d="M182.53 2374.8a31.87 31.87 0 005.17 9.49 61.15 61.15 0 009.43 8.91l5.48-3.94s-8.65-4.6-12.89-7.18a25.78 25.78 0 01-7.19-7.28"/><path class="cls-4" d="M203.53 2388.82c-.27-.84-1.86-5.08-3.69-9.12a63.73 63.73 0 01-3.17-14.62c-.87-11.19 3.78-25.9 3.83-26.05l-3.6-1.23c-.2.63-4.94 15.61-4 27.59.09 1.11.21 2.23.37 3.33a12.86 12.86 0 00-5-3.84c-8.15-3-13.42-15.36-12.34-23.64l-3.75-.52c-1.32 10.12 4.75 24.18 14.83 27.85 3.41 1.24 6.85 7.15 9.35 12.63.57 1.69 1.13 3.2 1.62 4.45a5 5 0 005.6 3.19"/><path class="cls-3" d="M162.32 2328.88c2.49-1.2 5.46-4.12 2.26-6.87 3.06-1.15 1.64-2 1.64-2s3.32-2.6.19-8.55c19 .17 13.06-1.62 25-2.49s23.23-1 28.38 3.13 9.35 12.8 9.3 14.92.54 10.4-7.63 11.24a5.42 5.42 0 01-3.94 3.08 35.9 35.9 0 00-6.59-.38l.71-.16c-6.3-1.65-14.09-4.57-14.09-4.57a94.44 94.44 0 01-13.05 6.77h-12.12a48.24 48.24 0 01-8.54-5.85s.87-5.24-1.52-8.27z"/><path class="cls-4" d="M219.4 2308.32c-12.72-7.8-34.59-3.78-40.39-1.21-2.61 1.15-7.56 1.47-12.2 1.46a1.49 1.49 0 00-.39 2.91 196.81 196.81 0 0024 5.55c13.38 2.11 27.64 9.36 33.9 12.82a1.15 1.15 0 01-.46 2.14l-5.64.38a16.47 16.47 0 01-7.08-1.08 212.45 212.45 0 00-22.74-7.48c-6.94-1.77-16.59-3.29-23.81-4.3a1.25 1.25 0 00-.59 2.4l27.37 10.63-11.14 4.46a16.81 16.81 0 01-8.7 1.06l-7.19-1a1.45 1.45 0 00-.82 2.73l8.23 4.25a16.81 16.81 0 0015.3.07l11.71-5.9 12 3.73a16.46 16.46 0 0010.3-.16l13.35-5.24s3.12-17.16-15-28.23m-7.67 9s-17.17-5-22.69-5.92c22-1.3 30.7 4.15 30.7 4.15z"/><path class="cls-4" d="M177.43 2332.93a45.58 45.58 0 01-8.52-.26 11.87 11.87 0 01-5.95-1.84 1.82 1.82 0 011.52-3.23 87.5 87.5 0 0113 5.33m97.03 226.6s-3.5.37-8.84-2-4.79-5.89-4.79-5.89-1.84 6.63 3.31 11.41 8.84 5 9.39 5.15 1.29.18 1.1-1.47-.18-7.18-.18-7.18m.57-4.44l.18 9.02 6.26-.92.18-7.55-6.62-.55zm-13.17-29.29a5.8 5.8 0 11-5.8-5.8 5.8 5.8 0 015.8 5.8m-99.04 223.39l-15.1 5.15-.18-5.15s6.44-.55 9.94-.74a12.86 12.86 0 005.15-1.11zm-129.41-75.47s2.58 5.71 4.79 9.39 2.76 4.79 2.76 4.79-5 2-5 1.47-4-14.91-4-14.91zm163.93 92.02s2.55 4.79.33 5.71H144.1s-.59-.39-.59-1.95a11.52 11.52 0 01.78-3.51s37.88.72 53.08-.26M18.75 2672s-3.12-1-4.48 0-.59 2.93-.59 4.68c0 1 .79 21 2.14 31.13a65.24 65.24 0 004.88 17.6s.19.78 1.75.58a20.2 20.2 0 003.77-1.05 87.37 87.37 0 01-5.22-18.11 244.94 244.94 0 01-2.25-34.83"/><path class="cls-3" d="M239 2521.55s5.71 5 13.31-.13"/><path class="cls-6" d="M241.07 2507.35a42.82 42.82 0 01-.76 8.61c-.76 3-1.31 5.59-1.31 5.59"/><path class="cls-3" d="M264.4 2510.12a22.86 22.86 0 014.8.9c1.4.6 7.3 5.7 7.2 7.8s-6 10.4-6 10.4-2.6.2-2.8-1.4m1-9.1l1.9.8m-31.01 2.33s4.91 6.77 11.71 7"/><path class="cls-12" d="M152 2397.7a28.46 28.46 0 00-2.94-1.42l-68.17-26.56a4.57 4.57 0 00-4.75.67l-11.71 9.68a1 1 0 000 1.22 1 1 0 001.27.32l13.11-6.32s30.57 12.65 39.56 16.43 24 12.14 24 12.14l6.87-.56"/><path class="cls-11" d="M152 2397.7a28.46 28.46 0 00-2.94-1.42l-68.17-26.56a4.57 4.57 0 00-4.75.67l-11.71 9.68a1 1 0 000 1.22 1 1 0 001.27.32l13.11-6.32s30.57 12.65 39.56 16.43 24 12.14 24 12.14l6.87-.56"/><path class="cls-6" d="M117.2 2507.19c9 .4 36.16-.82 43.72-13.34m-46.2 24.49c10.64 1 32.84 1 48.71-17.47m23.45-49.18c.29-1.43 6.93-36.28-13.73-46.61-10.29-5.15-33.15-.87-33.15-.87"/><path class="cls-6" d="M190.66 2515.93a221.56 221.56 0 01-11.65-3.79 29.88 29.88 0 01-19.46-23c-2.28-13.08-11.31-25-13.84-39.88a5.15 5.15 0 00-2.9-4.28"/><path class="cls-11" d="M232.66 2524.48l-.24.51a286 286 0 01-41.76-9.06"/><path class="cls-6" d="M139.82 2413.79c9.24.41 18-3.95 20.45-4.4a13.52 13.52 0 014.46-.09 20.74 20.74 0 017 2.53c6.68 3.74 10.5 13.76 12 21.27 0 0 6.51 40.55 9.19 55 8.69.68 43.45 16.82 43.45 16.82a35.68 35.68 0 01-.51 10.08 50.07 50.07 0 01-3.21 9.51m-111.8-17.36c-.29-1.43 7.41-50.31 24.57-92.92m13.99-24.01a19.29 19.29 0 00-10.14 13.71l-7 .31"/><path class="cls-11" d="M79.09 2375.45l-13.69 35-13.92 35.59-14.93 38a6.69 6.69 0 003.56 8.58l68.08 29.88c3.56 1.55 7.89.43 9.12-3.26"/><path class="cls-6" d="M241.05 2507.17l-4.03-.5"/><path class="cls-3" d="M232.66 2524.43c-.17-.06 4.94.78 4.94.78l1.39-3.66"/><path class="cls-4" d="M52.7 2490.38a7.09 7.09 0 01-3.71-9.51 7 7 0 017.91-4.26l-1.56 3.59a3.24 3.24 0 00-3.22 2c-.79 1.82 0 3.74 2.09 4.66a3.44 3.44 0 004.83-1.66 3.24 3.24 0 00-.72-3.74l1.56-3.59a7 7 0 012.3 8.68 7.09 7.09 0 01-9.48 3.78m10.64-24.47a3.48 3.48 0 102.06 4.67 3.45 3.45 0 00-2.06-4.67m-4.28 9.86c-3.56-1.55-5.48-5.44-4-8.8a5 5 0 013.27-2.9l-1.42-.61 1.5-3.46 12.59 5.47-1.5 3.46-1.42-.61a5 5 0 01.11 4.37c-1.46 3.36-5.61 4.62-9.17 3.08m1.8-21.36l7.06-1.86-3.45-6.45 1.27-2.94 12.64 5.49-1.5 3.46-7.31-3.17 3.01 5.6-6.16 1.65 7.31 3.17-1.5 3.47-12.64-5.49 1.27-2.93zM77.18 2434a3.44 3.44 0 102 4.59 3.44 3.44 0 00-2-4.59m-4.24 9.78a7.25 7.25 0 119.48-3.78 7.19 7.19 0 01-9.48 3.78m9.45-18.5l5.1 2.21-1.5 3.47-12.63-5.49 1.5-3.46 5.15 2.24-3.3-6.51 1.79-4.12 3.93 7.95 9.08-3.33-1.93 4.45-7.19 2.59z"/><path class="cls-4" d="M89.33 2405.95a3.48 3.48 0 102.06 4.67 3.45 3.45 0 00-2.06-4.67m-4.27 9.86c-3.56-1.55-5.48-5.44-4-8.8a5 5 0 013.27-2.9l-1.42-.61 1.5-3.46 12.59 5.47-1.5 3.46-1.42-.61a5 5 0 01.11 4.37c-1.46 3.36-5.61 4.62-9.17 3.08m4.85-20.11l-1.51 3.49-3.03-1.32 4.64-10.69 3.03 1.32-1.62 3.74 9.6 4.17-1.5 3.46-9.61-4.17z"/><path class="cls-2" d="M109.46 2410.17l17.74 7.93a1.79 1.79 0 002.36-.9l3.23-7.23a1.79 1.79 0 00-.9-2.36l-17.74-7.93a1.79 1.79 0 00-2.36.9l-3.23 7.23a1.79 1.79 0 00.9 2.36"/><path class="cls-6" d="M142.82 2453.66l3.87 1.65"/><path class="cls-3" d="M259.41 2746.9s-2.07-21.1-.69-24.14a5.56 5.56 0 014.83-3s-4.1 3.69 7.47 0"/><path class="cls-6" d="M245.89 2506.34l-.55 1.66 1.1-3.72a145 145 0 01-22.21-10.9 69.75 69.75 0 00-22.21-8.55s.56-44.21-4.2-58.52"/><path class="cls-3" d="M267 2510.48a12.65 12.65 0 00-8-3.45c-5.24-.41-12.55-.66-12.55-.66M88.44 2771.79a63.18 63.18 0 00-5.17-19.45c-4.55-10.14-16.34-13.45-11.38-15.31s21.1 12 24.62 34.14m145.26-263.32s19.53 2.27 21.23 2.27a4.85 4.85 0 014.4 3.9c.7 2.6 1.9 10.4 1.6 11.3s-4.4 6.2-5.5 7.6-3.3-1.9-2.1-4.4"/><path class="cls-2" d="M182.19 2558.68s-21.72.37-40.68-4.42-23.56-11.78-23.56-11.78 4.23 2 5.15 2.39a81.16 81.16 0 0034.24 7.36c19.15-.18 25.77-.18 25.77-.18z"/><path class="cls-3" d="M31.14 2695.71s2.58 1.69 4.46 1.64m-4.76 2.13a8.91 8.91 0 003.91 1.44m-3.96 2.32a7.33 7.33 0 003.22 1.18m134.16 52.31s2-2.32 2.23-4.2m1.46 5.01a8.92 8.92 0 002-3.68m1.73 4.24a7.32 7.32 0 001.61-3"/></g><g class="cls-5"><path class="cls-2" d="M897.71 2419.52a2.71 2.71 0 11-2.71-2.71 2.71 2.71 0 012.71 2.71"/><path class="cls-4" d="M897.46 2419.54a3 3 0 11-2.45-1.3 3.76 3.76 0 012.45 1.3"/><path class="cls-2" d="M895.8 2419.73a1.14 1.14 0 11-1.14-1.14 1.14 1.14 0 011.14 1.14"/><path class="cls-4" d="M895.73 2419.38a.4.4 0 11-.4-.4.4.4 0 01.4.4"/><path class="cls-4" d="M895 2423.58a4.06 4.06 0 114.06-4.06 4.07 4.07 0 01-4.06 4.06m0-8a3.95 3.95 0 103.95 3.95 4 4 0 00-3.95-3.95"/></g><g clip-path="url(#clip-path-11)"><path class="cls-4" d="M860.36 1958.91s-3.15 3.74-7 3.74-7-3.74-7-3.74 3.15-3.74 7-3.74 7 3.74 7 3.74"/><path class="cls-2" d="M855.56 1959.44a3.27 3.27 0 11-3.27-3.27 3.27 3.27 0 013.27 3.27"/><path class="cls-4" d="M855.37 1958.44a1.15 1.15 0 11-1.15-1.15 1.15 1.15 0 011.15 1.15m30.26.47s-3.15 3.74-7 3.74-7-3.74-7-3.74 3.15-3.74 7-3.74 7 3.74 7 3.74"/><path class="cls-2" d="M880.83 1959.44a3.27 3.27 0 11-3.27-3.27 3.27 3.27 0 013.27 3.27"/><path class="cls-4" d="M880.64 1958.44a1.15 1.15 0 11-1.15-1.15 1.15 1.15 0 011.15 1.15"/></g></svg>