<svg id="Layer_1" data-name="Layer 1" xmlns="http://www.w3.org/2000/svg" viewBox="0 0 141.37 122.18"><path d="M65.15 122.18c-9.24-48.63-29.7-93.55-29.94-94l-.91.42c.23.5 20.6 45.19 29.83 93.62H59c-1.55-3.88-3.85-8-7.07-10-7.11-4.49-16.46-9.36-12.35-17.59s10.48-10.1 1.87-18S15.3 62.77 22 53.42s12-11.23 9-17.59-20.56-21.7-10.83-32.55 23.94 7.11 26.19 25.82 4.11 9.72 14.21 21.32 1.5 20.58 3.75 31.8 11.59 5.24 13.09 19.46c1.24 11.76-6 11.76-6.16 20.5zm49.68-32.47c.74 15.34-6 14.22-14.22 20.58-5.17 4-5.18 8.57-5.48 11.89h-3.59C94.8 94.36 108 54.38 108.19 54l-.95-.32c-.14.43-13.46 40.6-16.7 68.55h-4.8a16.67 16.67 0 00.64-11.52c-2.24-7.86-7.11-13.09-3.74-21.33s15.71-8.23 11.6-19.45-7.86-20.21 6.36-26.57 3.74-15 12.72-19.45 7.48 12.34 1.12 31.43-.37 19.08.38 34.42m-107-31.11c6.36 6.36 0 13.1 6.36 18.34s9-1.13 15.34 15a144.33 144.33 0 017.77 30.23h-3.82c-5.19-17.26-13.87-33-15.2-34.32l-.7.71c1.28 1.28 9.72 16.65 14.86 33.61h-5.61c-.67-.81-1.39-1.65-2.16-2.54-9.73-11.22-17.59-16.09-10.86-18s2.2-7.11-8.23-23.57-4.11-25.82 2.25-19.46m126.09 38.17c7.85 6 11.22 7.85 1.49 15.71-5.34 4.32-8.54 6.6-10.64 9.65h-4.34a84.78 84.78 0 017.94-24.75l-.88-.48a86.13 86.13 0 00-8.08 25.23h-2.94c1-6.7 3.57-21.8 7-32.85 4.49-14.59 13.47-22.82 15.72-13.09S126 90.83 133.91 96.82" fill="#fff"/></svg>