<svg version="1.1" id="Layer_1" xmlns="http://www.w3.org/2000/svg" x="0" y="0" viewBox="0 0 481.5 581.5" xml:space="preserve"><style>.st0{fill:#fff}.st1{fill:none;stroke:#0d123b;stroke-width:1.33;stroke-miterlimit:10}.st2{fill:#0d123b}.st4{fill:none;stroke-linecap:round;stroke:#0d123b;stroke-width:1.33;stroke-linejoin:round}</style><path class="st0" d="M145.8 158l28.9 32 14.8 5.6.2 11 13 14.3s24.4-34.6 48.1-58.3 34.6-35.9 34.6-35.9l-25.8-18.3s-42.7 36.6-60.3 74.5L145.8 158z"/><path class="st1" d="M176 256.1l-1-.8 4.1-5.8c1-1.4 2.6-2.2 4.3-2.2h54.1c1.9 0 3.7 2 4.6 3.6l.1.6"/><path class="st2" d="M335.5 205.9c-.6-2.5-1.4-2.5-2.1-5.7-.2-.7-.6-1.3-1-1.9v300.5c0 8-6.5 14.4-14.4 14.4H95.4c-8 0-14.4-6.4-14.4-14.4v-21.7c-1.2 1.3-3.1 2.1-5.5 4.3l-1.4.9v19.4l.1-.1c.1 6.5 5.3 17.7 21.2 18.1h222.5c11.5 0 20.8-9.3 20.8-20.8l.1-282.8c-.7-2.7-2.5-6.9-3.3-10.2M318 58H95.4c-11.5 0-20.8 9.3-20.8 20.8V242c1 .7 2 3.2 2.9 4 1.2.9 2.4 4.9 3.5 6V78.9c0-8 6.4-14.4 14.4-14.4h62.2l10.7 11.3c1.8 1.9 4.3 3 6.9 3H248c2.6 0 5.1-1.1 6.9-3l10.7-11.3h52.3c8 0 14.4 6.5 14.4 14.4v72.5c.8-.8 1.8-2.5 2.6-3.2 1.2-1.1 2.3-2.9 3.8-3.9V78.9c.1-11.5-9.2-20.9-20.7-20.9M193.2 71.4c-1.4 0-2.5-1.1-2.5-2.5s1.1-2.5 2.5-2.5 2.5 1.1 2.5 2.5-1.1 2.5-2.5 2.5c.1 0 .1 0 0 0m47.5-1.2h-33.5c-.7 0-1.3-.6-1.3-1.3 0-.7.6-1.3 1.3-1.3h33.5c.7 0 1.3.6 1.3 1.3.1.7-.5 1.3-1.3 1.3"/><path class="st0" d="M229.1 436.5h-9.4l-1.9-4.1h-14.5l-1.6 4.1h-9.1c-2.1 0-3.7 1.7-3.7 3.7v20.4c0 2.1 1.7 3.7 3.7 3.7H229c2.1 0 3.7-1.7 3.7-3.7v-20.4c.1-2.1-1.5-3.7-3.6-3.7zM210.9 459c-5.1 0-9.3-4.1-9.3-9.3 0-5.1 4.1-9.3 9.3-9.3 5.1 0 9.3 4.1 9.3 9.3s-4.2 9.3-9.3 9.3zm10.9-16c-.8 0-1.4-.6-1.4-1.4 0-.8.6-1.4 1.4-1.4.8 0 1.4.6 1.4 1.4.1.8-.5 1.4-1.4 1.4.1.1.1.1 0 0z"/><path class="st0" d="M199.3 434.7h-6.6c-.5 0-.9-.4-.9-.9s.4-.9.9-.9h6.6c.5 0 .9.4.9.9s-.4.9-.9.9"/><path class="st1" d="M179.1 434v-7.2c0-1 .8-1.8 1.8-1.8h7.4m54.4 9v-7.2c0-1-.8-1.7-1.7-1.8h-7.5m9.2 39.9v7.2c0 1-.8 1.8-1.7 1.8h-7.5m-54.4-9v7.2c0 1 .8 1.8 1.8 1.8h7.4m-81.2-110.7H334m-169.6-20.3c.1.6 0 1.1-.3 1.6-1.7 3.7-10.4 7.4-21.1 8.8s-20-.1-22.6-3.3c-.4-.4-.6-1-.7-1.5-.5-4.2 9-8.9 21.4-10.4s22.8.5 23.3 4.8z"/><path class="st1" d="M164.8 346c.5 4.2-9 8.9-21.4 10.4s-22.7-.6-23.3-4.9c-.1-.6 0-1.1.3-1.6 2.6 3.2 11.9 4.7 22.6 3.3s19.4-5.1 21.1-8.8c.4.5.7 1 .7 1.6z"/><path class="st1" d="M165.5 351.6c.5 4.2-9 8.9-21.4 10.4s-22.7-.6-23.3-4.9c-.1-.6 0-1.1.3-1.6 2.6 3.2 11.8 4.7 22.6 3.3s19.4-5.1 21.1-8.8c.4.5.7 1 .7 1.6zm-.7-4.5s1.7.7-.2 3.3m-44.3 2.1s-1.9.9.8 3m10.7-12l1.1.7m3.3 6.4l.9-.8m-10.6-2l1.2-.2m17-7.4l-.7.8m-2.3 4.4l1.6.3m5.6 2.3l.8.5m5.8-3l1.7-.1m-5.8-3.1l1-.9m50.2 21h-43.1c-1 0-1.8-.8-1.8-1.8s.8-1.8 1.8-1.8h43.1c1 0 1.8.8 1.8 1.8s-.8 1.8-1.8 1.8z"/><path class="st1" d="M165.6 349.3h37.1c1 0 1.8.8 1.8 1.8s-.8 1.8-1.8 1.8h-37.2"/><path class="st2" d="M165.3 352.7h37.8c1 0 1.8.8 1.8 1.8s-.8 1.8-1.8 1.8h-41"/><path class="st1" d="M202.8 358.9c.7 0 2.6-1.4.7-2.6"/><path class="st2" d="M164.7 347.4s.9.7.1 2.7-11.6 8.1-21.9 9-15-.5-17.3-1-5-2-5.2-2.3-1-3.1.4-2.4c.6.2 1.2.5 1.7.9 1.2.8 10.2 4 20.7 2.4 12.3-1.9 19.8-6.1 20.5-7.1.3-.7.7-1.4 1-2.2m81-41.1v-50.4H232v41.3"/><path class="st1" d="M161.6 339.3v-74.2"/><path class="st2" d="M232.1 255.9l-6.4 6.8c-1.6 1.6-3.7 2.6-6 2.5h-58.2c-1.4 0-2.6-1.2-2.6-2.6 0-.4.1-.8.3-1.1l2.6-5.6h70.3m13.5.1l4.6-5.2h-8.8l-9.3 5.2"/><path class="st1" d="M161.8 327.6s14.3 6.5 26.6-3c7.6-5.8 14.3-15.3 23.4-21"/><path class="st1" d="M161.8 323.5s12.4 7.8 26.6-5.7c11.2-10.7 13.8-39.7 44-38.8"/><path class="st2" d="M219.1 277h-47.2c-.8 0-1.5-.7-1.5-1.5V273c0-.8.7-1.5 1.5-1.5h47.2c.8 0 1.5.7 1.5 1.5v2.6c0 .8-.6 1.4-1.5 1.4.1 0 .1 0 0 0m-24.7 9.3H172c-.9 0-1.6-.7-1.6-1.5v-2.4c0-.9.7-1.5 1.6-1.5h22.4c.9 0 1.6.7 1.6 1.5v2.4c0 .8-.7 1.5-1.6 1.5M78.7 245.4l4.2-3.9 1.4 6.2c1.1-3.7 6.3-11.3 6.3-11.3l1.9 7.5s11.1-9.2 24.9-3.4c-5.7.4-13.6 8-13.6 8s2.1-1.3 13 2.7c-3.8.6-10.3 6.9-10.3 6.9s1.5-.6 6.1.2c-2.5.8-5.4 6.1-5.4 6.1s-9.4-1.7-14.5-.2c-4.4-3.6-14.2-16-14.2-16l.2-2.8zm-1.5-61.5c-1.9 0-67.1-26.4-67.1-26.4l66 38.2 1.1-11.8zm-5.4 145.6l42.5 69.3s5.2-17.7-5.2-32.5-15.3-20.5-15.3-20.5-6 .3-9.5-2.5-1.1-4.4-2.2-4.6-11.7-13.1-11.7-13.1l1.4 3.9zm6.8 86.2c0 1.1 11.7 13.4 13.6 25.9s-2.7 25.9-2.7 24.8-17.5-60-17.5-60l5.2 4.4 1.4 4.9zm277.8-162.3S338.3 375.8 338.3 373s.5-132.3.5-132.3l17.6 12.7zm119.6 326h-17.6S480.1 457 478.7 457s8.6 75-2.7 122.4"/><path class="st1" d="M309 306.9s-6 1.9-8.9 5.3-11.5 20.5-31.8 25.5-32.4-3.1-39-4.7-14.7.8-14.7.8l-1.2 3.1c1.1 5.9 4.3 11.3 9 15 7.4 5.6 22.2 18.5 56.1 7.6s39.3-36.6 39.6-39.1-2.7-12.6-2.7-12.6-1.2-13.4 1.2-18.5c1.2-2.6 2.6-5.2 4.2-7.6 0 0-.1-2.6-1-1.9s-4.2 7.6-7.4 7.9-3.1-5.2-3.1-5.2-1.5 2.7-.6 5.2 1.7 1.3 1.1 7.1c-.6 4.3-1.7 8.6-3.2 12.7"/><path class="st1" d="M301.4 304.3s-5.9.7-9.1 3.4-14.2 13.9-33.9 15-29.9-8.7-35.9-11.3-13.9-1.9-13.9-1.9l-1.6 2.7s-.9 7.5 5.5 14.4c1.9 2.2 4.1 4.3 6.4 6.1"/><path class="st1" d="M216.6 309.6c-1.4-1.2-1.5-1.8-3.5-4.6-5.5-7.8-3.6-15.1-3.6-15.1l1.9-2.4s8 .3 13.6 3.8 12.7 15.6 32.4 17.3 27.7-4.4 31.2-6.6 9.5-2.1 9.5-2.1 5.8-3.9 8.2-8.1c1.1-1.8 1.8-3.7 2-5.8"/><path class="st2" d="M309 281.2s5.7-3 7.7-3.3c1.1-.2 2.3.2 3 1.1 0 0-5.2 7.5-7.3 7.7s-3.8-1.5-3.4-5.5m-95.6 55.6c.9 2.3 3.4.6 3.4.6v-2.7l-2.2-1m-5.9-24.7l1.3.6v2.7s-2.4 1.5-3.4-.4c.7-1 1.3-2 2.1-2.9m1.6-20.5c.3-.3.6-.6.9-1l1.5.6v2.7s-2.6 1.6-3.4-.6l.3-.7c.2-.3.4-.6.7-1"/><path class="st1" d="M300.8 304.1s3.6-4.7 6-8.4c1.3-1.9 2.2-4.1 2.6-6.4m-15.5 38.8s-31.1 32.9-66.2 8c-2.4-.8-7.1-.6-7.1-.6m86.6-45.4v-16.8c0-4.7-2.7-9.1-6.9-11.2l-7.3-3.7v-3.8c-3.7-.5-7.4-.7-11.1-.7-3.4-.1-6.8.2-10.2.9v3.5l-7.3 3.7c-4.2 2.1-6.9 6.4-6.9 11.2v35.4m48.4 35.1v18.9"/><path class="st2" d="M282.3 249.6c-10.7 0-14.3 2.5-14.3 2.5v2.4c1.1.7 2.3 1.2 3.6 1.4 0-.4.1-.8.4-1.1.3-.4.7-.7 1.2-.9.5-.1 1-.1 1.5.1 5.8.2 11.7-.1 17.5-.1.3 0 .6.1.7.3.2.2.3.4.3.7v1.2c1.3-.2 2.6-.6 3.8-1.2l.3-2.5c0 .1-4.3-2.8-15-2.8M260 308.7v-23.9c0-1.9 1.6-3.5 3.5-3.5h23.3c1.9 0 3.5 1.6 3.5 3.5V301s-7.1 6.4-15.5 7.1-14.8.6-14.8.6"/><path class="st1" d="M143.1 304.6s-8.3-38.9-44.9-41c-1.8-.2-3.7.1-5.4.7"/><path class="st2" d="M124.1 74.6l-1.4 1.4c-2.7-2.8-7.2-2.9-10.1-.2l-1.4-1.5c3.6-3.5 9.4-3.4 12.9.3"/><path class="st2" d="M121.8 76.8l-1.2 1.2c-1.6-1.7-4.4-1.8-6.1-.2l-1.1-1.2c2.4-2.2 6.2-2.1 8.4.2"/><path class="st2" d="M119.6 79l-2 1.9-1.9-2c1-1.1 2.8-1 3.9.1-.1 0-.1 0 0 0m183.9.8h-1.1c-1 0-1.8-.8-1.8-1.8v-3c0-1 .8-1.8 1.8-1.8h1.1c1 0 1.8.8 1.8 1.8v3c0 1-.8 1.8-1.8 1.8m5.7 0h-1.1c-1 0-1.8-.8-1.8-1.8v-3c0-1 .8-1.8 1.8-1.8h1.1c1 0 1.8.8 1.8 1.8v3c0 1-.8 1.8-1.8 1.8"/><path class="st2" d="M314.7 81.2H301c-.9 0-1.7-.8-1.7-1.7v-5.8c0-.9.8-1.7 1.7-1.7h13.7c.9 0 1.7.8 1.7 1.7v5.8c0 .9-.7 1.7-1.7 1.7M301 72.4c-.7 0-1.2.5-1.2 1.2v5.8c0 .7.5 1.2 1.2 1.2h13.7c.7 0 1.2-.5 1.2-1.2v-5.8c0-.7-.5-1.2-1.2-1.2H301zm15.7 6.3V74l.4.2c1.2.5 1.8 1.9 1.3 3.2-.2.6-.7 1-1.3 1.3h-.4zm.5-3.9v3.1c.9-.6 1.1-1.8.5-2.6-.1-.2-.3-.4-.5-.5M94.6 80.9h-1.3c-.3 0-.6-.3-.6-.6v-2.1c0-.3.3-.6.6-.6h1.3c.3 0 .6.3.6.6v2.1c-.1.4-.3.6-.6.6m11.7 0H105c-.3 0-.6-.3-.6-.6v-8.7c0-.3.3-.6.6-.6h1.3c.3 0 .6.3.6.6v8.7c0 .4-.3.6-.6.6m-7.8 0h-1.3c-.3 0-.6-.3-.6-.6v-3.6c0-.3.3-.6.6-.6h1.3c.3 0 .6.3.6.6v3.6c0 .4-.3.6-.6.6m3.9 0h-1.3c-.3 0-.6-.3-.6-.6v-6.1c0-.3.3-.6.6-.6h1.3c.3 0 .6.3.6.6v6.2c0 .3-.3.5-.6.5"/><path d="M272.3 299c.1 2.6-1.9 4.8-4.5 4.9-2.6.1-4.8-1.9-4.9-4.5v-.4c0-2.6 4.7-8.9 4.7-8.9s4.8 6.3 4.7 8.9" fill="#66bd4b"/><path class="st1" d="M150.4 188.3c2.2-.2 4.5-.3 6.7-.3 11.2 0 22.3 2.6 32.3 7.8m20 36.3c2.1 5.1 3.6 10.5 4.5 16"/><path class="st1" d="M75.9 237.6c3.9-10.5 9.8-20.3 17.3-28.7 5.2-5.8 16.4-12.2 16.4-12.2 10.4-5.7 22.1-8.7 34-8.6 2.3 0 4.5.1 6.8.3 4 .4 8 1.1 11.8 2.1l1.2.4"/><path class="st1" d="M209.9 231.9h-1l-45.3 8.7s-1-49.2-.2-49.7 26.2 4.6 26.2 4.6v40m20.3-3.6l13.6.4c1.9 5.1 3.3 10.4 4 15.8"/><path class="st2" d="M173.4 215.3c0 1.1-.9 1.9-1.9 1.9s-1.9-.9-1.9-1.9c0-1.1.9-1.9 1.9-1.9s1.9.8 1.9 1.9m3.9 11.4c0 .5-.4.9-.9.9s-.9-.4-.9-.9.4-.9.9-.9.9.4.9.9m4.4 5.8c0 .5-.4.9-.9.9s-.9-.4-.9-.9.4-.9.9-.9.9.4.9.9m-1.2-30c0 1.2-.9 2.1-2.1 2.1-1.2 0-2.1-.9-2.1-2.1 0-1.2.9-2.1 2.1-2.1 1.1 0 2.1.9 2.1 2.1m-10.3-2.4c0 .9-.7 1.6-1.6 1.6s-1.6-.7-1.6-1.6.7-1.6 1.6-1.6c.9.1 1.6.8 1.6 1.6m17.7 31.2c0 1.2-1 2.2-2.2 2.2s-2.2-1-2.2-2.2 1-2.2 2.2-2.2c1.2 0 2.2 1 2.2 2.2m-19.7 2.8c0 .6-.4 1-1 1s-1-.4-1-1 .4-1 1-1 1 .4 1 1m4.9-27.9c0 .6-.4 1-1 1s-1-.4-1-1 .4-1 1-1 1 .4 1 1m14.1 4.8c0 1.1-.9 2.1-2.1 2.1s-2.1-.9-2.1-2.1c0-1.1.9-2.1 2.1-2.1 1.2 0 2.1 1 2.1 2.1m-4.1 9.9c0 .6-.4 1-1 1s-1-.4-1-1 .4-1 1-1 1 .5 1 1m4.1-23.3c0 .6-.5 1.1-1.1 1.1-.6 0-1.1-.5-1.1-1.1 0-.6.5-1.1 1.1-1.1.7 0 1.1.5 1.1 1.1M168.7 225c0 .6-.4 1-1 1s-1-.4-1-1 .4-1 1-1 1 .4 1 1"/><path class="st1" d="M300.3 390l6 75.8M289.6 443l-.7 42.3m-154.3-104l-2.7 36.2m15.8-80.4l8.3-31.9h-39.1m-63.2 2.2s-1.9 7.3-8.4 9.9"/><path class="st4" d="M344.4 479.4c-5.1-25.8-7-52.1-5.6-78.4 2.5-41.7 25.5-92.1 36.1-100.2-1.2-9.3-1.9-29.2-14.3-44.2-12.4-14.9-27.4-56-33-72.8s2.5-30.5 11.2-39.8 14.9-5 19.3 0 39.8 61.6 61.6 86.5 40.4 42.3 44.2 55.4.6 26.8-.6 44.2 10 49.1 15.5 124.4-2.5 126.3-2.5 126.3m-275-61.6c7.4 10.3 15.5 20 24.3 29.2 13.7 14.3 20.5 14.9 24.3 19.3s4.4 13.1 4.4 13.1"/><path class="st4" d="M379.8 175.8c-5.5 1.5-10.4 4.5-14.3 8.7-6.2 6.8-17.4-23-16.2-31.7s8.7-8.7 8.7-8.7M350.6 317s15.5-15.5 24.3-16.2l-16.2-2.5m-20.5-56.6s17.4 10 22.4 14.9M82.3 339.4c.7 3.6 3 5.7 9.5 6.1s23.7-9.7 24.8-28-2.9-34-17.5-46.7-22.7-24.5-24.1-28.5"/><path class="st4" d="M88.4 297c2.5 2.2 3.1 6 1.2 8.8-2.8 4.4-4.8 9.2-6 14.3-1.3 6.4-1.8 12.9-1.5 19.4 0 0-15.7-17.1-20.8-23.7s-5.1-16.1-1.1-21.9 12.4-6.2 17.5-4.4c3 .9 7.4 4.5 10.7 7.5z"/><path class="st4" d="M75.3 214.6s-19 18.2-28.1 24.1-17.9 8.8-19.4 24.8c-1.5 16.1 1.5 21.5 11 28.1s15.7 19 20.4 21.2m39.9-42c-3.2-2.2-6.8-3.9-10.6-4.8"/><path class="st4" d="M56 310.6c-1.1.7-10.2 16.4-18.2 20.1s-11.3 15-9.9 25.2 12.8 16.4 24.4 29.2 25.2 26.3 25.2 26.3"/><path class="st4" d="M92.7 345.5s19.8 20.6 22.4 35.5c2.5 13.7-2.3 27.7-12.8 36.9-9.8 8.8-20.8 1.8-23-1.8s-2.9-6.9.7-16.8c2.1-5.7 5.9-11.5 8.7-15.4 2.4-3.2 1.8-7.7-1.3-10.3-4.7-3.9-10.8-5.7-16.9-5-15 1.5-17.3 14.5-13.3 21.4m16.7-60.1s-7.3-7.7-13.5-5.1"/><path class="st4" d="M60.3 394.1s-8.3 6.6-14.4 8.5S35.7 412 34 420s1.6 11.3 6.3 17.4c0 0 14.9 25.7 17.3 33.4s3.1 8.8 7.7 12 20.7-4.3 25.5-23.3.3-20.6-5.1-31.2c-3.9-7.6-7.6-13.1-7.6-14.2"/><path class="st4" d="M49 452.3c-2.8-4.4 2.8-14.1 11.4-13.5s15.3 13.4 15.3 13.4 2.4 2.1-4.2 5-12.1 12.4-12.4 14.8m17.5-277.1s-58.3-29.5-68.5-39.2c-13-12.3-8-33 6.7-42.2s60 16.8 60 16.8"/><path d="M65.5 53.9L37.6 31.5m55.2 10.6L88.5.5M61.8 79.9H22.7" stroke="#fff" stroke-miterlimit="10" fill="none" stroke-linecap="round"/></svg>