<?xml version="1.0" standalone="no"?>
<!DOCTYPE svg PUBLIC "-//W3C//DTD SVG 1.1//EN" "http://www.w3.org/Graphics/SVG/1.1/DTD/svg11.dtd" >
<svg xmlns="http://www.w3.org/2000/svg" xmlns:xlink="http://www.w3.org/1999/xlink" version="1.1">
<metadata>
Created by FontForge 20190801 at Tue Jun  5 19:20:31 2018
 By Jimmy Wärting
Copyright c 2018 Swiss Typefaces Sarl. All rights reserved.
</metadata>
<defs>
<font id="EuclidCircularA-Bold" horiz-adv-x="0" >
  <font-face 
    font-family="Euclid Circular A"
    font-weight="700"
    font-stretch="normal"
    units-per-em="1000"
    panose-1="2 11 8 4 0 0 0 0 0 0"
    ascent="806"
    descent="-194"
    x-height="500"
    cap-height="710"
    bbox="-222 -316 1368 1000"
    underline-thickness="100"
    underline-position="-134"
    stemh="154"
    stemv="151"
    unicode-range="U+0020-FEFF"
  />
<missing-glyph horiz-adv-x="634" 
d="M67 0v710h500v-710h-500zM533 691h-432l216 -321zM306 355l-220 327v-654zM327 355l221 -327v654zM317 339l-216 -320h432z" />
    <glyph glyph-name="uni0407_uni0407" unicode="&#x407;&#x407;" horiz-adv-x="618" 
d="M28 768c-45 0 -81 37 -81 80c0 45 36 81 81 81c44 0 80 -36 80 -81c0 -43 -36 -80 -80 -80zM301 768c-45 0 -81 37 -81 80c0 45 36 81 81 81c44 0 80 -36 80 -81c0 -43 -36 -80 -80 -80zM575 768c-45 0 -81 37 -81 80c0 45 36 81 81 81c44 0 80 -36 80 -81
c0 -43 -36 -80 -80 -80zM75 0v710h159v-710h-159zM384 0v710h159v-710h-159z" />
    <glyph glyph-name="uni0457_uni0457" unicode="&#x457;&#x457;" horiz-adv-x="550" 
d="M44 572c-44 0 -80 36 -80 79c0 44 36 80 80 80c43 0 79 -36 79 -80c0 -43 -36 -79 -79 -79zM274 572c-43 0 -79 36 -79 79c0 44 36 80 79 80c44 0 80 -36 80 -80c0 -43 -36 -79 -80 -79zM507 572c-44 0 -80 36 -80 79c0 44 36 80 80 80c43 0 79 -36 79 -80
c0 -43 -36 -79 -79 -79zM213 0h-151v500h151v-500zM488 0h-151v500h151v-500z" />
    <glyph glyph-name="uni0457_uni0458" unicode="&#x457;&#x458;" horiz-adv-x="550" 
d="M44 572c-44 0 -80 36 -80 79c0 44 36 80 80 80c43 0 79 -36 79 -80c0 -43 -36 -79 -79 -79zM274 572c-43 0 -79 36 -79 79c0 44 36 80 79 80c44 0 80 -36 80 -80c0 -43 -36 -79 -80 -79zM507 572c-44 0 -80 36 -80 79c0 44 36 80 80 80c43 0 79 -36 79 -80
c0 -43 -36 -79 -79 -79zM213 0h-151v500h151v-500zM488 -30c0 -127 -92 -189 -195 -189c-23 0 -45 1 -61 4v128c6 -1 18 -2 25 -2c53 0 80 24 80 84v505h151v-530z" />
    <glyph glyph-name="f_f" unicode="ff" horiz-adv-x="807" 
d="M118 0v369h-100v131h100v67c0 127 90 189 201 189c40 0 68 -4 90 -11v-133c-7 6 -32 8 -54 8c-61 0 -86 -24 -86 -84v-36h106v-131h-106v-369h-151zM501 0v369h-79v131h79v67c0 127 90 189 201 189c40 0 67 -4 90 -11v-133c-16 6 -32 8 -55 8c-60 0 -85 -24 -85 -84v-36
h140v-131h-140v-369h-151z" />
    <glyph glyph-name="f_i" unicode="fi" horiz-adv-x="699" 
d="M118 0v369h-100v131h100v55c0 127 90 201 201 201c40 0 68 -4 90 -11v-133c-16 6 -32 9 -54 9c-61 0 -86 -25 -86 -85v-36h140v-131h-140v-369h-151zM561 568c-51 0 -94 42 -94 94s43 94 94 94c53 0 95 -42 95 -94s-42 -94 -95 -94zM486 0v500h151v-500h-151z" />
    <glyph glyph-name="f_f_i" unicode="ffi" horiz-adv-x="1082" 
d="M944 568c-51 0 -94 42 -94 94s43 94 94 94c53 0 95 -42 95 -94s-42 -94 -95 -94zM118 0v369h-100v131h100v67c0 127 90 189 201 189c40 0 68 -4 90 -11v-133c-7 6 -32 8 -54 8c-61 0 -86 -24 -86 -84v-36h106v-131h-106v-369h-151zM501 0v369h-79v131h79v67
c0 127 90 189 201 189c40 0 67 -4 90 -11v-133c-16 6 -32 8 -55 8c-60 0 -85 -24 -85 -84v-36h140v-131h-140v-369h-151zM869 0v500h151v-500h-151z" />
    <glyph glyph-name="f_l" unicode="fl" horiz-adv-x="699" 
d="M118 0v369h-100v131h100v55c0 127 90 201 201 201c40 0 68 -4 90 -11v-133c-16 6 -32 9 -54 9c-61 0 -86 -25 -86 -85v-36h140v-131h-140v-369h-151zM486 0v750h151v-750h-151z" />
    <glyph glyph-name="f_f_l" unicode="ffl" horiz-adv-x="1081" 
d="M118 0v369h-100v131h100v67c0 127 90 189 201 189c40 0 68 -4 90 -11v-133c-7 6 -32 8 -54 8c-61 0 -86 -24 -86 -84v-36h106v-131h-106v-369h-151zM501 0v369h-79v131h79v67c0 127 90 189 201 189c40 0 67 -4 90 -11v-133c-16 6 -32 8 -55 8c-60 0 -85 -24 -85 -84v-36
h140v-131h-140v-369h-151zM869 0v750h151v-750h-151z" />
    <glyph glyph-name="f_t" unicode="ft" horiz-adv-x="835" 
d="M118 0v369h-100v131h100v67c0 127 90 189 201 189c40 0 68 -4 90 -11v-133c-16 6 -32 8 -54 8c-61 0 -86 -24 -86 -84v-36h118v-131h-118v-369h-151zM712 -6c-111 0 -201 62 -201 189v186h-77v131h77v139h151v-139h140v-131h-140v-155c0 -60 25 -84 85 -84
c23 0 39 2 55 8v-134c-23 -6 -50 -10 -90 -10z" />
    <glyph glyph-name="t_t" unicode="tt" horiz-adv-x="823" 
d="M700 -6c-111 0 -201 62 -201 189v186h-79v131h79v139h151v-139h140v-131h-140v-155c0 -60 25 -84 85 -84c23 0 39 2 55 8v-134c-22 -6 -50 -10 -90 -10zM317 -6c-111 0 -201 62 -201 189v186h-100v131h100v139h151v-139h106v-131h-106v-155c0 -60 25 -84 86 -84
c22 0 38 2 54 8v-134c-22 -6 -49 -10 -90 -10z" />
    <glyph glyph-name=".notdef" horiz-adv-x="634" 
d="M67 0v710h500v-710h-500zM533 691h-432l216 -321zM306 355l-220 327v-654zM327 355l221 -327v654zM317 339l-216 -320h432z" />
    <glyph glyph-name=".null" 
 />
    <glyph glyph-name="CR" horiz-adv-x="225" 
 />
    <glyph glyph-name="space" unicode=" " horiz-adv-x="225" 
 />
    <glyph glyph-name="exclam" unicode="!" horiz-adv-x="292" 
d="M99 265l-29 184v261h152v-261l-30 -184h-93zM146 -8c-59 0 -107 48 -107 107s48 107 107 107s107 -48 107 -107s-48 -107 -107 -107z" />
    <glyph glyph-name="quotedbl" unicode="&#x22;" horiz-adv-x="440" 
d="M56 412v298h126v-298h-126zM258 412v298h126v-298h-126z" />
    <glyph glyph-name="numbersign" unicode="#" horiz-adv-x="723" 
d="M317 0l57 181h-132l-57 -181h-127l56 181h-83v114h120l36 120h-83v114h119l56 181h129l-57 -181h131l56 181h129l-57 -181h82v-114h-118l-37 -120h83v-114h-119l-57 -181h-127zM315 415l-37 -120h132l36 120h-131z" />
    <glyph glyph-name="dollar" unicode="$" horiz-adv-x="540" 
d="M244 -88v79c-119 12 -206 94 -205 219h151c1 -39 23 -62 54 -71v151l-36 12c-93 35 -170 100 -170 211c0 121 76 202 206 209v76h54v-78c116 -16 190 -106 190 -204h-151c-5 25 -18 44 -39 54v-138l37 -13c106 -40 172 -103 172 -224s-77 -198 -209 -205v-78h-54z
M189 516c0 -31 20 -48 55 -63v122c-33 -5 -55 -28 -55 -59zM356 195c0 31 -20 53 -58 73v-132c32 5 58 25 58 59z" />
    <glyph glyph-name="percent" unicode="%" horiz-adv-x="977" 
d="M224 324c-109 0 -197 89 -197 197c0 109 88 197 197 197c108 0 197 -88 197 -197c0 -108 -89 -197 -197 -197zM186 0l450 710h155l-450 -710h-155zM224 450c39 0 69 33 69 71s-30 71 -69 71c-40 0 -70 -33 -70 -71s30 -71 70 -71zM753 -8c-109 0 -197 89 -197 197
c0 109 88 197 197 197c108 0 197 -88 197 -197c0 -108 -89 -197 -197 -197zM753 118c39 0 69 33 69 71s-30 71 -69 71s-70 -33 -70 -71s31 -71 70 -71z" />
    <glyph glyph-name="ampersand" unicode="&#x26;" horiz-adv-x="777" 
d="M303 -11c-163 0 -241 98 -241 215c0 90 51 145 118 189c-39 39 -74 85 -74 146c0 95 85 183 206 183c124 0 204 -90 204 -180c0 -85 -48 -131 -117 -170l108 -103l62 74h181l-145 -169l181 -174h-198l-77 74c-67 -59 -129 -85 -208 -85zM250 539c0 -32 25 -52 58 -80h1
c43 22 59 39 59 77c0 37 -27 59 -58 59c-32 0 -60 -21 -60 -56zM209 199c0 -57 51 -78 92 -78c36 0 72 14 112 47l-135 130c-55 -37 -69 -74 -69 -99z" />
    <glyph glyph-name="quotesingle" unicode="'" horiz-adv-x="238" 
d="M56 412v298h126v-298h-126z" />
    <glyph glyph-name="parenleft" unicode="(" horiz-adv-x="305" 
d="M165 -160c-86 156 -128 315 -128 480s42 324 128 480h119c-85 -165 -121 -316 -121 -480s36 -315 121 -480h-119z" />
    <glyph glyph-name="parenright" unicode=")" horiz-adv-x="305" 
d="M140 -160h-119c85 165 121 316 121 480s-36 315 -121 480h119c86 -156 128 -315 128 -480s-42 -324 -128 -480z" />
    <glyph glyph-name="asterisk" unicode="*" horiz-adv-x="506" 
d="M165 284l-83 60l88 119l-141 46l31 98l143 -45v148h102v-148l141 46l32 -98l-142 -47l89 -119l-83 -60l-87 118z" />
    <glyph glyph-name="plus" unicode="+" horiz-adv-x="490" 
d="M35 224v131h145v145h130v-145h145v-131h-145v-145h-130v145h-145z" />
    <glyph glyph-name="comma" unicode="," horiz-adv-x="289" 
d="M229 30l-115 -185h-87l75 155c-33 13 -65 51 -65 99c0 59 48 107 107 107s107 -48 107 -107c0 -24 -9 -47 -22 -69z" />
    <glyph glyph-name="hyphen" unicode="-" horiz-adv-x="404" 
d="M55 208v144h294v-144h-294z" />
    <glyph glyph-name="period" unicode="." horiz-adv-x="286" 
d="M143 -8c-59 0 -107 48 -107 107s48 107 107 107s107 -48 107 -107s-48 -107 -107 -107z" />
    <glyph glyph-name="slash" unicode="/" horiz-adv-x="556" 
d="M17 -110l386 820h136l-386 -820h-136z" />
    <glyph glyph-name="zero" unicode="0" horiz-adv-x="633" 
d="M317 -11c-159 0 -269 120 -269 284v165c0 164 110 284 269 284c158 0 268 -120 268 -284v-165c0 -164 -110 -284 -268 -284zM317 138c69 0 117 50 117 135v165c0 85 -48 135 -117 135c-70 0 -118 -50 -118 -135v-165c0 -85 48 -135 118 -135z" />
    <glyph glyph-name="one" unicode="1" horiz-adv-x="380" 
d="M154 0v561h-154l108 149h197v-710h-151z" />
    <glyph glyph-name="two" unicode="2" horiz-adv-x="577" 
d="M529 149v-149h-490v51c0 161 123 228 227 302c56 40 107 85 107 136c0 46 -27 84 -84 84c-59 0 -97 -42 -96 -89h-151c0 140 108 238 252 238c120 0 230 -75 230 -222c0 -127 -63 -190 -146 -251c-34 -25 -107 -64 -126 -100h277z" />
    <glyph glyph-name="three" unicode="3" horiz-adv-x="590" 
d="M299 -11c-132 0 -261 82 -267 245h150c7 -65 52 -96 117 -96c58 0 97 32 98 78c1 51 -41 86 -105 86h-62v121h54c63 0 92 32 93 77c1 43 -35 73 -81 73c-60 0 -100 -41 -99 -89h-151c0 151 126 238 250 238c152 0 233 -98 233 -209c0 -69 -37 -124 -74 -153
c48 -23 94 -77 94 -157c0 -125 -100 -214 -250 -214z" />
    <glyph glyph-name="four" unicode="4" horiz-adv-x="643" 
d="M365 0v154h-347v122l362 434h136v-418h91v-138h-91v-154h-151zM365 292v196l-163 -196h163z" />
    <glyph glyph-name="five" unicode="5" horiz-adv-x="576" 
d="M287 -11c-131 0 -251 89 -257 221h156c11 -42 52 -72 101 -72c65 0 99 43 99 98c0 56 -42 98 -98 98c-53 0 -91 -31 -105 -74l-131 41l82 409h349v-146h-233l-24 -113c24 12 55 19 91 19c136 0 220 -101 220 -245c0 -147 -98 -236 -250 -236z" />
    <glyph glyph-name="six" unicode="6" horiz-adv-x="572" 
d="M284 -11c-155 0 -250 107 -250 248c0 71 28 111 84 191l198 282h186l-174 -248c99 -7 206 -85 206 -226c0 -140 -95 -247 -250 -247zM284 134c57 0 98 44 98 100c0 55 -41 100 -98 100c-58 0 -98 -45 -98 -100c0 -56 40 -100 98 -100z" />
    <glyph glyph-name="seven" unicode="7" horiz-adv-x="552" 
d="M212 0h-171l318 564h-324v146h503v-131z" />
    <glyph glyph-name="eight" unicode="8" horiz-adv-x="592" 
d="M296 -11c-144 0 -256 95 -256 230c0 77 31 133 85 167c-37 35 -57 84 -57 141c0 112 90 195 228 195s228 -83 228 -195c0 -57 -20 -105 -58 -141c55 -34 86 -90 86 -167c0 -135 -112 -230 -256 -230zM296 437c46 0 82 32 82 76s-36 76 -82 76s-82 -32 -82 -76
s36 -76 82 -76zM296 128c63 0 100 47 100 95s-37 95 -100 95c-64 0 -100 -47 -100 -95s36 -95 100 -95z" />
    <glyph glyph-name="nine" unicode="9" horiz-adv-x="572" 
d="M69 0l174 249c-98 7 -205 85 -205 226c0 140 95 247 250 247s250 -107 250 -248c0 -71 -28 -111 -84 -191l-199 -283h-186zM288 377c58 0 98 45 98 100c0 56 -40 100 -98 100c-57 0 -98 -44 -98 -100c0 -55 41 -100 98 -100z" />
    <glyph glyph-name="colon" unicode=":" horiz-adv-x="306" 
d="M153 298c-59 0 -107 48 -107 107s48 107 107 107s107 -48 107 -107s-48 -107 -107 -107zM153 -8c-59 0 -107 48 -107 107s48 107 107 107s107 -48 107 -107s-48 -107 -107 -107z" />
    <glyph glyph-name="semicolon" unicode=";" horiz-adv-x="306" 
d="M153 298c-59 0 -107 48 -107 107s48 107 107 107s107 -48 107 -107s-48 -107 -107 -107zM238 30l-115 -185h-87l75 155c-33 13 -65 51 -65 99c0 59 48 107 107 107s107 -48 107 -107c0 -24 -9 -47 -22 -69z" />
    <glyph glyph-name="less" unicode="&#x3c;" horiz-adv-x="490" 
d="M465 543l-253 -253l253 -253h-188l-253 253l253 253h188z" />
    <glyph glyph-name="equal" unicode="=" horiz-adv-x="536" 
d="M58 328v131h420v-131h-420zM58 120v130h420v-130h-420z" />
    <glyph glyph-name="greater" unicode="&#x3e;" horiz-adv-x="490" 
d="M466 290l-253 -253h-188l253 253l-253 253h188z" />
    <glyph glyph-name="question" unicode="?" horiz-adv-x="523" 
d="M160 263v19c0 60 30 97 85 135c44 29 88 45 88 93c0 41 -33 63 -73 63c-41 0 -82 -26 -82 -78h-151c0 125 103 227 233 227c132 0 224 -97 224 -203c0 -69 -16 -121 -86 -173c-53 -40 -87 -58 -87 -82v-1h-151zM235 -8c-59 0 -107 48 -107 107s48 107 107 107
s107 -48 107 -107s-48 -107 -107 -107z" />
    <glyph glyph-name="at" unicode="@" horiz-adv-x="800" 
d="M387 -11c-216 0 -349 155 -349 348c0 228 181 385 387 385c196 0 344 -122 344 -316c0 -174 -83 -249 -185 -249c-46 0 -88 22 -107 48c-29 -29 -71 -46 -122 -46c-101 0 -157 80 -157 172c0 119 86 219 199 219c52 0 88 -28 103 -56l9 46h105l-46 -216
c-9 -44 -4 -79 35 -79c51 0 82 45 82 163c0 156 -123 233 -261 233c-155 0 -298 -110 -298 -304c0 -159 101 -267 261 -267c60 0 122 9 176 36v-89c-57 -20 -122 -28 -176 -28zM378 257c52 0 86 36 96 87c12 59 -15 108 -66 108c-52 0 -86 -36 -96 -87
c-12 -59 15 -108 66 -108z" />
    <glyph glyph-name="A" unicode="A" horiz-adv-x="750" 
d="M-1 0l304 710h144l304 -710h-166l-63 150h-294l-63 -150h-166zM286 288h178l-89 214z" />
    <glyph glyph-name="B" unicode="B" horiz-adv-x="635" 
d="M75 0v710h267c116 0 211 -94 211 -211c0 -50 -20 -92 -51 -122c60 -31 101 -92 101 -168c0 -117 -94 -209 -216 -209h-312zM234 423h90c43 0 74 32 74 70c0 39 -31 72 -74 72h-90v-142zM234 146h140c42 0 74 31 74 71c0 39 -32 71 -75 71h-139v-142z" />
    <glyph glyph-name="C" unicode="C" horiz-adv-x="778" 
d="M409 -12c-217 0 -373 161 -373 367s156 367 373 367c156 0 304 -99 345 -256h-173c-30 66 -102 102 -172 102c-130 0 -213 -94 -213 -213s83 -213 213 -213c70 0 142 36 172 102h173c-41 -157 -189 -256 -345 -256z" />
    <glyph glyph-name="D" unicode="D" horiz-adv-x="715" 
d="M75 0v710h242c200 0 362 -158 362 -355s-162 -355 -362 -355h-242zM234 146h83c120 0 201 95 201 209s-81 209 -201 209h-83v-418z" />
    <glyph glyph-name="E" unicode="E" horiz-adv-x="571" 
d="M75 0v710h450v-152h-291v-127h231v-152h-231v-127h291v-152h-450z" />
    <glyph glyph-name="F" unicode="F" horiz-adv-x="545" 
d="M75 0v710h437v-152h-278v-128h217v-152h-217v-278h-159z" />
    <glyph glyph-name="G" unicode="G" horiz-adv-x="802" 
d="M411 -12c-219 0 -375 161 -375 367s156 367 373 367c144 0 284 -84 334 -222h-183c-34 45 -94 68 -151 68c-130 0 -213 -94 -213 -213s83 -213 215 -213c106 0 167 53 184 139h-204v149h369c35 -301 -136 -442 -349 -442z" />
    <glyph glyph-name="H" unicode="H" horiz-adv-x="754" 
d="M75 0v710h159v-278h286v278h159v-710h-159v281h-286v-281h-159z" />
    <glyph glyph-name="I" unicode="I" horiz-adv-x="309" 
d="M75 0v710h159v-710h-159z" />
    <glyph glyph-name="J" unicode="J" horiz-adv-x="552" 
d="M250 -12c-119 0 -230 66 -230 220h157c0 -48 32 -72 73 -72c39 0 73 23 73 68v506h159v-516c0 -145 -110 -206 -232 -206z" />
    <glyph glyph-name="K" unicode="K" horiz-adv-x="700" 
d="M75 0v710h158v-297l241 297h195l-280 -341l337 -369h-204l-289 318v-318h-158z" />
    <glyph glyph-name="L" unicode="L" horiz-adv-x="552" 
d="M75 0v710h159v-558h294v-152h-453z" />
    <glyph glyph-name="M" unicode="M" horiz-adv-x="884" 
d="M442 151l-208 287v-438h-159v710h145l222 -306l222 306h145v-710h-160v438z" />
    <glyph glyph-name="N" unicode="N" horiz-adv-x="792" 
d="M717 0h-137l-346 439v-439h-159v710h137l345 -438v438h160v-710z" />
    <glyph glyph-name="O" unicode="O" horiz-adv-x="804" 
d="M402 -12c-203 0 -367 165 -367 367s164 367 367 367c202 0 367 -165 367 -367s-165 -367 -367 -367zM402 142c115 0 206 98 206 213s-91 213 -206 213c-116 0 -207 -98 -207 -213s91 -213 207 -213z" />
    <glyph glyph-name="P" unicode="P" horiz-adv-x="593" 
d="M566 467c0 -137 -107 -242 -250 -242h-82v-225h-159v710h241c143 0 250 -106 250 -243zM412 467c0 53 -41 93 -98 93h-80v-186h80c57 0 98 41 98 93z" />
    <glyph glyph-name="Q" unicode="Q" horiz-adv-x="840" 
d="M402 -12c-203 0 -367 165 -367 367s164 367 367 367c202 0 367 -165 367 -367c0 -69 -19 -133 -52 -188l205 -167h-225l-75 61c-62 -46 -138 -73 -220 -73zM402 142c33 0 65 8 92 23l-101 82l90 110l107 -87c12 26 18 55 18 85c0 115 -91 213 -206 213
c-116 0 -207 -98 -207 -213s91 -213 207 -213z" />
    <glyph glyph-name="R" unicode="R" horiz-adv-x="662" 
d="M75 0v710h280c134 0 220 -96 220 -214c0 -92 -49 -151 -139 -183l251 -313h-191l-236 293h-26v-293h-159zM234 428h102c47 0 81 27 81 68c0 43 -34 68 -81 68h-102v-136z" />
    <glyph glyph-name="S" unicode="S" horiz-adv-x="602" 
d="M312 -12c-176 0 -274 121 -280 240h159c10 -60 59 -93 121 -93c53 0 92 23 92 63c0 33 -25 59 -93 77l-69 18c-113 30 -191 102 -192 213c-1 134 97 216 244 216c155 0 252 -113 256 -222h-158c-16 56 -60 75 -98 75c-46 0 -83 -20 -84 -58c-1 -39 31 -62 86 -76l81 -21
c116 -30 188 -106 188 -217c0 -121 -100 -215 -253 -215z" />
    <glyph glyph-name="T" unicode="T" horiz-adv-x="568" 
d="M203 0v558h-181v152h524v-152h-183v-558h-160z" />
    <glyph glyph-name="U" unicode="U" horiz-adv-x="718" 
d="M359 -12c-171 0 -292 116 -292 293v429h159v-431c0 -85 54 -137 133 -137s133 52 133 137v431h159v-429c0 -177 -122 -293 -292 -293z" />
    <glyph glyph-name="V" unicode="V" horiz-adv-x="727" 
d="M292 0l-291 710h173l189 -473l188 473h175l-291 -710h-143z" />
    <glyph glyph-name="W" unicode="W" horiz-adv-x="965" 
d="M634 0l-151 348l-151 -348h-151l-164 710h170l97 -450l199 462l200 -462l97 450h170l-165 -710h-151z" />
    <glyph glyph-name="X" unicode="X" horiz-adv-x="704" 
d="M528 0l-175 235l-176 -235h-186l266 359l-250 351h184l161 -228l161 228h184l-249 -351l265 -359h-185z" />
    <glyph glyph-name="Y" unicode="Y" horiz-adv-x="694" 
d="M267 0v299l-259 411h185l153 -256l155 256h185l-259 -412v-298h-160z" />
    <glyph glyph-name="Z" unicode="Z" horiz-adv-x="626" 
d="M39 0v109l326 449h-321v152h537v-109l-327 -449h333v-152h-548z" />
    <glyph glyph-name="bracketleft" unicode="[" horiz-adv-x="331" 
d="M72 -160v960h230v-108h-104v-744h104v-108h-230z" />
    <glyph glyph-name="backslash" unicode="\" horiz-adv-x="556" 
d="M539 -110h-136l-386 820h136z" />
    <glyph glyph-name="bracketright" unicode="]" horiz-adv-x="331" 
d="M259 -160h-230v108h104v744h-104v108h230v-960z" />
    <glyph glyph-name="asciicircum" unicode="^" horiz-adv-x="331" 
d="M38 500l102 210h52l101 -210h-82l-45 94l-46 -94h-82z" />
    <glyph glyph-name="underscore" unicode="_" horiz-adv-x="511" 
d="M38 -114v114h435v-114h-435z" />
    <glyph glyph-name="grave" unicode="`" 
d="M31 560l-171 190h172l110 -190h-111z" />
    <glyph glyph-name="a" unicode="a" horiz-adv-x="613" 
d="M264 -11c-131 0 -232 119 -232 261s101 261 232 261c67 0 116 -34 136 -61v50h151v-500h-151v50c-20 -27 -69 -61 -136 -61zM298 126c68 0 114 52 114 124s-46 124 -114 124s-114 -52 -114 -124s46 -124 114 -124z" />
    <glyph glyph-name="b" unicode="b" horiz-adv-x="613" 
d="M349 -11c-67 0 -116 34 -136 61v-50h-151v750h151v-300c20 27 69 61 136 61c131 0 232 -119 232 -261s-101 -261 -232 -261zM315 126c68 0 114 52 114 124s-46 124 -114 124s-114 -52 -114 -124s46 -124 114 -124z" />
    <glyph glyph-name="c" unicode="c" horiz-adv-x="578" 
d="M295 -11c-152 0 -263 116 -263 261s111 261 263 261c142 0 231 -89 258 -206h-156c-18 40 -49 70 -102 70c-63 0 -111 -47 -111 -125s48 -125 111 -125c53 0 84 30 102 70h156c-27 -117 -116 -206 -258 -206z" />
    <glyph glyph-name="d" unicode="d" horiz-adv-x="613" 
d="M264 -11c-131 0 -232 119 -232 261s101 261 232 261c67 0 116 -34 136 -61v300h151v-750h-151v50c-20 -27 -69 -61 -136 -61zM298 126c68 0 114 52 114 124s-46 124 -114 124s-114 -52 -114 -124s46 -124 114 -124z" />
    <glyph glyph-name="e" unicode="e" horiz-adv-x="596" 
d="M297 -11c-155 0 -265 110 -265 262c0 150 114 260 265 260c144 0 273 -98 267 -296h-385c7 -51 45 -96 126 -96c44 0 84 20 96 47h158c-32 -104 -136 -177 -262 -177zM293 391c-60 0 -97 -34 -110 -80h214c-16 60 -65 80 -104 80z" />
    <glyph glyph-name="f" unicode="f" horiz-adv-x="424" 
d="M118 0v369h-100v131h100v55c0 127 90 201 201 201c40 0 68 -4 90 -11v-133c-16 6 -32 9 -54 9c-61 0 -86 -25 -86 -85v-36h140v-131h-140v-369h-151z" />
    <glyph glyph-name="g" unicode="g" horiz-adv-x="615" 
d="M298 -219c-143 0 -236 84 -244 192h147c16 -47 50 -67 101 -67c52 0 100 32 100 103v59c-23 -34 -75 -61 -136 -61c-128 0 -234 112 -234 252s106 252 234 252c61 0 113 -27 136 -61v50h151v-469c0 -185 -126 -250 -255 -250zM299 144c61 0 115 45 115 115
s-54 115 -115 115s-115 -45 -115 -115s54 -115 115 -115z" />
    <glyph glyph-name="h" unicode="h" horiz-adv-x="602" 
d="M62 0v750h151v-301c24 34 74 62 139 62c123 0 194 -91 194 -222v-289h-151v263c0 69 -27 111 -81 111c-57 0 -101 -41 -101 -131v-243h-151z" />
    <glyph glyph-name="i" unicode="i" horiz-adv-x="275" 
d="M137 568c-51 0 -94 42 -94 94s43 94 94 94c53 0 95 -42 95 -94s-42 -94 -95 -94zM62 0v500h151v-500h-151z" />
    <glyph glyph-name="j" unicode="j" horiz-adv-x="283" 
d="M145 568c-51 0 -94 42 -94 94s43 94 94 94c53 0 95 -42 95 -94s-42 -94 -95 -94zM221 -30c0 -127 -92 -189 -195 -189c-23 0 -45 1 -61 4v128c6 -1 18 -2 25 -2c53 0 80 24 80 84v505h151v-530z" />
    <glyph glyph-name="k" unicode="k" horiz-adv-x="560" 
d="M62 0v750h151v-429l146 179h179l-184 -226l228 -274h-183l-186 224v-224h-151z" />
    <glyph glyph-name="l" unicode="l" horiz-adv-x="275" 
d="M62 0v750h151v-750h-151z" />
    <glyph glyph-name="m" unicode="m" horiz-adv-x="895" 
d="M62 0v500h151v-51c26 35 69 62 128 62c72 0 124 -33 155 -88c32 61 101 88 153 88c122 0 190 -87 190 -226v-285h-151v259c0 73 -21 115 -72 115c-53 0 -90 -40 -90 -131v-243h-151v259c0 73 -21 115 -72 115c-53 0 -90 -40 -90 -131v-243h-151z" />
    <glyph glyph-name="n" unicode="n" horiz-adv-x="602" 
d="M62 0v500h151v-51c24 34 74 62 139 62c123 0 194 -91 194 -222v-289h-151v263c0 69 -27 111 -81 111c-57 0 -101 -41 -101 -131v-243h-151z" />
    <glyph glyph-name="o" unicode="o" horiz-adv-x="588" 
d="M294 -11c-144 0 -263 114 -263 261s119 261 263 261s263 -114 263 -261s-119 -261 -263 -261zM294 130c63 0 111 49 111 120s-48 120 -111 120s-111 -49 -111 -120s48 -120 111 -120z" />
    <glyph glyph-name="p" unicode="p" horiz-adv-x="613" 
d="M62 -209v709h151v-50c20 27 69 61 136 61c131 0 232 -119 232 -261s-101 -261 -232 -261c-67 0 -116 34 -136 61v-259h-151zM315 126c68 0 114 52 114 124s-46 124 -114 124s-114 -52 -114 -124s46 -124 114 -124z" />
    <glyph glyph-name="q" unicode="q" horiz-adv-x="613" 
d="M400 -209v259c-20 -27 -69 -61 -136 -61c-131 0 -232 119 -232 261s101 261 232 261c67 0 116 -34 136 -61v50h151v-709h-151zM298 126c68 0 114 52 114 124s-46 124 -114 124s-114 -52 -114 -124s46 -124 114 -124z" />
    <glyph glyph-name="r" unicode="r" horiz-adv-x="403" 
d="M62 0v500h151v-75c16 44 64 81 119 81c15 0 31 -1 49 -6v-153c-23 8 -43 12 -67 12c-65 0 -101 -50 -101 -122v-237h-151z" />
    <glyph glyph-name="s" unicode="s" horiz-adv-x="510" 
d="M264 -11c-136 0 -228 76 -233 174h159c2 -40 36 -60 79 -60c39 0 56 14 56 32c0 22 -18 32 -57 42l-101 26c-87 22 -126 83 -126 157c0 87 77 151 209 151c110 0 200 -56 207 -162h-152c-6 37 -32 46 -58 46c-31 0 -51 -12 -51 -32c0 -26 28 -33 51 -39l91 -24
c101 -27 141 -78 141 -157c0 -93 -89 -154 -215 -154z" />
    <glyph glyph-name="t" unicode="t" horiz-adv-x="440" 
d="M317 -6c-111 0 -201 62 -201 189v186h-100v131h100v139h151v-139h140v-131h-140v-155c0 -60 25 -85 85 -85c23 0 39 3 55 9v-134c-22 -6 -50 -10 -90 -10z" />
    <glyph glyph-name="u" unicode="u" horiz-adv-x="591" 
d="M245 -11c-124 0 -189 90 -189 226v285h151v-259c0 -73 21 -115 77 -115c57 0 94 39 94 131v243h151v-500h-151v51c-24 -35 -68 -62 -133 -62z" />
    <glyph glyph-name="v" unicode="v" horiz-adv-x="576" 
d="M218 0l-219 500h167l122 -303l121 303h168l-219 -500h-140z" />
    <glyph glyph-name="w" unicode="w" horiz-adv-x="810" 
d="M491 0l-85 265l-86 -265h-152l-165 500h162l87 -306l95 306h116l95 -306l87 306h162l-164 -500h-152z" />
    <glyph glyph-name="x" unicode="x" horiz-adv-x="577" 
d="M2 0l192 242l-190 258h178l106 -145l106 145h180l-190 -258l191 -242h-180l-106 136l-106 -136h-181z" />
    <glyph glyph-name="y" unicode="y" horiz-adv-x="576" 
d="M267 -209h-163l104 238l-208 471h165l124 -309l123 309h166z" />
    <glyph glyph-name="z" unicode="z" horiz-adv-x="502" 
d="M41 0v118l220 246h-217v136h412v-119l-219 -245h227v-136h-423z" />
    <glyph glyph-name="braceleft" unicode="{" horiz-adv-x="347" 
d="M231 -160c-87 0 -143 56 -143 142v229c0 29 -14 55 -53 55h-8v108h8c39 0 53 24 53 53v231c0 86 56 142 143 142h88v-108h-48c-41 0 -56 -15 -56 -57v-217c0 -58 -27 -89 -63 -98c36 -9 63 -43 63 -101v-214c0 -42 15 -57 56 -57h48v-108h-88z" />
    <glyph glyph-name="bar" unicode="|" horiz-adv-x="268" 
d="M71 -110v820h126v-820h-126z" />
    <glyph glyph-name="braceright" unicode="}" horiz-adv-x="347" 
d="M116 -160h-88v108h48c41 0 56 15 56 57v214c0 58 27 92 63 101c-36 9 -63 40 -63 98v217c0 42 -15 57 -56 57h-48v108h88c87 0 143 -56 143 -142v-231c0 -29 14 -53 53 -53h8v-108h-8c-39 0 -53 -26 -53 -55v-229c0 -86 -56 -142 -143 -142z" />
    <glyph glyph-name="asciitilde" unicode="~" horiz-adv-x="328" 
d="M56 230l55 119h46l28 -40l18 40h73l-55 -119h-46l-29 40l-18 -40h-72z" />
    <glyph glyph-name="uni00A0" unicode="&#xa0;" horiz-adv-x="225" 
 />
    <glyph glyph-name="exclamdown" unicode="&#xa1;" horiz-adv-x="282" 
d="M141 297c-59 0 -107 48 -107 107s48 107 107 107s107 -48 107 -107s-48 -107 -107 -107zM187 238l30 -184v-263h-152v263l29 184h93z" />
    <glyph glyph-name="cent" unicode="&#xa2;" horiz-adv-x="588" 
d="M273 -88v78c-138 13 -236 124 -236 260s98 247 236 260v78h54v-78c126 -11 206 -96 231 -205h-156c-15 33 -38 59 -75 67v-244c37 8 60 34 75 67h156c-25 -109 -105 -194 -231 -205v-78h-54zM189 250c0 -66 35 -110 84 -122v244c-49 -12 -84 -56 -84 -122z" />
    <glyph glyph-name="sterling" unicode="&#xa3;" horiz-adv-x="595" 
d="M44 0v149h95c13 29 19 56 19 84c0 32 -8 63 -19 95h-95v57h75c-14 39 -26 80 -26 122c0 100 93 215 228 215c133 0 229 -112 233 -235h-151c1 47 -35 86 -82 86c-43 0 -77 -30 -77 -79c0 -35 14 -70 29 -109h166v-57h-146c8 -28 14 -58 14 -91c0 -25 -5 -55 -23 -88h270
v-149h-510z" />
    <glyph glyph-name="yen" unicode="&#xa5;" horiz-adv-x="735" 
d="M75 165v57h217v76h-217v57h180l-231 355h184l159 -260l159 260h184l-230 -355h180v-57h-217v-76h217v-57h-217v-165h-151v165h-217z" />
    <glyph glyph-name="brokenbar" unicode="&#xa6;" horiz-adv-x="268" 
d="M71 367v343h126v-343h-126zM71 -110v343h126v-343h-126z" />
    <glyph glyph-name="section" unicode="&#xa7;" horiz-adv-x="453" 
d="M235 -219c-87 0 -178 47 -186 175h126c7 -54 34 -67 60 -67c20 0 46 14 46 49c0 29 -4 61 -75 104l-55 35c-57 37 -103 90 -103 164c0 81 40 128 72 166c-60 51 -73 116 -73 155c0 101 73 160 167 160c87 0 174 -47 183 -175h-126c-7 54 -30 67 -53 67
c-24 0 -45 -13 -45 -51c0 -29 4 -50 73 -94l55 -35c58 -37 105 -90 105 -164c0 -81 -40 -128 -73 -167c60 -52 74 -125 74 -164c-1 -99 -78 -158 -172 -158zM233 169l5 -3c25 25 43 56 43 86c0 48 -26 68 -61 90l-4 3c-27 -26 -43 -55 -43 -86c0 -48 24 -68 60 -90z" />
    <glyph glyph-name="dieresis" unicode="&#xa8;" 
d="M-118 572c-45 0 -81 36 -81 79c0 45 36 81 81 81c43 0 79 -36 79 -81c0 -43 -36 -79 -79 -79zM119 572c-44 0 -80 36 -80 79c0 45 36 81 80 81s80 -36 80 -81c0 -43 -36 -79 -80 -79z" />
    <glyph glyph-name="copyright" unicode="&#xa9;" horiz-adv-x="803" 
d="M401 -12c-201 0 -366 165 -366 367s165 367 366 367c202 0 367 -165 367 -367s-165 -367 -367 -367zM401 76c154 0 279 125 279 279s-125 279 -279 279c-153 0 -278 -125 -278 -279s125 -279 278 -279zM405 163c-114 0 -195 84 -195 192c0 107 81 192 195 192
c80 0 159 -51 181 -135h-95c-16 33 -52 50 -86 50c-66 0 -107 -48 -107 -107c0 -60 41 -107 107 -107c34 0 70 16 86 49h95c-22 -84 -101 -134 -181 -134z" />
    <glyph glyph-name="ordfeminine" unicode="&#xaa;" horiz-adv-x="401" 
d="M168 403c-77 0 -137 72 -137 157s60 157 137 157c38 0 63 -20 72 -31v24h105v-300h-105v24c-9 -11 -34 -31 -72 -31zM193 498c33 0 56 25 56 62s-23 62 -56 62c-34 0 -56 -25 -56 -62s22 -62 56 -62z" />
    <glyph glyph-name="guillemotleft" unicode="&#xab;" horiz-adv-x="538" 
d="M236 250l141 217h131l-116 -217l116 -217h-131zM25 250l141 217h131l-116 -217l116 -217h-131z" />
    <glyph glyph-name="uni00AD" unicode="&#xad;" horiz-adv-x="404" 
d="M55 208v144h294v-144h-294z" />
    <glyph glyph-name="registered" unicode="&#xae;" horiz-adv-x="803" 
d="M401 -12c-201 0 -366 165 -366 367s165 367 366 367c202 0 367 -165 367 -367s-165 -367 -367 -367zM401 76c154 0 279 125 279 279s-125 279 -279 279c-153 0 -278 -125 -278 -279s125 -279 278 -279zM275 169v371h149c71 0 116 -51 116 -113c0 -47 -25 -77 -71 -95
l130 -163h-104l-121 151h-11v-151h-88zM363 394h51c22 0 39 14 39 33c0 21 -17 33 -39 33h-51v-66z" />
    <glyph glyph-name="macron" unicode="&#xaf;" 
d="M-174 606v104h348v-104h-348z" />
    <glyph glyph-name="degree" unicode="&#xb0;" horiz-adv-x="382" 
d="M192 393c-89 0 -161 72 -161 160c0 89 72 161 161 161c88 0 160 -72 160 -161c0 -88 -72 -160 -160 -160zM192 493c33 0 60 27 60 60s-27 61 -60 61c-36 0 -62 -28 -62 -61s26 -60 62 -60z" />
    <glyph glyph-name="twosuperior" unicode="&#xb2;" horiz-adv-x="356" 
d="M327 514v-104h-304v34c0 100 71 142 136 185c29 19 61 50 61 78c0 20 -14 38 -41 38c-32 0 -49 -24 -48 -44h-105c0 86 67 148 157 148c73 0 142 -47 142 -138c0 -82 -41 -124 -85 -153c-11 -7 -53 -31 -65 -44h152z" />
    <glyph glyph-name="threesuperior" unicode="&#xb3;" horiz-adv-x="364" 
d="M184 403c-78 0 -160 47 -165 153h104c5 -35 27 -49 62 -49c31 0 50 17 50 39c0 24 -21 42 -54 42h-40v82h33c36 0 48 16 48 39c0 21 -16 36 -40 36c-31 0 -50 -23 -49 -44h-105c0 95 80 148 155 148c99 0 145 -64 145 -130c0 -42 -22 -75 -41 -93c25 -12 53 -43 53 -92
c0 -76 -62 -131 -156 -131z" />
    <glyph glyph-name="acute" unicode="&#xb4;" 
d="M-141 560l109 190h172l-171 -190h-110z" />
    <glyph glyph-name="paragraph" unicode="&#xb6;" horiz-adv-x="675" 
d="M250 -184v444c-124 0 -225 101 -225 225s101 225 225 225h339v-894h-127v763h-85v-763h-127z" />
    <glyph glyph-name="periodcentered" unicode="&#xb7;" horiz-adv-x="294" 
d="M147 175c-59 0 -107 48 -107 107s48 107 107 107s107 -48 107 -107s-48 -107 -107 -107z" />
    <glyph glyph-name="cedilla" unicode="&#xb8;" 
d="M-121 -139c21 -12 52 -17 76 -17c26 0 60 4 60 31c0 19 -18 27 -43 27c-11 0 -27 -3 -40 -10l-36 19l56 92h64l-30 -50c17 4 29 7 49 7c48 0 86 -29 86 -79c0 -61 -69 -100 -138 -100c-29 0 -70 2 -104 15v65z" />
    <glyph glyph-name="onesuperior" unicode="&#xb9;" horiz-adv-x="247" 
d="M98 410v328h-97l73 104h129v-432h-105z" />
    <glyph glyph-name="ordmasculine" unicode="&#xba;" horiz-adv-x="376" 
d="M188 403c-85 0 -158 68 -158 157s73 157 158 157s158 -68 158 -157s-73 -157 -158 -157zM188 501c29 0 53 23 53 59s-24 59 -53 59s-53 -23 -53 -59s24 -59 53 -59z" />
    <glyph glyph-name="guillemotright" unicode="&#xbb;" horiz-adv-x="538" 
d="M513 250l-141 -217h-131l116 217l-116 217h131zM302 250l-141 -217h-131l116 217l-116 217h131z" />
    <glyph glyph-name="onequarter" unicode="&#xbc;" horiz-adv-x="836" 
d="M100 278v328h-97l73 104h129v-432h-105zM68 0l500 710h128l-500 -710h-128zM659 0v86h-205v85l215 261h95v-251h54v-95h-54v-86h-105zM659 181v96l-78 -96h78z" />
    <glyph glyph-name="onehalf" unicode="&#xbd;" horiz-adv-x="826" 
d="M100 278v328h-97l73 104h129v-432h-105zM68 0l500 710h128l-500 -710h-128zM797 104v-104h-304v34c0 100 71 142 136 185c29 19 61 50 61 78c0 20 -14 38 -41 38c-32 0 -49 -24 -48 -44h-105c0 86 67 148 157 148c73 0 142 -47 142 -138c0 -82 -41 -124 -85 -153
c-11 -7 -53 -31 -65 -44h152z" />
    <glyph glyph-name="threequarters" unicode="&#xbe;" horiz-adv-x="910" 
d="M184 271c-78 0 -160 47 -165 153h104c5 -35 27 -49 62 -49c31 0 50 17 50 39c0 24 -21 42 -54 42h-40v82h33c36 0 48 16 48 39c0 21 -16 36 -40 36c-31 0 -50 -23 -49 -44h-105c0 95 80 148 155 148c99 0 145 -64 145 -130c0 -42 -22 -75 -41 -93c25 -12 53 -43 53 -92
c0 -76 -62 -131 -156 -131zM142 0l500 710h128l-500 -710h-128zM733 0v86h-205v85l215 261h95v-251h54v-95h-54v-86h-105zM733 181v96l-78 -96h78z" />
    <glyph glyph-name="questiondown" unicode="&#xbf;" horiz-adv-x="515" 
d="M283 511c59 0 107 -48 107 -107s-48 -107 -107 -107s-107 48 -107 107s48 107 107 107zM358 240v-19c0 -60 -30 -97 -85 -135c-44 -29 -88 -45 -88 -93c0 -41 33 -63 73 -63c41 0 82 26 82 78h151c0 -125 -103 -227 -233 -227c-132 0 -224 97 -224 203
c0 69 16 121 86 173c53 40 87 58 87 82v1h151z" />
    <glyph glyph-name="Agrave" unicode="&#xc0;" horiz-adv-x="750" 
d="M424 770h-111l-125 157h166zM-1 0l304 710h144l304 -710h-166l-63 150h-294l-63 -150h-166zM286 288h178l-89 214z" />
    <glyph glyph-name="Aacute" unicode="&#xc1;" horiz-adv-x="750" 
d="M328 770l70 157h166l-125 -157h-111zM-1 0l304 710h144l304 -710h-166l-63 150h-294l-63 -150h-166zM286 288h178l-89 214z" />
    <glyph glyph-name="Acircumflex" unicode="&#xc2;" horiz-adv-x="750" 
d="M200 762v118l176 68l176 -68v-118l-176 68zM-1 0l304 710h144l304 -710h-166l-63 150h-294l-63 -150h-166zM286 288h178l-89 214z" />
    <glyph glyph-name="Atilde" unicode="&#xc3;" horiz-adv-x="750" 
d="M183 776l4 28c11 76 66 117 121 117c62 0 102 -47 133 -47c27 0 36 18 44 48h83l-4 -28c-11 -76 -66 -117 -122 -117c-62 0 -102 47 -132 47c-27 0 -36 -18 -45 -48h-82zM-1 0l304 710h144l304 -710h-166l-63 150h-294l-63 -150h-166zM286 288h178l-89 214z" />
    <glyph glyph-name="Adieresis" unicode="&#xc4;" horiz-adv-x="750" 
d="M258 768c-45 0 -81 37 -81 80c0 45 36 81 81 81c43 0 79 -36 79 -81c0 -43 -36 -80 -79 -80zM495 768c-44 0 -80 37 -80 80c0 45 36 81 80 81s80 -36 80 -81c0 -43 -36 -80 -80 -80zM-1 0l304 710h144l304 -710h-166l-63 150h-294l-63 -150h-166zM286 288h178l-89 214z
" />
    <glyph glyph-name="Aring" unicode="&#xc5;" horiz-adv-x="750" 
d="M377 753c-66 0 -122 54 -122 120s56 120 122 120s122 -54 122 -120s-56 -120 -122 -120zM377 818c31 0 56 25 56 55s-25 55 -56 55s-56 -25 -56 -55s25 -55 56 -55zM-1 0l304 710h144l304 -710h-166l-63 150h-294l-63 -150h-166zM286 288h178l-89 214z" />
    <glyph glyph-name="AE" unicode="&#xc6;" horiz-adv-x="948" 
d="M-28 0l394 710h536v-152h-291v-127h231v-152h-231v-127h291v-152h-450v150h-225l-82 -150h-173zM303 288h149v270h-1z" />
    <glyph glyph-name="Ccedilla" unicode="&#xc7;" horiz-adv-x="778" 
d="M282 -139c21 -12 52 -17 76 -17c26 0 60 4 60 31c0 19 -18 27 -43 27c-11 0 -27 -3 -40 -10l-36 19l50 81c-185 27 -313 177 -313 363c0 206 156 367 373 367c156 0 304 -99 345 -256h-173c-30 66 -102 102 -172 102c-130 0 -213 -94 -213 -213s83 -213 213 -213
c70 0 142 36 172 102h173c-41 -157 -188 -256 -344 -256l-21 -35c17 4 29 7 49 7c48 0 86 -29 86 -79c0 -61 -69 -100 -138 -100c-29 0 -70 2 -104 15v65z" />
    <glyph glyph-name="Egrave" unicode="&#xc8;" horiz-adv-x="571" 
d="M347 770h-111l-125 157h166zM75 0v710h450v-152h-291v-127h231v-152h-231v-127h291v-152h-450z" />
    <glyph glyph-name="Eacute" unicode="&#xc9;" horiz-adv-x="571" 
d="M251 770l70 157h166l-125 -157h-111zM75 0v710h450v-152h-291v-127h231v-152h-231v-127h291v-152h-450z" />
    <glyph glyph-name="Ecircumflex" unicode="&#xca;" horiz-adv-x="571" 
d="M123 762v118l176 68l176 -68v-118l-176 68zM75 0v710h450v-152h-291v-127h231v-152h-231v-127h291v-152h-450z" />
    <glyph glyph-name="Edieresis" unicode="&#xcb;" horiz-adv-x="571" 
d="M181 768c-45 0 -81 37 -81 80c0 45 36 81 81 81c43 0 79 -36 79 -81c0 -43 -36 -80 -79 -80zM418 768c-44 0 -80 37 -80 80c0 45 36 81 80 81s80 -36 80 -81c0 -43 -36 -80 -80 -80zM75 0v710h450v-152h-291v-127h231v-152h-231v-127h291v-152h-450z" />
    <glyph glyph-name="Igrave" unicode="&#xcc;" horiz-adv-x="309" 
d="M203 770h-111l-125 157h166zM75 0v710h159v-710h-159z" />
    <glyph glyph-name="Iacute" unicode="&#xcd;" horiz-adv-x="309" 
d="M107 770l70 157h166l-125 -157h-111zM75 0v710h159v-710h-159z" />
    <glyph glyph-name="Icircumflex" unicode="&#xce;" horiz-adv-x="309" 
d="M-21 762v118l176 68l176 -68v-118l-176 68zM75 0v710h159v-710h-159z" />
    <glyph glyph-name="Idieresis" unicode="&#xcf;" horiz-adv-x="309" 
d="M37 768c-45 0 -81 37 -81 80c0 45 36 81 81 81c43 0 79 -36 79 -81c0 -43 -36 -80 -79 -80zM274 768c-44 0 -80 37 -80 80c0 45 36 81 80 81s80 -36 80 -81c0 -43 -36 -80 -80 -80zM75 0v710h159v-710h-159z" />
    <glyph glyph-name="Eth" unicode="&#xd0;" horiz-adv-x="732" 
d="M92 0v289h-72v138h72v283h242c200 0 362 -158 362 -355s-162 -355 -362 -355h-242zM251 146h83c120 0 201 95 201 209s-81 209 -201 209h-83v-137h120v-138h-120v-143z" />
    <glyph glyph-name="Ntilde" unicode="&#xd1;" horiz-adv-x="792" 
d="M203 776l4 28c11 76 66 117 121 117c62 0 102 -47 133 -47c27 0 36 18 44 48h83l-4 -28c-11 -76 -66 -117 -122 -117c-62 0 -102 47 -132 47c-27 0 -36 -18 -45 -48h-82zM717 0h-137l-346 439v-439h-159v710h137l345 -438v438h160v-710z" />
    <glyph glyph-name="Ograve" unicode="&#xd2;" horiz-adv-x="804" 
d="M450 770h-111l-125 157h166zM402 -12c-203 0 -367 165 -367 367s164 367 367 367c202 0 367 -165 367 -367s-165 -367 -367 -367zM402 142c115 0 206 98 206 213s-91 213 -206 213c-116 0 -207 -98 -207 -213s91 -213 207 -213z" />
    <glyph glyph-name="Oacute" unicode="&#xd3;" horiz-adv-x="804" 
d="M354 770l70 157h166l-125 -157h-111zM402 -12c-203 0 -367 165 -367 367s164 367 367 367c202 0 367 -165 367 -367s-165 -367 -367 -367zM402 142c115 0 206 98 206 213s-91 213 -206 213c-116 0 -207 -98 -207 -213s91 -213 207 -213z" />
    <glyph glyph-name="Ocircumflex" unicode="&#xd4;" horiz-adv-x="804" 
d="M226 762v118l176 68l176 -68v-118l-176 68zM402 -12c-203 0 -367 165 -367 367s164 367 367 367c202 0 367 -165 367 -367s-165 -367 -367 -367zM402 142c115 0 206 98 206 213s-91 213 -206 213c-116 0 -207 -98 -207 -213s91 -213 207 -213z" />
    <glyph glyph-name="Otilde" unicode="&#xd5;" horiz-adv-x="804" 
d="M209 776l4 28c11 76 66 117 121 117c62 0 102 -47 133 -47c27 0 36 18 44 48h83l-4 -28c-11 -76 -66 -117 -122 -117c-62 0 -102 47 -132 47c-27 0 -36 -18 -45 -48h-82zM402 -12c-203 0 -367 165 -367 367s164 367 367 367c202 0 367 -165 367 -367s-165 -367 -367 -367
zM402 142c115 0 206 98 206 213s-91 213 -206 213c-116 0 -207 -98 -207 -213s91 -213 207 -213z" />
    <glyph glyph-name="Odieresis" unicode="&#xd6;" horiz-adv-x="804" 
d="M284 768c-45 0 -81 37 -81 80c0 45 36 81 81 81c43 0 79 -36 79 -81c0 -43 -36 -80 -79 -80zM521 768c-44 0 -80 37 -80 80c0 45 36 81 80 81s80 -36 80 -81c0 -43 -36 -80 -80 -80zM402 -12c-203 0 -367 165 -367 367s164 367 367 367c202 0 367 -165 367 -367
s-165 -367 -367 -367zM402 142c115 0 206 98 206 213s-91 213 -206 213c-116 0 -207 -98 -207 -213s91 -213 207 -213z" />
    <glyph glyph-name="multiply" unicode="&#xd7;" horiz-adv-x="507" 
d="M131 74l-92 92l123 123l-123 123l92 92l123 -122l123 122l91 -92l-122 -123l122 -123l-91 -92l-123 122z" />
    <glyph glyph-name="Oslash" unicode="&#xd8;" horiz-adv-x="811" 
d="M406 -12c-79 0 -151 25 -211 67l-74 -74l-89 90l74 73c-42 60 -67 133 -67 211c0 202 164 367 367 367c78 0 151 -25 211 -67l72 72l89 -90l-72 -72c42 -59 67 -132 67 -210c0 -202 -165 -367 -367 -367zM199 355c0 -34 8 -66 22 -95l283 282c-29 17 -62 26 -98 26
c-116 0 -207 -98 -207 -213zM406 142c115 0 206 98 206 213c0 34 -8 66 -22 95l-282 -282c29 -17 62 -26 98 -26z" />
    <glyph glyph-name="Ugrave" unicode="&#xd9;" horiz-adv-x="718" 
d="M407 770h-111l-125 157h166zM359 -12c-171 0 -292 116 -292 293v429h159v-431c0 -85 54 -137 133 -137s133 52 133 137v431h159v-429c0 -177 -122 -293 -292 -293z" />
    <glyph glyph-name="Uacute" unicode="&#xda;" horiz-adv-x="718" 
d="M311 770l70 157h166l-125 -157h-111zM359 -12c-171 0 -292 116 -292 293v429h159v-431c0 -85 54 -137 133 -137s133 52 133 137v431h159v-429c0 -177 -122 -293 -292 -293z" />
    <glyph glyph-name="Ucircumflex" unicode="&#xdb;" horiz-adv-x="718" 
d="M183 762v118l176 68l176 -68v-118l-176 68zM359 -12c-171 0 -292 116 -292 293v429h159v-431c0 -85 54 -137 133 -137s133 52 133 137v431h159v-429c0 -177 -122 -293 -292 -293z" />
    <glyph glyph-name="Udieresis" unicode="&#xdc;" horiz-adv-x="718" 
d="M241 768c-45 0 -81 37 -81 80c0 45 36 81 81 81c43 0 79 -36 79 -81c0 -43 -36 -80 -79 -80zM478 768c-44 0 -80 37 -80 80c0 45 36 81 80 81s80 -36 80 -81c0 -43 -36 -80 -80 -80zM359 -12c-171 0 -292 116 -292 293v429h159v-431c0 -85 54 -137 133 -137
s133 52 133 137v431h159v-429c0 -177 -122 -293 -292 -293z" />
    <glyph glyph-name="Yacute" unicode="&#xdd;" horiz-adv-x="694" 
d="M299 770l70 157h166l-125 -157h-111zM267 0v299l-259 411h185l153 -256l155 256h185l-259 -412v-298h-160z" />
    <glyph glyph-name="Thorn" unicode="&#xde;" horiz-adv-x="598" 
d="M566 355c0 -137 -107 -243 -250 -243h-82v-112h-159v710h159v-112h82c143 0 250 -106 250 -243zM412 355c0 52 -41 93 -98 93h-80v-186h80c57 0 98 41 98 93z" />
    <glyph glyph-name="germandbls" unicode="&#xdf;" horiz-adv-x="590" 
d="M62 0v525c0 144 111 231 238 231c126 0 230 -89 230 -211c0 -55 -25 -111 -71 -154c65 -39 99 -105 99 -165c0 -138 -111 -226 -241 -226h-34v136h27c55 0 97 39 97 91s-42 90 -97 90h-27v136h14c50 0 82 38 82 84c0 45 -32 83 -80 83c-49 0 -87 -38 -87 -93v-527h-150z
" />
    <glyph glyph-name="agrave" unicode="&#xe0;" horiz-adv-x="613" 
d="M265 560l-171 190h172l110 -190h-111zM264 -11c-131 0 -232 119 -232 261s101 261 232 261c67 0 116 -34 136 -61v50h151v-500h-151v50c-20 -27 -69 -61 -136 -61zM298 126c68 0 114 52 114 124s-46 124 -114 124s-114 -52 -114 -124s46 -124 114 -124z" />
    <glyph glyph-name="aacute" unicode="&#xe1;" horiz-adv-x="613" 
d="M270 560l109 190h172l-171 -190h-110zM264 -11c-131 0 -232 119 -232 261s101 261 232 261c67 0 116 -34 136 -61v50h151v-500h-151v50c-20 -27 -69 -61 -136 -61zM298 126c68 0 114 52 114 124s-46 124 -114 124s-114 -52 -114 -124s46 -124 114 -124z" />
    <glyph glyph-name="acircumflex" unicode="&#xe2;" horiz-adv-x="613" 
d="M320 756l178 -97v-118l-178 97l-178 -97v118zM264 -11c-131 0 -232 119 -232 261s101 261 232 261c67 0 116 -34 136 -61v50h151v-500h-151v50c-20 -27 -69 -61 -136 -61zM298 126c68 0 114 52 114 124s-46 124 -114 124s-114 -52 -114 -124s46 -124 114 -124z" />
    <glyph glyph-name="atilde" unicode="&#xe3;" horiz-adv-x="613" 
d="M127 565l4 28c11 76 66 117 121 117c62 0 102 -47 133 -47c27 0 36 18 44 48h83l-4 -28c-11 -76 -66 -117 -121 -117c-62 0 -102 47 -133 47c-27 0 -36 -18 -44 -48h-83zM264 -11c-131 0 -232 119 -232 261s101 261 232 261c67 0 116 -34 136 -61v50h151v-500h-151v50
c-20 -27 -69 -61 -136 -61zM298 126c68 0 114 52 114 124s-46 124 -114 124s-114 -52 -114 -124s46 -124 114 -124z" />
    <glyph glyph-name="adieresis" unicode="&#xe4;" horiz-adv-x="613" 
d="M202 572c-45 0 -81 36 -81 79c0 45 36 81 81 81c43 0 79 -36 79 -81c0 -43 -36 -79 -79 -79zM439 572c-44 0 -80 36 -80 79c0 45 36 81 80 81s80 -36 80 -81c0 -43 -36 -79 -80 -79zM264 -11c-131 0 -232 119 -232 261s101 261 232 261c67 0 116 -34 136 -61v50h151v-500
h-151v50c-20 -27 -69 -61 -136 -61zM298 126c68 0 114 52 114 124s-46 124 -114 124s-114 -52 -114 -124s46 -124 114 -124z" />
    <glyph glyph-name="aring" unicode="&#xe5;" horiz-adv-x="613" 
d="M321 543c-66 0 -122 54 -122 120s56 120 122 120s122 -54 122 -120s-56 -120 -122 -120zM321 608c31 0 56 25 56 55s-25 55 -56 55s-56 -25 -56 -55s25 -55 56 -55zM264 -11c-131 0 -232 119 -232 261s101 261 232 261c67 0 116 -34 136 -61v50h151v-500h-151v50
c-20 -27 -69 -61 -136 -61zM298 126c68 0 114 52 114 124s-46 124 -114 124s-114 -52 -114 -124s46 -124 114 -124z" />
    <glyph glyph-name="ae" unicode="&#xe6;" horiz-adv-x="910" 
d="M622 -11c-76 0 -153 25 -206 77c-39 -51 -100 -77 -184 -77c-124 0 -199 68 -199 152c0 100 84 139 233 165c59 10 83 12 83 41c0 30 -32 44 -69 44c-42 0 -87 -17 -86 -63h-150c2 101 102 183 235 183c70 0 132 -20 167 -64c51 47 118 64 173 64c132 0 265 -98 259 -296
h-385c7 -51 45 -96 126 -96c44 0 84 20 96 47h158c-30 -106 -140 -177 -251 -177zM607 391c-60 0 -97 -34 -110 -80h214c-16 60 -65 80 -104 80zM354 185v50c-38 -14 -83 -27 -114 -37c-38 -12 -55 -25 -55 -52c0 -25 23 -44 70 -44c43 0 99 25 99 83z" />
    <glyph glyph-name="ccedilla" unicode="&#xe7;" horiz-adv-x="578" 
d="M178 -139c21 -12 52 -17 76 -17c26 0 60 4 60 31c0 19 -18 27 -43 27c-11 0 -27 -3 -40 -10l-36 19l50 82c-126 23 -213 128 -213 257c0 145 111 261 263 261c142 0 231 -89 258 -206h-156c-18 40 -49 70 -102 70c-63 0 -111 -47 -111 -125s48 -125 111 -125
c53 0 84 30 102 70h156c-26 -114 -111 -201 -246 -206l-22 -36c17 4 29 7 49 7c48 0 86 -29 86 -79c0 -61 -69 -100 -138 -100c-29 0 -70 2 -104 15v65z" />
    <glyph glyph-name="egrave" unicode="&#xe8;" horiz-adv-x="596" 
d="M247 560l-171 190h172l110 -190h-111zM297 -11c-155 0 -265 110 -265 262c0 150 114 260 265 260c144 0 273 -98 267 -296h-385c7 -51 45 -96 126 -96c44 0 84 20 96 47h158c-32 -104 -136 -177 -262 -177zM293 391c-60 0 -97 -34 -110 -80h214c-16 60 -65 80 -104 80z
" />
    <glyph glyph-name="eacute" unicode="&#xe9;" horiz-adv-x="596" 
d="M252 560l109 190h172l-171 -190h-110zM297 -11c-155 0 -265 110 -265 262c0 150 114 260 265 260c144 0 273 -98 267 -296h-385c7 -51 45 -96 126 -96c44 0 84 20 96 47h158c-32 -104 -136 -177 -262 -177zM293 391c-60 0 -97 -34 -110 -80h214c-16 60 -65 80 -104 80z
" />
    <glyph glyph-name="ecircumflex" unicode="&#xea;" horiz-adv-x="596" 
d="M302 756l178 -97v-118l-178 97l-178 -97v118zM297 -11c-155 0 -265 110 -265 262c0 150 114 260 265 260c144 0 273 -98 267 -296h-385c7 -51 45 -96 126 -96c44 0 84 20 96 47h158c-32 -104 -136 -177 -262 -177zM293 391c-60 0 -97 -34 -110 -80h214
c-16 60 -65 80 -104 80z" />
    <glyph glyph-name="edieresis" unicode="&#xeb;" horiz-adv-x="596" 
d="M184 572c-45 0 -81 36 -81 79c0 45 36 81 81 81c43 0 79 -36 79 -81c0 -43 -36 -79 -79 -79zM421 572c-44 0 -80 36 -80 79c0 45 36 81 80 81s80 -36 80 -81c0 -43 -36 -79 -80 -79zM297 -11c-155 0 -265 110 -265 262c0 150 114 260 265 260c144 0 273 -98 267 -296
h-385c7 -51 45 -96 126 -96c44 0 84 20 96 47h158c-32 -104 -136 -177 -262 -177zM293 391c-60 0 -97 -34 -110 -80h214c-16 60 -65 80 -104 80z" />
    <glyph glyph-name="igrave" unicode="&#xec;" horiz-adv-x="275" 
d="M83 560l-171 190h172l110 -190h-111zM62 0v500h151v-500h-151z" />
    <glyph glyph-name="iacute" unicode="&#xed;" horiz-adv-x="275" 
d="M88 560l109 190h172l-171 -190h-110zM62 0v500h151v-500h-151z" />
    <glyph glyph-name="icircumflex" unicode="&#xee;" horiz-adv-x="275" 
d="M138 756l178 -97v-118l-178 97l-178 -97v118zM62 0v500h151v-500h-151z" />
    <glyph glyph-name="idieresis" unicode="&#xef;" horiz-adv-x="275" 
d="M44 572c-44 0 -80 36 -80 79c0 44 36 80 80 80c43 0 79 -36 79 -80c0 -43 -36 -79 -79 -79zM231 572c-43 0 -79 36 -79 79c0 44 36 80 79 80c44 0 80 -36 80 -80c0 -43 -36 -79 -80 -79zM62 0v500h151v-500h-151z" />
    <glyph glyph-name="eth" unicode="&#xf0;" horiz-adv-x="591" 
d="M456 560h-49l104 -160c28 -44 48 -95 48 -150c0 -143 -119 -261 -264 -261c-144 0 -263 118 -263 261c0 164 141 251 242 255l-35 55h-135v96h73l-61 94h167l61 -94h112v-96zM295 130c63 0 112 49 112 120s-49 120 -112 120s-111 -49 -111 -120s48 -120 111 -120z" />
    <glyph glyph-name="ntilde" unicode="&#xf1;" horiz-adv-x="602" 
d="M110 565l4 28c11 76 66 117 121 117c62 0 102 -47 133 -47c27 0 36 18 44 48h83l-4 -28c-11 -76 -66 -117 -121 -117c-62 0 -102 47 -133 47c-27 0 -36 -18 -44 -48h-83zM62 0v500h151v-51c24 34 74 62 139 62c123 0 194 -91 194 -222v-289h-151v263
c0 69 -27 111 -81 111c-57 0 -101 -41 -101 -131v-243h-151z" />
    <glyph glyph-name="ograve" unicode="&#xf2;" horiz-adv-x="588" 
d="M239 560l-171 190h172l110 -190h-111zM294 -11c-144 0 -263 114 -263 261s119 261 263 261s263 -114 263 -261s-119 -261 -263 -261zM294 130c63 0 111 49 111 120s-48 120 -111 120s-111 -49 -111 -120s48 -120 111 -120z" />
    <glyph glyph-name="oacute" unicode="&#xf3;" horiz-adv-x="588" 
d="M244 560l109 190h172l-171 -190h-110zM294 -11c-144 0 -263 114 -263 261s119 261 263 261s263 -114 263 -261s-119 -261 -263 -261zM294 130c63 0 111 49 111 120s-48 120 -111 120s-111 -49 -111 -120s48 -120 111 -120z" />
    <glyph glyph-name="ocircumflex" unicode="&#xf4;" horiz-adv-x="588" 
d="M294 756l178 -97v-118l-178 97l-178 -97v118zM294 -11c-144 0 -263 114 -263 261s119 261 263 261s263 -114 263 -261s-119 -261 -263 -261zM294 130c63 0 111 49 111 120s-48 120 -111 120s-111 -49 -111 -120s48 -120 111 -120z" />
    <glyph glyph-name="otilde" unicode="&#xf5;" horiz-adv-x="588" 
d="M101 565l4 28c11 76 66 117 121 117c62 0 102 -47 133 -47c27 0 36 18 44 48h83l-4 -28c-11 -76 -66 -117 -121 -117c-62 0 -102 47 -133 47c-27 0 -36 -18 -44 -48h-83zM294 -11c-144 0 -263 114 -263 261s119 261 263 261s263 -114 263 -261s-119 -261 -263 -261z
M294 130c63 0 111 49 111 120s-48 120 -111 120s-111 -49 -111 -120s48 -120 111 -120z" />
    <glyph glyph-name="odieresis" unicode="&#xf6;" horiz-adv-x="588" 
d="M176 572c-45 0 -81 36 -81 79c0 45 36 81 81 81c43 0 79 -36 79 -81c0 -43 -36 -79 -79 -79zM413 572c-44 0 -80 36 -80 79c0 45 36 81 80 81s80 -36 80 -81c0 -43 -36 -79 -80 -79zM294 -11c-144 0 -263 114 -263 261s119 261 263 261s263 -114 263 -261
s-119 -261 -263 -261zM294 130c63 0 111 49 111 120s-48 120 -111 120s-111 -49 -111 -120s48 -120 111 -120z" />
    <glyph glyph-name="oslash" unicode="&#xf8;" horiz-adv-x="593" 
d="M297 -11c-60 0 -116 20 -160 54l-54 -54l-47 49l52 52c-34 44 -54 99 -54 160c0 147 119 261 263 261c60 0 116 -20 160 -54l54 54l47 -49l-52 -52c34 -44 54 -99 54 -160c0 -147 -119 -261 -263 -261zM186 250c0 -19 4 -37 10 -53l158 158c-17 10 -36 15 -57 15
c-63 0 -111 -49 -111 -120zM297 130c63 0 111 49 111 120c0 19 -4 37 -10 53l-158 -158c17 -10 36 -15 57 -15z" />
    <glyph glyph-name="ugrave" unicode="&#xf9;" horiz-adv-x="591" 
d="M238 560l-171 190h172l110 -190h-111zM245 -11c-124 0 -189 90 -189 226v285h151v-259c0 -73 21 -115 77 -115c57 0 94 39 94 131v243h151v-500h-151v51c-24 -35 -68 -62 -133 -62z" />
    <glyph glyph-name="uacute" unicode="&#xfa;" horiz-adv-x="591" 
d="M243 560l109 190h172l-171 -190h-110zM245 -11c-124 0 -189 90 -189 226v285h151v-259c0 -73 21 -115 77 -115c57 0 94 39 94 131v243h151v-500h-151v51c-24 -35 -68 -62 -133 -62z" />
    <glyph glyph-name="ucircumflex" unicode="&#xfb;" horiz-adv-x="591" 
d="M293 756l178 -97v-118l-178 97l-178 -97v118zM245 -11c-124 0 -189 90 -189 226v285h151v-259c0 -73 21 -115 77 -115c57 0 94 39 94 131v243h151v-500h-151v51c-24 -35 -68 -62 -133 -62z" />
    <glyph glyph-name="udieresis" unicode="&#xfc;" horiz-adv-x="591" 
d="M175 572c-45 0 -81 36 -81 79c0 45 36 81 81 81c43 0 79 -36 79 -81c0 -43 -36 -79 -79 -79zM412 572c-44 0 -80 36 -80 79c0 45 36 81 80 81s80 -36 80 -81c0 -43 -36 -79 -80 -79zM245 -11c-124 0 -189 90 -189 226v285h151v-259c0 -73 21 -115 77 -115
c57 0 94 39 94 131v243h151v-500h-151v51c-24 -35 -68 -62 -133 -62z" />
    <glyph glyph-name="yacute" unicode="&#xfd;" horiz-adv-x="576" 
d="M241 560l109 190h172l-171 -190h-110zM267 -209h-163l104 238l-208 471h165l124 -309l123 309h166z" />
    <glyph glyph-name="thorn" unicode="&#xfe;" horiz-adv-x="613" 
d="M62 -209v959h151v-300c20 27 69 61 136 61c131 0 232 -119 232 -261s-101 -261 -232 -261c-67 0 -116 34 -136 61v-259h-151zM315 126c68 0 114 52 114 124s-46 124 -114 124s-114 -52 -114 -124s46 -124 114 -124z" />
    <glyph glyph-name="ydieresis" unicode="&#xff;" horiz-adv-x="576" 
d="M173 572c-45 0 -81 36 -81 79c0 45 36 81 81 81c43 0 79 -36 79 -81c0 -43 -36 -79 -79 -79zM410 572c-44 0 -80 36 -80 79c0 45 36 81 80 81s80 -36 80 -81c0 -43 -36 -79 -80 -79zM267 -209h-163l104 238l-208 471h165l124 -309l123 309h166z" />
    <glyph glyph-name="Abreve" unicode="&#x102;" horiz-adv-x="750" 
d="M376 747c-98 0 -178 70 -178 180h86c0 -62 42 -93 92 -93s92 31 92 93h86c0 -110 -80 -180 -178 -180zM-1 0l304 710h144l304 -710h-166l-63 150h-294l-63 -150h-166zM286 288h178l-89 214z" />
    <glyph glyph-name="Amacron" unicode="&#x100;" horiz-adv-x="750" 
d="M202 787v104h348v-104h-348zM-1 0l304 710h144l304 -710h-166l-63 150h-294l-63 -150h-166zM286 288h178l-89 214z" />
    <glyph glyph-name="Aogonek" unicode="&#x104;" horiz-adv-x="750" 
d="M-1 0l304 710h144l304 -710c-50 -20 -85 -50 -85 -82c0 -17 17 -23 36 -23c18 0 40 7 49 14v-99c-16 -12 -59 -29 -108 -29c-71 0 -115 43 -115 103c0 45 19 87 57 116l-63 150h-294l-63 -150h-166zM286 288h178l-89 214z" />
    <glyph glyph-name="Cacute" unicode="&#x106;" horiz-adv-x="778" 
d="M355 770l70 157h166l-125 -157h-111zM409 -12c-217 0 -373 161 -373 367s156 367 373 367c156 0 304 -99 345 -256h-173c-30 66 -102 102 -172 102c-130 0 -213 -94 -213 -213s83 -213 213 -213c70 0 142 36 172 102h173c-41 -157 -189 -256 -345 -256z" />
    <glyph glyph-name="Ccaron" unicode="&#x10c;" horiz-adv-x="778" 
d="M403 762l-176 68v118l176 -68l176 68v-118zM409 -12c-217 0 -373 161 -373 367s156 367 373 367c156 0 304 -99 345 -256h-173c-30 66 -102 102 -172 102c-130 0 -213 -94 -213 -213s83 -213 213 -213c70 0 142 36 172 102h173c-41 -157 -189 -256 -345 -256z" />
    <glyph glyph-name="Ccircumflex" unicode="&#x108;" horiz-adv-x="778" 
d="M227 762v118l176 68l176 -68v-118l-176 68zM409 -12c-217 0 -373 161 -373 367s156 367 373 367c156 0 304 -99 345 -256h-173c-30 66 -102 102 -172 102c-130 0 -213 -94 -213 -213s83 -213 213 -213c70 0 142 36 172 102h173c-41 -157 -189 -256 -345 -256z" />
    <glyph glyph-name="Cdotaccent" unicode="&#x10a;" horiz-adv-x="778" 
d="M403 768c-45 0 -81 37 -81 80c0 45 36 81 81 81c44 0 80 -36 80 -81c0 -43 -36 -80 -80 -80zM409 -12c-217 0 -373 161 -373 367s156 367 373 367c156 0 304 -99 345 -256h-173c-30 66 -102 102 -172 102c-130 0 -213 -94 -213 -213s83 -213 213 -213
c70 0 142 36 172 102h173c-41 -157 -189 -256 -345 -256z" />
    <glyph glyph-name="Dcaron" unicode="&#x10e;" horiz-adv-x="715" 
d="M337 762l-176 68v118l176 -68l176 68v-118zM75 0v710h242c200 0 362 -158 362 -355s-162 -355 -362 -355h-242zM234 146h83c120 0 201 95 201 209s-81 209 -201 209h-83v-418z" />
    <glyph glyph-name="Dcroat" unicode="&#x110;" horiz-adv-x="732" 
d="M92 0v289h-72v138h72v283h242c200 0 362 -158 362 -355s-162 -355 -362 -355h-242zM251 146h83c120 0 201 95 201 209s-81 209 -201 209h-83v-137h120v-138h-120v-143z" />
    <glyph glyph-name="Ebreve" unicode="&#x114;" horiz-adv-x="571" 
d="M299 747c-98 0 -178 70 -178 180h86c0 -62 42 -93 92 -93s92 31 92 93h86c0 -110 -80 -180 -178 -180zM75 0v710h450v-152h-291v-127h231v-152h-231v-127h291v-152h-450z" />
    <glyph glyph-name="Ecaron" unicode="&#x11a;" horiz-adv-x="571" 
d="M299 762l-176 68v118l176 -68l176 68v-118zM75 0v710h450v-152h-291v-127h231v-152h-231v-127h291v-152h-450z" />
    <glyph glyph-name="Emacron" unicode="&#x112;" horiz-adv-x="571" 
d="M125 787v104h348v-104h-348zM75 0v710h450v-152h-291v-127h231v-152h-231v-127h291v-152h-450z" />
    <glyph glyph-name="Eogonek" unicode="&#x118;" horiz-adv-x="571" 
d="M75 0v710h450v-152h-291v-127h231v-152h-231v-127h291v-152c-50 -20 -85 -50 -85 -82c0 -17 18 -23 36 -23s40 7 49 14v-99c-16 -12 -58 -29 -108 -29c-71 0 -115 43 -115 103c0 45 25 87 64 116h-291z" />
    <glyph glyph-name="Edotaccent" unicode="&#x116;" horiz-adv-x="571" 
d="M299 768c-45 0 -81 37 -81 80c0 45 36 81 81 81c44 0 80 -36 80 -81c0 -43 -36 -80 -80 -80zM75 0v710h450v-152h-291v-127h231v-152h-231v-127h291v-152h-450z" />
    <glyph glyph-name="Gbreve" unicode="&#x11e;" horiz-adv-x="802" 
d="M409 747c-98 0 -178 70 -178 180h86c0 -62 42 -93 92 -93s92 31 92 93h86c0 -110 -80 -180 -178 -180zM411 -12c-219 0 -375 161 -375 367s156 367 373 367c144 0 284 -84 334 -222h-183c-34 45 -94 68 -151 68c-130 0 -213 -94 -213 -213s83 -213 215 -213
c106 0 167 53 184 139h-204v149h369c35 -301 -136 -442 -349 -442z" />
    <glyph glyph-name="Gcircumflex" unicode="&#x11c;" horiz-adv-x="802" 
d="M233 762v118l176 68l176 -68v-118l-176 68zM411 -12c-219 0 -375 161 -375 367s156 367 373 367c144 0 284 -84 334 -222h-183c-34 45 -94 68 -151 68c-130 0 -213 -94 -213 -213s83 -213 215 -213c106 0 167 53 184 139h-204v149h369c35 -301 -136 -442 -349 -442z" />
    <glyph glyph-name="Gcommaaccent" unicode="&#x122;" horiz-adv-x="802" 
d="M411 -12c-219 0 -375 161 -375 367s156 367 373 367c144 0 284 -84 334 -222h-183c-34 45 -94 68 -151 68c-130 0 -213 -94 -213 -213s83 -213 215 -213c106 0 167 53 184 139h-204v149h369c35 -301 -136 -442 -349 -442zM334 -316l44 96c-26 10 -49 38 -49 74
c0 44 35 79 80 79c44 0 80 -35 80 -79c0 -18 -6 -36 -16 -52l-75 -118h-64z" />
    <glyph glyph-name="Gdotaccent" unicode="&#x120;" horiz-adv-x="802" 
d="M409 768c-45 0 -81 37 -81 80c0 45 36 81 81 81c44 0 80 -36 80 -81c0 -43 -36 -80 -80 -80zM411 -12c-219 0 -375 161 -375 367s156 367 373 367c144 0 284 -84 334 -222h-183c-34 45 -94 68 -151 68c-130 0 -213 -94 -213 -213s83 -213 215 -213c106 0 167 53 184 139
h-204v149h369c35 -301 -136 -442 -349 -442z" />
    <glyph glyph-name="Hbar" unicode="&#x126;" horiz-adv-x="790" 
d="M93 0v518h-72v108h72v84h159v-84h286v84h159v-84h72v-108h-72v-518h-159v281h-286v-281h-159zM252 432h286v86h-286v-86z" />
    <glyph glyph-name="Hcircumflex" unicode="&#x124;" horiz-adv-x="754" 
d="M201 762v118l176 68l176 -68v-118l-176 68zM75 0v710h159v-278h286v278h159v-710h-159v281h-286v-281h-159z" />
    <glyph glyph-name="Ibreve" unicode="&#x12c;" horiz-adv-x="309" 
d="M155 747c-98 0 -178 70 -178 180h86c0 -62 42 -93 92 -93s92 31 92 93h86c0 -110 -80 -180 -178 -180zM75 0v710h159v-710h-159z" />
    <glyph glyph-name="Idotaccent" unicode="&#x130;" horiz-adv-x="309" 
d="M155 768c-45 0 -81 37 -81 80c0 45 36 81 81 81c44 0 80 -36 80 -81c0 -43 -36 -80 -80 -80zM75 0v710h159v-710h-159z" />
    <glyph glyph-name="Imacron" unicode="&#x12a;" horiz-adv-x="309" 
d="M-19 787v104h348v-104h-348zM75 0v710h159v-710h-159z" />
    <glyph glyph-name="Iogonek" unicode="&#x12e;" horiz-adv-x="309" 
d="M126 -219c-71 0 -115 43 -115 103c0 45 25 87 64 116v710h159v-710c-50 -20 -85 -50 -85 -82c0 -17 18 -23 36 -23s40 7 49 14v-99c-16 -12 -58 -29 -108 -29z" />
    <glyph glyph-name="Itilde" unicode="&#x128;" horiz-adv-x="309" 
d="M-38 776l4 28c11 76 66 117 121 117c62 0 102 -47 133 -47c27 0 36 18 44 48h83l-4 -28c-11 -76 -66 -117 -122 -117c-62 0 -102 47 -132 47c-27 0 -36 -18 -45 -48h-82zM75 0v710h159v-710h-159z" />
    <glyph glyph-name="uni1ECA" unicode="&#x1eca;" horiz-adv-x="309" 
d="M75 0v710h159v-710h-159zM155 -227c-45 0 -81 36 -81 80s36 80 81 80c44 0 80 -36 80 -80s-36 -80 -80 -80z" />
    <glyph glyph-name="Jcircumflex" unicode="&#x134;" horiz-adv-x="552" 
d="M226 762v118l176 68l176 -68v-118l-176 68zM250 -12c-119 0 -230 66 -230 220h157c0 -48 32 -72 73 -72c39 0 73 23 73 68v506h159v-516c0 -145 -110 -206 -232 -206z" />
    <glyph glyph-name="Kcommaaccent" unicode="&#x136;" horiz-adv-x="700" 
d="M75 0v710h158v-297l241 297h195l-280 -341l337 -369h-204l-289 318v-318h-158zM301 -316l44 96c-26 10 -49 38 -49 74c0 44 35 79 80 79c44 0 80 -35 80 -79c0 -18 -6 -36 -16 -52l-75 -118h-64z" />
    <glyph glyph-name="Lacute" unicode="&#x139;" horiz-adv-x="552" 
d="M110 770l70 157h166l-125 -157h-111zM75 0v710h159v-558h294v-152h-453z" />
    <glyph glyph-name="Lcaron" unicode="&#x13d;" horiz-adv-x="554" 
d="M296 590l20 160h151l-69 -160h-102zM75 0v710h159v-558h294v-152h-453z" />
    <glyph glyph-name="Lcommaaccent" unicode="&#x13b;" horiz-adv-x="552" 
d="M75 0v710h159v-558h294v-152h-453zM227 -316l44 96c-26 10 -49 38 -49 74c0 44 35 79 80 79c44 0 80 -35 80 -79c0 -18 -6 -36 -16 -52l-75 -118h-64z" />
    <glyph glyph-name="Ldot" unicode="&#x13f;" horiz-adv-x="560" 
d="M75 0v710h159v-558h294v-152h-453zM425 351c-45 0 -81 36 -81 80c0 45 36 81 81 81c44 0 80 -36 80 -81c0 -44 -36 -80 -80 -80z" />
    <glyph glyph-name="L_periodcentered" horiz-adv-x="560" 
d="M75 0v710h159v-558h294v-152h-453zM425 351c-45 0 -81 36 -81 80c0 45 36 81 81 81c44 0 80 -36 80 -81c0 -44 -36 -80 -80 -80z" />
    <glyph glyph-name="Lslash" unicode="&#x141;" horiz-adv-x="583" 
d="M106 0v254l-72 -41v124l72 41v332h159v-241l129 74v-125l-129 -73v-193h294v-152h-453z" />
    <glyph glyph-name="Eng" unicode="&#x14a;" horiz-adv-x="792" 
d="M557 14v15l-323 410v-439h-159v710h137l345 -438v438h160v-740c0 -127 -90 -189 -202 -189c-40 0 -67 4 -89 11v146c17 -5 39 -8 55 -8c55 0 76 24 76 84z" />
    <glyph glyph-name="Nacute" unicode="&#x143;" horiz-adv-x="792" 
d="M348 770l70 157h166l-125 -157h-111zM717 0h-137l-346 439v-439h-159v710h137l345 -438v438h160v-710z" />
    <glyph glyph-name="Ncaron" unicode="&#x147;" horiz-adv-x="792" 
d="M396 762l-176 68v118l176 -68l176 68v-118zM717 0h-137l-346 439v-439h-159v710h137l345 -438v438h160v-710z" />
    <glyph glyph-name="Ncommaaccent" unicode="&#x145;" horiz-adv-x="792" 
d="M717 0h-137l-346 439v-439h-159v710h137l345 -438v438h160v-710zM319 -316l44 96c-26 10 -49 38 -49 74c0 44 35 79 80 79c44 0 80 -35 80 -79c0 -18 -6 -36 -16 -52l-75 -118h-64z" />
    <glyph glyph-name="OE" unicode="&#x152;" horiz-adv-x="1104" 
d="M608 56c-50 -48 -132 -68 -206 -68c-203 0 -367 165 -367 367s164 367 367 367c74 0 156 -20 206 -68v56h450v-152h-290v-127h230v-152h-230v-127h290v-152h-450v56zM402 142c115 0 206 98 206 213s-91 213 -206 213c-116 0 -207 -98 -207 -213s91 -213 207 -213z" />
    <glyph glyph-name="Obreve" unicode="&#x14e;" horiz-adv-x="804" 
d="M402 747c-98 0 -178 70 -178 180h86c0 -62 42 -93 92 -93s92 31 92 93h86c0 -110 -80 -180 -178 -180zM402 -12c-203 0 -367 165 -367 367s164 367 367 367c202 0 367 -165 367 -367s-165 -367 -367 -367zM402 142c115 0 206 98 206 213s-91 213 -206 213
c-116 0 -207 -98 -207 -213s91 -213 207 -213z" />
    <glyph glyph-name="Ohungarumlaut" unicode="&#x150;" horiz-adv-x="804" 
d="M452 770l66 157h156l-127 -157h-95zM266 770l65 157h157l-127 -157h-95zM402 -12c-203 0 -367 165 -367 367s164 367 367 367c202 0 367 -165 367 -367s-165 -367 -367 -367zM402 142c115 0 206 98 206 213s-91 213 -206 213c-116 0 -207 -98 -207 -213s91 -213 207 -213
z" />
    <glyph glyph-name="Omacron" unicode="&#x14c;" horiz-adv-x="804" 
d="M228 787v104h348v-104h-348zM402 -12c-203 0 -367 165 -367 367s164 367 367 367c202 0 367 -165 367 -367s-165 -367 -367 -367zM402 142c115 0 206 98 206 213s-91 213 -206 213c-116 0 -207 -98 -207 -213s91 -213 207 -213z" />
    <glyph glyph-name="uni1ECC" unicode="&#x1ecc;" horiz-adv-x="804" 
d="M402 -12c-203 0 -367 165 -367 367s164 367 367 367c202 0 367 -165 367 -367s-165 -367 -367 -367zM402 142c115 0 206 98 206 213s-91 213 -206 213c-116 0 -207 -98 -207 -213s91 -213 207 -213zM402 -227c-45 0 -81 36 -81 80s36 80 81 80c44 0 80 -36 80 -80
s-36 -80 -80 -80z" />
    <glyph glyph-name="Racute" unicode="&#x154;" horiz-adv-x="662" 
d="M253 770l70 157h166l-125 -157h-111zM75 0v710h280c134 0 220 -96 220 -214c0 -92 -49 -151 -139 -183l251 -313h-191l-236 293h-26v-293h-159zM234 428h102c47 0 81 27 81 68c0 43 -34 68 -81 68h-102v-136z" />
    <glyph glyph-name="Rcaron" unicode="&#x158;" horiz-adv-x="662" 
d="M301 762l-176 68v118l176 -68l176 68v-118zM75 0v710h280c134 0 220 -96 220 -214c0 -92 -49 -151 -139 -183l251 -313h-191l-236 293h-26v-293h-159zM234 428h102c47 0 81 27 81 68c0 43 -34 68 -81 68h-102v-136z" />
    <glyph glyph-name="Rcommaaccent" unicode="&#x156;" horiz-adv-x="662" 
d="M75 0v710h280c134 0 220 -96 220 -214c0 -92 -49 -151 -139 -183l251 -313h-191l-236 293h-26v-293h-159zM234 428h102c47 0 81 27 81 68c0 43 -34 68 -81 68h-102v-136zM289 -316l44 96c-26 10 -49 38 -49 74c0 44 35 79 80 79c44 0 80 -35 80 -79c0 -18 -6 -36 -16 -52
l-75 -118h-64z" />
    <glyph glyph-name="Sacute" unicode="&#x15a;" horiz-adv-x="602" 
d="M249 770l70 157h166l-125 -157h-111zM312 -12c-176 0 -274 121 -280 240h159c10 -60 59 -93 121 -93c53 0 92 23 92 63c0 33 -25 59 -93 77l-69 18c-113 30 -191 102 -192 213c-1 134 97 216 244 216c155 0 252 -113 256 -222h-158c-16 56 -60 75 -98 75
c-46 0 -83 -20 -84 -58c-1 -39 31 -62 86 -76l81 -21c116 -30 188 -106 188 -217c0 -121 -100 -215 -253 -215z" />
    <glyph glyph-name="Scaron" unicode="&#x160;" horiz-adv-x="602" 
d="M297 762l-176 68v118l176 -68l176 68v-118zM312 -12c-176 0 -274 121 -280 240h159c10 -60 59 -93 121 -93c53 0 92 23 92 63c0 33 -25 59 -93 77l-69 18c-113 30 -191 102 -192 213c-1 134 97 216 244 216c155 0 252 -113 256 -222h-158c-16 56 -60 75 -98 75
c-46 0 -83 -20 -84 -58c-1 -39 31 -62 86 -76l81 -21c116 -30 188 -106 188 -217c0 -121 -100 -215 -253 -215z" />
    <glyph glyph-name="Scedilla" unicode="&#x15e;" horiz-adv-x="602" 
d="M188 -139c21 -12 52 -17 76 -17c26 0 60 4 60 31c0 19 -18 27 -43 27c-11 0 -27 -3 -40 -10l-36 19l50 82c-140 23 -218 130 -223 235h159c10 -60 59 -93 121 -93c53 0 92 23 92 63c0 33 -25 59 -93 77l-69 18c-113 30 -191 102 -192 213c-1 134 97 216 244 216
c155 0 252 -113 256 -222h-158c-16 56 -60 75 -98 75c-46 0 -83 -20 -84 -58c-1 -39 31 -62 86 -76l81 -21c116 -30 188 -106 188 -217c0 -121 -100 -215 -249 -215l-21 -35c17 4 29 7 49 7c48 0 86 -29 86 -79c0 -61 -69 -100 -138 -100c-29 0 -70 2 -104 15v65z" />
    <glyph glyph-name="Scircumflex" unicode="&#x15c;" horiz-adv-x="602" 
d="M121 762v118l176 68l176 -68v-118l-176 68zM312 -12c-176 0 -274 121 -280 240h159c10 -60 59 -93 121 -93c53 0 92 23 92 63c0 33 -25 59 -93 77l-69 18c-113 30 -191 102 -192 213c-1 134 97 216 244 216c155 0 252 -113 256 -222h-158c-16 56 -60 75 -98 75
c-46 0 -83 -20 -84 -58c-1 -39 31 -62 86 -76l81 -21c116 -30 188 -106 188 -217c0 -121 -100 -215 -253 -215z" />
    <glyph glyph-name="Scommaaccent" unicode="&#x218;" horiz-adv-x="602" 
d="M312 -12c-176 0 -274 121 -280 240h159c10 -60 59 -93 121 -93c53 0 92 23 92 63c0 33 -25 59 -93 77l-69 18c-113 30 -191 102 -192 213c-1 134 97 216 244 216c155 0 252 -113 256 -222h-158c-16 56 -60 75 -98 75c-46 0 -83 -20 -84 -58c-1 -39 31 -62 86 -76l81 -21
c116 -30 188 -106 188 -217c0 -121 -100 -215 -253 -215zM234 -316l44 96c-26 10 -49 38 -49 74c0 44 35 79 80 79c44 0 80 -35 80 -79c0 -18 -6 -36 -16 -52l-75 -118h-64z" />
    <glyph glyph-name="Tbar" unicode="&#x166;" horiz-adv-x="592" 
d="M215 0v287h-135v138h135v133h-181v152h524v-152h-183v-133h136v-138h-136v-287h-160z" />
    <glyph glyph-name="Tcaron" unicode="&#x164;" horiz-adv-x="568" 
d="M284 762l-176 68v118l176 -68l176 68v-118zM203 0v558h-181v152h524v-152h-183v-558h-160z" />
    <glyph glyph-name="uni0162" unicode="&#x162;" horiz-adv-x="568" 
d="M203 0v558h-181v152h524v-152h-183v-558h-160zM209 -316l44 96c-26 10 -49 38 -49 74c0 44 35 79 80 79c44 0 80 -35 80 -79c0 -18 -6 -36 -16 -52l-75 -118h-64z" />
    <glyph glyph-name="Tcommaaccent" unicode="&#x21a;" horiz-adv-x="568" 
d="M203 0v558h-181v152h524v-152h-183v-558h-160zM209 -316l44 96c-26 10 -49 38 -49 74c0 44 35 79 80 79c44 0 80 -35 80 -79c0 -18 -6 -36 -16 -52l-75 -118h-64z" />
    <glyph glyph-name="Ubreve" unicode="&#x16c;" horiz-adv-x="718" 
d="M359 747c-98 0 -178 70 -178 180h86c0 -62 42 -93 92 -93s92 31 92 93h86c0 -110 -80 -180 -178 -180zM359 -12c-171 0 -292 116 -292 293v429h159v-431c0 -85 54 -137 133 -137s133 52 133 137v431h159v-429c0 -177 -122 -293 -292 -293z" />
    <glyph glyph-name="Uhungarumlaut" unicode="&#x170;" horiz-adv-x="718" 
d="M409 770l66 157h156l-127 -157h-95zM223 770l65 157h157l-127 -157h-95zM359 -12c-171 0 -292 116 -292 293v429h159v-431c0 -85 54 -137 133 -137s133 52 133 137v431h159v-429c0 -177 -122 -293 -292 -293z" />
    <glyph glyph-name="Umacron" unicode="&#x16a;" horiz-adv-x="718" 
d="M185 787v104h348v-104h-348zM359 -12c-171 0 -292 116 -292 293v429h159v-431c0 -85 54 -137 133 -137s133 52 133 137v431h159v-429c0 -177 -122 -293 -292 -293z" />
    <glyph glyph-name="Uogonek" unicode="&#x172;" horiz-adv-x="718" 
d="M412 -219c-71 0 -115 43 -115 103c0 30 7 65 46 104c-167 9 -276 125 -276 293v429h159v-431c0 -85 54 -137 133 -137s133 52 133 137v431h159v-429c0 -103 -39 -178 -103 -233c-86 -74 -113 -92 -113 -125c0 -19 18 -28 36 -28s40 7 49 14v-99c-16 -12 -58 -29 -108 -29
z" />
    <glyph glyph-name="Uring" unicode="&#x16e;" horiz-adv-x="718" 
d="M360 753c-66 0 -122 54 -122 120s56 120 122 120s122 -54 122 -120s-56 -120 -122 -120zM360 818c31 0 56 25 56 55s-25 55 -56 55s-56 -25 -56 -55s25 -55 56 -55zM359 -12c-171 0 -292 116 -292 293v429h159v-431c0 -85 54 -137 133 -137s133 52 133 137v431h159v-429
c0 -177 -122 -293 -292 -293z" />
    <glyph glyph-name="Utilde" unicode="&#x168;" horiz-adv-x="718" 
d="M166 776l4 28c11 76 66 117 121 117c62 0 102 -47 133 -47c27 0 36 18 44 48h83l-4 -28c-11 -76 -66 -117 -122 -117c-62 0 -102 47 -132 47c-27 0 -36 -18 -45 -48h-82zM359 -12c-171 0 -292 116 -292 293v429h159v-431c0 -85 54 -137 133 -137s133 52 133 137v431h159
v-429c0 -177 -122 -293 -292 -293z" />
    <glyph glyph-name="uni1EE4" unicode="&#x1ee4;" horiz-adv-x="718" 
d="M359 -12c-171 0 -292 116 -292 293v429h159v-431c0 -85 54 -137 133 -137s133 52 133 137v431h159v-429c0 -177 -122 -293 -292 -293zM359 -227c-45 0 -81 36 -81 80s36 80 81 80c44 0 80 -36 80 -80s-36 -80 -80 -80z" />
    <glyph glyph-name="Wacute" unicode="&#x1e82;" horiz-adv-x="965" 
d="M435 770l70 157h166l-125 -157h-111zM634 0l-151 348l-151 -348h-151l-164 710h170l97 -450l199 462l200 -462l97 450h170l-165 -710h-151z" />
    <glyph glyph-name="Wcircumflex" unicode="&#x174;" horiz-adv-x="965" 
d="M307 762v118l176 68l176 -68v-118l-176 68zM634 0l-151 348l-151 -348h-151l-164 710h170l97 -450l199 462l200 -462l97 450h170l-165 -710h-151z" />
    <glyph glyph-name="Wdieresis" unicode="&#x1e84;" horiz-adv-x="965" 
d="M365 768c-45 0 -81 37 -81 80c0 45 36 81 81 81c43 0 79 -36 79 -81c0 -43 -36 -80 -79 -80zM602 768c-44 0 -80 37 -80 80c0 45 36 81 80 81s80 -36 80 -81c0 -43 -36 -80 -80 -80zM634 0l-151 348l-151 -348h-151l-164 710h170l97 -450l199 462l200 -462l97 450h170
l-165 -710h-151z" />
    <glyph glyph-name="Wgrave" unicode="&#x1e80;" horiz-adv-x="965" 
d="M531 770h-111l-125 157h166zM634 0l-151 348l-151 -348h-151l-164 710h170l97 -450l199 462l200 -462l97 450h170l-165 -710h-151z" />
    <glyph glyph-name="Ycircumflex" unicode="&#x176;" horiz-adv-x="694" 
d="M171 762v118l176 68l176 -68v-118l-176 68zM267 0v299l-259 411h185l153 -256l155 256h185l-259 -412v-298h-160z" />
    <glyph glyph-name="Ydieresis" unicode="&#x178;" horiz-adv-x="694" 
d="M229 768c-45 0 -81 37 -81 80c0 45 36 81 81 81c43 0 79 -36 79 -81c0 -43 -36 -80 -79 -80zM466 768c-44 0 -80 37 -80 80c0 45 36 81 80 81s80 -36 80 -81c0 -43 -36 -80 -80 -80zM267 0v299l-259 411h185l153 -256l155 256h185l-259 -412v-298h-160z" />
    <glyph glyph-name="Ygrave" unicode="&#x1ef2;" horiz-adv-x="694" 
d="M395 770h-111l-125 157h166zM267 0v299l-259 411h185l153 -256l155 256h185l-259 -412v-298h-160z" />
    <glyph glyph-name="uni0232" unicode="&#x232;" horiz-adv-x="694" 
d="M173 787v104h348v-104h-348zM267 0v299l-259 411h185l153 -256l155 256h185l-259 -412v-298h-160z" />
    <glyph glyph-name="Zacute" unicode="&#x179;" horiz-adv-x="626" 
d="M265 770l70 157h166l-125 -157h-111zM39 0v109l326 449h-321v152h537v-109l-327 -449h333v-152h-548z" />
    <glyph glyph-name="Zcaron" unicode="&#x17d;" horiz-adv-x="626" 
d="M313 762l-176 68v118l176 -68l176 68v-118zM39 0v109l326 449h-321v152h537v-109l-327 -449h333v-152h-548z" />
    <glyph glyph-name="Zdotaccent" unicode="&#x17b;" horiz-adv-x="626" 
d="M313 768c-45 0 -81 37 -81 80c0 45 36 81 81 81c44 0 80 -36 80 -81c0 -43 -36 -80 -80 -80zM39 0v109l326 449h-321v152h537v-109l-327 -449h333v-152h-548z" />
    <glyph glyph-name="uni1E9E" unicode="&#x1e9e;" horiz-adv-x="652" 
d="M75 0v710h496v-108l-91 -143c85 -35 134 -105 134 -211c0 -156 -108 -248 -261 -248h-48v152h43c56 0 105 33 105 96s-49 96 -105 96h-43v108l72 113h-143v-565h-159z" />
    <glyph glyph-name="uni018F" unicode="&#x18f;" horiz-adv-x="806" 
d="M403 -12c-213 0 -367 165 -367 367v52h569c-29 106 -108 161 -203 161c-64 0 -123 -22 -158 -68h-184c49 138 201 222 343 222c201 0 367 -159 367 -367c0 -202 -154 -367 -367 -367zM405 142c85 0 160 44 191 125h-382c35 -82 103 -125 191 -125z" />
    <glyph glyph-name="abreve" unicode="&#x103;" horiz-adv-x="613" 
d="M320 552c-98 0 -178 70 -178 178v20h86v-20c0 -61 42 -92 92 -92s92 31 92 92v20h86v-20c0 -108 -80 -178 -178 -178zM264 -11c-131 0 -232 119 -232 261s101 261 232 261c67 0 116 -34 136 -61v50h151v-500h-151v50c-20 -27 -69 -61 -136 -61zM298 126
c68 0 114 52 114 124s-46 124 -114 124s-114 -52 -114 -124s46 -124 114 -124z" />
    <glyph glyph-name="amacron" unicode="&#x101;" horiz-adv-x="613" 
d="M146 606v104h348v-104h-348zM264 -11c-131 0 -232 119 -232 261s101 261 232 261c67 0 116 -34 136 -61v50h151v-500h-151v50c-20 -27 -69 -61 -136 -61zM298 126c68 0 114 52 114 124s-46 124 -114 124s-114 -52 -114 -124s46 -124 114 -124z" />
    <glyph glyph-name="aogonek" unicode="&#x105;" horiz-adv-x="613" 
d="M264 -11c-131 0 -232 119 -232 261s101 261 232 261c67 0 116 -34 136 -61v50h151v-500c-50 -20 -85 -50 -85 -86c0 -21 17 -28 36 -28c18 0 40 8 49 14v-90c-16 -12 -59 -29 -104 -29c-71 0 -111 43 -111 104c0 43 25 86 64 115v50c-20 -27 -69 -61 -136 -61zM298 126
c68 0 114 52 114 124s-46 124 -114 124s-114 -52 -114 -124s46 -124 114 -124z" />
    <glyph glyph-name="cacute" unicode="&#x107;" horiz-adv-x="578" 
d="M248 560l109 190h172l-171 -190h-110zM295 -11c-152 0 -263 116 -263 261s111 261 263 261c142 0 231 -89 258 -206h-156c-18 40 -49 70 -102 70c-63 0 -111 -47 -111 -125s48 -125 111 -125c53 0 84 30 102 70h156c-27 -117 -116 -206 -258 -206z" />
    <glyph glyph-name="ccaron" unicode="&#x10d;" horiz-adv-x="578" 
d="M298 541l-178 97v118l178 -97l178 97v-118zM295 -11c-152 0 -263 116 -263 261s111 261 263 261c142 0 231 -89 258 -206h-156c-18 40 -49 70 -102 70c-63 0 -111 -47 -111 -125s48 -125 111 -125c53 0 84 30 102 70h156c-27 -117 -116 -206 -258 -206z" />
    <glyph glyph-name="ccircumflex" unicode="&#x109;" horiz-adv-x="578" 
d="M298 756l178 -97v-118l-178 97l-178 -97v118zM295 -11c-152 0 -263 116 -263 261s111 261 263 261c142 0 231 -89 258 -206h-156c-18 40 -49 70 -102 70c-63 0 -111 -47 -111 -125s48 -125 111 -125c53 0 84 30 102 70h156c-27 -117 -116 -206 -258 -206z" />
    <glyph glyph-name="cdotaccent" unicode="&#x10b;" horiz-adv-x="578" 
d="M298 572c-45 0 -81 36 -81 79c0 45 36 81 81 81c44 0 80 -36 80 -81c0 -43 -36 -79 -80 -79zM295 -11c-152 0 -263 116 -263 261s111 261 263 261c142 0 231 -89 258 -206h-156c-18 40 -49 70 -102 70c-63 0 -111 -47 -111 -125s48 -125 111 -125c53 0 84 30 102 70h156
c-27 -117 -116 -206 -258 -206z" />
    <glyph glyph-name="dcaron" unicode="&#x10f;" horiz-adv-x="613" 
d="M264 -11c-131 0 -232 119 -232 261s101 261 232 261c67 0 116 -34 136 -61v300h151v-750h-151v50c-20 -27 -69 -61 -136 -61zM567 590l20 160h151l-69 -160h-102zM298 126c68 0 114 52 114 124s-46 124 -114 124s-114 -52 -114 -124s46 -124 114 -124z" />
    <glyph glyph-name="dcroat" unicode="&#x111;" horiz-adv-x="613" 
d="M264 -11c-131 0 -232 119 -232 261s101 261 232 261c67 0 116 -34 136 -61v114h-133v96h133v90h151v-90h59v-96h-59v-564h-151v50c-20 -27 -69 -61 -136 -61zM298 126c68 0 114 52 114 124s-46 124 -114 124s-114 -52 -114 -124s46 -124 114 -124z" />
    <glyph glyph-name="ebreve" unicode="&#x115;" horiz-adv-x="596" 
d="M302 552c-98 0 -178 70 -178 178v20h86v-20c0 -61 42 -92 92 -92s92 31 92 92v20h86v-20c0 -108 -80 -178 -178 -178zM297 -11c-155 0 -265 110 -265 262c0 150 114 260 265 260c144 0 273 -98 267 -296h-385c7 -51 45 -96 126 -96c44 0 84 20 96 47h158
c-32 -104 -136 -177 -262 -177zM293 391c-60 0 -97 -34 -110 -80h214c-16 60 -65 80 -104 80z" />
    <glyph glyph-name="ecaron" unicode="&#x11b;" horiz-adv-x="596" 
d="M302 541l-178 97v118l178 -97l178 97v-118zM297 -11c-155 0 -265 110 -265 262c0 150 114 260 265 260c144 0 273 -98 267 -296h-385c7 -51 45 -96 126 -96c44 0 84 20 96 47h158c-32 -104 -136 -177 -262 -177zM293 391c-60 0 -97 -34 -110 -80h214
c-16 60 -65 80 -104 80z" />
    <glyph glyph-name="emacron" unicode="&#x113;" horiz-adv-x="596" 
d="M128 606v104h348v-104h-348zM297 -11c-155 0 -265 110 -265 262c0 150 114 260 265 260c144 0 273 -98 267 -296h-385c7 -51 45 -96 126 -96c44 0 84 20 96 47h158c-32 -104 -136 -177 -262 -177zM293 391c-60 0 -97 -34 -110 -80h214c-16 60 -65 80 -104 80z" />
    <glyph glyph-name="eogonek" unicode="&#x119;" horiz-adv-x="596" 
d="M401 166h158c-8 -25 -21 -46 -34 -68c-52 -91 -65 -142 -65 -169c0 -24 17 -43 45 -43c17 0 34 7 44 14v-90c-16 -12 -59 -29 -104 -29c-71 0 -115 43 -115 104c0 38 16 71 48 114c-36 -9 -59 -10 -81 -10c-155 0 -265 110 -265 262c0 150 114 260 265 260
c144 0 273 -98 267 -296h-385c7 -51 45 -96 126 -96c44 0 84 20 96 47zM293 391c-60 0 -97 -34 -110 -80h214c-16 60 -65 80 -104 80z" />
    <glyph glyph-name="edotaccent" unicode="&#x117;" horiz-adv-x="596" 
d="M302 572c-45 0 -81 36 -81 79c0 45 36 81 81 81c44 0 80 -36 80 -81c0 -43 -36 -79 -80 -79zM297 -11c-155 0 -265 110 -265 262c0 150 114 260 265 260c144 0 273 -98 267 -296h-385c7 -51 45 -96 126 -96c44 0 84 20 96 47h158c-32 -104 -136 -177 -262 -177zM293 391
c-60 0 -97 -34 -110 -80h214c-16 60 -65 80 -104 80z" />
    <glyph glyph-name="gbreve" unicode="&#x11f;" horiz-adv-x="615" 
d="M311 552c-98 0 -178 70 -178 178v20h86v-20c0 -61 42 -92 92 -92s92 31 92 92v20h86v-20c0 -108 -80 -178 -178 -178zM298 -219c-143 0 -236 84 -244 192h147c16 -47 50 -67 101 -67c52 0 100 32 100 103v59c-23 -34 -75 -61 -136 -61c-128 0 -234 112 -234 252
s106 252 234 252c61 0 113 -27 136 -61v50h151v-469c0 -185 -126 -250 -255 -250zM299 144c61 0 115 45 115 115s-54 115 -115 115s-115 -45 -115 -115s54 -115 115 -115z" />
    <glyph glyph-name="gcircumflex" unicode="&#x11d;" horiz-adv-x="615" 
d="M311 756l178 -97v-118l-178 97l-178 -97v118zM298 -219c-143 0 -236 84 -244 192h147c16 -47 50 -67 101 -67c52 0 100 32 100 103v59c-23 -34 -75 -61 -136 -61c-128 0 -234 112 -234 252s106 252 234 252c61 0 113 -27 136 -61v50h151v-469c0 -185 -126 -250 -255 -250
zM299 144c61 0 115 45 115 115s-54 115 -115 115s-115 -45 -115 -115s54 -115 115 -115z" />
    <glyph glyph-name="gcommaaccent" unicode="&#x123;" horiz-adv-x="615" 
d="M311 572c-44 0 -80 36 -80 79c0 18 6 36 16 52l75 118h64l-44 -96c26 -10 49 -38 49 -74c0 -43 -35 -79 -80 -79zM298 -219c-143 0 -236 84 -244 192h147c16 -47 50 -67 101 -67c52 0 100 32 100 103v59c-23 -34 -75 -61 -136 -61c-128 0 -234 112 -234 252
s106 252 234 252c61 0 113 -27 136 -61v50h151v-469c0 -185 -126 -250 -255 -250zM299 144c61 0 115 45 115 115s-54 115 -115 115s-115 -45 -115 -115s54 -115 115 -115z" />
    <glyph glyph-name="gdotaccent" unicode="&#x121;" horiz-adv-x="615" 
d="M311 572c-45 0 -81 36 -81 79c0 45 36 81 81 81c44 0 80 -36 80 -81c0 -43 -36 -79 -80 -79zM298 -219c-143 0 -236 84 -244 192h147c16 -47 50 -67 101 -67c52 0 100 32 100 103v59c-23 -34 -75 -61 -136 -61c-128 0 -234 112 -234 252s106 252 234 252
c61 0 113 -27 136 -61v50h151v-469c0 -185 -126 -250 -255 -250zM299 144c61 0 115 45 115 115s-54 115 -115 115s-115 -45 -115 -115s54 -115 115 -115z" />
    <glyph glyph-name="hbar" unicode="&#x127;" horiz-adv-x="602" 
d="M62 0v564h-59v96h59v90h151v-90h133v-96h-133v-115c24 34 74 62 139 62c123 0 194 -91 194 -222v-289h-151v263c0 69 -27 111 -81 111c-57 0 -101 -41 -101 -131v-243h-151z" />
    <glyph glyph-name="hcircumflex" unicode="&#x125;" horiz-adv-x="602" 
d="M157 762v118l176 68l176 -68v-118l-176 68zM62 0v750h151v-301c24 34 74 62 139 62c123 0 194 -91 194 -222v-289h-151v263c0 69 -27 111 -81 111c-57 0 -101 -41 -101 -131v-243h-151z" />
    <glyph glyph-name="dotlessi" unicode="&#x131;" horiz-adv-x="275" 
d="M62 0v500h151v-500h-151z" />
    <glyph glyph-name="ibreve" unicode="&#x12d;" horiz-adv-x="275" 
d="M138 552c-98 0 -178 70 -178 178v20h86v-20c0 -61 42 -92 92 -92s92 31 92 92v20h86v-20c0 -108 -80 -178 -178 -178zM62 0v500h151v-500h-151z" />
    <glyph glyph-name="imacron" unicode="&#x12b;" horiz-adv-x="275" 
d="M-36 606v104h348v-104h-348zM62 0v500h151v-500h-151z" />
    <glyph glyph-name="iogonek" unicode="&#x12f;" horiz-adv-x="275" 
d="M137 568c-51 0 -94 42 -94 94s43 94 94 94c53 0 95 -42 95 -94s-42 -94 -95 -94zM109 -219c-71 0 -111 43 -111 104c0 43 25 86 64 115v500h151v-500c-50 -20 -85 -50 -85 -86c0 -21 17 -28 36 -28c18 0 40 8 49 14v-90c-16 -12 -59 -29 -104 -29z" />
    <glyph glyph-name="itilde" unicode="&#x129;" horiz-adv-x="275" 
d="M-55 565l4 28c11 76 66 117 121 117c62 0 102 -47 133 -47c27 0 36 18 44 48h83l-4 -28c-11 -76 -66 -117 -121 -117c-62 0 -102 47 -133 47c-27 0 -36 -18 -44 -48h-83zM62 0v500h151v-500h-151z" />
    <glyph glyph-name="uni1ECB" unicode="&#x1ecb;" horiz-adv-x="275" 
d="M137 568c-51 0 -94 42 -94 94s43 94 94 94c53 0 95 -42 95 -94s-42 -94 -95 -94zM62 0v500h151v-500h-151zM138 -227c-45 0 -81 36 -81 80s36 80 81 80c44 0 80 -36 80 -80s-36 -80 -80 -80z" />
    <glyph glyph-name="dotlessj" unicode="&#x237;" horiz-adv-x="283" 
d="M221 -30c0 -127 -92 -189 -195 -189c-23 0 -45 1 -61 4v128c6 -1 18 -2 25 -2c53 0 80 24 80 84v505h151v-530z" />
    <glyph glyph-name="jcircumflex" unicode="&#x135;" horiz-adv-x="283" 
d="M147 756l178 -97v-118l-178 97l-178 -97v118zM221 -30c0 -127 -92 -189 -195 -189c-23 0 -45 1 -61 4v128c6 -1 18 -2 25 -2c53 0 80 24 80 84v505h151v-530z" />
    <glyph glyph-name="kcommaaccent" unicode="&#x137;" horiz-adv-x="560" 
d="M62 0v750h151v-429l146 179h179l-184 -226l228 -274h-183l-186 224v-224h-151zM231 -316l44 96c-26 10 -49 38 -49 74c0 44 35 79 80 79c44 0 80 -35 80 -79c0 -18 -6 -36 -16 -52l-75 -118h-64z" />
    <glyph glyph-name="lacute" unicode="&#x13a;" horiz-adv-x="275" 
d="M88 810l109 190h172l-171 -190h-110zM62 0v750h151v-750h-151z" />
    <glyph glyph-name="lcaron" unicode="&#x13e;" horiz-adv-x="275" 
d="M62 0v750h151v-750h-151zM229 590l20 160h151l-69 -160h-102z" />
    <glyph glyph-name="lcommaaccent" unicode="&#x13c;" horiz-adv-x="275" 
d="M62 0v750h151v-750h-151zM63 -316l44 96c-26 10 -49 38 -49 74c0 44 35 79 80 79c44 0 80 -35 80 -79c0 -18 -6 -36 -16 -52l-75 -118h-64z" />
    <glyph glyph-name="ldot" unicode="&#x140;" horiz-adv-x="410" 
d="M62 0v750h151v-750h-151zM343 293c-45 0 -81 36 -81 80c0 45 36 81 81 81c44 0 80 -36 80 -81c0 -44 -36 -80 -80 -80z" />
    <glyph glyph-name="l_periodcentered" horiz-adv-x="410" 
d="M62 0v750h151v-750h-151zM343 293c-45 0 -81 36 -81 80c0 45 36 81 81 81c44 0 80 -36 80 -81c0 -44 -36 -80 -80 -80z" />
    <glyph glyph-name="lslash" unicode="&#x142;" horiz-adv-x="358" 
d="M104 0v272l-73 -42v115l73 42v363h151v-276l73 42v-116l-73 -42v-358h-151z" />
    <glyph glyph-name="eng" unicode="&#x14b;" horiz-adv-x="602" 
d="M62 0v500h151v-51c24 34 74 62 139 62c123 0 194 -91 194 -222v-315c0 -127 -90 -189 -201 -189c-28 0 -50 2 -67 5v133c9 -1 19 -2 31 -2c61 0 86 24 86 84v258c0 69 -27 111 -81 111c-57 0 -101 -41 -101 -131v-243h-151z" />
    <glyph glyph-name="nacute" unicode="&#x144;" horiz-adv-x="602" 
d="M253 560l109 190h172l-171 -190h-110zM62 0v500h151v-51c24 34 74 62 139 62c123 0 194 -91 194 -222v-289h-151v263c0 69 -27 111 -81 111c-57 0 -101 -41 -101 -131v-243h-151z" />
    <glyph glyph-name="ncaron" unicode="&#x148;" horiz-adv-x="602" 
d="M303 541l-178 97v118l178 -97l178 97v-118zM62 0v500h151v-51c24 34 74 62 139 62c123 0 194 -91 194 -222v-289h-151v263c0 69 -27 111 -81 111c-57 0 -101 -41 -101 -131v-243h-151z" />
    <glyph glyph-name="ncommaaccent" unicode="&#x146;" horiz-adv-x="602" 
d="M62 0v500h151v-51c24 34 74 62 139 62c123 0 194 -91 194 -222v-289h-151v263c0 69 -27 111 -81 111c-57 0 -101 -41 -101 -131v-243h-151zM228 -316l44 96c-26 10 -49 38 -49 74c0 44 35 79 80 79c44 0 80 -35 80 -79c0 -18 -6 -36 -16 -52l-75 -118h-64z" />
    <glyph glyph-name="oe" unicode="&#x153;" horiz-adv-x="969" 
d="M294 -11c-144 0 -263 114 -263 261s119 261 263 261c72 0 138 -29 186 -76c47 47 114 76 190 76c144 0 273 -98 267 -296h-385c7 -51 45 -96 126 -96c44 0 84 20 96 47h158c-32 -104 -136 -177 -262 -177c-78 0 -144 28 -191 75c-48 -47 -114 -75 -185 -75zM666 391
c-60 0 -97 -34 -110 -80h214c-16 60 -65 80 -104 80zM294 130c63 0 111 49 111 120s-48 120 -111 120s-111 -49 -111 -120s48 -120 111 -120z" />
    <glyph glyph-name="obreve" unicode="&#x14f;" horiz-adv-x="588" 
d="M294 552c-98 0 -178 70 -178 178v20h86v-20c0 -61 42 -92 92 -92s92 31 92 92v20h86v-20c0 -108 -80 -178 -178 -178zM294 -11c-144 0 -263 114 -263 261s119 261 263 261s263 -114 263 -261s-119 -261 -263 -261zM294 130c63 0 111 49 111 120s-48 120 -111 120
s-111 -49 -111 -120s48 -120 111 -120z" />
    <glyph glyph-name="ohungarumlaut" unicode="&#x151;" horiz-adv-x="588" 
d="M329 560l66 190h156l-127 -190h-95zM143 560l65 190h157l-127 -190h-95zM294 -11c-144 0 -263 114 -263 261s119 261 263 261s263 -114 263 -261s-119 -261 -263 -261zM294 130c63 0 111 49 111 120s-48 120 -111 120s-111 -49 -111 -120s48 -120 111 -120z" />
    <glyph glyph-name="omacron" unicode="&#x14d;" horiz-adv-x="588" 
d="M120 606v104h348v-104h-348zM294 -11c-144 0 -263 114 -263 261s119 261 263 261s263 -114 263 -261s-119 -261 -263 -261zM294 130c63 0 111 49 111 120s-48 120 -111 120s-111 -49 -111 -120s48 -120 111 -120z" />
    <glyph glyph-name="uni1ECD" unicode="&#x1ecd;" horiz-adv-x="588" 
d="M294 -11c-144 0 -263 114 -263 261s119 261 263 261s263 -114 263 -261s-119 -261 -263 -261zM294 130c63 0 111 49 111 120s-48 120 -111 120s-111 -49 -111 -120s48 -120 111 -120zM294 -227c-45 0 -81 36 -81 80s36 80 81 80c44 0 80 -36 80 -80s-36 -80 -80 -80z" />
    <glyph glyph-name="racute" unicode="&#x155;" horiz-adv-x="403" 
d="M171 560l109 190h172l-171 -190h-110zM62 0v500h151v-75c16 44 64 81 119 81c15 0 31 -1 49 -6v-153c-23 8 -43 12 -67 12c-65 0 -101 -50 -101 -122v-237h-151z" />
    <glyph glyph-name="rcaron" unicode="&#x159;" horiz-adv-x="403" 
d="M221 541l-178 97v118l178 -97l178 97v-118zM62 0v500h151v-75c16 44 64 81 119 81c15 0 31 -1 49 -6v-153c-23 8 -43 12 -67 12c-65 0 -101 -50 -101 -122v-237h-151z" />
    <glyph glyph-name="rcommaaccent" unicode="&#x157;" horiz-adv-x="403" 
d="M62 0v500h151v-75c16 44 64 81 119 81c15 0 31 -1 49 -6v-153c-23 8 -43 12 -67 12c-65 0 -101 -50 -101 -122v-237h-151zM62 -316l44 96c-26 10 -49 38 -49 74c0 44 35 79 80 79c44 0 80 -35 80 -79c0 -18 -6 -36 -16 -52l-75 -118h-64z" />
    <glyph glyph-name="sacute" unicode="&#x15b;" horiz-adv-x="510" 
d="M205 560l109 190h172l-171 -190h-110zM264 -11c-136 0 -228 76 -233 174h159c2 -40 36 -60 79 -60c39 0 56 14 56 32c0 22 -18 32 -57 42l-101 26c-87 22 -126 83 -126 157c0 87 77 151 209 151c110 0 200 -56 207 -162h-152c-6 37 -32 46 -58 46c-31 0 -51 -12 -51 -32
c0 -26 28 -33 51 -39l91 -24c101 -27 141 -78 141 -157c0 -93 -89 -154 -215 -154z" />
    <glyph glyph-name="scaron" unicode="&#x161;" horiz-adv-x="510" 
d="M255 541l-178 97v118l178 -97l178 97v-118zM264 -11c-136 0 -228 76 -233 174h159c2 -40 36 -60 79 -60c39 0 56 14 56 32c0 22 -18 32 -57 42l-101 26c-87 22 -126 83 -126 157c0 87 77 151 209 151c110 0 200 -56 207 -162h-152c-6 37 -32 46 -58 46
c-31 0 -51 -12 -51 -32c0 -26 28 -33 51 -39l91 -24c101 -27 141 -78 141 -157c0 -93 -89 -154 -215 -154z" />
    <glyph glyph-name="scedilla" unicode="&#x15f;" horiz-adv-x="510" 
d="M129 -139c21 -12 52 -17 76 -17c26 0 60 4 60 31c0 19 -18 27 -43 27c-11 0 -27 -3 -40 -10l-36 19l51 85c-98 20 -162 86 -166 167h159c2 -40 36 -60 79 -60c39 0 56 14 56 32c0 22 -18 32 -57 42l-101 26c-87 22 -126 83 -126 157c0 87 77 151 209 151
c110 0 200 -56 207 -162h-152c-6 37 -32 46 -58 46c-31 0 -51 -12 -51 -32c0 -26 28 -33 51 -39l91 -24c101 -27 141 -78 141 -157c0 -93 -89 -154 -215 -154h-6l-22 -36c17 4 29 7 49 7c48 0 86 -29 86 -79c0 -61 -69 -100 -138 -100c-29 0 -70 2 -104 15v65z" />
    <glyph glyph-name="scircumflex" unicode="&#x15d;" horiz-adv-x="510" 
d="M255 756l178 -97v-118l-178 97l-178 -97v118zM264 -11c-136 0 -228 76 -233 174h159c2 -40 36 -60 79 -60c39 0 56 14 56 32c0 22 -18 32 -57 42l-101 26c-87 22 -126 83 -126 157c0 87 77 151 209 151c110 0 200 -56 207 -162h-152c-6 37 -32 46 -58 46
c-31 0 -51 -12 -51 -32c0 -26 28 -33 51 -39l91 -24c101 -27 141 -78 141 -157c0 -93 -89 -154 -215 -154z" />
    <glyph glyph-name="scommaaccent" unicode="&#x219;" horiz-adv-x="510" 
d="M264 -11c-136 0 -228 76 -233 174h159c2 -40 36 -60 79 -60c39 0 56 14 56 32c0 22 -18 32 -57 42l-101 26c-87 22 -126 83 -126 157c0 87 77 151 209 151c110 0 200 -56 207 -162h-152c-6 37 -32 46 -58 46c-31 0 -51 -12 -51 -32c0 -26 28 -33 51 -39l91 -24
c101 -27 141 -78 141 -157c0 -93 -89 -154 -215 -154zM170 -316l44 96c-26 10 -49 38 -49 74c0 44 35 79 80 79c44 0 80 -35 80 -79c0 -18 -6 -36 -16 -52l-75 -118h-64z" />
    <glyph glyph-name="tbar" unicode="&#x167;" horiz-adv-x="450" 
d="M23 207v96h100v66h-100v131h100v139h151v-139h140v-131h-140v-66h140v-96h-140c2 -55 28 -78 85 -78c23 0 39 3 55 9v-134c-22 -6 -50 -10 -90 -10c-111 0 -201 62 -201 189v24h-100z" />
    <glyph glyph-name="tcaron" unicode="&#x165;" horiz-adv-x="440" 
d="M283 550l20 160h151l-69 -160h-102zM317 -6c-111 0 -201 62 -201 189v186h-100v131h100v139h151v-139h140v-131h-140v-155c0 -60 25 -85 85 -85c23 0 39 3 55 9v-134c-22 -6 -50 -10 -90 -10z" />
    <glyph glyph-name="uni0163" unicode="&#x163;" horiz-adv-x="440" 
d="M317 -6c-111 0 -201 62 -201 189v186h-100v131h100v139h151v-139h140v-131h-140v-155c0 -60 25 -85 85 -85c23 0 39 3 55 9v-134c-22 -6 -50 -10 -90 -10zM200 -316l44 96c-26 10 -49 38 -49 74c0 44 35 79 80 79c44 0 80 -35 80 -79c0 -18 -6 -36 -16 -52l-75 -118h-64z
" />
    <glyph glyph-name="tcommaaccent" unicode="&#x21b;" horiz-adv-x="440" 
d="M317 -6c-111 0 -201 62 -201 189v186h-100v131h100v139h151v-139h140v-131h-140v-155c0 -60 25 -85 85 -85c23 0 39 3 55 9v-134c-22 -6 -50 -10 -90 -10zM200 -316l44 96c-26 10 -49 38 -49 74c0 44 35 79 80 79c44 0 80 -35 80 -79c0 -18 -6 -36 -16 -52l-75 -118h-64z
" />
    <glyph glyph-name="ubreve" unicode="&#x16d;" horiz-adv-x="591" 
d="M293 552c-98 0 -178 70 -178 178v20h86v-20c0 -61 42 -92 92 -92s92 31 92 92v20h86v-20c0 -108 -80 -178 -178 -178zM245 -11c-124 0 -189 90 -189 226v285h151v-259c0 -73 21 -115 77 -115c57 0 94 39 94 131v243h151v-500h-151v51c-24 -35 -68 -62 -133 -62z" />
    <glyph glyph-name="uhungarumlaut" unicode="&#x171;" horiz-adv-x="591" 
d="M328 560l66 190h156l-127 -190h-95zM142 560l65 190h157l-127 -190h-95zM245 -11c-124 0 -189 90 -189 226v285h151v-259c0 -73 21 -115 77 -115c57 0 94 39 94 131v243h151v-500h-151v51c-24 -35 -68 -62 -133 -62z" />
    <glyph glyph-name="umacron" unicode="&#x16b;" horiz-adv-x="591" 
d="M119 606v104h348v-104h-348zM245 -11c-124 0 -189 90 -189 226v285h151v-259c0 -73 21 -115 77 -115c57 0 94 39 94 131v243h151v-500h-151v51c-24 -35 -68 -62 -133 -62z" />
    <glyph glyph-name="uogonek" unicode="&#x173;" horiz-adv-x="591" 
d="M245 -11c-124 0 -189 90 -189 226v285h151v-259c0 -73 21 -115 77 -115c57 0 94 39 94 131v243h151v-500c-50 -20 -85 -50 -85 -86c0 -21 17 -28 36 -28c18 0 40 8 49 14v-90c-16 -12 -59 -29 -104 -29c-71 0 -111 43 -111 104c0 43 25 86 64 115v51
c-24 -35 -68 -62 -133 -62z" />
    <glyph glyph-name="uring" unicode="&#x16f;" horiz-adv-x="591" 
d="M294 543c-66 0 -122 54 -122 120s56 120 122 120s122 -54 122 -120s-56 -120 -122 -120zM294 608c31 0 56 25 56 55s-25 55 -56 55s-56 -25 -56 -55s25 -55 56 -55zM245 -11c-124 0 -189 90 -189 226v285h151v-259c0 -73 21 -115 77 -115c57 0 94 39 94 131v243h151v-500
h-151v51c-24 -35 -68 -62 -133 -62z" />
    <glyph glyph-name="utilde" unicode="&#x169;" horiz-adv-x="591" 
d="M100 565l4 28c11 76 66 117 121 117c62 0 102 -47 133 -47c27 0 36 18 44 48h83l-4 -28c-11 -76 -66 -117 -121 -117c-62 0 -102 47 -133 47c-27 0 -36 -18 -44 -48h-83zM245 -11c-124 0 -189 90 -189 226v285h151v-259c0 -73 21 -115 77 -115c57 0 94 39 94 131v243h151
v-500h-151v51c-24 -35 -68 -62 -133 -62z" />
    <glyph glyph-name="uni1EE5" unicode="&#x1ee5;" horiz-adv-x="591" 
d="M245 -11c-124 0 -189 90 -189 226v285h151v-259c0 -73 21 -115 77 -115c57 0 94 39 94 131v243h151v-500h-151v51c-24 -35 -68 -62 -133 -62zM300 -227c-45 0 -81 36 -81 80s36 80 81 80c44 0 80 -36 80 -80s-36 -80 -80 -80z" />
    <glyph glyph-name="wacute" unicode="&#x1e83;" horiz-adv-x="810" 
d="M357 560l109 190h172l-171 -190h-110zM491 0l-85 265l-86 -265h-152l-165 500h162l87 -306l95 306h116l95 -306l87 306h162l-164 -500h-152z" />
    <glyph glyph-name="wcircumflex" unicode="&#x175;" horiz-adv-x="810" 
d="M407 756l178 -97v-118l-178 97l-178 -97v118zM491 0l-85 265l-86 -265h-152l-165 500h162l87 -306l95 306h116l95 -306l87 306h162l-164 -500h-152z" />
    <glyph glyph-name="wdieresis" unicode="&#x1e85;" horiz-adv-x="810" 
d="M289 572c-45 0 -81 36 -81 79c0 45 36 81 81 81c43 0 79 -36 79 -81c0 -43 -36 -79 -79 -79zM526 572c-44 0 -80 36 -80 79c0 45 36 81 80 81s80 -36 80 -81c0 -43 -36 -79 -80 -79zM491 0l-85 265l-86 -265h-152l-165 500h162l87 -306l95 306h116l95 -306l87 306h162
l-164 -500h-152z" />
    <glyph glyph-name="wgrave" unicode="&#x1e81;" horiz-adv-x="810" 
d="M352 560l-171 190h172l110 -190h-111zM491 0l-85 265l-86 -265h-152l-165 500h162l87 -306l95 306h116l95 -306l87 306h162l-164 -500h-152z" />
    <glyph glyph-name="ycircumflex" unicode="&#x177;" horiz-adv-x="576" 
d="M291 756l178 -97v-118l-178 97l-178 -97v118zM267 -209h-163l104 238l-208 471h165l124 -309l123 309h166z" />
    <glyph glyph-name="ygrave" unicode="&#x1ef3;" horiz-adv-x="576" 
d="M236 560l-171 190h172l110 -190h-111zM267 -209h-163l104 238l-208 471h165l124 -309l123 309h166z" />
    <glyph glyph-name="uni0233" unicode="&#x233;" horiz-adv-x="576" 
d="M117 606v104h348v-104h-348zM267 -209h-163l104 238l-208 471h165l124 -309l123 309h166z" />
    <glyph glyph-name="zacute" unicode="&#x17a;" horiz-adv-x="502" 
d="M200 560l109 190h172l-171 -190h-110zM41 0v118l220 246h-217v136h412v-119l-219 -245h227v-136h-423z" />
    <glyph glyph-name="zcaron" unicode="&#x17e;" horiz-adv-x="502" 
d="M250 541l-178 97v118l178 -97l178 97v-118zM41 0v118l220 246h-217v136h412v-119l-219 -245h227v-136h-423z" />
    <glyph glyph-name="zdotaccent" unicode="&#x17c;" horiz-adv-x="502" 
d="M250 572c-45 0 -81 36 -81 79c0 45 36 81 81 81c44 0 80 -36 80 -81c0 -43 -36 -79 -80 -79zM41 0v118l220 246h-217v136h412v-119l-219 -245h227v-136h-423z" />
    <glyph glyph-name="uni0259" unicode="&#x259;" horiz-adv-x="597" 
d="M303 511c151 0 261 -110 261 -262c0 -155 -104 -260 -265 -260c-144 0 -273 98 -267 296h385c-6 51 -43 96 -116 96c-54 0 -90 -24 -106 -47h-158c32 104 136 177 266 177zM303 109c60 0 97 34 110 80h-214c16 -60 65 -80 104 -80z" />
    <glyph glyph-name="uni0410" unicode="&#x410;" horiz-adv-x="750" 
d="M-1 0l304 710h144l304 -710h-166l-63 150h-294l-63 -150h-166zM286 288h178l-89 214z" />
    <glyph glyph-name="uni0411" unicode="&#x411;" horiz-adv-x="640" 
d="M370 452c139 0 243 -95 243 -226c0 -130 -104 -226 -243 -226h-295v710h478v-152h-318v-106h135zM458 226c0 51 -38 80 -90 80h-133v-159h133c52 0 90 28 90 79z" />
    <glyph glyph-name="uni0412" unicode="&#x412;" horiz-adv-x="635" 
d="M75 0v710h267c116 0 211 -94 211 -211c0 -50 -20 -92 -51 -122c60 -31 101 -92 101 -168c0 -117 -94 -209 -216 -209h-312zM234 423h90c43 0 74 32 74 70c0 39 -31 72 -74 72h-90v-142zM234 146h140c42 0 74 31 74 71c0 39 -32 71 -75 71h-139v-142z" />
    <glyph glyph-name="uni0413" unicode="&#x413;" horiz-adv-x="523" 
d="M500 710v-152h-265v-558h-160v710h425z" />
    <glyph glyph-name="uni0414" unicode="&#x414;" horiz-adv-x="779" 
d="M606 -148v148h-435v-148h-143v300h12c47 0 90 44 90 190v368h527v-558h92v-300h-143zM290 558v-229c0 -80 -11 -130 -36 -177h243v406h-207z" />
    <glyph glyph-name="uni0415" unicode="&#x415;" horiz-adv-x="571" 
d="M75 0v710h450v-152h-291v-127h231v-152h-231v-127h291v-152h-450z" />
    <glyph glyph-name="uni0416" unicode="&#x416;" horiz-adv-x="1035" 
d="M177 0h-196l305 361l-274 349h187l238 -307v307h160v-308l239 308h187l-274 -349l305 -361h-196l-261 307v-307h-160v306z" />
    <glyph glyph-name="uni0417" unicode="&#x417;" horiz-adv-x="592" 
d="M206 509h-158c29 156 144 213 254 213c134 0 229 -74 229 -188c0 -50 -12 -106 -67 -153c61 -38 91 -100 91 -170c0 -140 -115 -223 -252 -223s-264 81 -281 235h159c16 -55 60 -85 120 -85c68 0 99 36 99 85c0 45 -33 75 -86 75h-85v134h75c47 0 73 29 73 72
c0 41 -27 72 -78 72c-49 0 -80 -30 -93 -67z" />
    <glyph glyph-name="uni0418" unicode="&#x418;" horiz-adv-x="792" 
d="M75 0v710h160v-438l345 438h137v-710h-159v439l-346 -439h-137z" />
    <glyph glyph-name="uni041A" unicode="&#x41a;" horiz-adv-x="700" 
d="M75 0v710h158v-297l241 297h195l-280 -341l337 -369h-204l-289 318v-318h-158z" />
    <glyph glyph-name="uni041B" unicode="&#x41b;" horiz-adv-x="747" 
d="M145 261v449h527v-710h-160v558h-207v-316c0 -161 -77 -253 -214 -254c-30 1 -50 2 -71 5v147c15 -2 27 -3 48 -3c48 0 77 23 77 124z" />
    <glyph glyph-name="uni041C" unicode="&#x41c;" horiz-adv-x="884" 
d="M442 151l-208 287v-438h-159v710h145l222 -306l222 306h145v-710h-160v438z" />
    <glyph glyph-name="uni041D" unicode="&#x41d;" horiz-adv-x="754" 
d="M75 0v710h159v-278h286v278h159v-710h-159v281h-286v-281h-159z" />
    <glyph glyph-name="uni041E" unicode="&#x41e;" horiz-adv-x="804" 
d="M402 -12c-203 0 -367 165 -367 367s164 367 367 367c202 0 367 -165 367 -367s-165 -367 -367 -367zM402 142c115 0 206 98 206 213s-91 213 -206 213c-116 0 -207 -98 -207 -213s91 -213 207 -213z" />
    <glyph glyph-name="uni041F" unicode="&#x41f;" horiz-adv-x="749" 
d="M514 0v558h-279v-558h-160v710h599v-710h-160z" />
    <glyph glyph-name="uni0420" unicode="&#x420;" horiz-adv-x="593" 
d="M566 467c0 -137 -107 -242 -250 -242h-82v-225h-159v710h241c143 0 250 -106 250 -243zM412 467c0 53 -41 93 -98 93h-80v-186h80c57 0 98 41 98 93z" />
    <glyph glyph-name="uni0421" unicode="&#x421;" horiz-adv-x="778" 
d="M409 -12c-217 0 -373 161 -373 367s156 367 373 367c156 0 304 -99 345 -256h-173c-30 66 -102 102 -172 102c-130 0 -213 -94 -213 -213s83 -213 213 -213c70 0 142 36 172 102h173c-41 -157 -189 -256 -345 -256z" />
    <glyph glyph-name="uni0422" unicode="&#x422;" horiz-adv-x="568" 
d="M203 0v558h-181v152h524v-152h-183v-558h-160z" />
    <glyph glyph-name="uni0423" unicode="&#x423;" horiz-adv-x="731" 
d="M131 -5v148c18 -2 44 -4 66 -4c36 0 67 5 94 39l-275 532h182l185 -355l174 355h182l-264 -529c-68 -136 -141 -193 -255 -193c-42 0 -60 2 -89 7z" />
    <glyph glyph-name="uni0424" unicode="&#x424;" horiz-adv-x="906" 
d="M533 -30h-160v87c-205 0 -339 105 -339 302c0 195 134 300 339 301v80h160v-80c205 -1 339 -106 339 -301c0 -197 -134 -302 -339 -302v-87zM195 360c0 -90 47 -159 178 -159v316c-131 1 -178 -67 -178 -157zM533 517v-316c131 0 178 69 178 159s-47 158 -178 157z" />
    <glyph glyph-name="uni0425" unicode="&#x425;" horiz-adv-x="704" 
d="M528 0l-175 235l-176 -235h-186l266 359l-250 351h184l161 -228l161 228h184l-249 -351l265 -359h-185z" />
    <glyph glyph-name="uni0426" unicode="&#x426;" horiz-adv-x="772" 
d="M649 152h93v-300h-143v148h-524v710h160v-558h254v558h160v-558z" />
    <glyph glyph-name="uni0427" unicode="&#x427;" horiz-adv-x="687" 
d="M612 0h-160v304c-43 -46 -95 -66 -167 -66c-135 0 -242 96 -242 234v238h160v-195c0 -87 46 -123 115 -123c76 0 134 45 134 150v168h160v-710z" />
    <glyph glyph-name="uni0428" unicode="&#x428;" horiz-adv-x="976" 
d="M75 0v710h160v-558h173v558h160v-558h173v558h160v-710h-826z" />
    <glyph glyph-name="uni0429" unicode="&#x429;" horiz-adv-x="1024" 
d="M851 -148v148h-776v710h160v-558h173v558h160v-558h173v558h160v-558h93v-300h-143z" />
    <glyph glyph-name="uni042A" unicode="&#x42a;" horiz-adv-x="740" 
d="M354 462h114c139 0 243 -96 243 -231c0 -133 -104 -231 -243 -231h-274v558h-172v152h332v-248zM354 147h112c52 0 90 27 90 84c0 55 -38 84 -90 84h-112v-168z" />
    <glyph glyph-name="uni042B" unicode="&#x42b;" horiz-adv-x="913" 
d="M679 0v710h159v-710h-159zM349 462c139 0 243 -96 243 -231c0 -133 -104 -231 -243 -231h-274v710h160v-248h114zM235 147h112c52 0 90 27 90 84c0 55 -38 84 -90 84h-112v-168z" />
    <glyph glyph-name="uni042C" unicode="&#x42c;" horiz-adv-x="621" 
d="M349 462c139 0 243 -96 243 -231c0 -133 -104 -231 -243 -231h-274v710h160v-248h114zM235 147h112c52 0 90 27 90 84c0 55 -38 84 -90 84h-112v-168z" />
    <glyph glyph-name="uni042D" unicode="&#x42d;" horiz-adv-x="777" 
d="M368 -12c-156 0 -304 99 -345 256h173c30 -66 102 -102 172 -102c103 0 176 59 202 142h-285v140h286c-26 84 -99 144 -203 144c-70 0 -142 -36 -172 -102h-173c41 157 189 256 345 256c217 0 373 -161 373 -367s-156 -367 -373 -367z" />
    <glyph glyph-name="uni042E" unicode="&#x42e;" horiz-adv-x="1080" 
d="M75 0v710h160v-281h103c31 172 171 293 349 293c203 0 356 -156 356 -367s-153 -367 -356 -367c-178 0 -318 121 -349 293h-103v-281h-160zM882 355c0 125 -80 213 -195 213s-195 -88 -195 -213s80 -213 195 -213s195 88 195 213z" />
    <glyph glyph-name="uni042F" unicode="&#x42f;" horiz-adv-x="653" 
d="M-24 0l236 268c-75 38 -128 111 -128 204c0 137 94 238 243 238h251v-710h-160v234h-41l-210 -234h-191zM238 472c0 -56 38 -93 90 -93h90v186h-90c-52 0 -90 -37 -90 -93z" />
    <glyph glyph-name="uni0405" unicode="&#x405;" horiz-adv-x="602" 
d="M312 -12c-176 0 -274 121 -280 240h159c10 -60 59 -93 121 -93c53 0 92 23 92 63c0 33 -25 59 -93 77l-69 18c-113 30 -191 102 -192 213c-1 134 97 216 244 216c155 0 252 -113 256 -222h-158c-16 56 -60 75 -98 75c-46 0 -83 -20 -84 -58c-1 -39 31 -62 86 -76l81 -21
c116 -30 188 -106 188 -217c0 -121 -100 -215 -253 -215z" />
    <glyph glyph-name="uni0404" unicode="&#x404;" horiz-adv-x="777" 
d="M409 -12c-217 0 -373 161 -373 367s156 367 373 367c156 0 304 -99 345 -256h-173c-30 66 -102 102 -172 102c-104 0 -177 -60 -203 -144h286v-140h-285c26 -83 99 -142 202 -142c70 0 142 36 172 102h173c-41 -157 -189 -256 -345 -256z" />
    <glyph glyph-name="uni0406" unicode="&#x406;" horiz-adv-x="309" 
d="M75 0v710h159v-710h-159z" />
    <glyph glyph-name="uni0408" unicode="&#x408;" horiz-adv-x="552" 
d="M250 -12c-119 0 -230 66 -230 220h157c0 -48 32 -72 73 -72c39 0 73 23 73 68v506h159v-516c0 -145 -110 -206 -232 -206z" />
    <glyph glyph-name="uni040F" unicode="&#x40f;" horiz-adv-x="724" 
d="M434 0v-148h-143v148h-216v710h160v-558h254v558h160v-710h-215z" />
    <glyph glyph-name="uni0409" unicode="&#x409;" horiz-adv-x="1048" 
d="M145 710h517v-278h114c149 0 243 -88 243 -211s-104 -221 -243 -221h-274v558h-197v-315c0 -163 -77 -255 -214 -255c-30 0 -50 2 -71 5v147c16 -2 27 -3 48 -3c48 0 77 22 77 124v449zM864 217c0 43 -32 64 -90 64h-112v-131h112c58 0 90 19 90 67z" />
    <glyph glyph-name="uni040A" unicode="&#x40a;" horiz-adv-x="1045" 
d="M75 0v710h160v-278h275v278h160v-278h104c149 0 243 -88 243 -211s-104 -221 -243 -221h-264v281h-275v-281h-160zM772 281h-102v-131h102c58 0 90 19 90 67c0 43 -32 64 -90 64z" />
    <glyph glyph-name="uni0402" unicode="&#x402;" horiz-adv-x="778" 
d="M523 449c137 0 225 -92 225 -234c0 -161 -118 -227 -230 -227c-35 0 -56 4 -77 8v142c21 -3 40 -4 62 -4c55 0 88 27 88 81c0 47 -34 82 -99 82c-80 0 -135 -53 -135 -135v-162h-160v558h-175v152h546v-152h-211v-174c31 36 93 65 166 65z" />
    <glyph glyph-name="uni040B" unicode="&#x40b;" horiz-adv-x="788" 
d="M197 558h-175v152h546v-152h-211v-174c33 36 88 65 162 65c130 0 227 -91 227 -230v-219h-160v177c0 87 -45 120 -107 120c-60 0 -122 -47 -122 -145v-152h-160v558z" />
    <glyph glyph-name="uni0474" unicode="&#x474;" horiz-adv-x="793" 
d="M174 710l189 -473l122 306c54 136 113 179 210 179c39 0 62 -5 79 -10v-149c-66 10 -103 11 -139 -77l-200 -486h-143l-291 710h173z" />
    <glyph glyph-name="uni04AE" unicode="&#x4ae;" horiz-adv-x="694" 
d="M267 0v299l-259 411h185l153 -256l155 256h185l-259 -412v-298h-160z" />
    <glyph glyph-name="uni04BA" unicode="&#x4ba;" horiz-adv-x="688" 
d="M75 710h160v-304c43 46 95 66 167 66c135 0 242 -96 242 -234v-238h-160v195c0 87 -46 123 -115 123c-76 0 -134 -45 -134 -150v-168h-160v710z" />
    <glyph glyph-name="uni04C0" unicode="&#x4c0;" horiz-adv-x="309" 
d="M75 0v710h159v-710h-159z" />
    <glyph glyph-name="uni04D8" unicode="&#x4d8;" horiz-adv-x="805" 
d="M402 -12c-213 0 -367 165 -367 367v52h569c-29 106 -108 161 -203 161c-64 0 -123 -22 -158 -68h-184c49 138 201 222 343 222c201 0 367 -159 367 -367c0 -202 -154 -367 -367 -367zM404 142c85 0 160 44 191 125h-382c35 -82 103 -125 191 -125z" />
    <glyph glyph-name="uni0462" unicode="&#x462;" horiz-adv-x="762" 
d="M369 442h114c139 0 243 -91 243 -221c0 -127 -104 -221 -243 -221h-274v511h-180v140h180v59h160v-59h216v-140h-216v-69zM369 147h112c52 0 90 23 90 74c0 50 -38 74 -90 74h-112v-148z" />
    <glyph glyph-name="uni0419" unicode="&#x419;" horiz-adv-x="792" 
d="M406 747c-98 0 -178 70 -178 180h96c0 -56 32 -93 82 -93s82 37 82 93h96c0 -110 -80 -180 -178 -180zM75 0v710h160v-438l345 438h137v-710h-159v439l-346 -439h-137z" />
    <glyph glyph-name="uni0401" unicode="&#x401;" horiz-adv-x="571" 
d="M181 768c-45 0 -81 37 -81 80c0 45 36 81 81 81c43 0 79 -36 79 -81c0 -43 -36 -80 -79 -80zM418 768c-44 0 -80 37 -80 80c0 45 36 81 80 81s80 -36 80 -81c0 -43 -36 -80 -80 -80zM75 0v710h450v-152h-291v-127h231v-152h-231v-127h291v-152h-450z" />
    <glyph glyph-name="uni040C" unicode="&#x40c;" horiz-adv-x="700" 
d="M304 770l70 157h166l-125 -157h-111zM75 0v710h158v-297l241 297h195l-280 -341l337 -369h-204l-289 318v-318h-158z" />
    <glyph glyph-name="uni0490" unicode="&#x490;" horiz-adv-x="523" 
d="M75 0v710h282v148h143v-300h-265v-558h-160z" />
    <glyph glyph-name="uni0403" unicode="&#x403;" horiz-adv-x="523" 
d="M240 770l70 157h166l-125 -157h-111zM500 710v-152h-265v-558h-160v710h425z" />
    <glyph glyph-name="uni040E" unicode="&#x40e;" horiz-adv-x="731" 
d="M379 747c-98 0 -178 70 -178 180h96c0 -56 32 -93 82 -93s82 37 82 93h96c0 -110 -80 -180 -178 -180zM131 -5v148c18 -2 44 -4 66 -4c36 0 67 5 94 39l-275 532h182l185 -355l174 355h182l-264 -529c-68 -136 -141 -193 -255 -193c-42 0 -60 2 -89 7z" />
    <glyph glyph-name="uni0407" unicode="&#x407;" horiz-adv-x="309" 
d="M59 782c-44 0 -80 36 -80 79c0 44 36 80 80 80c43 0 79 -36 79 -80c0 -43 -36 -79 -79 -79zM246 782c-43 0 -79 36 -79 79c0 44 36 80 79 80c44 0 80 -36 80 -80c0 -43 -36 -79 -80 -79zM75 0v710h159v-710h-159z" />
    <glyph glyph-name="uni0472" unicode="&#x472;" horiz-adv-x="804" 
d="M402 -12c-203 0 -367 165 -367 367s164 367 367 367c202 0 367 -165 367 -367s-165 -367 -367 -367zM492 407c40 0 75 10 102 25c-30 78 -104 136 -192 136c-95 0 -173 -65 -198 -152c28 16 64 27 106 27c83 0 120 -36 182 -36zM402 142c95 0 174 67 198 155
c-28 -16 -65 -28 -108 -28c-67 0 -122 36 -182 36c-40 0 -75 -10 -102 -24c29 -80 104 -139 194 -139z" />
    <glyph glyph-name="uni04E8" unicode="&#x4e8;" horiz-adv-x="804" 
d="M402 -12c-203 0 -367 165 -367 367s164 367 367 367c202 0 367 -165 367 -367s-165 -367 -367 -367zM402 568c-92 0 -168 -61 -196 -144h391c-28 83 -104 144 -195 144zM402 142c90 0 166 60 194 142h-389c28 -82 104 -142 195 -142z" />
    <glyph glyph-name="uni0492" unicode="&#x492;" horiz-adv-x="558" 
d="M20 285v140h89v285h425v-152h-265v-133h158v-140h-158v-285h-160v285h-89z" />
    <glyph glyph-name="uni04B0" unicode="&#x4b0;" horiz-adv-x="685" 
d="M262 0v158h-144v140h144v1l-259 411h185l153 -256l155 256h185l-259 -412h144v-140h-144v-158h-160z" />
    <glyph glyph-name="uni04E2" unicode="&#x4e2;" horiz-adv-x="792" 
d="M232 787v104h348v-104h-348zM75 0v710h160v-438l345 438h137v-710h-159v439l-346 -439h-137z" />
    <glyph glyph-name="uni04EE" unicode="&#x4ee;" horiz-adv-x="731" 
d="M205 787v104h348v-104h-348zM131 -5v148c18 -2 44 -4 66 -4c36 0 67 5 94 39l-275 532h182l185 -355l174 355h182l-264 -529c-68 -136 -141 -193 -255 -193c-42 0 -60 2 -89 7z" />
    <glyph glyph-name="uni0496" unicode="&#x496;" horiz-adv-x="1063" 
d="M177 0h-196l305 361l-274 349h187l238 -307v307h160v-308l239 308h187l-274 -349l177 -209h130v-300h-143v148h-55l-261 307v-307h-160v306z" />
    <glyph glyph-name="uni049A" unicode="&#x49a;" horiz-adv-x="730" 
d="M75 0v710h158v-297l241 297h195l-280 -341l198 -217h140v-300h-143v148h-62l-289 318v-318h-158z" />
    <glyph glyph-name="uni04A2" unicode="&#x4a2;" horiz-adv-x="803" 
d="M75 0v710h159v-278h286v278h159v-558h94v-300h-143v148h-110v281h-286v-281h-159z" />
    <glyph glyph-name="uni04B2" unicode="&#x4b2;" horiz-adv-x="750" 
d="M600 -148v148h-72l-175 235l-176 -235h-186l266 359l-250 351h184l161 -228l161 228h184l-249 -351l153 -207h142v-300h-143z" />
    <glyph glyph-name="uni04B6" unicode="&#x4b6;" horiz-adv-x="736" 
d="M563 -148v148h-111v304c-43 -46 -95 -66 -167 -66c-135 0 -242 96 -242 234v238h160v-195c0 -87 46 -123 115 -123c76 0 134 45 134 150v168h160v-558h94v-300h-143z" />
    <glyph glyph-name="uni0430" unicode="&#x430;" horiz-adv-x="613" 
d="M264 -11c-131 0 -232 119 -232 261s101 261 232 261c67 0 116 -34 136 -61v50h151v-500h-151v50c-20 -27 -69 -61 -136 -61zM298 126c68 0 114 52 114 124s-46 124 -114 124s-114 -52 -114 -124s46 -124 114 -124z" />
    <glyph glyph-name="uni0431" unicode="&#x431;" horiz-adv-x="601" 
d="M306 -11c-174 0 -261 119 -261 313v23c0 267 117 364 307 398l172 31v-143l-139 -25c-102 -19 -171 -57 -182 -147c37 33 85 46 132 46c148 0 233 -105 233 -235c0 -147 -116 -261 -262 -261zM305 130c62 0 111 39 111 116c0 56 -44 108 -111 108s-110 -52 -110 -108
c0 -77 48 -116 110 -116z" />
    <glyph glyph-name="uni0432" unicode="&#x432;" horiz-adv-x="559" 
d="M62 0v500h245c135 0 190 -81 190 -154c0 -32 -10 -56 -28 -80c35 -26 60 -68 60 -112c0 -73 -49 -154 -184 -154h-283zM213 306h91c20 0 43 10 43 40s-23 40 -43 40h-91v-80zM213 122h121c24 0 45 15 45 43s-21 42 -45 42h-121v-85z" />
    <glyph glyph-name="uni0433" unicode="&#x433;" horiz-adv-x="433" 
d="M62 0v500h353v-131h-202v-369h-151z" />
    <glyph glyph-name="uni0434" unicode="&#x434;" horiz-adv-x="660" 
d="M41 131c42 0 70 33 70 120v249h439v-369h82v-253h-134v122h-336v-122h-134v253h13zM262 245c0 -58 -9 -87 -23 -114h160v238h-137v-124z" />
    <glyph glyph-name="uni0435" unicode="&#x435;" horiz-adv-x="596" 
d="M297 -11c-155 0 -265 110 -265 262c0 150 114 260 265 260c144 0 273 -98 267 -296h-385c7 -51 45 -96 126 -96c44 0 84 20 96 47h158c-32 -104 -136 -177 -262 -177zM293 391c-60 0 -97 -34 -110 -80h214c-16 60 -65 80 -104 80z" />
    <glyph glyph-name="uni0436" unicode="&#x436;" horiz-adv-x="836" 
d="M172 0h-185l224 254l-191 246h173l150 -197v197h151v-195l149 195h173l-191 -246l224 -254h-185l-170 194v-194h-151v195z" />
    <glyph glyph-name="uni0437" unicode="&#x437;" horiz-adv-x="509" 
d="M259 -11c-104 0 -215 49 -238 174h156c9 -33 40 -52 81 -51c43 1 67 19 67 49c0 28 -20 45 -55 45h-61v100h55c30 0 50 16 50 43c0 24 -16 46 -59 46c-37 0 -62 -20 -70 -46h-152c25 122 130 162 227 162c143 0 197 -89 197 -150c0 -32 -9 -71 -43 -97
c41 -25 63 -62 63 -115c0 -74 -68 -160 -218 -160z" />
    <glyph glyph-name="uni0438" unicode="&#x438;" horiz-adv-x="618" 
d="M62 0v500h151v-275l208 275h135v-500h-150v275l-209 -275h-135z" />
    <glyph glyph-name="uni043A" unicode="&#x43a;" horiz-adv-x="559" 
d="M62 0v500h151v-196l155 196h177l-197 -247l230 -253h-191l-174 195v-195h-151z" />
    <glyph glyph-name="uni043B" unicode="&#x43b;" horiz-adv-x="617" 
d="M89 -11c-30 0 -52 1 -70 5v128c10 -1 24 -2 35 -2c39 0 62 16 62 84v296h439v-500h-151v369h-137v-181c0 -142 -90 -199 -178 -199z" />
    <glyph glyph-name="uni043C" unicode="&#x43c;" horiz-adv-x="694" 
d="M347 104l-134 166v-270h-151v500h126l159 -196l159 196h126v-500h-151v270z" />
    <glyph glyph-name="uni043D" unicode="&#x43d;" horiz-adv-x="614" 
d="M62 0v500h151v-184h188v184h151v-500h-151v185h-188v-185h-151z" />
    <glyph glyph-name="uni043E" unicode="&#x43e;" horiz-adv-x="588" 
d="M294 -11c-144 0 -263 114 -263 261s119 261 263 261s263 -114 263 -261s-119 -261 -263 -261zM294 130c63 0 111 49 111 120s-48 120 -111 120s-111 -49 -111 -120s48 -120 111 -120z" />
    <glyph glyph-name="uni043F" unicode="&#x43f;" horiz-adv-x="604" 
d="M62 0v500h480v-500h-151v369h-178v-369h-151z" />
    <glyph glyph-name="uni0440" unicode="&#x440;" horiz-adv-x="613" 
d="M62 -209v709h151v-50c20 27 69 61 136 61c131 0 232 -119 232 -261s-101 -261 -232 -261c-67 0 -116 34 -136 61v-259h-151zM315 126c68 0 114 52 114 124s-46 124 -114 124s-114 -52 -114 -124s46 -124 114 -124z" />
    <glyph glyph-name="uni0441" unicode="&#x441;" horiz-adv-x="578" 
d="M295 -11c-152 0 -263 116 -263 261s111 261 263 261c142 0 231 -89 258 -206h-156c-18 40 -49 70 -102 70c-63 0 -111 -47 -111 -125s48 -125 111 -125c53 0 84 30 102 70h156c-27 -117 -116 -206 -258 -206z" />
    <glyph glyph-name="uni0442" unicode="&#x442;" horiz-adv-x="463" 
d="M151 0v369h-133v131h427v-131h-143v-369h-151z" />
    <glyph glyph-name="uni0443" unicode="&#x443;" horiz-adv-x="576" 
d="M334 -56c-48 -110 -111 -162 -214 -162c-29 0 -50 1 -69 4v128c14 -1 26 -2 49 -2c34 0 63 17 86 68l22 49l-208 471h165l129 -295l118 295h166z" />
    <glyph glyph-name="uni0444" unicode="&#x444;" horiz-adv-x="773" 
d="M462 -209h-151v198h-12c-173 0 -267 124 -267 261s94 261 267 261h12v239h151v-239h12c173 0 267 -124 267 -261s-94 -261 -267 -261h-12v-198zM474 373h-12v-246h12c72 0 115 57 115 123s-43 123 -115 123zM311 127v246h-12c-72 0 -115 -57 -115 -123s43 -123 115 -123
h12z" />
    <glyph glyph-name="uni0445" unicode="&#x445;" horiz-adv-x="577" 
d="M2 0l192 242l-190 258h178l106 -145l106 145h180l-190 -258l191 -242h-180l-106 136l-106 -136h-181z" />
    <glyph glyph-name="uni0446" unicode="&#x446;" horiz-adv-x="652" 
d="M627 131v-253h-134v122h-431v500h151v-369h179v369h151v-369h84z" />
    <glyph glyph-name="uni0447" unicode="&#x447;" horiz-adv-x="569" 
d="M507 0h-151v194c-20 -25 -70 -48 -135 -48c-102 0 -187 61 -187 200v154h151v-136c0 -60 32 -86 80 -86c44 0 91 26 91 103v119h151v-500z" />
    <glyph glyph-name="uni0448" unicode="&#x448;" horiz-adv-x="837" 
d="M62 0v500h151v-369h130v369h151v-369h130v369h151v-500h-713z" />
    <glyph glyph-name="uni0449" unicode="&#x449;" horiz-adv-x="886" 
d="M859 131v-253h-134v122h-663v500h151v-369h130v369h151v-369h130v369h151v-369h84z" />
    <glyph glyph-name="uni044A" unicode="&#x44a;" horiz-adv-x="587" 
d="M140 0v369h-121v131h272v-140h88c135 0 184 -105 184 -178s-49 -182 -184 -182h-239zM291 232v-104h69c39 0 62 18 62 53s-23 51 -62 51h-69z" />
    <glyph glyph-name="uni044B" unicode="&#x44b;" horiz-adv-x="763" 
d="M550 0v500h151v-500h-151zM62 0v500h151v-140h88c135 0 184 -105 184 -178s-49 -182 -184 -182h-239zM213 232v-104h69c39 0 62 18 62 53s-23 51 -62 51h-69z" />
    <glyph glyph-name="uni044C" unicode="&#x44c;" horiz-adv-x="509" 
d="M62 0v500h151v-140h88c135 0 184 -105 184 -178s-49 -182 -184 -182h-239zM213 232v-104h69c39 0 62 18 62 53s-23 51 -62 51h-69z" />
    <glyph glyph-name="uni044D" unicode="&#x44d;" horiz-adv-x="579" 
d="M284 -11c-142 0 -231 89 -258 206h156c18 -40 49 -70 102 -70c51 0 92 30 106 83h-150v96h146c-17 45 -55 71 -102 71c-53 0 -84 -30 -102 -70h-156c27 117 116 206 258 206c152 0 263 -116 263 -261s-111 -261 -263 -261z" />
    <glyph glyph-name="uni044E" unicode="&#x44e;" horiz-adv-x="825" 
d="M213 315h76c27 112 124 196 248 196c147 0 256 -118 256 -261s-109 -261 -256 -261c-123 0 -220 84 -248 195h-76v-184h-151v500h151v-185zM537 130c62 0 104 50 104 120s-42 120 -104 120c-63 0 -104 -49 -104 -119s41 -121 104 -121z" />
    <glyph glyph-name="uni044F" unicode="&#x44f;" horiz-adv-x="546" 
d="M-13 0l165 190c-52 30 -83 78 -83 139c0 99 66 171 184 171h231v-500h-151v151h-43l-135 -151h-168zM262 271h71v109h-72c-34 0 -51 -23 -51 -58c0 -32 25 -51 52 -51z" />
    <glyph glyph-name="uni0455" unicode="&#x455;" horiz-adv-x="510" 
d="M264 -11c-136 0 -228 76 -233 174h159c2 -40 36 -60 79 -60c39 0 56 14 56 32c0 22 -18 32 -57 42l-101 26c-87 22 -126 83 -126 157c0 87 77 151 209 151c110 0 200 -56 207 -162h-152c-6 37 -32 46 -58 46c-31 0 -51 -12 -51 -32c0 -26 28 -33 51 -39l91 -24
c101 -27 141 -78 141 -157c0 -93 -89 -154 -215 -154z" />
    <glyph glyph-name="uni0454" unicode="&#x454;" horiz-adv-x="579" 
d="M295 -11c-152 0 -263 116 -263 261s111 261 263 261c142 0 231 -89 258 -206h-156c-18 40 -49 70 -102 70c-47 0 -85 -26 -102 -71h146v-96h-150c14 -53 55 -83 106 -83c53 0 84 30 102 70h156c-27 -117 -116 -206 -258 -206z" />
    <glyph glyph-name="uni0456" unicode="&#x456;" horiz-adv-x="275" 
d="M137 568c-51 0 -94 42 -94 94s43 94 94 94c53 0 95 -42 95 -94s-42 -94 -95 -94zM62 0v500h151v-500h-151z" />
    <glyph glyph-name="uni0458" unicode="&#x458;" horiz-adv-x="283" 
d="M145 568c-51 0 -94 42 -94 94s43 94 94 94c53 0 95 -42 95 -94s-42 -94 -95 -94zM221 -30c0 -127 -92 -189 -195 -189c-23 0 -45 1 -61 4v128c6 -1 18 -2 25 -2c53 0 80 24 80 84v505h151v-530z" />
    <glyph glyph-name="uni045F" unicode="&#x45f;" horiz-adv-x="604" 
d="M542 0h-173v-122h-134v122h-173v500h151v-368h178v368h151v-500z" />
    <glyph glyph-name="uni0459" unicode="&#x459;" horiz-adv-x="838" 
d="M116 500h437v-184h98c119 0 163 -87 163 -154c0 -66 -44 -162 -163 -162h-249v369h-135v-181c0 -142 -90 -199 -178 -199c-30 0 -52 1 -70 5v128c10 -1 24 -2 35 -2c39 0 62 16 62 84v296zM553 191v-66h82c21 0 38 10 38 32c0 23 -17 34 -38 34h-82z" />
    <glyph glyph-name="uni045A" unicode="&#x45a;" horiz-adv-x="827" 
d="M803 162c0 -66 -44 -162 -163 -162h-249v185h-178v-185h-151v500h151v-184h178v184h151v-184h98c119 0 163 -87 163 -154zM662 157c0 23 -17 34 -38 34h-82v-66h82c21 0 38 10 38 32z" />
    <glyph glyph-name="uni0452" unicode="&#x452;" horiz-adv-x="602" 
d="M351 -219c-23 0 -45 1 -61 4v128c6 -1 18 -2 25 -2c53 0 80 24 80 84v268c0 69 -27 111 -81 111c-57 0 -101 -41 -101 -131v-243h-151v575h-91v96h91v79h151v-79h164v-96h-164v-126c24 34 74 62 139 62c123 0 194 -91 194 -222v-319c0 -127 -92 -189 -195 -189z" />
    <glyph glyph-name="uni045B" unicode="&#x45b;" horiz-adv-x="602" 
d="M62 575h-91v96h91v79h151v-79h164v-96h-164v-126c24 34 74 62 139 62c123 0 194 -91 194 -222v-289h-151v263c0 69 -27 111 -81 111c-57 0 -101 -41 -101 -131v-243h-151v575z" />
    <glyph glyph-name="uni0457" unicode="&#x457;" horiz-adv-x="275" 
d="M44 572c-44 0 -80 36 -80 79c0 44 36 80 80 80c43 0 79 -36 79 -80c0 -43 -36 -79 -79 -79zM231 572c-43 0 -79 36 -79 79c0 44 36 80 79 80c44 0 80 -36 80 -80c0 -43 -36 -79 -80 -79zM62 0v500h151v-500h-151z" />
    <glyph glyph-name="uni0475" unicode="&#x475;" horiz-adv-x="610" 
d="M498 319l-140 -319h-140l-219 500h167l122 -303l59 151c50 125 102 163 189 163c28 0 47 -4 61 -9v-129c-52 7 -77 -3 -99 -54z" />
    <glyph glyph-name="uni04AF" unicode="&#x4af;" horiz-adv-x="580" 
d="M214 -209v209l-215 500h168l123 -315l123 315h168l-216 -500v-209h-151z" />
    <glyph glyph-name="uni04BB" unicode="&#x4bb;" horiz-adv-x="602" 
d="M62 0v750h151v-301c24 34 74 62 139 62c123 0 194 -91 194 -222v-289h-151v263c0 69 -27 111 -81 111c-57 0 -101 -41 -101 -131v-243h-151z" />
    <glyph glyph-name="uni04CF" unicode="&#x4cf;" horiz-adv-x="275" 
d="M62 0v750h151v-750h-151z" />
    <glyph glyph-name="uni04D9" unicode="&#x4d9;" horiz-adv-x="596" 
d="M299 511c155 0 265 -110 265 -262c0 -150 -114 -260 -265 -260c-144 0 -273 98 -267 296h385c-7 51 -45 96 -126 96c-44 0 -84 -20 -96 -47h-158c32 104 136 177 262 177zM303 109c60 0 97 34 110 80h-214c16 -60 65 -80 104 -80z" />
    <glyph glyph-name="uni0463" unicode="&#x463;" horiz-adv-x="565" 
d="M16 404v96h95v250h151v-250h161v-96h-161v-44h88c135 0 184 -105 184 -178s-49 -182 -184 -182h-239v404h-95zM331 232h-69v-104h69c39 0 62 18 62 53s-23 51 -62 51z" />
    <glyph glyph-name="uni0439" unicode="&#x439;" horiz-adv-x="618" 
d="M318 552c-98 0 -178 70 -178 178v20h96v-20c0 -61 37 -92 82 -92s82 31 82 92v20h96v-20c0 -108 -80 -178 -178 -178zM62 0v500h151v-275l208 275h135v-500h-150v275l-209 -275h-135z" />
    <glyph glyph-name="uni0451" unicode="&#x451;" horiz-adv-x="596" 
d="M179 572c-45 0 -81 36 -81 79c0 45 36 81 81 81c43 0 79 -36 79 -81c0 -43 -36 -79 -79 -79zM416 572c-44 0 -80 36 -80 79c0 45 36 81 80 81s80 -36 80 -81c0 -43 -36 -79 -80 -79zM297 -11c-155 0 -265 110 -265 262c0 150 114 260 265 260c144 0 273 -98 267 -296
h-385c7 -51 45 -96 126 -96c44 0 84 20 96 47h158c-32 -104 -136 -177 -262 -177zM293 391c-60 0 -97 -34 -110 -80h214c-16 60 -65 80 -104 80z" />
    <glyph glyph-name="uni045C" unicode="&#x45c;" horiz-adv-x="559" 
d="M251 560l109 190h172l-171 -190h-110zM62 0v500h151v-196l155 196h177l-197 -247l230 -253h-191l-174 195v-195h-151z" />
    <glyph glyph-name="uni0491" unicode="&#x491;" horiz-adv-x="433" 
d="M62 0v500h219v122h134v-253h-202v-369h-151z" />
    <glyph glyph-name="uni0453" unicode="&#x453;" horiz-adv-x="433" 
d="M188 560l109 190h172l-171 -190h-110zM62 0v500h353v-131h-202v-369h-151z" />
    <glyph glyph-name="uni045E" unicode="&#x45e;" horiz-adv-x="576" 
d="M289 552c-98 0 -178 70 -178 178v20h96v-20c0 -61 37 -92 82 -92s82 31 82 92v20h96v-20c0 -108 -80 -178 -178 -178zM334 -56c-48 -110 -111 -162 -214 -162c-29 0 -50 1 -69 4v128c14 -1 26 -2 49 -2c34 0 63 17 86 68l22 49l-208 471h165l129 -295l118 295h166z" />
    <glyph glyph-name="uni0473" unicode="&#x473;" horiz-adv-x="588" 
d="M294 -11c-144 0 -263 114 -263 261s119 261 263 261s263 -114 263 -261s-119 -261 -263 -261zM294 370c-48 0 -88 -29 -103 -74h206c-15 45 -55 74 -103 74zM294 130c48 0 88 29 103 74h-206c15 -45 55 -74 103 -74z" />
    <glyph glyph-name="uni04E9" unicode="&#x4e9;" horiz-adv-x="588" 
d="M294 -11c-144 0 -263 114 -263 261s119 261 263 261s263 -114 263 -261s-119 -261 -263 -261zM294 370c-48 0 -88 -29 -103 -74h206c-15 45 -55 74 -103 74zM294 130c48 0 88 29 103 74h-206c15 -45 55 -74 103 -74z" />
    <glyph glyph-name="uni0493" unicode="&#x493;" horiz-adv-x="470" 
d="M99 0v189h-79v96h79v215h353v-131h-202v-84h100v-96h-100v-189h-151z" />
    <glyph glyph-name="uni04B1" unicode="&#x4b1;" horiz-adv-x="580" 
d="M88 -96v96h126l-215 500h168l123 -315l123 315h168l-216 -500h125v-96h-125v-113h-151v113h-126z" />
    <glyph glyph-name="uni04E3" unicode="&#x4e3;" horiz-adv-x="618" 
d="M144 606v104h348v-104h-348zM62 0v500h151v-275l208 275h135v-500h-150v275l-209 -275h-135z" />
    <glyph glyph-name="uni04EF" unicode="&#x4ef;" horiz-adv-x="576" 
d="M115 606v104h348v-104h-348zM334 -56c-48 -110 -111 -162 -214 -162c-29 0 -50 1 -69 4v128c14 -1 26 -2 49 -2c34 0 63 17 86 68l22 49l-208 471h165l129 -295l118 295h166z" />
    <glyph glyph-name="uni0497" unicode="&#x497;" horiz-adv-x="858" 
d="M172 0h-185l224 254l-191 246h173l150 -197v197h151v-195l149 195h173l-191 -246l108 -123h117v-253h-134v122h-52l-170 194v-194h-151v195z" />
    <glyph glyph-name="uni049B" unicode="&#x49b;" horiz-adv-x="583" 
d="M62 0v500h151v-196l155 196h177l-197 -247l111 -122h122v-253h-134v122h-60l-174 195v-195h-151z" />
    <glyph glyph-name="uni04A3" unicode="&#x4a3;" horiz-adv-x="663" 
d="M62 0v500h151v-184h188v184h151v-369h85v-253h-134v122h-102v185h-188v-185h-151z" />
    <glyph glyph-name="uni04B3" unicode="&#x4b3;" horiz-adv-x="598" 
d="M2 0l192 242l-190 258h178l106 -145l106 145h180l-190 -258l88 -111h110v-253h-134v122h-53l-106 136l-106 -136h-181z" />
    <glyph glyph-name="uni04B7" unicode="&#x4b7;" horiz-adv-x="618" 
d="M458 -122v122h-102v194c-20 -25 -70 -48 -135 -48c-102 0 -187 61 -187 200v154h151v-136c0 -60 32 -86 80 -86c44 0 91 26 91 103v119h151v-369h85v-253h-134z" />
    <glyph glyph-name="uni0446.loclBGR" horiz-adv-x="649" 
d="M389 257v243h151v-330c0 -28 10 -39 39 -39h45v-253h-134v122h-6c-43 0 -83 24 -83 68c-25 -44 -76 -79 -151 -79c-123 0 -194 91 -194 222v289h151v-263c0 -69 27 -111 81 -111c57 0 101 41 101 131z" />
    <glyph glyph-name="uni043F.loclBGR" horiz-adv-x="602" 
d="M62 0v500h151v-51c24 34 74 62 139 62c123 0 194 -91 194 -222v-289h-151v263c0 69 -27 111 -81 111c-57 0 -101 -41 -101 -131v-243h-151z" />
    <glyph glyph-name="uni0437.loclBGR" horiz-adv-x="542" 
d="M8 -17h156c11 -40 50 -70 104 -70c60 0 92 37 92 92s-32 93 -107 93h-58v122h58c54 0 86 32 86 82c0 45 -30 77 -79 77c-42 0 -71 -20 -86 -50h-152c28 128 135 182 250 182c135 0 210 -94 210 -191c0 -64 -23 -114 -69 -149c63 -33 99 -97 99 -177
c0 -133 -94 -213 -242 -213c-133 0 -240 67 -262 202z" />
    <glyph glyph-name="uni0448.loclBGR" horiz-adv-x="895" 
d="M207 500v-259c0 -73 21 -115 72 -115c53 0 90 40 90 131v243h151v-259c0 -73 21 -115 72 -115c53 0 90 40 90 131v243h151v-500h-151v51c-26 -35 -69 -62 -128 -62c-72 0 -124 33 -155 88c-32 -61 -101 -88 -153 -88c-122 0 -190 87 -190 226v285h151z" />
    <glyph glyph-name="uni0433.loclBGR" horiz-adv-x="510" 
d="M246 -11c-126 0 -215 61 -215 154c0 79 40 130 141 157l91 24c23 6 51 13 51 39c0 20 -20 32 -51 32c-26 0 -52 -9 -58 -46h-152c7 106 97 162 207 162c132 0 209 -64 209 -151c0 -74 -39 -135 -126 -157l-101 -26c-39 -10 -57 -20 -57 -42c0 -18 17 -32 56 -32
c43 0 77 20 79 60h159c-5 -98 -97 -174 -233 -174z" />
    <glyph glyph-name="uni0438.loclBGR" horiz-adv-x="591" 
d="M245 -11c-124 0 -189 90 -189 226v285h151v-259c0 -73 21 -115 77 -115c57 0 94 39 94 131v243h151v-500h-151v51c-24 -35 -68 -62 -133 -62z" />
    <glyph glyph-name="uni044E.loclBGR" horiz-adv-x="825" 
d="M213 315h76c27 112 124 196 248 196c147 0 256 -118 256 -261s-109 -261 -256 -261c-123 0 -220 84 -248 195h-76v-184h-151v750h151v-435zM537 130c62 0 104 50 104 120s-42 120 -104 120c-63 0 -104 -49 -104 -119s41 -121 104 -121z" />
    <glyph glyph-name="uni0432.loclBGR" horiz-adv-x="566" 
d="M278 -11c-144 0 -223 97 -223 233v300c0 143 72 237 223 237c137 0 215 -86 215 -210c0 -60 -21 -121 -59 -153c64 -30 99 -97 99 -178c0 -139 -92 -229 -240 -229h-15zM206 540v-86h71c48 0 73 32 73 86s-26 87 -72 87s-72 -33 -72 -87zM292 121h5c60 0 85 46 85 107
c0 66 -28 104 -86 104h-90v-107c0 -72 32 -104 86 -104z" />
    <glyph glyph-name="uni0434.loclBGR" horiz-adv-x="616" 
d="M299 -219c-143 0 -236 84 -244 192h147c16 -47 50 -67 101 -67c52 0 100 32 100 103v59c-23 -34 -75 -61 -136 -61c-128 0 -234 112 -234 252s106 252 234 252c61 0 113 -27 136 -61v50h151v-469c0 -185 -126 -250 -255 -250zM300 144c61 0 115 45 115 115
s-54 115 -115 115s-115 -45 -115 -115s54 -115 115 -115z" />
    <glyph glyph-name="uni0439.loclBGR" horiz-adv-x="591" 
d="M292 552c-98 0 -178 70 -178 178v20h96v-20c0 -61 37 -92 82 -92s82 31 82 92v20h96v-20c0 -108 -80 -178 -178 -178zM245 -11c-124 0 -189 90 -189 226v285h151v-259c0 -73 21 -115 77 -115c57 0 94 39 94 131v243h151v-500h-151v51c-24 -35 -68 -62 -133 -62z" />
    <glyph glyph-name="uni0431.loclSRB" horiz-adv-x="589" 
d="M67 569c0 111 79 181 235 181h177v-132h-182c-48 0 -83 -22 -83 -66s35 -67 83 -67h17c131 0 243 -105 243 -235c0 -147 -113 -261 -262 -261s-262 114 -262 261c0 70 25 140 87 190c-40 40 -53 86 -53 129zM294 130c62 0 111 39 111 116c0 56 -47 108 -114 108
c-75 0 -107 -53 -107 -108c0 -76 46 -116 110 -116z" />
    <glyph glyph-name="uni044C.loclBGR" horiz-adv-x="504" 
d="M290 -11h-43c-134 0 -190 102 -190 185v326h151v-140h82c134 0 190 -103 190 -186s-56 -185 -190 -185zM273 117c39 0 66 18 66 57s-27 58 -66 58h-65v-58c0 -39 26 -57 65 -57z" />
    <glyph glyph-name="uni0449.loclBGR" horiz-adv-x="944" 
d="M207 500v-259c0 -73 21 -115 72 -115c53 0 90 40 90 131v243h151v-259c0 -73 21 -115 72 -115c53 0 90 40 90 131v243h151v-330c0 -28 10 -39 39 -39h45v-253h-134v122h-6c-43 0 -83 24 -83 67c-28 -42 -70 -78 -140 -78c-72 0 -124 33 -155 88
c-32 -61 -101 -88 -153 -88c-122 0 -190 87 -190 226v285h151z" />
    <glyph glyph-name="uni0442.loclBGR" horiz-adv-x="895" 
d="M62 0v500h151v-51c26 35 69 62 128 62c72 0 124 -33 155 -88c32 61 101 88 153 88c122 0 190 -87 190 -226v-285h-151v259c0 73 -21 115 -72 115c-53 0 -90 -40 -90 -131v-243h-151v259c0 73 -21 115 -72 115c-53 0 -90 -40 -90 -131v-243h-151z" />
    <glyph glyph-name="uni043A.loclBGR" horiz-adv-x="559" 
d="M62 0v750h151v-446l155 196h177l-197 -247l230 -253h-191l-174 195v-195h-151z" />
    <glyph glyph-name="uni0436.loclBGR" horiz-adv-x="836" 
d="M172 0h-185l224 254l-191 246h173l150 -197v447h151v-445l149 195h173l-191 -246l224 -254h-185l-170 194v-194h-151v195z" />
    <glyph glyph-name="uni044A.loclBGR" horiz-adv-x="586" 
d="M372 -11h-43c-134 0 -190 102 -190 185v195h-121v131h272v-140h82c134 0 190 -103 190 -186s-56 -185 -190 -185zM421 174c0 39 -27 58 -66 58h-65v-58c0 -39 26 -57 65 -57s66 18 66 57z" />
    <glyph glyph-name="cyrbreve" unicode="&#xf6d4;" 
d="M0 552c-98 0 -178 70 -178 178v20h96v-20c0 -61 37 -92 82 -92s82 31 82 92v20h96v-20c0 -108 -80 -178 -178 -178z" />
    <glyph glyph-name="cyrbreve.case" unicode="&#xf6d1;" 
d="M0 747c-98 0 -178 70 -178 180h96c0 -56 32 -93 82 -93s82 37 82 93h96c0 -110 -80 -180 -178 -180z" />
    <glyph glyph-name="uni20B8" unicode="&#x20b8;" horiz-adv-x="584" 
d="M30 652v58h524v-58h-524zM216 0v452h-186v149h524v-149h-187v-452h-151z" />
    <glyph glyph-name="uni20BD" unicode="&#x20bd;" horiz-adv-x="620" 
d="M48 124v58h85v66h-85v145h85v317h216c139 0 243 -92 243 -232s-104 -230 -243 -230h-65v-66h150v-58h-150v-124h-151v124h-85zM284 393h64c52 0 90 28 90 85c0 58 -38 86 -90 86h-64v-171z" />
    <glyph glyph-name="uni20B4" unicode="&#x20b4;" horiz-adv-x="634" 
d="M38 388v58h339c20 15 29 36 29 63c0 45 -33 71 -79 71c-54 0 -89 -32 -105 -80h-150c23 139 127 222 264 222c124 0 220 -76 220 -189c0 -35 -7 -64 -21 -87h57v-58h-554zM38 279v58h554v-58h-343c-23 -16 -32 -41 -32 -68c0 -48 34 -81 101 -81c61 0 111 30 120 97h150
c-12 -141 -112 -239 -268 -239c-150 0 -254 84 -254 194c0 43 12 76 30 97h-58z" />
    <glyph glyph-name="ellipsis" unicode="&#x2026;" horiz-adv-x="822" 
d="M411 -8c-59 0 -107 48 -107 107s48 107 107 107s107 -48 107 -107s-48 -107 -107 -107zM685 -8c-59 0 -107 48 -107 107s48 107 107 107s107 -48 107 -107s-48 -107 -107 -107zM137 -8c-59 0 -107 48 -107 107s48 107 107 107s107 -48 107 -107s-48 -107 -107 -107z" />
    <glyph glyph-name="endash" unicode="&#x2013;" horiz-adv-x="593" 
d="M55 208v144h483v-144h-483z" />
    <glyph glyph-name="emdash" unicode="&#x2014;" horiz-adv-x="949" 
d="M55 208v144h839v-144h-839z" />
    <glyph glyph-name="guilsinglleft" unicode="&#x2039;" horiz-adv-x="327" 
d="M25 250l141 217h131l-116 -217l116 -217h-131z" />
    <glyph glyph-name="guilsinglright" unicode="&#x203a;" horiz-adv-x="327" 
d="M302 250l-141 -217h-131l116 217l-116 217h131z" />
    <glyph glyph-name="quoteleft" unicode="&#x2018;" horiz-adv-x="282" 
d="M48 526l116 184h86l-74 -155c33 -13 65 -50 65 -98c0 -59 -48 -107 -107 -107s-107 48 -107 107c0 23 7 47 21 69z" />
    <glyph glyph-name="quoteright" unicode="&#x2019;" horiz-adv-x="287" 
d="M244 546l-115 -184h-87l75 154c-33 13 -65 51 -65 99c0 59 48 107 107 107s107 -48 107 -107c0 -23 -8 -47 -22 -69z" />
    <glyph glyph-name="uni02BB" unicode="&#x2bb;" horiz-adv-x="282" 
d="M48 526l116 184h86l-74 -155c33 -13 65 -50 65 -98c0 -59 -48 -107 -107 -107s-107 48 -107 107c0 23 7 47 21 69z" />
    <glyph glyph-name="uni02BC" unicode="&#x2bc;" horiz-adv-x="287" 
d="M244 546l-115 -184h-87l75 154c-33 13 -65 51 -65 99c0 59 48 107 107 107s107 -48 107 -107c0 -23 -8 -47 -22 -69z" />
    <glyph glyph-name="quotedblleft" unicode="&#x201c;" horiz-adv-x="524" 
d="M48 526l116 184h86l-74 -155c33 -13 65 -50 65 -98c0 -59 -48 -107 -107 -107s-107 48 -107 107c0 23 7 47 21 69zM290 526l116 184h86l-74 -155c33 -13 65 -50 65 -98c0 -59 -48 -107 -107 -107s-107 48 -107 107c0 23 7 47 21 69z" />
    <glyph glyph-name="quotedblright" unicode="&#x201d;" horiz-adv-x="529" 
d="M244 546l-115 -184h-87l75 154c-33 13 -65 51 -65 99c0 59 48 107 107 107s107 -48 107 -107c0 -23 -8 -47 -22 -69zM486 546l-115 -184h-87l75 154c-33 13 -65 51 -65 99c0 59 48 107 107 107s107 -48 107 -107c0 -23 -8 -47 -22 -69z" />
    <glyph glyph-name="quotesinglbase" unicode="&#x201a;" horiz-adv-x="289" 
d="M229 30l-115 -185h-87l75 155c-33 13 -65 51 -65 99c0 59 48 107 107 107s107 -48 107 -107c0 -24 -9 -47 -22 -69z" />
    <glyph glyph-name="quotedblbase" unicode="&#x201e;" horiz-adv-x="531" 
d="M229 30l-115 -185h-87l75 155c-33 13 -65 51 -65 99c0 59 48 107 107 107s107 -48 107 -107c0 -24 -9 -47 -22 -69zM471 30l-115 -185h-87l75 155c-33 13 -65 51 -65 99c0 59 48 107 107 107s107 -48 107 -107c0 -24 -9 -47 -22 -69z" />
    <glyph glyph-name="bullet" unicode="&#x2022;" horiz-adv-x="395" 
d="M197 166c-74 0 -136 61 -136 136s62 136 136 136c75 0 137 -61 137 -136s-62 -136 -137 -136z" />
    <glyph glyph-name="dagger" unicode="&#x2020;" horiz-adv-x="520" 
d="M197 -98v480h-171v118h171v210h126v-210h171v-118h-171v-480h-126z" />
    <glyph glyph-name="daggerdbl" unicode="&#x2021;" horiz-adv-x="544" 
d="M506 112h-171v-210h-126v210h-171v118h171v152h-171v118h171v210h126v-210h171v-118h-171v-152h171v-118z" />
    <glyph glyph-name="perthousand" unicode="&#x2030;" horiz-adv-x="1395" 
d="M224 324c-109 0 -197 89 -197 197c0 109 88 197 197 197c108 0 197 -88 197 -197c0 -108 -89 -197 -197 -197zM186 0l450 710h155l-450 -710h-155zM224 450c39 0 69 33 69 71s-30 71 -69 71c-40 0 -70 -33 -70 -71s30 -71 70 -71zM1171 -8c-109 0 -197 89 -197 197
c0 109 88 197 197 197c108 0 197 -88 197 -197c0 -108 -89 -197 -197 -197zM753 -8c-109 0 -197 89 -197 197c0 109 88 197 197 197c108 0 197 -88 197 -197c0 -108 -89 -197 -197 -197zM1171 118c39 0 69 33 69 71s-30 71 -69 71s-70 -33 -70 -71s31 -71 70 -71zM753 118
c39 0 69 33 69 71s-30 71 -69 71s-70 -33 -70 -71s31 -71 70 -71z" />
    <glyph glyph-name="uni2117" unicode="&#x2117;" horiz-adv-x="803" 
d="M401 -12c-201 0 -366 165 -366 367s165 367 366 367c202 0 367 -165 367 -367s-165 -367 -367 -367zM401 76c154 0 279 125 279 279s-125 279 -279 279c-153 0 -278 -125 -278 -279s125 -279 278 -279zM558 412c0 -72 -56 -128 -131 -128h-40v-115h-88v371h128
c75 0 131 -56 131 -128zM474 412c0 26 -21 46 -48 46h-39v-92h39c27 0 48 21 48 46z" />
    <glyph glyph-name="trademark" unicode="&#x2122;" horiz-adv-x="804" 
d="M387 354v356h107l69 -112l69 112h107v-356h-109v167l-67 -107l-67 107v-167h-109zM124 354v243h-93v113h301v-113h-93v-243h-115z" />
    <glyph glyph-name="afii61352" unicode="&#x2116;" horiz-adv-x="1098" 
d="M908 405c-85 0 -154 70 -154 155s69 155 154 155s155 -70 155 -155s-70 -155 -155 -155zM717 0h-137l-346 439v-439h-159v710h137l345 -438v438h160v-710zM909 501c32 0 58 27 58 59s-26 59 -58 59s-58 -27 -58 -59s26 -59 58 -59zM759 263v96h299v-96h-299z" />
    <glyph glyph-name="apple" horiz-adv-x="535" 
d="M234 675l129 48l-131 -252l233 10l-415 -492l242 402l-205 -12zM365 715c3 0 5 -2 5 -5s-2 -5 -5 -5s-5 2 -5 5s2 5 5 5zM375 705c3 0 5 -2 5 -5s-2 -5 -5 -5s-5 2 -5 5s2 5 5 5zM365 705c3 0 5 -2 5 -5s-2 -5 -5 -5s-5 2 -5 5s2 5 5 5zM355 695c3 0 5 -2 5 -5
s-2 -5 -5 -5s-5 2 -5 5s2 5 5 5zM365 695c3 0 5 -2 5 -5s-2 -5 -5 -5s-5 2 -5 5s2 5 5 5zM375 695c3 0 5 -2 5 -5s-2 -5 -5 -5s-5 2 -5 5s2 5 5 5zM385 695c3 0 5 -2 5 -5s-2 -5 -5 -5s-5 2 -5 5s2 5 5 5zM355 685c3 0 5 -2 5 -5s-2 -5 -5 -5s-5 2 -5 5s2 5 5 5zM365 685
c3 0 5 -2 5 -5s-2 -5 -5 -5s-5 2 -5 5s2 5 5 5zM375 685c3 0 5 -2 5 -5s-2 -5 -5 -5s-5 2 -5 5s2 5 5 5zM385 685c3 0 5 -2 5 -5s-2 -5 -5 -5s-5 2 -5 5s2 5 5 5zM355 675c3 0 5 -2 5 -5s-2 -5 -5 -5s-5 2 -5 5s2 5 5 5zM365 675c3 0 5 -2 5 -5s-2 -5 -5 -5s-5 2 -5 5
s2 5 5 5zM375 675c3 0 5 -2 5 -5s-2 -5 -5 -5s-5 2 -5 5s2 5 5 5zM345 675c3 0 5 -2 5 -5s-2 -5 -5 -5s-5 2 -5 5s2 5 5 5zM355 665c3 0 5 -2 5 -5s-2 -5 -5 -5s-5 2 -5 5s2 5 5 5zM365 665c3 0 5 -2 5 -5s-2 -5 -5 -5s-5 2 -5 5s2 5 5 5zM375 665c3 0 5 -2 5 -5
s-2 -5 -5 -5s-5 2 -5 5s2 5 5 5zM345 665c3 0 5 -2 5 -5s-2 -5 -5 -5s-5 2 -5 5s2 5 5 5zM345 655c3 0 5 -2 5 -5s-2 -5 -5 -5s-5 2 -5 5s2 5 5 5zM355 655c3 0 5 -2 5 -5s-2 -5 -5 -5s-5 2 -5 5s2 5 5 5zM365 655c3 0 5 -2 5 -5s-2 -5 -5 -5s-5 2 -5 5s2 5 5 5zM335 655
c3 0 5 -2 5 -5s-2 -5 -5 -5s-5 2 -5 5s2 5 5 5zM355 645c3 0 5 -2 5 -5s-2 -5 -5 -5s-5 2 -5 5s2 5 5 5zM335 645c3 0 5 -2 5 -5s-2 -5 -5 -5s-5 2 -5 5s2 5 5 5zM345 645c3 0 5 -2 5 -5s-2 -5 -5 -5s-5 2 -5 5s2 5 5 5zM355 635c3 0 5 -2 5 -5s-2 -5 -5 -5s-5 2 -5 5
s2 5 5 5zM325 635c3 0 5 -2 5 -5s-2 -5 -5 -5s-5 2 -5 5s2 5 5 5zM335 635c3 0 5 -2 5 -5s-2 -5 -5 -5s-5 2 -5 5s2 5 5 5zM345 635c3 0 5 -2 5 -5s-2 -5 -5 -5s-5 2 -5 5s2 5 5 5zM325 625c3 0 5 -2 5 -5s-2 -5 -5 -5s-5 2 -5 5s2 5 5 5zM335 625c3 0 5 -2 5 -5
s-2 -5 -5 -5s-5 2 -5 5s2 5 5 5zM345 625c3 0 5 -2 5 -5s-2 -5 -5 -5s-5 2 -5 5s2 5 5 5zM315 615c3 0 5 -2 5 -5s-2 -5 -5 -5s-5 2 -5 5s2 5 5 5zM325 615c3 0 5 -2 5 -5s-2 -5 -5 -5s-5 2 -5 5s2 5 5 5zM335 615c3 0 5 -2 5 -5s-2 -5 -5 -5s-5 2 -5 5s2 5 5 5zM345 615
c3 0 5 -2 5 -5s-2 -5 -5 -5s-5 2 -5 5s2 5 5 5zM335 605c3 0 5 -2 5 -5s-2 -5 -5 -5s-5 2 -5 5s2 5 5 5zM305 605c3 0 5 -2 5 -5s-2 -5 -5 -5s-5 2 -5 5s2 5 5 5zM315 605c3 0 5 -2 5 -5s-2 -5 -5 -5s-5 2 -5 5s2 5 5 5zM325 605c3 0 5 -2 5 -5s-2 -5 -5 -5s-5 2 -5 5
s2 5 5 5zM335 595c3 0 5 -2 5 -5s-2 -5 -5 -5s-5 2 -5 5s2 5 5 5zM305 595c3 0 5 -2 5 -5s-2 -5 -5 -5s-5 2 -5 5s2 5 5 5zM315 595c3 0 5 -2 5 -5s-2 -5 -5 -5s-5 2 -5 5s2 5 5 5zM325 595c3 0 5 -2 5 -5s-2 -5 -5 -5s-5 2 -5 5s2 5 5 5zM295 585c3 0 5 -2 5 -5
s-2 -5 -5 -5s-5 2 -5 5s2 5 5 5zM305 585c3 0 5 -2 5 -5s-2 -5 -5 -5s-5 2 -5 5s2 5 5 5zM315 585c3 0 5 -2 5 -5s-2 -5 -5 -5s-5 2 -5 5s2 5 5 5zM325 585c3 0 5 -2 5 -5s-2 -5 -5 -5s-5 2 -5 5s2 5 5 5zM295 575c3 0 5 -2 5 -5s-2 -5 -5 -5s-5 2 -5 5s2 5 5 5zM305 575
c3 0 5 -2 5 -5s-2 -5 -5 -5s-5 2 -5 5s2 5 5 5zM315 575c3 0 5 -2 5 -5s-2 -5 -5 -5s-5 2 -5 5s2 5 5 5zM295 565c3 0 5 -2 5 -5s-2 -5 -5 -5s-5 2 -5 5s2 5 5 5zM305 565c3 0 5 -2 5 -5s-2 -5 -5 -5s-5 2 -5 5s2 5 5 5zM315 565c3 0 5 -2 5 -5s-2 -5 -5 -5s-5 2 -5 5
s2 5 5 5zM285 565c3 0 5 -2 5 -5s-2 -5 -5 -5s-5 2 -5 5s2 5 5 5zM295 555c3 0 5 -2 5 -5s-2 -5 -5 -5s-5 2 -5 5s2 5 5 5zM305 555c3 0 5 -2 5 -5s-2 -5 -5 -5s-5 2 -5 5s2 5 5 5zM285 555c3 0 5 -2 5 -5s-2 -5 -5 -5s-5 2 -5 5s2 5 5 5zM295 545c3 0 5 -2 5 -5
s-2 -5 -5 -5s-5 2 -5 5s2 5 5 5zM305 545c3 0 5 -2 5 -5s-2 -5 -5 -5s-5 2 -5 5s2 5 5 5zM285 545c3 0 5 -2 5 -5s-2 -5 -5 -5s-5 2 -5 5s2 5 5 5zM275 545c3 0 5 -2 5 -5s-2 -5 -5 -5s-5 2 -5 5s2 5 5 5zM285 535c3 0 5 -2 5 -5s-2 -5 -5 -5s-5 2 -5 5s2 5 5 5zM295 535
c3 0 5 -2 5 -5s-2 -5 -5 -5s-5 2 -5 5s2 5 5 5zM275 535c3 0 5 -2 5 -5s-2 -5 -5 -5s-5 2 -5 5s2 5 5 5zM295 525c3 0 5 -2 5 -5s-2 -5 -5 -5s-5 2 -5 5s2 5 5 5zM265 525c3 0 5 -2 5 -5s-2 -5 -5 -5s-5 2 -5 5s2 5 5 5zM275 525c3 0 5 -2 5 -5s-2 -5 -5 -5s-5 2 -5 5
s2 5 5 5zM285 525c3 0 5 -2 5 -5s-2 -5 -5 -5s-5 2 -5 5s2 5 5 5zM285 515c3 0 5 -2 5 -5s-2 -5 -5 -5s-5 2 -5 5s2 5 5 5zM265 515c3 0 5 -2 5 -5s-2 -5 -5 -5s-5 2 -5 5s2 5 5 5zM275 515c3 0 5 -2 5 -5s-2 -5 -5 -5s-5 2 -5 5s2 5 5 5zM255 505c3 0 5 -2 5 -5
s-2 -5 -5 -5s-5 2 -5 5s2 5 5 5zM275 505c3 0 5 -2 5 -5s-2 -5 -5 -5s-5 2 -5 5s2 5 5 5zM285 505c3 0 5 -2 5 -5s-2 -5 -5 -5s-5 2 -5 5s2 5 5 5zM265 505c3 0 5 -2 5 -5s-2 -5 -5 -5s-5 2 -5 5s2 5 5 5zM255 495c3 0 5 -2 5 -5s-2 -5 -5 -5s-5 2 -5 5s2 5 5 5zM265 495
c3 0 5 -2 5 -5s-2 -5 -5 -5s-5 2 -5 5s2 5 5 5zM275 495c3 0 5 -2 5 -5s-2 -5 -5 -5s-5 2 -5 5s2 5 5 5zM275 485c3 0 5 -2 5 -5s-2 -5 -5 -5s-5 2 -5 5s2 5 5 5zM245 485c3 0 5 -2 5 -5s-2 -5 -5 -5s-5 2 -5 5s2 5 5 5zM255 485c3 0 5 -2 5 -5s-2 -5 -5 -5s-5 2 -5 5
s2 5 5 5zM265 485c3 0 5 -2 5 -5s-2 -5 -5 -5s-5 2 -5 5s2 5 5 5zM465 475c3 0 5 -2 5 -5s-2 -5 -5 -5s-5 2 -5 5s2 5 5 5zM475 465c3 0 5 -2 5 -5s-2 -5 -5 -5s-5 2 -5 5s2 5 5 5zM465 465c3 0 5 -2 5 -5s-2 -5 -5 -5s-5 2 -5 5s2 5 5 5zM455 465c3 0 5 -2 5 -5
s-2 -5 -5 -5s-5 2 -5 5s2 5 5 5zM475 455c3 0 5 -2 5 -5s-2 -5 -5 -5s-5 2 -5 5s2 5 5 5zM455 455c3 0 5 -2 5 -5s-2 -5 -5 -5s-5 2 -5 5s2 5 5 5zM465 455c3 0 5 -2 5 -5s-2 -5 -5 -5s-5 2 -5 5s2 5 5 5zM455 445c3 0 5 -2 5 -5s-2 -5 -5 -5s-5 2 -5 5s2 5 5 5zM445 445
c3 0 5 -2 5 -5s-2 -5 -5 -5s-5 2 -5 5s2 5 5 5zM485 445c3 0 5 -2 5 -5s-2 -5 -5 -5s-5 2 -5 5s2 5 5 5zM475 445c3 0 5 -2 5 -5s-2 -5 -5 -5s-5 2 -5 5s2 5 5 5zM465 445c3 0 5 -2 5 -5s-2 -5 -5 -5s-5 2 -5 5s2 5 5 5zM445 435c3 0 5 -2 5 -5s-2 -5 -5 -5s-5 2 -5 5
s2 5 5 5zM485 435c3 0 5 -2 5 -5s-2 -5 -5 -5s-5 2 -5 5s2 5 5 5zM475 435c3 0 5 -2 5 -5s-2 -5 -5 -5s-5 2 -5 5s2 5 5 5zM465 435c3 0 5 -2 5 -5s-2 -5 -5 -5s-5 2 -5 5s2 5 5 5zM455 435c3 0 5 -2 5 -5s-2 -5 -5 -5s-5 2 -5 5s2 5 5 5zM435 435c3 0 5 -2 5 -5
s-2 -5 -5 -5s-5 2 -5 5s2 5 5 5zM465 425c3 0 5 -2 5 -5s-2 -5 -5 -5s-5 2 -5 5s2 5 5 5zM425 425c3 0 5 -2 5 -5s-2 -5 -5 -5s-5 2 -5 5s2 5 5 5zM435 425c3 0 5 -2 5 -5s-2 -5 -5 -5s-5 2 -5 5s2 5 5 5zM445 425c3 0 5 -2 5 -5s-2 -5 -5 -5s-5 2 -5 5s2 5 5 5zM455 425
c3 0 5 -2 5 -5s-2 -5 -5 -5s-5 2 -5 5s2 5 5 5zM475 425c3 0 5 -2 5 -5s-2 -5 -5 -5s-5 2 -5 5s2 5 5 5zM425 415c3 0 5 -2 5 -5s-2 -5 -5 -5s-5 2 -5 5s2 5 5 5zM415 415c3 0 5 -2 5 -5s-2 -5 -5 -5s-5 2 -5 5s2 5 5 5zM465 415c3 0 5 -2 5 -5s-2 -5 -5 -5s-5 2 -5 5
s2 5 5 5zM455 415c3 0 5 -2 5 -5s-2 -5 -5 -5s-5 2 -5 5s2 5 5 5zM445 415c3 0 5 -2 5 -5s-2 -5 -5 -5s-5 2 -5 5s2 5 5 5zM435 415c3 0 5 -2 5 -5s-2 -5 -5 -5s-5 2 -5 5s2 5 5 5zM425 405c3 0 5 -2 5 -5s-2 -5 -5 -5s-5 2 -5 5s2 5 5 5zM415 405c3 0 5 -2 5 -5
s-2 -5 -5 -5s-5 2 -5 5s2 5 5 5zM405 405c3 0 5 -2 5 -5s-2 -5 -5 -5s-5 2 -5 5s2 5 5 5zM455 405c3 0 5 -2 5 -5s-2 -5 -5 -5s-5 2 -5 5s2 5 5 5zM445 405c3 0 5 -2 5 -5s-2 -5 -5 -5s-5 2 -5 5s2 5 5 5zM435 405c3 0 5 -2 5 -5s-2 -5 -5 -5s-5 2 -5 5s2 5 5 5zM425 395
c3 0 5 -2 5 -5s-2 -5 -5 -5s-5 2 -5 5s2 5 5 5zM435 395c3 0 5 -2 5 -5s-2 -5 -5 -5s-5 2 -5 5s2 5 5 5zM405 395c3 0 5 -2 5 -5s-2 -5 -5 -5s-5 2 -5 5s2 5 5 5zM395 395c3 0 5 -2 5 -5s-2 -5 -5 -5s-5 2 -5 5s2 5 5 5zM415 395c3 0 5 -2 5 -5s-2 -5 -5 -5s-5 2 -5 5
s2 5 5 5zM445 395c3 0 5 -2 5 -5s-2 -5 -5 -5s-5 2 -5 5s2 5 5 5zM265 385c3 0 5 -2 5 -5s-2 -5 -5 -5s-5 2 -5 5s2 5 5 5zM255 385c3 0 5 -2 5 -5s-2 -5 -5 -5s-5 2 -5 5s2 5 5 5zM245 385c3 0 5 -2 5 -5s-2 -5 -5 -5s-5 2 -5 5s2 5 5 5zM235 385c3 0 5 -2 5 -5
s-2 -5 -5 -5s-5 2 -5 5s2 5 5 5zM225 385c3 0 5 -2 5 -5s-2 -5 -5 -5s-5 2 -5 5s2 5 5 5zM215 385c3 0 5 -2 5 -5s-2 -5 -5 -5s-5 2 -5 5s2 5 5 5zM205 385c3 0 5 -2 5 -5s-2 -5 -5 -5s-5 2 -5 5s2 5 5 5zM195 385c3 0 5 -2 5 -5s-2 -5 -5 -5s-5 2 -5 5s2 5 5 5zM425 385
c3 0 5 -2 5 -5s-2 -5 -5 -5s-5 2 -5 5s2 5 5 5zM415 385c3 0 5 -2 5 -5s-2 -5 -5 -5s-5 2 -5 5s2 5 5 5zM405 385c3 0 5 -2 5 -5s-2 -5 -5 -5s-5 2 -5 5s2 5 5 5zM395 385c3 0 5 -2 5 -5s-2 -5 -5 -5s-5 2 -5 5s2 5 5 5zM435 385c3 0 5 -2 5 -5s-2 -5 -5 -5s-5 2 -5 5
s2 5 5 5zM275 385c3 0 5 -2 5 -5s-2 -5 -5 -5s-5 2 -5 5s2 5 5 5zM415 375c3 0 5 -2 5 -5s-2 -5 -5 -5s-5 2 -5 5s2 5 5 5zM95 375c3 0 5 -2 5 -5s-2 -5 -5 -5s-5 2 -5 5s2 5 5 5zM105 375c3 0 5 -2 5 -5s-2 -5 -5 -5s-5 2 -5 5s2 5 5 5zM115 375c3 0 5 -2 5 -5s-2 -5 -5 -5
s-5 2 -5 5s2 5 5 5zM125 375c3 0 5 -2 5 -5s-2 -5 -5 -5s-5 2 -5 5s2 5 5 5zM135 375c3 0 5 -2 5 -5s-2 -5 -5 -5s-5 2 -5 5s2 5 5 5zM145 375c3 0 5 -2 5 -5s-2 -5 -5 -5s-5 2 -5 5s2 5 5 5zM385 375c3 0 5 -2 5 -5s-2 -5 -5 -5s-5 2 -5 5s2 5 5 5zM395 375c3 0 5 -2 5 -5
s-2 -5 -5 -5s-5 2 -5 5s2 5 5 5zM155 375c3 0 5 -2 5 -5s-2 -5 -5 -5s-5 2 -5 5s2 5 5 5zM165 375c3 0 5 -2 5 -5s-2 -5 -5 -5s-5 2 -5 5s2 5 5 5zM175 375c3 0 5 -2 5 -5s-2 -5 -5 -5s-5 2 -5 5s2 5 5 5zM185 375c3 0 5 -2 5 -5s-2 -5 -5 -5s-5 2 -5 5s2 5 5 5zM195 375
c3 0 5 -2 5 -5s-2 -5 -5 -5s-5 2 -5 5s2 5 5 5zM205 375c3 0 5 -2 5 -5s-2 -5 -5 -5s-5 2 -5 5s2 5 5 5zM405 375c3 0 5 -2 5 -5s-2 -5 -5 -5s-5 2 -5 5s2 5 5 5zM425 375c3 0 5 -2 5 -5s-2 -5 -5 -5s-5 2 -5 5s2 5 5 5zM215 375c3 0 5 -2 5 -5s-2 -5 -5 -5s-5 2 -5 5
s2 5 5 5zM225 375c3 0 5 -2 5 -5s-2 -5 -5 -5s-5 2 -5 5s2 5 5 5zM235 375c3 0 5 -2 5 -5s-2 -5 -5 -5s-5 2 -5 5s2 5 5 5zM245 375c3 0 5 -2 5 -5s-2 -5 -5 -5s-5 2 -5 5s2 5 5 5zM255 375c3 0 5 -2 5 -5s-2 -5 -5 -5s-5 2 -5 5s2 5 5 5zM265 375c3 0 5 -2 5 -5
s-2 -5 -5 -5s-5 2 -5 5s2 5 5 5zM395 365c3 0 5 -2 5 -5s-2 -5 -5 -5s-5 2 -5 5s2 5 5 5zM415 365c3 0 5 -2 5 -5s-2 -5 -5 -5s-5 2 -5 5s2 5 5 5zM95 365c3 0 5 -2 5 -5s-2 -5 -5 -5s-5 2 -5 5s2 5 5 5zM105 365c3 0 5 -2 5 -5s-2 -5 -5 -5s-5 2 -5 5s2 5 5 5zM115 365
c3 0 5 -2 5 -5s-2 -5 -5 -5s-5 2 -5 5s2 5 5 5zM125 365c3 0 5 -2 5 -5s-2 -5 -5 -5s-5 2 -5 5s2 5 5 5zM405 365c3 0 5 -2 5 -5s-2 -5 -5 -5s-5 2 -5 5s2 5 5 5zM265 365c3 0 5 -2 5 -5s-2 -5 -5 -5s-5 2 -5 5s2 5 5 5zM255 365c3 0 5 -2 5 -5s-2 -5 -5 -5s-5 2 -5 5
s2 5 5 5zM245 365c3 0 5 -2 5 -5s-2 -5 -5 -5s-5 2 -5 5s2 5 5 5zM235 365c3 0 5 -2 5 -5s-2 -5 -5 -5s-5 2 -5 5s2 5 5 5zM225 365c3 0 5 -2 5 -5s-2 -5 -5 -5s-5 2 -5 5s2 5 5 5zM215 365c3 0 5 -2 5 -5s-2 -5 -5 -5s-5 2 -5 5s2 5 5 5zM135 365c3 0 5 -2 5 -5
s-2 -5 -5 -5s-5 2 -5 5s2 5 5 5zM145 365c3 0 5 -2 5 -5s-2 -5 -5 -5s-5 2 -5 5s2 5 5 5zM155 365c3 0 5 -2 5 -5s-2 -5 -5 -5s-5 2 -5 5s2 5 5 5zM165 365c3 0 5 -2 5 -5s-2 -5 -5 -5s-5 2 -5 5s2 5 5 5zM175 365c3 0 5 -2 5 -5s-2 -5 -5 -5s-5 2 -5 5s2 5 5 5zM185 365
c3 0 5 -2 5 -5s-2 -5 -5 -5s-5 2 -5 5s2 5 5 5zM195 365c3 0 5 -2 5 -5s-2 -5 -5 -5s-5 2 -5 5s2 5 5 5zM385 365c3 0 5 -2 5 -5s-2 -5 -5 -5s-5 2 -5 5s2 5 5 5zM375 365c3 0 5 -2 5 -5s-2 -5 -5 -5s-5 2 -5 5s2 5 5 5zM205 365c3 0 5 -2 5 -5s-2 -5 -5 -5s-5 2 -5 5
s2 5 5 5zM365 355c3 0 5 -2 5 -5s-2 -5 -5 -5s-5 2 -5 5s2 5 5 5zM185 355c3 0 5 -2 5 -5s-2 -5 -5 -5s-5 2 -5 5s2 5 5 5zM175 355c3 0 5 -2 5 -5s-2 -5 -5 -5s-5 2 -5 5s2 5 5 5zM165 355c3 0 5 -2 5 -5s-2 -5 -5 -5s-5 2 -5 5s2 5 5 5zM155 355c3 0 5 -2 5 -5
s-2 -5 -5 -5s-5 2 -5 5s2 5 5 5zM375 355c3 0 5 -2 5 -5s-2 -5 -5 -5s-5 2 -5 5s2 5 5 5zM415 355c3 0 5 -2 5 -5s-2 -5 -5 -5s-5 2 -5 5s2 5 5 5zM405 355c3 0 5 -2 5 -5s-2 -5 -5 -5s-5 2 -5 5s2 5 5 5zM145 355c3 0 5 -2 5 -5s-2 -5 -5 -5s-5 2 -5 5s2 5 5 5zM135 355
c3 0 5 -2 5 -5s-2 -5 -5 -5s-5 2 -5 5s2 5 5 5zM125 355c3 0 5 -2 5 -5s-2 -5 -5 -5s-5 2 -5 5s2 5 5 5zM115 355c3 0 5 -2 5 -5s-2 -5 -5 -5s-5 2 -5 5s2 5 5 5zM105 355c3 0 5 -2 5 -5s-2 -5 -5 -5s-5 2 -5 5s2 5 5 5zM395 355c3 0 5 -2 5 -5s-2 -5 -5 -5s-5 2 -5 5
s2 5 5 5zM385 355c3 0 5 -2 5 -5s-2 -5 -5 -5s-5 2 -5 5s2 5 5 5zM405 345c3 0 5 -2 5 -5s-2 -5 -5 -5s-5 2 -5 5s2 5 5 5zM395 345c3 0 5 -2 5 -5s-2 -5 -5 -5s-5 2 -5 5s2 5 5 5zM385 345c3 0 5 -2 5 -5s-2 -5 -5 -5s-5 2 -5 5s2 5 5 5zM375 345c3 0 5 -2 5 -5
s-2 -5 -5 -5s-5 2 -5 5s2 5 5 5zM365 345c3 0 5 -2 5 -5s-2 -5 -5 -5s-5 2 -5 5s2 5 5 5zM355 345c3 0 5 -2 5 -5s-2 -5 -5 -5s-5 2 -5 5s2 5 5 5zM375 335c3 0 5 -2 5 -5s-2 -5 -5 -5s-5 2 -5 5s2 5 5 5zM385 335c3 0 5 -2 5 -5s-2 -5 -5 -5s-5 2 -5 5s2 5 5 5zM395 335
c3 0 5 -2 5 -5s-2 -5 -5 -5s-5 2 -5 5s2 5 5 5zM365 335c3 0 5 -2 5 -5s-2 -5 -5 -5s-5 2 -5 5s2 5 5 5zM355 335c3 0 5 -2 5 -5s-2 -5 -5 -5s-5 2 -5 5s2 5 5 5zM345 335c3 0 5 -2 5 -5s-2 -5 -5 -5s-5 2 -5 5s2 5 5 5zM365 325c3 0 5 -2 5 -5s-2 -5 -5 -5s-5 2 -5 5
s2 5 5 5zM385 325c3 0 5 -2 5 -5s-2 -5 -5 -5s-5 2 -5 5s2 5 5 5zM375 325c3 0 5 -2 5 -5s-2 -5 -5 -5s-5 2 -5 5s2 5 5 5zM345 325c3 0 5 -2 5 -5s-2 -5 -5 -5s-5 2 -5 5s2 5 5 5zM355 325c3 0 5 -2 5 -5s-2 -5 -5 -5s-5 2 -5 5s2 5 5 5zM355 315c3 0 5 -2 5 -5
s-2 -5 -5 -5s-5 2 -5 5s2 5 5 5zM345 315c3 0 5 -2 5 -5s-2 -5 -5 -5s-5 2 -5 5s2 5 5 5zM335 315c3 0 5 -2 5 -5s-2 -5 -5 -5s-5 2 -5 5s2 5 5 5zM365 315c3 0 5 -2 5 -5s-2 -5 -5 -5s-5 2 -5 5s2 5 5 5zM375 315c3 0 5 -2 5 -5s-2 -5 -5 -5s-5 2 -5 5s2 5 5 5zM335 305
c3 0 5 -2 5 -5s-2 -5 -5 -5s-5 2 -5 5s2 5 5 5zM325 305c3 0 5 -2 5 -5s-2 -5 -5 -5s-5 2 -5 5s2 5 5 5zM345 305c3 0 5 -2 5 -5s-2 -5 -5 -5s-5 2 -5 5s2 5 5 5zM355 305c3 0 5 -2 5 -5s-2 -5 -5 -5s-5 2 -5 5s2 5 5 5zM365 305c3 0 5 -2 5 -5s-2 -5 -5 -5s-5 2 -5 5
s2 5 5 5zM315 295c3 0 5 -2 5 -5s-2 -5 -5 -5s-5 2 -5 5s2 5 5 5zM325 295c3 0 5 -2 5 -5s-2 -5 -5 -5s-5 2 -5 5s2 5 5 5zM335 295c3 0 5 -2 5 -5s-2 -5 -5 -5s-5 2 -5 5s2 5 5 5zM345 295c3 0 5 -2 5 -5s-2 -5 -5 -5s-5 2 -5 5s2 5 5 5zM355 295c3 0 5 -2 5 -5
s-2 -5 -5 -5s-5 2 -5 5s2 5 5 5zM335 285c3 0 5 -2 5 -5s-2 -5 -5 -5s-5 2 -5 5s2 5 5 5zM305 285c3 0 5 -2 5 -5s-2 -5 -5 -5s-5 2 -5 5s2 5 5 5zM315 285c3 0 5 -2 5 -5s-2 -5 -5 -5s-5 2 -5 5s2 5 5 5zM325 285c3 0 5 -2 5 -5s-2 -5 -5 -5s-5 2 -5 5s2 5 5 5zM345 285
c3 0 5 -2 5 -5s-2 -5 -5 -5s-5 2 -5 5s2 5 5 5zM315 275c3 0 5 -2 5 -5s-2 -5 -5 -5s-5 2 -5 5s2 5 5 5zM325 275c3 0 5 -2 5 -5s-2 -5 -5 -5s-5 2 -5 5s2 5 5 5zM335 275c3 0 5 -2 5 -5s-2 -5 -5 -5s-5 2 -5 5s2 5 5 5zM295 275c3 0 5 -2 5 -5s-2 -5 -5 -5s-5 2 -5 5
s2 5 5 5zM305 275c3 0 5 -2 5 -5s-2 -5 -5 -5s-5 2 -5 5s2 5 5 5zM315 265c3 0 5 -2 5 -5s-2 -5 -5 -5s-5 2 -5 5s2 5 5 5zM295 265c3 0 5 -2 5 -5s-2 -5 -5 -5s-5 2 -5 5s2 5 5 5zM305 265c3 0 5 -2 5 -5s-2 -5 -5 -5s-5 2 -5 5s2 5 5 5zM325 265c3 0 5 -2 5 -5
s-2 -5 -5 -5s-5 2 -5 5s2 5 5 5zM315 255c3 0 5 -2 5 -5s-2 -5 -5 -5s-5 2 -5 5s2 5 5 5zM305 255c3 0 5 -2 5 -5s-2 -5 -5 -5s-5 2 -5 5s2 5 5 5zM295 255c3 0 5 -2 5 -5s-2 -5 -5 -5s-5 2 -5 5s2 5 5 5zM285 255c3 0 5 -2 5 -5s-2 -5 -5 -5s-5 2 -5 5s2 5 5 5zM305 245
c3 0 5 -2 5 -5s-2 -5 -5 -5s-5 2 -5 5s2 5 5 5zM295 245c3 0 5 -2 5 -5s-2 -5 -5 -5s-5 2 -5 5s2 5 5 5zM285 245c3 0 5 -2 5 -5s-2 -5 -5 -5s-5 2 -5 5s2 5 5 5zM275 245c3 0 5 -2 5 -5s-2 -5 -5 -5s-5 2 -5 5s2 5 5 5zM295 235c3 0 5 -2 5 -5s-2 -5 -5 -5s-5 2 -5 5
s2 5 5 5zM285 235c3 0 5 -2 5 -5s-2 -5 -5 -5s-5 2 -5 5s2 5 5 5zM275 235c3 0 5 -2 5 -5s-2 -5 -5 -5s-5 2 -5 5s2 5 5 5zM265 235c3 0 5 -2 5 -5s-2 -5 -5 -5s-5 2 -5 5s2 5 5 5zM285 225c3 0 5 -2 5 -5s-2 -5 -5 -5s-5 2 -5 5s2 5 5 5zM275 225c3 0 5 -2 5 -5
s-2 -5 -5 -5s-5 2 -5 5s2 5 5 5zM265 225c3 0 5 -2 5 -5s-2 -5 -5 -5s-5 2 -5 5s2 5 5 5zM255 225c3 0 5 -2 5 -5s-2 -5 -5 -5s-5 2 -5 5s2 5 5 5zM285 215c3 0 5 -2 5 -5s-2 -5 -5 -5s-5 2 -5 5s2 5 5 5zM275 215c3 0 5 -2 5 -5s-2 -5 -5 -5s-5 2 -5 5s2 5 5 5zM265 215
c3 0 5 -2 5 -5s-2 -5 -5 -5s-5 2 -5 5s2 5 5 5zM255 215c3 0 5 -2 5 -5s-2 -5 -5 -5s-5 2 -5 5s2 5 5 5zM245 215c3 0 5 -2 5 -5s-2 -5 -5 -5s-5 2 -5 5s2 5 5 5zM275 205c3 0 5 -2 5 -5s-2 -5 -5 -5s-5 2 -5 5s2 5 5 5zM255 205c3 0 5 -2 5 -5s-2 -5 -5 -5s-5 2 -5 5
s2 5 5 5zM235 205c3 0 5 -2 5 -5s-2 -5 -5 -5s-5 2 -5 5s2 5 5 5zM245 205c3 0 5 -2 5 -5s-2 -5 -5 -5s-5 2 -5 5s2 5 5 5zM265 205c3 0 5 -2 5 -5s-2 -5 -5 -5s-5 2 -5 5s2 5 5 5zM255 195c3 0 5 -2 5 -5s-2 -5 -5 -5s-5 2 -5 5s2 5 5 5zM265 195c3 0 5 -2 5 -5
s-2 -5 -5 -5s-5 2 -5 5s2 5 5 5zM235 195c3 0 5 -2 5 -5s-2 -5 -5 -5s-5 2 -5 5s2 5 5 5zM245 195c3 0 5 -2 5 -5s-2 -5 -5 -5s-5 2 -5 5s2 5 5 5zM255 185c3 0 5 -2 5 -5s-2 -5 -5 -5s-5 2 -5 5s2 5 5 5zM235 185c3 0 5 -2 5 -5s-2 -5 -5 -5s-5 2 -5 5s2 5 5 5zM245 185
c3 0 5 -2 5 -5s-2 -5 -5 -5s-5 2 -5 5s2 5 5 5zM225 185c3 0 5 -2 5 -5s-2 -5 -5 -5s-5 2 -5 5s2 5 5 5zM215 175c3 0 5 -2 5 -5s-2 -5 -5 -5s-5 2 -5 5s2 5 5 5zM245 175c3 0 5 -2 5 -5s-2 -5 -5 -5s-5 2 -5 5s2 5 5 5zM235 175c3 0 5 -2 5 -5s-2 -5 -5 -5s-5 2 -5 5
s2 5 5 5zM225 175c3 0 5 -2 5 -5s-2 -5 -5 -5s-5 2 -5 5s2 5 5 5zM235 165c3 0 5 -2 5 -5s-2 -5 -5 -5s-5 2 -5 5s2 5 5 5zM225 165c3 0 5 -2 5 -5s-2 -5 -5 -5s-5 2 -5 5s2 5 5 5zM215 165c3 0 5 -2 5 -5s-2 -5 -5 -5s-5 2 -5 5s2 5 5 5zM205 165c3 0 5 -2 5 -5
s-2 -5 -5 -5s-5 2 -5 5s2 5 5 5zM225 155c3 0 5 -2 5 -5s-2 -5 -5 -5s-5 2 -5 5s2 5 5 5zM215 155c3 0 5 -2 5 -5s-2 -5 -5 -5s-5 2 -5 5s2 5 5 5zM205 155c3 0 5 -2 5 -5s-2 -5 -5 -5s-5 2 -5 5s2 5 5 5zM195 155c3 0 5 -2 5 -5s-2 -5 -5 -5s-5 2 -5 5s2 5 5 5zM195 145
c3 0 5 -2 5 -5s-2 -5 -5 -5s-5 2 -5 5s2 5 5 5zM205 145c3 0 5 -2 5 -5s-2 -5 -5 -5s-5 2 -5 5s2 5 5 5zM215 145c3 0 5 -2 5 -5s-2 -5 -5 -5s-5 2 -5 5s2 5 5 5zM185 145c3 0 5 -2 5 -5s-2 -5 -5 -5s-5 2 -5 5s2 5 5 5zM185 135c3 0 5 -2 5 -5s-2 -5 -5 -5s-5 2 -5 5
s2 5 5 5zM195 135c3 0 5 -2 5 -5s-2 -5 -5 -5s-5 2 -5 5s2 5 5 5zM205 135c3 0 5 -2 5 -5s-2 -5 -5 -5s-5 2 -5 5s2 5 5 5zM175 125c3 0 5 -2 5 -5s-2 -5 -5 -5s-5 2 -5 5s2 5 5 5zM185 125c3 0 5 -2 5 -5s-2 -5 -5 -5s-5 2 -5 5s2 5 5 5zM195 125c3 0 5 -2 5 -5
s-2 -5 -5 -5s-5 2 -5 5s2 5 5 5zM165 115c3 0 5 -2 5 -5s-2 -5 -5 -5s-5 2 -5 5s2 5 5 5zM175 115c3 0 5 -2 5 -5s-2 -5 -5 -5s-5 2 -5 5s2 5 5 5zM185 115c3 0 5 -2 5 -5s-2 -5 -5 -5s-5 2 -5 5s2 5 5 5zM155 105c3 0 5 -2 5 -5s-2 -5 -5 -5s-5 2 -5 5s2 5 5 5zM165 105
c3 0 5 -2 5 -5s-2 -5 -5 -5s-5 2 -5 5s2 5 5 5zM175 105c3 0 5 -2 5 -5s-2 -5 -5 -5s-5 2 -5 5s2 5 5 5zM165 95c3 0 5 -2 5 -5s-2 -5 -5 -5s-5 2 -5 5s2 5 5 5zM155 95c3 0 5 -2 5 -5s-2 -5 -5 -5s-5 2 -5 5s2 5 5 5zM175 95c3 0 5 -2 5 -5s-2 -5 -5 -5s-5 2 -5 5s2 5 5 5z
M145 95c3 0 5 -2 5 -5s-2 -5 -5 -5s-5 2 -5 5s2 5 5 5zM155 85c3 0 5 -2 5 -5s-2 -5 -5 -5s-5 2 -5 5s2 5 5 5zM165 85c3 0 5 -2 5 -5s-2 -5 -5 -5s-5 2 -5 5s2 5 5 5zM135 85c3 0 5 -2 5 -5s-2 -5 -5 -5s-5 2 -5 5s2 5 5 5zM145 85c3 0 5 -2 5 -5s-2 -5 -5 -5s-5 2 -5 5
s2 5 5 5zM135 75c3 0 5 -2 5 -5s-2 -5 -5 -5s-5 2 -5 5s2 5 5 5zM155 75c3 0 5 -2 5 -5s-2 -5 -5 -5s-5 2 -5 5s2 5 5 5zM145 75c3 0 5 -2 5 -5s-2 -5 -5 -5s-5 2 -5 5s2 5 5 5zM125 65c3 0 5 -2 5 -5s-2 -5 -5 -5s-5 2 -5 5s2 5 5 5zM135 65c3 0 5 -2 5 -5s-2 -5 -5 -5
s-5 2 -5 5s2 5 5 5zM145 65c3 0 5 -2 5 -5s-2 -5 -5 -5s-5 2 -5 5s2 5 5 5zM115 55c3 0 5 -2 5 -5s-2 -5 -5 -5s-5 2 -5 5s2 5 5 5zM125 55c3 0 5 -2 5 -5s-2 -5 -5 -5s-5 2 -5 5s2 5 5 5zM135 55c3 0 5 -2 5 -5s-2 -5 -5 -5s-5 2 -5 5s2 5 5 5zM105 45c3 0 5 -2 5 -5
s-2 -5 -5 -5s-5 2 -5 5s2 5 5 5zM125 45c3 0 5 -2 5 -5s-2 -5 -5 -5s-5 2 -5 5s2 5 5 5zM115 45c3 0 5 -2 5 -5s-2 -5 -5 -5s-5 2 -5 5s2 5 5 5zM95 35c3 0 5 -2 5 -5s-2 -5 -5 -5s-5 2 -5 5s2 5 5 5zM105 35c3 0 5 -2 5 -5s-2 -5 -5 -5s-5 2 -5 5s2 5 5 5zM115 35
c3 0 5 -2 5 -5s-2 -5 -5 -5s-5 2 -5 5s2 5 5 5zM95 25c3 0 5 -2 5 -5s-2 -5 -5 -5s-5 2 -5 5s2 5 5 5zM105 25c3 0 5 -2 5 -5s-2 -5 -5 -5s-5 2 -5 5s2 5 5 5zM85 25c3 0 5 -2 5 -5s-2 -5 -5 -5s-5 2 -5 5s2 5 5 5zM75 15c3 0 5 -2 5 -5s-2 -5 -5 -5s-5 2 -5 5s2 5 5 5z
M85 15c3 0 5 -2 5 -5s-2 -5 -5 -5s-5 2 -5 5s2 5 5 5zM95 15c3 0 5 -2 5 -5s-2 -5 -5 -5s-5 2 -5 5s2 5 5 5zM75 5c3 0 5 -2 5 -5s-2 -5 -5 -5s-5 2 -5 5s2 5 5 5zM85 5c3 0 5 -2 5 -5s-2 -5 -5 -5s-5 2 -5 5s2 5 5 5zM65 -5c3 0 5 -2 5 -5s-2 -5 -5 -5s-5 2 -5 5s2 5 5 5z
M75 -5c3 0 5 -2 5 -5s-2 -5 -5 -5s-5 2 -5 5s2 5 5 5zM65 -15c3 0 5 -2 5 -5s-2 -5 -5 -5s-5 2 -5 5s2 5 5 5z" />
    <glyph glyph-name="minus" unicode="&#x2212;" horiz-adv-x="536" 
d="M58 224v131h420v-131h-420z" />
    <glyph glyph-name="uni2007" unicode="&#x2007;" horiz-adv-x="590" 
 />
    <glyph glyph-name="uni2008" unicode="&#x2008;" horiz-adv-x="286" 
 />
    <glyph glyph-name="uni2009" unicode="&#x2009;" horiz-adv-x="125" 
 />
    <glyph glyph-name="uni200B" unicode="&#x200b;" 
 />
    <glyph glyph-name="uni2060" unicode="&#x2060;" horiz-adv-x="216" 
 />
    <glyph glyph-name="uniFEFF" unicode="&#xfeff;" 
 />
    <glyph glyph-name="Euro" unicode="&#x20ac;" horiz-adv-x="840" 
d="M26 265l20 57h55c-1 11 -1 22 -1 33s0 23 1 34h-75l20 57h65c39 163 182 276 359 276c151 0 277 -79 333 -222h-174c-42 54 -93 73 -158 73c-97 0 -169 -51 -201 -127h339l-18 -57h-337c-1 -11 -2 -22 -2 -34c0 -11 1 -22 2 -33h316l-18 -57h-283
c32 -76 105 -128 202 -128c65 0 116 19 158 73h174c-56 -143 -182 -222 -333 -222c-177 0 -321 114 -360 277h-84z" />
    <glyph glyph-name="uniFB00" unicode="&#xfb00;" horiz-adv-x="807" 
d="M118 0v369h-100v131h100v67c0 127 90 189 201 189c40 0 68 -4 90 -11v-133c-7 6 -32 8 -54 8c-61 0 -86 -24 -86 -84v-36h106v-131h-106v-369h-151zM501 0v369h-79v131h79v67c0 127 90 189 201 189c40 0 67 -4 90 -11v-133c-16 6 -32 8 -55 8c-60 0 -85 -24 -85 -84v-36
h140v-131h-140v-369h-151z" />
    <glyph glyph-name="fi" unicode="&#xfb01;" horiz-adv-x="699" 
d="M118 0v369h-100v131h100v55c0 127 90 201 201 201c40 0 68 -4 90 -11v-133c-16 6 -32 9 -54 9c-61 0 -86 -25 -86 -85v-36h140v-131h-140v-369h-151zM561 568c-51 0 -94 42 -94 94s43 94 94 94c53 0 95 -42 95 -94s-42 -94 -95 -94zM486 0v500h151v-500h-151z" />
    <glyph glyph-name="uniFB03" unicode="&#xfb03;" horiz-adv-x="1082" 
d="M944 568c-51 0 -94 42 -94 94s43 94 94 94c53 0 95 -42 95 -94s-42 -94 -95 -94zM118 0v369h-100v131h100v67c0 127 90 189 201 189c40 0 68 -4 90 -11v-133c-7 6 -32 8 -54 8c-61 0 -86 -24 -86 -84v-36h106v-131h-106v-369h-151zM501 0v369h-79v131h79v67
c0 127 90 189 201 189c40 0 67 -4 90 -11v-133c-16 6 -32 8 -55 8c-60 0 -85 -24 -85 -84v-36h140v-131h-140v-369h-151zM869 0v500h151v-500h-151z" />
    <glyph glyph-name="fl" unicode="&#xfb02;" horiz-adv-x="699" 
d="M118 0v369h-100v131h100v55c0 127 90 201 201 201c40 0 68 -4 90 -11v-133c-16 6 -32 9 -54 9c-61 0 -86 -25 -86 -85v-36h140v-131h-140v-369h-151zM486 0v750h151v-750h-151z" />
    <glyph glyph-name="uniFB04" unicode="&#xfb04;" horiz-adv-x="1082" 
d="M118 0v369h-100v131h100v67c0 127 90 189 201 189c40 0 68 -4 90 -11v-133c-7 6 -32 8 -54 8c-61 0 -86 -24 -86 -84v-36h106v-131h-106v-369h-151zM501 0v369h-79v131h79v67c0 127 90 189 201 189c40 0 67 -4 90 -11v-133c-16 6 -32 8 -55 8c-60 0 -85 -24 -85 -84v-36
h140v-131h-140v-369h-151zM869 0v750h151v-750h-151z" />
    <glyph glyph-name="dot" 
d="M0 568c-51 0 -94 42 -94 94s43 94 94 94c53 0 95 -42 95 -94s-42 -94 -95 -94z" />
    <glyph glyph-name="breve" unicode="&#x2d8;" 
d="M0 552c-98 0 -178 70 -178 178v20h86v-20c0 -61 42 -92 92 -92s92 31 92 92v20h86v-20c0 -108 -80 -178 -178 -178z" />
    <glyph glyph-name="caron" unicode="&#x2c7;" 
d="M0 541l-178 97v118l178 -97l178 97v-118z" />
    <glyph glyph-name="circumflex" unicode="&#x2c6;" 
d="M0 756l178 -97v-118l-178 97l-178 -97v118z" />
    <glyph glyph-name="dotaccent" unicode="&#x2d9;" 
d="M0 572c-45 0 -81 36 -81 79c0 45 36 81 81 81c44 0 80 -36 80 -81c0 -43 -36 -79 -80 -79z" />
    <glyph glyph-name="dotaccent.l" 
d="M0 -80c-45 0 -81 36 -81 80c0 45 36 81 81 81c44 0 80 -36 80 -81c0 -44 -36 -80 -80 -80z" />
    <glyph glyph-name="dotaccent.low" 
d="M0 -227c-45 0 -81 36 -81 80s36 80 81 80c44 0 80 -36 80 -80s-36 -80 -80 -80z" />
    <glyph glyph-name="hungarumlaut" unicode="&#x2dd;" 
d="M-18 560l66 190h156l-127 -190h-95zM-204 560l65 190h157l-127 -190h-95z" />
    <glyph glyph-name="commaaccent" unicode="&#xf6c3;" 
d="M-75 -316l44 96c-26 10 -49 38 -49 74c0 44 35 79 80 79c44 0 80 -35 80 -79c0 -18 -6 -36 -16 -52l-75 -118h-64z" />
    <glyph glyph-name="ogonek" unicode="&#x2db;" 
d="M3 -219c-71 0 -111 43 -111 104c0 43 25 86 64 115h151c-50 -20 -85 -50 -85 -86c0 -21 17 -28 36 -28c18 0 40 8 49 14v-90c-16 -12 -59 -29 -104 -29z" />
    <glyph glyph-name="ring" unicode="&#x2da;" 
d="M1 543c-66 0 -122 54 -122 120s56 120 122 120s122 -54 122 -120s-56 -120 -122 -120zM1 608c31 0 56 25 56 55s-25 55 -56 55s-56 -25 -56 -55s25 -55 56 -55z" />
    <glyph glyph-name="tilde" unicode="&#x2dc;" 
d="M-193 565l4 28c11 76 66 117 121 117c62 0 102 -47 133 -47c27 0 36 18 44 48h83l-4 -28c-11 -76 -66 -117 -121 -117c-62 0 -102 47 -133 47c-27 0 -36 -18 -44 -48h-83z" />
    <glyph glyph-name="caron.slovak" 
d="M-85 550l20 160h151l-69 -160h-102z" />
    <glyph glyph-name="commaaccent.top" 
d="M0 572c-44 0 -80 36 -80 79c0 18 6 36 16 52l75 118h64l-44 -96c26 -10 49 -38 49 -74c0 -43 -35 -79 -80 -79z" />
    <glyph glyph-name="dieresis.i" 
d="M-94 572c-44 0 -80 36 -80 79c0 44 36 80 80 80c43 0 79 -36 79 -80c0 -43 -36 -79 -79 -79zM93 572c-43 0 -79 36 -79 79c0 44 36 80 79 80c44 0 80 -36 80 -80c0 -43 -36 -79 -80 -79z" />
    <glyph glyph-name="zero.slashed" horiz-adv-x="633" 
d="M317 -11c-159 0 -269 120 -269 284v165c0 164 110 284 269 284c158 0 268 -120 268 -284v-165c0 -164 -110 -284 -268 -284zM199 438v-87l230 131c-14 58 -56 91 -112 91c-70 0 -118 -50 -118 -135zM317 138c69 0 117 50 117 135v87l-230 -130c13 -59 56 -92 113 -92z
" />
    <glyph glyph-name="one.pof" horiz-adv-x="354" 
d="M138 0v428h-134l105 132h180v-560h-151z" />
    <glyph glyph-name="two.pof" horiz-adv-x="504" 
d="M456 132v-132h-416v44c0 129 98 180 182 239c37 26 80 61 80 104c0 23 -15 51 -50 51c-41 0 -60 -32 -58 -59h-150c0 111 91 191 215 191c100 0 194 -61 194 -179c0 -105 -57 -157 -113 -198c-11 -8 -64 -43 -81 -61h197z" />
    <glyph glyph-name="three.pof" horiz-adv-x="533" 
d="M271 -78c-115 0 -235 73 -241 217h149c7 -57 40 -85 89 -85c43 0 72 29 73 69c1 45 -32 76 -78 76h-56v107h45c41 0 71 28 72 66c1 40 -25 66 -61 66c-43 0 -70 -36 -70 -78h-151c0 133 115 210 229 210c132 0 204 -86 205 -185c0 -61 -33 -110 -61 -135
c36 -19 78 -68 78 -139c0 -110 -94 -189 -222 -189z" />
    <glyph glyph-name="four.pof" horiz-adv-x="564" 
d="M305 -68v136h-289v108l303 384h137v-370h76v-122h-76v-136h-151zM305 190v152l-109 -152h109z" />
    <glyph glyph-name="five.pof" horiz-adv-x="516" 
d="M261 -78c-119 0 -228 79 -234 196h157c7 -37 38 -64 77 -64c47 0 71 35 71 87c0 54 -30 86 -72 86c-31 0 -67 -19 -86 -65l-129 36l73 362h316v-130h-201l-21 -102c20 12 48 20 82 20c107 0 189 -82 189 -207c0 -138 -83 -219 -222 -219z" />
    <glyph glyph-name="six.pof" horiz-adv-x="532" 
d="M265 -11c-138 0 -231 95 -231 205c0 77 25 111 74 183l170 250h181l-146 -215c87 -11 183 -83 183 -204c0 -124 -92 -219 -231 -219zM186 206c0 -52 31 -88 79 -88s79 36 79 88s-31 88 -79 88s-79 -36 -79 -88z" />
    <glyph glyph-name="seven.pof" horiz-adv-x="493" 
d="M194 -68h-171l275 498h-266v130h444v-116z" />
    <glyph glyph-name="eight.pof" horiz-adv-x="558" 
d="M279 -11c-126 0 -241 84 -241 204c0 67 31 116 82 146c-36 31 -57 75 -57 126c0 99 89 172 216 172c125 0 215 -73 215 -172c0 -51 -21 -95 -57 -126c51 -30 83 -79 83 -146c0 -120 -117 -204 -241 -204zM279 385c40 0 69 29 69 67s-29 67 -69 67c-42 0 -70 -29 -70 -67
s28 -67 70 -67zM279 112c49 0 84 37 84 84s-35 84 -84 84c-51 0 -85 -37 -85 -84s34 -84 85 -84z" />
    <glyph glyph-name="nine.pof" horiz-adv-x="532" 
d="M267 570c138 0 231 -95 231 -205c0 -77 -25 -111 -74 -183l-170 -250h-181l146 215c-87 11 -183 83 -183 204c0 124 92 219 231 219zM346 353c0 52 -31 88 -79 88s-79 -36 -79 -88s31 -88 79 -88s79 36 79 88z" />
    <glyph glyph-name="zero.pof" horiz-adv-x="548" 
d="M274 -9c-136 0 -228 97 -228 228v123c0 131 92 228 228 228c135 0 228 -97 228 -228v-123c0 -131 -93 -228 -228 -228zM274 123c46 0 77 36 77 96v123c0 60 -31 95 -77 95s-77 -35 -77 -95v-123c0 -60 31 -96 77 -96z" />
    <glyph glyph-name="zero.slashed.pof" horiz-adv-x="548" 
d="M274 -9c-136 0 -228 97 -228 228v123c0 131 92 228 228 228c135 0 228 -97 228 -228v-123c0 -131 -93 -228 -228 -228zM197 342v-43l148 84c-11 35 -37 54 -71 54c-46 0 -77 -35 -77 -95zM274 123c46 0 77 36 77 96v43l-148 -83c11 -36 37 -56 71 -56z" />
    <glyph glyph-name="one.tlf" horiz-adv-x="590" 
d="M54 0v141h173v420h-149l108 149h192v-569h173v-141h-497z" />
    <glyph glyph-name="two.tlf" horiz-adv-x="590" 
d="M535 149v-149h-490v51c0 161 123 228 227 302c56 40 107 85 107 136c0 46 -27 84 -84 84c-59 0 -97 -42 -96 -89h-151c0 140 108 238 252 238c120 0 230 -75 230 -222c0 -127 -63 -190 -146 -251c-34 -25 -107 -64 -126 -100h277z" />
    <glyph glyph-name="three.tlf" horiz-adv-x="590" 
d="M299 -11c-132 0 -261 82 -267 245h150c7 -65 52 -96 117 -96c58 0 97 32 98 78c1 51 -41 86 -105 86h-62v121h54c63 0 92 32 93 77c1 43 -35 73 -81 73c-60 0 -100 -41 -99 -89h-151c0 151 126 238 250 238c152 0 233 -98 233 -209c0 -69 -37 -124 -74 -153
c48 -23 94 -77 94 -157c0 -125 -100 -214 -250 -214z" />
    <glyph glyph-name="four.tlf" horiz-adv-x="590" 
d="M347 0v154h-347v122l362 434h136v-418h91v-138h-91v-154h-151zM347 292v196l-163 -196h163z" />
    <glyph glyph-name="five.tlf" horiz-adv-x="590" 
d="M294 -11c-131 0 -251 89 -257 221h156c11 -42 52 -72 101 -72c65 0 99 43 99 98c0 56 -42 98 -98 98c-53 0 -91 -31 -105 -74l-131 41l82 409h349v-146h-233l-24 -113c24 12 55 19 91 19c136 0 220 -101 220 -245c0 -147 -98 -236 -250 -236z" />
    <glyph glyph-name="six.tlf" horiz-adv-x="590" 
d="M293 -12c-155 0 -250 107 -250 248c0 71 28 111 84 191l198 282h186l-174 -248c99 -7 206 -85 206 -226c0 -140 -95 -247 -250 -247zM293 133c57 0 98 44 98 100c0 55 -41 100 -98 100c-58 0 -98 -45 -98 -100c0 -56 40 -100 98 -100z" />
    <glyph glyph-name="seven.tlf" horiz-adv-x="590" 
d="M227 0h-171l318 564h-324v146h503v-131z" />
    <glyph glyph-name="eight.tlf" horiz-adv-x="590" 
d="M295 -11c-144 0 -256 95 -256 230c0 77 31 133 85 167c-37 35 -57 84 -57 141c0 112 90 195 228 195s228 -83 228 -195c0 -57 -20 -105 -58 -141c55 -34 86 -90 86 -167c0 -135 -112 -230 -256 -230zM295 437c46 0 82 32 82 76s-36 76 -82 76s-82 -32 -82 -76
s36 -76 82 -76zM295 128c63 0 100 47 100 95s-37 95 -100 95c-64 0 -100 -47 -100 -95s36 -95 100 -95z" />
    <glyph glyph-name="nine.tlf" horiz-adv-x="590" 
d="M78 0l174 249c-98 7 -205 85 -205 226c0 140 95 247 250 247s250 -107 250 -248c0 -71 -28 -111 -84 -191l-199 -283h-186zM297 377c58 0 98 45 98 100c0 56 -40 100 -98 100c-57 0 -98 -44 -98 -100c0 -55 41 -100 98 -100z" />
    <glyph glyph-name="zero.tlf" horiz-adv-x="590" 
d="M295 -11c-159 0 -269 120 -269 284v165c0 164 110 284 269 284c158 0 268 -120 268 -284v-165c0 -164 -110 -284 -268 -284zM295 138c69 0 117 50 117 135v165c0 85 -48 135 -117 135c-70 0 -118 -50 -118 -135v-165c0 -85 48 -135 118 -135z" />
    <glyph glyph-name="zero.slashed.tlf" horiz-adv-x="590" 
d="M295 -11c-159 0 -269 120 -269 284v165c0 164 110 284 269 284c158 0 268 -120 268 -284v-165c0 -164 -110 -284 -268 -284zM177 438v-87l230 131c-14 58 -56 91 -112 91c-70 0 -118 -50 -118 -135zM295 138c69 0 117 50 117 135v87l-230 -130c13 -59 56 -92 113 -92z
" />
    <glyph glyph-name="uni21B2" unicode="&#x21b2;" horiz-adv-x="847" 
d="M345 -57l-306 306l306 306l83 -85l-160 -161h370v401h121v-521h-491l160 -160z" />
    <glyph glyph-name="uni21B3" unicode="&#x21b3;" horiz-adv-x="847" 
d="M502 -57l-83 86l160 160h-491v521h121v-401h370l-160 161l83 85l306 -306z" />
    <glyph glyph-name="uni21B0" unicode="&#x21b0;" horiz-adv-x="837" 
d="M638 -209v398h-370l160 -161l-83 -85l-306 306l306 306l83 -86l-160 -160h491v-518h-121z" />
    <glyph glyph-name="uni21B1" unicode="&#x21b1;" horiz-adv-x="837" 
d="M78 -209v518h491l-160 160l83 86l306 -306l-306 -306l-83 85l160 161h-370v-398h-121z" />
    <glyph glyph-name="uni2190" unicode="&#x2190;" horiz-adv-x="816" 
d="M345 -57l-306 306l306 306l83 -86l-160 -160h491v-120h-491l160 -160z" />
    <glyph glyph-name="uni2191" unicode="&#x2191;" horiz-adv-x="694" 
d="M287 0v493l-160 -161l-86 84l306 306l306 -306l-86 -84l-160 161v-493h-120z" />
    <glyph glyph-name="uni2192" unicode="&#x2192;" horiz-adv-x="816" 
d="M471 -57l-83 85l160 161h-491v120h491l-160 160l83 86l306 -306z" />
    <glyph glyph-name="uni2193" unicode="&#x2193;" horiz-adv-x="690" 
d="M345 -12l-306 306l86 84l160 -161v493h120v-493l160 161l86 -84z" />
    <glyph glyph-name="uni2196" unicode="&#x2196;" horiz-adv-x="719" 
d="M592 -12l-381 380v-229h-120v433h433v-121h-228l380 -379z" />
    <glyph glyph-name="uni2197" unicode="&#x2197;" horiz-adv-x="719" 
d="M127 -12l-84 84l380 379h-228v121h433v-433h-120v229z" />
    <glyph glyph-name="uni2198" unicode="&#x2198;" horiz-adv-x="714" 
d="M196 0v121h228l-380 379l84 84l381 -380v229h120v-433h-433z" />
    <glyph glyph-name="uni2199" unicode="&#x2199;" horiz-adv-x="714" 
d="M586 584l84 -84l-380 -379h228v-121h-433v433h120v-229z" />
    <glyph glyph-name="onethird" unicode="&#x2153;" horiz-adv-x="834" 
d="M100 278v328h-97l73 104h129v-432h-105zM68 0l500 710h128l-500 -710h-128zM654 -7c-78 0 -160 47 -165 153h104c5 -35 27 -49 62 -49c31 0 50 17 50 39c0 24 -21 42 -54 42h-40v82h33c36 0 48 16 48 39c0 21 -16 36 -40 36c-31 0 -50 -23 -49 -44h-105
c0 95 80 148 155 148c99 0 145 -64 145 -130c0 -42 -22 -75 -41 -93c25 -12 53 -43 53 -92c0 -76 -62 -131 -156 -131z" />
    <glyph glyph-name="uni2155" unicode="&#x2155;" horiz-adv-x="820" 
d="M100 278v328h-97l73 104h129v-432h-105zM68 0l500 710h128l-500 -710h-128zM652 -7c-86 0 -161 53 -165 138h108c6 -20 26 -34 52 -34c28 0 48 20 48 49c0 27 -21 48 -48 48c-29 0 -49 -19 -55 -45l-93 28l48 255h219v-102h-138l-10 -50c14 6 31 8 49 8
c83 0 133 -61 133 -149c0 -84 -59 -146 -148 -146z" />
    <glyph glyph-name="uni2159" unicode="&#x2159;" horiz-adv-x="779" 
d="M100 278v328h-97l73 104h129v-432h-105zM68 0l500 710h128l-500 -710h-128zM608 -7c-98 0 -154 69 -154 144c0 52 16 73 52 128l108 167h128l-97 -150c55 -8 117 -51 117 -137s-57 -152 -154 -152zM608 94c28 0 48 22 48 50c0 27 -20 50 -48 50c-30 0 -49 -23 -49 -50
c0 -28 19 -50 49 -50z" />
    <glyph glyph-name="uni2150" unicode="&#x2150;" horiz-adv-x="866" 
d="M100 278v328h-97l73 104h129v-432h-105zM68 0l500 710h128l-500 -710h-128zM661 0h-120l190 330h-188v102h313v-92z" />
    <glyph glyph-name="oneeighth" unicode="&#x215b;" horiz-adv-x="834" 
d="M100 278v328h-97l73 104h129v-432h-105zM68 0l500 710h128l-500 -710h-128zM652 -7c-89 0 -159 59 -159 139c0 42 19 77 51 99c-23 24 -33 57 -33 89c0 61 52 119 141 119c88 0 140 -58 140 -119c0 -32 -10 -64 -33 -89c33 -22 52 -57 52 -99c0 -80 -71 -139 -159 -139z
M652 267c22 0 43 16 43 40s-21 41 -43 41c-24 0 -43 -17 -43 -41s20 -40 43 -40zM652 89c32 0 50 26 50 49c0 22 -18 48 -50 48c-33 0 -51 -26 -51 -48c0 -23 18 -49 51 -49z" />
    <glyph glyph-name="uni2151" unicode="&#x2151;" horiz-adv-x="808" 
d="M100 278v328h-97l73 104h129v-432h-105zM68 0l500 710h128l-500 -710h-128zM507 0l97 150c-55 8 -117 51 -117 137s57 152 154 152c98 0 154 -69 154 -144c0 -52 -16 -73 -52 -128l-108 -167h-128zM641 238c30 0 49 23 49 50c0 28 -19 50 -49 50c-28 0 -48 -22 -48 -50
c0 -27 20 -50 48 -50z" />
    <glyph glyph-name="uni2152" unicode="&#x2152;" horiz-adv-x="1106" 
d="M100 278v328h-97l73 104h129v-432h-105zM68 0l500 710h128l-500 -710h-128zM912 -7c-100 0 -167 75 -167 176v94c0 101 67 176 167 176c98 0 166 -75 166 -176v-94c0 -101 -68 -176 -166 -176zM570 0v328h-97l73 104h129v-432h-105zM912 97c36 0 61 27 61 72v94
c0 46 -25 72 -61 72c-37 0 -62 -26 -62 -72v-94c0 -45 25 -72 62 -72z" />
    <glyph glyph-name="twothirds" unicode="&#x2154;" horiz-adv-x="927" 
d="M327 382v-104h-304v34c0 100 71 142 136 185c29 19 61 50 61 78c0 20 -14 38 -41 38c-32 0 -49 -24 -48 -44h-105c0 86 67 148 157 148c73 0 142 -47 142 -138c0 -82 -41 -124 -85 -153c-11 -7 -53 -31 -65 -44h152zM161 0l500 710h128l-500 -710h-128zM747 -7
c-78 0 -160 47 -165 153h104c5 -35 27 -49 62 -49c31 0 50 17 50 39c0 24 -21 42 -54 42h-40v82h33c36 0 48 16 48 39c0 21 -16 36 -40 36c-31 0 -50 -23 -49 -44h-105c0 95 80 148 155 148c99 0 145 -64 145 -130c0 -42 -22 -75 -41 -93c25 -12 53 -43 53 -92
c0 -76 -62 -131 -156 -131z" />
    <glyph glyph-name="uni2156" unicode="&#x2156;" horiz-adv-x="913" 
d="M327 382v-104h-304v34c0 100 71 142 136 185c29 19 61 50 61 78c0 20 -14 38 -41 38c-32 0 -49 -24 -48 -44h-105c0 86 67 148 157 148c73 0 142 -47 142 -138c0 -82 -41 -124 -85 -153c-11 -7 -53 -31 -65 -44h152zM161 0l500 710h128l-500 -710h-128zM745 -7
c-86 0 -161 53 -165 138h108c6 -20 26 -34 52 -34c28 0 48 20 48 49c0 27 -21 48 -48 48c-29 0 -49 -19 -55 -45l-93 28l48 255h219v-102h-138l-10 -50c14 6 31 8 49 8c83 0 133 -61 133 -149c0 -84 -59 -146 -148 -146z" />
    <glyph glyph-name="uni2157" unicode="&#x2157;" horiz-adv-x="894" 
d="M184 271c-78 0 -160 47 -165 153h104c5 -35 27 -49 62 -49c31 0 50 17 50 39c0 24 -21 42 -54 42h-40v82h33c36 0 48 16 48 39c0 21 -16 36 -40 36c-31 0 -50 -23 -49 -44h-105c0 95 80 148 155 148c99 0 145 -64 145 -130c0 -42 -22 -75 -41 -93c25 -12 53 -43 53 -92
c0 -76 -62 -131 -156 -131zM142 0l500 710h128l-500 -710h-128zM726 -7c-86 0 -161 53 -165 138h108c6 -20 26 -34 52 -34c28 0 48 20 48 49c0 27 -21 48 -48 48c-29 0 -49 -19 -55 -45l-93 28l48 255h219v-102h-138l-10 -50c14 6 31 8 49 8c83 0 133 -61 133 -149
c0 -84 -59 -146 -148 -146z" />
    <glyph glyph-name="threeeighths" unicode="&#x215c;" horiz-adv-x="908" 
d="M184 271c-78 0 -160 47 -165 153h104c5 -35 27 -49 62 -49c31 0 50 17 50 39c0 24 -21 42 -54 42h-40v82h33c36 0 48 16 48 39c0 21 -16 36 -40 36c-31 0 -50 -23 -49 -44h-105c0 95 80 148 155 148c99 0 145 -64 145 -130c0 -42 -22 -75 -41 -93c25 -12 53 -43 53 -92
c0 -76 -62 -131 -156 -131zM142 0l500 710h128l-500 -710h-128zM726 -7c-89 0 -159 59 -159 139c0 42 19 77 51 99c-23 24 -33 57 -33 89c0 61 52 119 141 119c88 0 140 -58 140 -119c0 -32 -10 -64 -33 -89c33 -22 52 -57 52 -99c0 -80 -71 -139 -159 -139zM726 267
c22 0 43 16 43 40s-21 41 -43 41c-24 0 -43 -17 -43 -41s20 -40 43 -40zM726 89c32 0 50 26 50 49c0 22 -18 48 -50 48c-33 0 -51 -26 -51 -48c0 -23 18 -49 51 -49z" />
    <glyph glyph-name="uni2158" unicode="&#x2158;" horiz-adv-x="926" 
d="M219 278v86h-205v85l215 261h95v-251h54v-95h-54v-86h-105zM174 0l500 710h128l-500 -710h-128zM219 459v96l-78 -96h78zM758 -7c-86 0 -161 53 -165 138h108c6 -20 26 -34 52 -34c28 0 48 20 48 49c0 27 -21 48 -48 48c-29 0 -49 -19 -55 -45l-93 28l48 255h219v-102
h-138l-10 -50c14 6 31 8 49 8c83 0 133 -61 133 -149c0 -84 -59 -146 -148 -146z" />
    <glyph glyph-name="uni215A" unicode="&#x215a;" horiz-adv-x="839" 
d="M183 271c-86 0 -161 53 -165 138h108c6 -20 26 -34 52 -34c28 0 48 20 48 49c0 27 -21 48 -48 48c-29 0 -49 -19 -55 -45l-93 28l48 255h219v-102h-138l-10 -50c14 6 31 8 49 8c83 0 133 -61 133 -149c0 -84 -59 -146 -148 -146zM128 0l500 710h128l-500 -710h-128z
M668 -7c-98 0 -154 69 -154 144c0 52 16 73 52 128l108 167h128l-97 -150c55 -8 117 -51 117 -137s-57 -152 -154 -152zM668 94c28 0 48 22 48 50c0 27 -20 50 -48 50c-30 0 -49 -23 -49 -50c0 -28 19 -50 49 -50z" />
    <glyph glyph-name="fiveeighths" unicode="&#x215d;" horiz-adv-x="894" 
d="M183 271c-86 0 -161 53 -165 138h108c6 -20 26 -34 52 -34c28 0 48 20 48 49c0 27 -21 48 -48 48c-29 0 -49 -19 -55 -45l-93 28l48 255h219v-102h-138l-10 -50c14 6 31 8 49 8c83 0 133 -61 133 -149c0 -84 -59 -146 -148 -146zM128 0l500 710h128l-500 -710h-128z
M712 -7c-89 0 -159 59 -159 139c0 42 19 77 51 99c-23 24 -33 57 -33 89c0 61 52 119 141 119c88 0 140 -58 140 -119c0 -32 -10 -64 -33 -89c33 -22 52 -57 52 -99c0 -80 -71 -139 -159 -139zM712 267c22 0 43 16 43 40s-21 41 -43 41c-24 0 -43 -17 -43 -41s20 -40 43 -40
zM712 89c32 0 50 26 50 49c0 22 -18 48 -50 48c-33 0 -51 -26 -51 -48c0 -23 18 -49 51 -49z" />
    <glyph glyph-name="seveneighths" unicode="&#x215e;" horiz-adv-x="833" 
d="M144 278h-120l190 330h-188v102h313v-92zM67 0l500 710h128l-500 -710h-128zM651 -7c-89 0 -159 59 -159 139c0 42 19 77 51 99c-23 24 -33 57 -33 89c0 61 52 119 141 119c88 0 140 -58 140 -119c0 -32 -10 -64 -33 -89c33 -22 52 -57 52 -99c0 -80 -71 -139 -159 -139z
M651 267c22 0 43 16 43 40s-21 41 -43 41c-24 0 -43 -17 -43 -41s20 -40 43 -40zM651 89c32 0 50 26 50 49c0 22 -18 48 -50 48c-33 0 -51 -26 -51 -48c0 -23 18 -49 51 -49z" />
    <glyph glyph-name="uni215F" unicode="&#x215f;" horiz-adv-x="470" 
d="M100 278v328h-97l73 104h129v-432h-105zM68 0l500 710h128l-500 -710h-128z" />
    <glyph glyph-name="fraction" unicode="&#x2044;" horiz-adv-x="180" 
d="M-222 0l500 710h128l-500 -710h-128z" />
    <glyph glyph-name="four.superior" unicode="&#x2074;" horiz-adv-x="396" 
d="M219 410v86h-205v85l215 261h95v-251h54v-95h-54v-86h-105zM219 591v96l-78 -96h78z" />
    <glyph glyph-name="five.superior" unicode="&#x2075;" horiz-adv-x="350" 
d="M183 403c-86 0 -161 53 -165 138h108c6 -20 26 -34 52 -34c28 0 48 20 48 49c0 27 -21 48 -48 48c-29 0 -49 -19 -55 -45l-93 28l48 255h219v-102h-138l-10 -50c14 6 31 8 49 8c83 0 133 -61 133 -149c0 -84 -59 -146 -148 -146z" />
    <glyph glyph-name="six.superior" unicode="&#x2076;" horiz-adv-x="338" 
d="M167 403c-98 0 -154 69 -154 144c0 52 16 73 52 128l108 167h128l-97 -150c55 -8 117 -51 117 -137s-57 -152 -154 -152zM167 504c28 0 48 22 48 50c0 27 -20 50 -48 50c-30 0 -49 -23 -49 -50c0 -28 19 -50 49 -50z" />
    <glyph glyph-name="seven.superior" unicode="&#x2077;" horiz-adv-x="349" 
d="M144 410h-120l190 330h-188v102h313v-92z" />
    <glyph glyph-name="eight.superior" unicode="&#x2078;" horiz-adv-x="364" 
d="M182 403c-89 0 -159 59 -159 139c0 42 19 77 51 99c-23 24 -33 57 -33 89c0 61 52 119 141 119c88 0 140 -58 140 -119c0 -32 -10 -64 -33 -89c33 -22 52 -57 52 -99c0 -80 -71 -139 -159 -139zM182 677c22 0 43 16 43 40s-21 41 -43 41c-24 0 -43 -17 -43 -41
s20 -40 43 -40zM182 499c32 0 50 26 50 49c0 22 -18 48 -50 48c-33 0 -51 -26 -51 -48c0 -23 18 -49 51 -49z" />
    <glyph glyph-name="nine.superior" unicode="&#x2079;" horiz-adv-x="338" 
d="M37 410l97 150c-55 8 -117 51 -117 137s57 152 154 152c98 0 154 -69 154 -144c0 -52 -16 -73 -52 -128l-108 -167h-128zM171 648c30 0 49 23 49 50c0 28 -19 50 -49 50c-28 0 -48 -22 -48 -50c0 -27 20 -50 48 -50z" />
    <glyph glyph-name="zero.superior" unicode="&#x2070;" horiz-adv-x="389" 
d="M195 403c-100 0 -167 75 -167 176v94c0 101 67 176 167 176c98 0 166 -75 166 -176v-94c0 -101 -68 -176 -166 -176zM195 507c36 0 61 27 61 72v94c0 46 -25 72 -61 72c-37 0 -62 -26 -62 -72v-94c0 -45 25 -72 62 -72z" />
    <glyph glyph-name="zero.slashed.superior" horiz-adv-x="389" 
d="M195 403c-100 0 -167 75 -167 176v94c0 101 67 176 167 176c98 0 166 -75 166 -176v-94c0 -101 -68 -176 -166 -176zM133 673v-37l120 64c-8 29 -30 45 -58 45c-37 0 -62 -26 -62 -72zM195 507c36 0 61 27 61 72v39l-120 -64c8 -30 29 -47 59 -47z" />
    <glyph glyph-name="one.inferior" unicode="&#x2081;" horiz-adv-x="247" 
d="M100 -115v328h-97l73 104h129v-432h-105z" />
    <glyph glyph-name="two.inferior" unicode="&#x2082;" horiz-adv-x="356" 
d="M327 -11v-104h-304v34c0 100 71 142 136 185c29 19 61 50 61 78c0 20 -14 38 -41 38c-32 0 -49 -24 -48 -44h-105c0 86 67 148 157 148c73 0 142 -47 142 -138c0 -82 -41 -124 -85 -153c-11 -7 -53 -31 -65 -44h152z" />
    <glyph glyph-name="three.inferior" unicode="&#x2083;" horiz-adv-x="364" 
d="M184 -122c-78 0 -160 47 -165 153h104c5 -35 27 -49 62 -49c31 0 50 17 50 39c0 24 -21 42 -54 42h-40v82h33c36 0 48 16 48 39c0 21 -16 36 -40 36c-31 0 -50 -23 -49 -44h-105c0 95 80 148 155 148c99 0 145 -64 145 -130c0 -42 -22 -75 -41 -93c25 -12 53 -43 53 -92
c0 -76 -62 -131 -156 -131z" />
    <glyph glyph-name="four.inferior" unicode="&#x2084;" horiz-adv-x="396" 
d="M219 -115v86h-205v85l215 261h95v-251h54v-95h-54v-86h-105zM219 66v96l-78 -96h78z" />
    <glyph glyph-name="five.inferior" unicode="&#x2085;" horiz-adv-x="350" 
d="M183 -122c-86 0 -161 53 -165 138h108c6 -20 26 -34 52 -34c28 0 48 20 48 49c0 27 -21 48 -48 48c-29 0 -49 -19 -55 -45l-93 28l48 255h219v-102h-138l-10 -50c14 6 31 8 49 8c83 0 133 -61 133 -149c0 -84 -59 -146 -148 -146z" />
    <glyph glyph-name="six.inferior" unicode="&#x2086;" horiz-adv-x="338" 
d="M167 -122c-98 0 -154 69 -154 144c0 52 16 73 52 128l108 167h128l-97 -150c55 -8 117 -51 117 -137s-57 -152 -154 -152zM167 -21c28 0 48 22 48 50c0 27 -20 50 -48 50c-30 0 -49 -23 -49 -50c0 -28 19 -50 49 -50z" />
    <glyph glyph-name="seven.inferior" unicode="&#x2087;" horiz-adv-x="349" 
d="M144 -115h-120l190 330h-188v102h313v-92z" />
    <glyph glyph-name="eight.inferior" unicode="&#x2088;" horiz-adv-x="364" 
d="M182 -122c-89 0 -159 59 -159 139c0 42 19 77 51 99c-23 24 -33 57 -33 89c0 61 52 119 141 119c88 0 140 -58 140 -119c0 -32 -10 -64 -33 -89c33 -22 52 -57 52 -99c0 -80 -71 -139 -159 -139zM182 152c22 0 43 16 43 40s-21 41 -43 41c-24 0 -43 -17 -43 -41
s20 -40 43 -40zM182 -26c32 0 50 26 50 49c0 22 -18 48 -50 48c-33 0 -51 -26 -51 -48c0 -23 18 -49 51 -49z" />
    <glyph glyph-name="nine.inferior" unicode="&#x2089;" horiz-adv-x="338" 
d="M37 -115l97 150c-55 8 -117 51 -117 137s57 152 154 152c98 0 154 -69 154 -144c0 -52 -16 -73 -52 -128l-108 -167h-128zM171 123c30 0 49 23 49 50c0 28 -19 50 -49 50c-28 0 -48 -22 -48 -50c0 -27 20 -50 48 -50z" />
    <glyph glyph-name="zero.inferior" unicode="&#x2080;" horiz-adv-x="389" 
d="M195 -122c-100 0 -167 75 -167 176v94c0 101 67 176 167 176c98 0 166 -75 166 -176v-94c0 -101 -68 -176 -166 -176zM195 -18c36 0 61 27 61 72v94c0 46 -25 72 -61 72c-37 0 -62 -26 -62 -72v-94c0 -45 25 -72 62 -72z" />
    <glyph glyph-name="zero.slashed.inferior" horiz-adv-x="389" 
d="M195 -122c-100 0 -167 75 -167 176v94c0 101 67 176 167 176c98 0 166 -75 166 -176v-94c0 -101 -68 -176 -166 -176zM133 148v-37l120 64c-8 29 -30 45 -58 45c-37 0 -62 -26 -62 -72zM195 -18c36 0 61 27 61 72v39l-120 -64c8 -30 29 -47 59 -47z" />
    <glyph glyph-name="one.numr" horiz-adv-x="247" 
d="M100 278v328h-97l73 104h129v-432h-105z" />
    <glyph glyph-name="two.numr" horiz-adv-x="356" 
d="M327 382v-104h-304v34c0 100 71 142 136 185c29 19 61 50 61 78c0 20 -14 38 -41 38c-32 0 -49 -24 -48 -44h-105c0 86 67 148 157 148c73 0 142 -47 142 -138c0 -82 -41 -124 -85 -153c-11 -7 -53 -31 -65 -44h152z" />
    <glyph glyph-name="three.numr" horiz-adv-x="364" 
d="M184 271c-78 0 -160 47 -165 153h104c5 -35 27 -49 62 -49c31 0 50 17 50 39c0 24 -21 42 -54 42h-40v82h33c36 0 48 16 48 39c0 21 -16 36 -40 36c-31 0 -50 -23 -49 -44h-105c0 95 80 148 155 148c99 0 145 -64 145 -130c0 -42 -22 -75 -41 -93c25 -12 53 -43 53 -92
c0 -76 -62 -131 -156 -131z" />
    <glyph glyph-name="four.numr" horiz-adv-x="396" 
d="M219 278v86h-205v85l215 261h95v-251h54v-95h-54v-86h-105zM219 459v96l-78 -96h78z" />
    <glyph glyph-name="five.numr" horiz-adv-x="350" 
d="M183 271c-86 0 -161 53 -165 138h108c6 -20 26 -34 52 -34c28 0 48 20 48 49c0 27 -21 48 -48 48c-29 0 -49 -19 -55 -45l-93 28l48 255h219v-102h-138l-10 -50c14 6 31 8 49 8c83 0 133 -61 133 -149c0 -84 -59 -146 -148 -146z" />
    <glyph glyph-name="six.numr" horiz-adv-x="338" 
d="M167 271c-98 0 -154 69 -154 144c0 52 16 73 52 128l108 167h128l-97 -150c55 -8 117 -51 117 -137s-57 -152 -154 -152zM167 372c28 0 48 22 48 50c0 27 -20 50 -48 50c-30 0 -49 -23 -49 -50c0 -28 19 -50 49 -50z" />
    <glyph glyph-name="seven.numr" horiz-adv-x="349" 
d="M144 278h-120l190 330h-188v102h313v-92z" />
    <glyph glyph-name="eight.numr" horiz-adv-x="364" 
d="M182 271c-89 0 -159 59 -159 139c0 42 19 77 51 99c-23 24 -33 57 -33 89c0 61 52 119 141 119c88 0 140 -58 140 -119c0 -32 -10 -64 -33 -89c33 -22 52 -57 52 -99c0 -80 -71 -139 -159 -139zM182 545c22 0 43 16 43 40s-21 41 -43 41c-24 0 -43 -17 -43 -41
s20 -40 43 -40zM182 367c32 0 50 26 50 49c0 22 -18 48 -50 48c-33 0 -51 -26 -51 -48c0 -23 18 -49 51 -49z" />
    <glyph glyph-name="nine.numr" horiz-adv-x="338" 
d="M37 278l97 150c-55 8 -117 51 -117 137s57 152 154 152c98 0 154 -69 154 -144c0 -52 -16 -73 -52 -128l-108 -167h-128zM171 516c30 0 49 23 49 50c0 28 -19 50 -49 50c-28 0 -48 -22 -48 -50c0 -27 20 -50 48 -50z" />
    <glyph glyph-name="zero.numr" horiz-adv-x="389" 
d="M195 271c-100 0 -167 75 -167 176v94c0 101 67 176 167 176c98 0 166 -75 166 -176v-94c0 -101 -68 -176 -166 -176zM195 375c36 0 61 27 61 72v94c0 46 -25 72 -61 72c-37 0 -62 -26 -62 -72v-94c0 -45 25 -72 62 -72z" />
    <glyph glyph-name="zero.slashed.numr" horiz-adv-x="389" 
d="M195 271c-100 0 -167 75 -167 176v94c0 101 67 176 167 176c98 0 166 -75 166 -176v-94c0 -101 -68 -176 -166 -176zM133 541v-37l120 64c-8 29 -30 45 -58 45c-37 0 -62 -26 -62 -72zM195 375c36 0 61 27 61 72v39l-120 -64c8 -30 29 -47 59 -47z" />
    <glyph glyph-name="one.dnom" horiz-adv-x="247" 
d="M100 0v328h-97l73 104h129v-432h-105z" />
    <glyph glyph-name="two.dnom" horiz-adv-x="356" 
d="M327 104v-104h-304v34c0 100 71 142 136 185c29 19 61 50 61 78c0 20 -14 38 -41 38c-32 0 -49 -24 -48 -44h-105c0 86 67 148 157 148c73 0 142 -47 142 -138c0 -82 -41 -124 -85 -153c-11 -7 -53 -31 -65 -44h152z" />
    <glyph glyph-name="three.dnom" horiz-adv-x="364" 
d="M184 -7c-78 0 -160 47 -165 153h104c5 -35 27 -49 62 -49c31 0 50 17 50 39c0 24 -21 42 -54 42h-40v82h33c36 0 48 16 48 39c0 21 -16 36 -40 36c-31 0 -50 -23 -49 -44h-105c0 95 80 148 155 148c99 0 145 -64 145 -130c0 -42 -22 -75 -41 -93c25 -12 53 -43 53 -92
c0 -76 -62 -131 -156 -131z" />
    <glyph glyph-name="four.dnom" horiz-adv-x="396" 
d="M219 0v86h-205v85l215 261h95v-251h54v-95h-54v-86h-105zM219 181v96l-78 -96h78z" />
    <glyph glyph-name="five.dnom" horiz-adv-x="350" 
d="M182 -7c-86 0 -161 53 -165 138h108c6 -20 26 -34 52 -34c28 0 48 20 48 49c0 27 -21 48 -48 48c-29 0 -49 -19 -55 -45l-93 28l48 255h219v-102h-138l-10 -50c14 6 31 8 49 8c83 0 133 -61 133 -149c0 -84 -59 -146 -148 -146z" />
    <glyph glyph-name="six.dnom" horiz-adv-x="338" 
d="M167 -7c-98 0 -154 69 -154 144c0 52 16 73 52 128l108 167h128l-97 -150c55 -8 117 -51 117 -137s-57 -152 -154 -152zM167 94c28 0 48 22 48 50c0 27 -20 50 -48 50c-30 0 -49 -23 -49 -50c0 -28 19 -50 49 -50z" />
    <glyph glyph-name="seven.dnom" horiz-adv-x="349" 
d="M144 0h-120l190 330h-188v102h313v-92z" />
    <glyph glyph-name="eight.dnom" horiz-adv-x="364" 
d="M182 -7c-89 0 -159 59 -159 139c0 42 19 77 51 99c-23 24 -33 57 -33 89c0 61 52 119 141 119c88 0 140 -58 140 -119c0 -32 -10 -64 -33 -89c33 -22 52 -57 52 -99c0 -80 -71 -139 -159 -139zM182 267c22 0 43 16 43 40s-21 41 -43 41c-24 0 -43 -17 -43 -41
s20 -40 43 -40zM182 89c32 0 50 26 50 49c0 22 -18 48 -50 48c-33 0 -51 -26 -51 -48c0 -23 18 -49 51 -49z" />
    <glyph glyph-name="nine.dnom" horiz-adv-x="338" 
d="M37 0l97 150c-55 8 -117 51 -117 137s57 152 154 152c98 0 154 -69 154 -144c0 -52 -16 -73 -52 -128l-108 -167h-128zM171 238c30 0 49 23 49 50c0 28 -19 50 -49 50c-28 0 -48 -22 -48 -50c0 -27 20 -50 48 -50z" />
    <glyph glyph-name="zero.dnom" horiz-adv-x="389" 
d="M195 -7c-100 0 -167 75 -167 176v94c0 101 67 176 167 176c98 0 166 -75 166 -176v-94c0 -101 -68 -176 -166 -176zM195 97c36 0 61 27 61 72v94c0 46 -25 72 -61 72c-37 0 -62 -26 -62 -72v-94c0 -45 25 -72 62 -72z" />
    <glyph glyph-name="zero.slashed.dnom" horiz-adv-x="389" 
d="M195 -7c-100 0 -167 75 -167 176v94c0 101 67 176 167 176c98 0 166 -75 166 -176v-94c0 -101 -68 -176 -166 -176zM133 263v-37l120 64c-8 29 -30 45 -58 45c-37 0 -62 -26 -62 -72zM195 97c36 0 61 27 61 72v39l-120 -64c8 -30 29 -47 59 -47z" />
    <glyph glyph-name="hyphen.case" horiz-adv-x="410" 
d="M58 283v144h294v-144h-294z" />
    <glyph glyph-name="uni00AD.case" horiz-adv-x="410" 
d="M58 283v144h294v-144h-294z" />
    <glyph glyph-name="endash.case" horiz-adv-x="599" 
d="M58 283v144h483v-144h-483z" />
    <glyph glyph-name="emdash.case" horiz-adv-x="955" 
d="M58 283v144h839v-144h-839z" />
    <glyph glyph-name="questiondown.case" horiz-adv-x="523" 
d="M289 508c-59 0 -107 48 -107 107s48 107 107 107s107 -48 107 -107s-48 -107 -107 -107zM363 447v-19c0 -60 -30 -97 -85 -135c-44 -29 -88 -45 -88 -93c0 -41 33 -63 73 -63c41 0 82 26 82 78h151c0 -125 -103 -227 -233 -227c-132 0 -224 97 -224 203
c0 69 16 121 86 173c53 40 87 58 87 82v1h151z" />
    <glyph glyph-name="exclamdown.case" horiz-adv-x="302" 
d="M151 508c-59 0 -107 48 -107 107s48 107 107 107s107 -48 107 -107s-48 -107 -107 -107zM197 447l30 -184v-263h-152v263l29 184h93z" />
    <glyph glyph-name="guilsinglleft.case" horiz-adv-x="352" 
d="M31 355l141 217h131l-116 -217l116 -217h-131z" />
    <glyph glyph-name="guilsinglright.case" horiz-adv-x="352" 
d="M321 355l-141 -217h-131l116 217l-116 217h131z" />
    <glyph glyph-name="guillemotleft.case" horiz-adv-x="563" 
d="M242 355l141 217h131l-116 -217l116 -217h-131zM31 355l141 217h131l-116 -217l116 -217h-131z" />
    <glyph glyph-name="guillemotright.case" horiz-adv-x="563" 
d="M532 355l-141 -217h-131l116 217l-116 217h131zM321 355l-141 -217h-131l116 217l-116 217h131z" />
    <glyph glyph-name="parenleft.case" horiz-adv-x="308" 
d="M168 -125c-86 156 -128 315 -128 480s42 324 128 480h119c-85 -165 -121 -316 -121 -480s36 -315 121 -480h-119z" />
    <glyph glyph-name="parenright.case" horiz-adv-x="308" 
d="M140 -125h-119c85 165 121 316 121 480s-36 315 -121 480h119c86 -156 128 -315 128 -480s-42 -324 -128 -480z" />
    <glyph glyph-name="bracketleft.case" horiz-adv-x="340" 
d="M75 -125v960h230v-108h-104v-744h104v-108h-230z" />
    <glyph glyph-name="bracketright.case" horiz-adv-x="340" 
d="M265 -125h-230v108h104v744h-104v108h230v-960z" />
    <glyph glyph-name="braceleft.case" horiz-adv-x="355" 
d="M233 -125c-87 0 -143 56 -143 142v229c0 29 -14 55 -53 55h-8v108h8c39 0 53 24 53 53v231c0 86 56 142 143 142h88v-108h-48c-41 0 -56 -15 -56 -57v-217c0 -58 -27 -89 -63 -98c36 -9 63 -43 63 -101v-214c0 -42 15 -57 56 -57h48v-108h-88z" />
    <glyph glyph-name="braceright.case" horiz-adv-x="355" 
d="M122 -125h-88v108h48c41 0 56 15 56 57v214c0 58 27 92 63 101c-36 9 -63 40 -63 98v217c0 42 -15 57 -56 57h-48v108h88c87 0 143 -56 143 -142v-231c0 -29 14 -53 53 -53h8v-108h-8c-39 0 -53 -26 -53 -55v-229c0 -86 -56 -142 -143 -142z" />
    <glyph glyph-name="bar.case" horiz-adv-x="276" 
d="M75 -55v820h126v-820h-126z" />
    <glyph glyph-name="brokenbar.case" horiz-adv-x="276" 
d="M75 422v343h126v-343h-126zM75 -55v343h126v-343h-126z" />
    <glyph glyph-name="periodcentered.case" horiz-adv-x="300" 
d="M150 248c-59 0 -107 48 -107 107s48 107 107 107s107 -48 107 -107s-48 -107 -107 -107z" />
    <glyph glyph-name="plus.case" horiz-adv-x="498" 
d="M39 289v131h145v145h130v-145h145v-131h-145v-145h-130v145h-145z" />
    <glyph glyph-name="minus.case" horiz-adv-x="538" 
d="M59 289v131h420v-131h-420z" />
    <glyph glyph-name="multiply.case" horiz-adv-x="521" 
d="M138 140l-92 92l123 123l-123 123l92 92l123 -122l123 122l91 -92l-122 -123l122 -123l-91 -92l-123 122z" />
    <glyph glyph-name="equal.case" horiz-adv-x="536" 
d="M58 393v131h420v-131h-420zM58 185v130h420v-130h-420z" />
    <glyph glyph-name="less.case" horiz-adv-x="509" 
d="M472 608l-253 -253l253 -253h-188l-253 253l253 253h188z" />
    <glyph glyph-name="greater.case" horiz-adv-x="509" 
d="M478 355l-253 -253h-188l253 253l-253 253h188z" />
    <glyph glyph-name="acute.case" 
d="M-118 770l70 157h166l-125 -157h-111z" />
    <glyph glyph-name="breve.case" 
d="M0 747c-98 0 -178 70 -178 180h86c0 -62 42 -93 92 -93s92 31 92 93h86c0 -110 -80 -180 -178 -180z" />
    <glyph glyph-name="caron.case" 
d="M0 762l-176 68v118l176 -68l176 68v-118z" />
    <glyph glyph-name="cedilla.case" 
d="M-121 -139c21 -12 52 -17 76 -17c26 0 60 4 60 31c0 19 -18 27 -43 27c-11 0 -27 -3 -40 -10l-36 19l56 92h64l-30 -50c17 4 29 7 49 7c48 0 86 -29 86 -79c0 -61 -69 -100 -138 -100c-29 0 -70 2 -104 15v65z" />
    <glyph glyph-name="circumflex.case" 
d="M-176 762v118l176 68l176 -68v-118l-176 68z" />
    <glyph glyph-name="dieresis.case" 
d="M-118 768c-45 0 -81 37 -81 80c0 45 36 81 81 81c43 0 79 -36 79 -81c0 -43 -36 -80 -79 -80zM119 768c-44 0 -80 37 -80 80c0 45 36 81 80 81s80 -36 80 -81c0 -43 -36 -80 -80 -80z" />
    <glyph glyph-name="dotaccent.case" 
d="M0 768c-45 0 -81 37 -81 80c0 45 36 81 81 81c44 0 80 -36 80 -81c0 -43 -36 -80 -80 -80z" />
    <glyph glyph-name="dotaccent.L.case" 
d="M0 -80c-45 0 -81 36 -81 80c0 45 36 81 81 81c44 0 80 -36 80 -81c0 -44 -36 -80 -80 -80z" />
    <glyph glyph-name="dotaccent.low.case" 
d="M0 -227c-45 0 -81 36 -81 80s36 80 81 80c44 0 80 -36 80 -80s-36 -80 -80 -80z" />
    <glyph glyph-name="commaaccent.case" 
d="M-75 -316l44 96c-26 10 -49 38 -49 74c0 44 35 79 80 79c44 0 80 -35 80 -79c0 -18 -6 -36 -16 -52l-75 -118h-64z" />
    <glyph glyph-name="grave.case" 
d="M118 770h-111l-125 157h166z" />
    <glyph glyph-name="hungarumlaut.case" 
d="M-18 770l66 157h156l-127 -157h-95zM-204 770l65 157h157l-127 -157h-95z" />
    <glyph glyph-name="macron.case" 
d="M-174 787v104h348v-104h-348z" />
    <glyph glyph-name="ogonek.case" 
d="M3 -219c-71 0 -115 43 -115 103c0 45 25 87 64 116h159c-50 -20 -85 -50 -85 -82c0 -17 18 -23 36 -23s40 7 49 14v-99c-16 -12 -58 -29 -108 -29z" />
    <glyph glyph-name="ring.case" 
d="M1 753c-66 0 -122 54 -122 120s56 120 122 120s122 -54 122 -120s-56 -120 -122 -120zM1 818c31 0 56 25 56 55s-25 55 -56 55s-56 -25 -56 -55s25 -55 56 -55z" />
    <glyph glyph-name="tilde.case" 
d="M-193 776l4 28c11 76 66 117 121 117c62 0 102 -47 133 -47c27 0 36 18 44 48h83l-4 -28c-11 -76 -66 -117 -122 -117c-62 0 -102 47 -132 47c-27 0 -36 -18 -45 -48h-82z" />
    <glyph glyph-name="uni0414.loclBGR" horiz-adv-x="762" 
d="M20 -148v300h74l215 558h144l215 -558h74v-300h-143v148h-436v-148h-143zM259 152h244l-122 326z" />
    <glyph glyph-name="uni041B.loclBGR" horiz-adv-x="750" 
d="M-1 0l304 710h144l304 -710h-166l-210 491l-210 -491h-166z" />
    <glyph glyph-name="uni043B.loclBGR" horiz-adv-x="576" 
d="M218 500h140l219 -500h-168l-121 303l-122 -303h-167z" />
    </font>
</defs>
</svg>
